G04 #@! TF.GenerationSoftware,KiCad,Pcbnew,7.0.1*
G04 #@! TF.CreationDate,2023-05-03T08:49:02+02:00*
G04 #@! TF.ProjectId,Dual_BPF,4475616c-5f42-4504-962e-6b696361645f,rev?*
G04 #@! TF.SameCoordinates,Original*
G04 #@! TF.FileFunction,Soldermask,Bot*
G04 #@! TF.FilePolarity,Negative*
%FSLAX46Y46*%
G04 Gerber Fmt 4.6, Leading zero omitted, Abs format (unit mm)*
G04 Created by KiCad (PCBNEW 7.0.1) date 2023-05-03 08:49:02*
%MOMM*%
%LPD*%
G01*
G04 APERTURE LIST*
G04 Aperture macros list*
%AMRoundRect*
0 Rectangle with rounded corners*
0 $1 Rounding radius*
0 $2 $3 $4 $5 $6 $7 $8 $9 X,Y pos of 4 corners*
0 Add a 4 corners polygon primitive as box body*
4,1,4,$2,$3,$4,$5,$6,$7,$8,$9,$2,$3,0*
0 Add four circle primitives for the rounded corners*
1,1,$1+$1,$2,$3*
1,1,$1+$1,$4,$5*
1,1,$1+$1,$6,$7*
1,1,$1+$1,$8,$9*
0 Add four rect primitives between the rounded corners*
20,1,$1+$1,$2,$3,$4,$5,0*
20,1,$1+$1,$4,$5,$6,$7,0*
20,1,$1+$1,$6,$7,$8,$9,0*
20,1,$1+$1,$8,$9,$2,$3,0*%
G04 Aperture macros list end*
%ADD10RoundRect,0.250500X-0.499500X0.499500X-0.499500X-0.499500X0.499500X-0.499500X0.499500X0.499500X0*%
%ADD11C,1.500000*%
%ADD12C,1.998980*%
%ADD13C,2.499360*%
%ADD14RoundRect,0.250500X0.499500X-0.499500X0.499500X0.499500X-0.499500X0.499500X-0.499500X-0.499500X0*%
%ADD15C,5.500000*%
%ADD16RoundRect,0.250000X-0.600000X0.600000X-0.600000X-0.600000X0.600000X-0.600000X0.600000X0.600000X0*%
%ADD17C,1.700000*%
%ADD18RoundRect,0.250000X-0.337500X-0.475000X0.337500X-0.475000X0.337500X0.475000X-0.337500X0.475000X0*%
%ADD19RoundRect,0.250000X0.337500X0.475000X-0.337500X0.475000X-0.337500X-0.475000X0.337500X-0.475000X0*%
%ADD20RoundRect,0.218750X0.381250X-0.218750X0.381250X0.218750X-0.381250X0.218750X-0.381250X-0.218750X0*%
%ADD21RoundRect,0.218750X-0.381250X0.218750X-0.381250X-0.218750X0.381250X-0.218750X0.381250X0.218750X0*%
%ADD22RoundRect,0.250000X0.475000X-0.337500X0.475000X0.337500X-0.475000X0.337500X-0.475000X-0.337500X0*%
%ADD23RoundRect,0.250000X-0.350000X-0.450000X0.350000X-0.450000X0.350000X0.450000X-0.350000X0.450000X0*%
%ADD24RoundRect,0.250000X0.350000X0.450000X-0.350000X0.450000X-0.350000X-0.450000X0.350000X-0.450000X0*%
G04 APERTURE END LIST*
D10*
X95660000Y-78000000D03*
D11*
X90580000Y-78000000D03*
X88040000Y-78000000D03*
X85500000Y-78000000D03*
X85500000Y-83080000D03*
X88040000Y-83080000D03*
X90580000Y-83080000D03*
X95660000Y-83080000D03*
D10*
X95660000Y-90920000D03*
D11*
X90580000Y-90920000D03*
X88040000Y-90920000D03*
X85500000Y-90920000D03*
X85500000Y-96000000D03*
X88040000Y-96000000D03*
X90580000Y-96000000D03*
X95660000Y-96000000D03*
D10*
X95660000Y-62000000D03*
D11*
X90580000Y-62000000D03*
X88040000Y-62000000D03*
X85500000Y-62000000D03*
X85500000Y-67080000D03*
X88040000Y-67080000D03*
X90580000Y-67080000D03*
X95660000Y-67080000D03*
D12*
X54500000Y-114000000D03*
D13*
X51960000Y-111460000D03*
X51960000Y-116540000D03*
X57040000Y-111460000D03*
X57040000Y-116540000D03*
D14*
X46340000Y-59080000D03*
D11*
X51420000Y-59080000D03*
X53960000Y-59080000D03*
X56500000Y-59080000D03*
X56500000Y-54000000D03*
X53960000Y-54000000D03*
X51420000Y-54000000D03*
X46340000Y-54000000D03*
D10*
X64000000Y-100250000D03*
D11*
X58920000Y-100250000D03*
X56380000Y-100250000D03*
X53840000Y-100250000D03*
X53840000Y-105330000D03*
X56380000Y-105330000D03*
X58920000Y-105330000D03*
X64000000Y-105330000D03*
D10*
X95660000Y-38000000D03*
D11*
X90580000Y-38000000D03*
X88040000Y-38000000D03*
X85500000Y-38000000D03*
X85500000Y-43080000D03*
X88040000Y-43080000D03*
X90580000Y-43080000D03*
X95660000Y-43080000D03*
D15*
X99500000Y-113000000D03*
X100000000Y-31500000D03*
D14*
X46340000Y-83080000D03*
D11*
X51420000Y-83080000D03*
X53960000Y-83080000D03*
X56500000Y-83080000D03*
X56500000Y-78000000D03*
X53960000Y-78000000D03*
X51420000Y-78000000D03*
X46340000Y-78000000D03*
D15*
X42500000Y-31500000D03*
X42500000Y-113000000D03*
D16*
X95000000Y-103000000D03*
D17*
X95000000Y-105540000D03*
X92460000Y-103000000D03*
X92460000Y-105540000D03*
X89920000Y-103000000D03*
X89920000Y-105540000D03*
X87380000Y-103000000D03*
X87380000Y-105540000D03*
X84840000Y-103000000D03*
X84840000Y-105540000D03*
D12*
X72460000Y-113960000D03*
D13*
X69920000Y-111420000D03*
X69920000Y-116500000D03*
X75000000Y-111420000D03*
X75000000Y-116500000D03*
D10*
X95660000Y-70000000D03*
D11*
X90580000Y-70000000D03*
X88040000Y-70000000D03*
X85500000Y-70000000D03*
X85500000Y-75080000D03*
X88040000Y-75080000D03*
X90580000Y-75080000D03*
X95660000Y-75080000D03*
D14*
X46340000Y-67080000D03*
D11*
X51420000Y-67080000D03*
X53960000Y-67080000D03*
X56500000Y-67080000D03*
X56500000Y-62000000D03*
X53960000Y-62000000D03*
X51420000Y-62000000D03*
X46340000Y-62000000D03*
D10*
X95660000Y-54000000D03*
D11*
X90580000Y-54000000D03*
X88040000Y-54000000D03*
X85500000Y-54000000D03*
X85500000Y-59080000D03*
X88040000Y-59080000D03*
X90580000Y-59080000D03*
X95660000Y-59080000D03*
D14*
X46340000Y-43080000D03*
D11*
X51420000Y-43080000D03*
X53960000Y-43080000D03*
X56500000Y-43080000D03*
X56500000Y-38000000D03*
X53960000Y-38000000D03*
X51420000Y-38000000D03*
X46340000Y-38000000D03*
D14*
X46340000Y-51080000D03*
D11*
X51420000Y-51080000D03*
X53960000Y-51080000D03*
X56500000Y-51080000D03*
X56500000Y-46000000D03*
X53960000Y-46000000D03*
X51420000Y-46000000D03*
X46340000Y-46000000D03*
D10*
X95660000Y-46000000D03*
D11*
X90580000Y-46000000D03*
X88040000Y-46000000D03*
X85500000Y-46000000D03*
X85500000Y-51080000D03*
X88040000Y-51080000D03*
X90580000Y-51080000D03*
X95660000Y-51080000D03*
D14*
X46340000Y-75080000D03*
D11*
X51420000Y-75080000D03*
X53960000Y-75080000D03*
X56500000Y-75080000D03*
X56500000Y-70000000D03*
X53960000Y-70000000D03*
X51420000Y-70000000D03*
X46340000Y-70000000D03*
D14*
X46222500Y-95967500D03*
D11*
X51302500Y-95967500D03*
X53842500Y-95967500D03*
X56382500Y-95967500D03*
X56382500Y-90887500D03*
X53842500Y-90887500D03*
X51302500Y-90887500D03*
X46222500Y-90887500D03*
D18*
X47462500Y-91000000D03*
X49537500Y-91000000D03*
X47962500Y-70000000D03*
X50037500Y-70000000D03*
D19*
X94037500Y-38000000D03*
X91962500Y-38000000D03*
X94037500Y-51000000D03*
X91962500Y-51000000D03*
D20*
X97750000Y-48062500D03*
X97750000Y-45937500D03*
X97750000Y-64062500D03*
X97750000Y-61937500D03*
D18*
X47962500Y-83000000D03*
X50037500Y-83000000D03*
D21*
X44000000Y-57437500D03*
X44000000Y-59562500D03*
D19*
X94037500Y-75000000D03*
X91962500Y-75000000D03*
D18*
X47962500Y-78000000D03*
X50037500Y-78000000D03*
D21*
X43750000Y-93937500D03*
X43750000Y-96062500D03*
D19*
X94037500Y-62000000D03*
X91962500Y-62000000D03*
D21*
X44000000Y-73437500D03*
X44000000Y-75562500D03*
D18*
X47962500Y-51000000D03*
X50037500Y-51000000D03*
D21*
X44000000Y-65437500D03*
X44000000Y-67562500D03*
D18*
X47962500Y-62000000D03*
X50037500Y-62000000D03*
D20*
X44000000Y-43562500D03*
X44000000Y-41437500D03*
D18*
X47962500Y-46000000D03*
X50037500Y-46000000D03*
D19*
X94037500Y-59000000D03*
X91962500Y-59000000D03*
D20*
X98000000Y-56062500D03*
X98000000Y-53937500D03*
X98000000Y-40062500D03*
X98000000Y-37937500D03*
D19*
X94037500Y-67000000D03*
X91962500Y-67000000D03*
D20*
X97750000Y-93062500D03*
X97750000Y-90937500D03*
D19*
X94037500Y-54000000D03*
X91962500Y-54000000D03*
D22*
X66500000Y-102037500D03*
X66500000Y-99962500D03*
D18*
X47962500Y-96000000D03*
X50037500Y-96000000D03*
D22*
X66500000Y-106287500D03*
X66500000Y-104212500D03*
D18*
X47962500Y-59000000D03*
X50037500Y-59000000D03*
X47962500Y-54000000D03*
X50037500Y-54000000D03*
D19*
X94037500Y-83000000D03*
X91962500Y-83000000D03*
D18*
X47962500Y-38000000D03*
X50037500Y-38000000D03*
D21*
X44000000Y-48937500D03*
X44000000Y-51062500D03*
D18*
X47962500Y-75000000D03*
X50037500Y-75000000D03*
D19*
X94037500Y-43000000D03*
X91962500Y-43000000D03*
D18*
X47962500Y-67000000D03*
X50037500Y-67000000D03*
D19*
X94037500Y-78000000D03*
X91962500Y-78000000D03*
D23*
X50750000Y-104000000D03*
X52750000Y-104000000D03*
D20*
X98000000Y-72062500D03*
X98000000Y-69937500D03*
D19*
X94037500Y-96000000D03*
X91962500Y-96000000D03*
D21*
X44000000Y-81437500D03*
X44000000Y-83562500D03*
D19*
X94037500Y-46000000D03*
X91962500Y-46000000D03*
X94075000Y-91000000D03*
X92000000Y-91000000D03*
D18*
X47962500Y-43000000D03*
X50037500Y-43000000D03*
D19*
X94037500Y-70000000D03*
X91962500Y-70000000D03*
D24*
X52750000Y-101750000D03*
X50750000Y-101750000D03*
D20*
X97750000Y-80062500D03*
X97750000Y-77937500D03*
M02*
