G04 #@! TF.GenerationSoftware,KiCad,Pcbnew,7.0.1*
G04 #@! TF.CreationDate,2023-04-17T14:19:34+02:00*
G04 #@! TF.ProjectId,Dual_BPF,4475616c-5f42-4504-962e-6b696361645f,rev?*
G04 #@! TF.SameCoordinates,Original*
G04 #@! TF.FileFunction,Copper,L2,Bot*
G04 #@! TF.FilePolarity,Positive*
%FSLAX46Y46*%
G04 Gerber Fmt 4.6, Leading zero omitted, Abs format (unit mm)*
G04 Created by KiCad (PCBNEW 7.0.1) date 2023-04-17 14:19:34*
%MOMM*%
%LPD*%
G01*
G04 APERTURE LIST*
G04 Aperture macros list*
%AMRoundRect*
0 Rectangle with rounded corners*
0 $1 Rounding radius*
0 $2 $3 $4 $5 $6 $7 $8 $9 X,Y pos of 4 corners*
0 Add a 4 corners polygon primitive as box body*
4,1,4,$2,$3,$4,$5,$6,$7,$8,$9,$2,$3,0*
0 Add four circle primitives for the rounded corners*
1,1,$1+$1,$2,$3*
1,1,$1+$1,$4,$5*
1,1,$1+$1,$6,$7*
1,1,$1+$1,$8,$9*
0 Add four rect primitives between the rounded corners*
20,1,$1+$1,$2,$3,$4,$5,0*
20,1,$1+$1,$4,$5,$6,$7,0*
20,1,$1+$1,$6,$7,$8,$9,0*
20,1,$1+$1,$8,$9,$2,$3,0*%
G04 Aperture macros list end*
G04 #@! TA.AperFunction,ComponentPad*
%ADD10RoundRect,0.250500X-0.499500X0.499500X-0.499500X-0.499500X0.499500X-0.499500X0.499500X0.499500X0*%
G04 #@! TD*
G04 #@! TA.AperFunction,ComponentPad*
%ADD11C,1.500000*%
G04 #@! TD*
G04 #@! TA.AperFunction,ComponentPad*
%ADD12C,1.998980*%
G04 #@! TD*
G04 #@! TA.AperFunction,ComponentPad*
%ADD13C,2.499360*%
G04 #@! TD*
G04 #@! TA.AperFunction,ComponentPad*
%ADD14RoundRect,0.250500X0.499500X-0.499500X0.499500X0.499500X-0.499500X0.499500X-0.499500X-0.499500X0*%
G04 #@! TD*
G04 #@! TA.AperFunction,ComponentPad*
%ADD15C,5.500000*%
G04 #@! TD*
G04 #@! TA.AperFunction,ComponentPad*
%ADD16RoundRect,0.250000X-0.600000X0.600000X-0.600000X-0.600000X0.600000X-0.600000X0.600000X0.600000X0*%
G04 #@! TD*
G04 #@! TA.AperFunction,ComponentPad*
%ADD17C,1.700000*%
G04 #@! TD*
G04 #@! TA.AperFunction,SMDPad,CuDef*
%ADD18RoundRect,0.250000X-0.337500X-0.475000X0.337500X-0.475000X0.337500X0.475000X-0.337500X0.475000X0*%
G04 #@! TD*
G04 #@! TA.AperFunction,SMDPad,CuDef*
%ADD19RoundRect,0.250000X0.337500X0.475000X-0.337500X0.475000X-0.337500X-0.475000X0.337500X-0.475000X0*%
G04 #@! TD*
G04 #@! TA.AperFunction,SMDPad,CuDef*
%ADD20RoundRect,0.218750X0.381250X-0.218750X0.381250X0.218750X-0.381250X0.218750X-0.381250X-0.218750X0*%
G04 #@! TD*
G04 #@! TA.AperFunction,SMDPad,CuDef*
%ADD21RoundRect,0.218750X-0.381250X0.218750X-0.381250X-0.218750X0.381250X-0.218750X0.381250X0.218750X0*%
G04 #@! TD*
G04 #@! TA.AperFunction,SMDPad,CuDef*
%ADD22RoundRect,0.250000X0.475000X-0.337500X0.475000X0.337500X-0.475000X0.337500X-0.475000X-0.337500X0*%
G04 #@! TD*
G04 #@! TA.AperFunction,SMDPad,CuDef*
%ADD23RoundRect,0.250000X-0.350000X-0.450000X0.350000X-0.450000X0.350000X0.450000X-0.350000X0.450000X0*%
G04 #@! TD*
G04 #@! TA.AperFunction,SMDPad,CuDef*
%ADD24RoundRect,0.250000X0.350000X0.450000X-0.350000X0.450000X-0.350000X-0.450000X0.350000X-0.450000X0*%
G04 #@! TD*
G04 #@! TA.AperFunction,ViaPad*
%ADD25C,0.500000*%
G04 #@! TD*
G04 #@! TA.AperFunction,Conductor*
%ADD26C,0.800000*%
G04 #@! TD*
G04 #@! TA.AperFunction,Conductor*
%ADD27C,0.400000*%
G04 #@! TD*
G04 #@! TA.AperFunction,Conductor*
%ADD28C,0.250000*%
G04 #@! TD*
G04 #@! TA.AperFunction,Conductor*
%ADD29C,1.500000*%
G04 #@! TD*
G04 APERTURE END LIST*
D10*
X95660000Y-78000000D03*
D11*
X90580000Y-78000000D03*
X88040000Y-78000000D03*
X85500000Y-78000000D03*
X85500000Y-83080000D03*
X88040000Y-83080000D03*
X90580000Y-83080000D03*
X95660000Y-83080000D03*
D10*
X95660000Y-90920000D03*
D11*
X90580000Y-90920000D03*
X88040000Y-90920000D03*
X85500000Y-90920000D03*
X85500000Y-96000000D03*
X88040000Y-96000000D03*
X90580000Y-96000000D03*
X95660000Y-96000000D03*
D10*
X95660000Y-62000000D03*
D11*
X90580000Y-62000000D03*
X88040000Y-62000000D03*
X85500000Y-62000000D03*
X85500000Y-67080000D03*
X88040000Y-67080000D03*
X90580000Y-67080000D03*
X95660000Y-67080000D03*
D12*
X54500000Y-114000000D03*
D13*
X51960000Y-111460000D03*
X51960000Y-116540000D03*
X57040000Y-111460000D03*
X57040000Y-116540000D03*
D14*
X46340000Y-59080000D03*
D11*
X51420000Y-59080000D03*
X53960000Y-59080000D03*
X56500000Y-59080000D03*
X56500000Y-54000000D03*
X53960000Y-54000000D03*
X51420000Y-54000000D03*
X46340000Y-54000000D03*
D10*
X64000000Y-100250000D03*
D11*
X58920000Y-100250000D03*
X56380000Y-100250000D03*
X53840000Y-100250000D03*
X53840000Y-105330000D03*
X56380000Y-105330000D03*
X58920000Y-105330000D03*
X64000000Y-105330000D03*
D10*
X95660000Y-38000000D03*
D11*
X90580000Y-38000000D03*
X88040000Y-38000000D03*
X85500000Y-38000000D03*
X85500000Y-43080000D03*
X88040000Y-43080000D03*
X90580000Y-43080000D03*
X95660000Y-43080000D03*
D15*
X99500000Y-113000000D03*
X100000000Y-31500000D03*
D14*
X46340000Y-83080000D03*
D11*
X51420000Y-83080000D03*
X53960000Y-83080000D03*
X56500000Y-83080000D03*
X56500000Y-78000000D03*
X53960000Y-78000000D03*
X51420000Y-78000000D03*
X46340000Y-78000000D03*
D15*
X42500000Y-31500000D03*
X42500000Y-113000000D03*
D16*
X95000000Y-103000000D03*
D17*
X95000000Y-105540000D03*
X92460000Y-103000000D03*
X92460000Y-105540000D03*
X89920000Y-103000000D03*
X89920000Y-105540000D03*
X87380000Y-103000000D03*
X87380000Y-105540000D03*
X84840000Y-103000000D03*
X84840000Y-105540000D03*
D12*
X72460000Y-113960000D03*
D13*
X69920000Y-111420000D03*
X69920000Y-116500000D03*
X75000000Y-111420000D03*
X75000000Y-116500000D03*
D10*
X95660000Y-70000000D03*
D11*
X90580000Y-70000000D03*
X88040000Y-70000000D03*
X85500000Y-70000000D03*
X85500000Y-75080000D03*
X88040000Y-75080000D03*
X90580000Y-75080000D03*
X95660000Y-75080000D03*
D14*
X46340000Y-67080000D03*
D11*
X51420000Y-67080000D03*
X53960000Y-67080000D03*
X56500000Y-67080000D03*
X56500000Y-62000000D03*
X53960000Y-62000000D03*
X51420000Y-62000000D03*
X46340000Y-62000000D03*
D10*
X95660000Y-54000000D03*
D11*
X90580000Y-54000000D03*
X88040000Y-54000000D03*
X85500000Y-54000000D03*
X85500000Y-59080000D03*
X88040000Y-59080000D03*
X90580000Y-59080000D03*
X95660000Y-59080000D03*
D14*
X46340000Y-43080000D03*
D11*
X51420000Y-43080000D03*
X53960000Y-43080000D03*
X56500000Y-43080000D03*
X56500000Y-38000000D03*
X53960000Y-38000000D03*
X51420000Y-38000000D03*
X46340000Y-38000000D03*
D14*
X46340000Y-51080000D03*
D11*
X51420000Y-51080000D03*
X53960000Y-51080000D03*
X56500000Y-51080000D03*
X56500000Y-46000000D03*
X53960000Y-46000000D03*
X51420000Y-46000000D03*
X46340000Y-46000000D03*
D10*
X95660000Y-46000000D03*
D11*
X90580000Y-46000000D03*
X88040000Y-46000000D03*
X85500000Y-46000000D03*
X85500000Y-51080000D03*
X88040000Y-51080000D03*
X90580000Y-51080000D03*
X95660000Y-51080000D03*
D14*
X46340000Y-75080000D03*
D11*
X51420000Y-75080000D03*
X53960000Y-75080000D03*
X56500000Y-75080000D03*
X56500000Y-70000000D03*
X53960000Y-70000000D03*
X51420000Y-70000000D03*
X46340000Y-70000000D03*
D14*
X46222500Y-95967500D03*
D11*
X51302500Y-95967500D03*
X53842500Y-95967500D03*
X56382500Y-95967500D03*
X56382500Y-90887500D03*
X53842500Y-90887500D03*
X51302500Y-90887500D03*
X46222500Y-90887500D03*
D18*
X47462500Y-91000000D03*
X49537500Y-91000000D03*
X47962500Y-70000000D03*
X50037500Y-70000000D03*
D19*
X94037500Y-38000000D03*
X91962500Y-38000000D03*
X94037500Y-51000000D03*
X91962500Y-51000000D03*
D20*
X97750000Y-48062500D03*
X97750000Y-45937500D03*
X97750000Y-64062500D03*
X97750000Y-61937500D03*
D18*
X47962500Y-83000000D03*
X50037500Y-83000000D03*
D21*
X44000000Y-57437500D03*
X44000000Y-59562500D03*
D19*
X94037500Y-75000000D03*
X91962500Y-75000000D03*
D18*
X47962500Y-78000000D03*
X50037500Y-78000000D03*
D21*
X43750000Y-93937500D03*
X43750000Y-96062500D03*
D19*
X94037500Y-62000000D03*
X91962500Y-62000000D03*
D21*
X44000000Y-73437500D03*
X44000000Y-75562500D03*
D18*
X47962500Y-51000000D03*
X50037500Y-51000000D03*
D21*
X44000000Y-65437500D03*
X44000000Y-67562500D03*
D18*
X47962500Y-62000000D03*
X50037500Y-62000000D03*
D20*
X44000000Y-43562500D03*
X44000000Y-41437500D03*
D18*
X47962500Y-46000000D03*
X50037500Y-46000000D03*
D19*
X94037500Y-59000000D03*
X91962500Y-59000000D03*
D20*
X98000000Y-56062500D03*
X98000000Y-53937500D03*
X98000000Y-40062500D03*
X98000000Y-37937500D03*
D19*
X94037500Y-67000000D03*
X91962500Y-67000000D03*
D20*
X97750000Y-93062500D03*
X97750000Y-90937500D03*
D19*
X94037500Y-54000000D03*
X91962500Y-54000000D03*
D22*
X66500000Y-102037500D03*
X66500000Y-99962500D03*
D18*
X47962500Y-96000000D03*
X50037500Y-96000000D03*
D22*
X66500000Y-106287500D03*
X66500000Y-104212500D03*
D18*
X47962500Y-59000000D03*
X50037500Y-59000000D03*
X47962500Y-54000000D03*
X50037500Y-54000000D03*
D19*
X94037500Y-83000000D03*
X91962500Y-83000000D03*
D18*
X47962500Y-38000000D03*
X50037500Y-38000000D03*
D21*
X44000000Y-48937500D03*
X44000000Y-51062500D03*
D18*
X47962500Y-75000000D03*
X50037500Y-75000000D03*
D19*
X94037500Y-43000000D03*
X91962500Y-43000000D03*
D18*
X47962500Y-67000000D03*
X50037500Y-67000000D03*
D19*
X94037500Y-78000000D03*
X91962500Y-78000000D03*
D23*
X50750000Y-104000000D03*
X52750000Y-104000000D03*
D20*
X98000000Y-72062500D03*
X98000000Y-69937500D03*
D19*
X94037500Y-96000000D03*
X91962500Y-96000000D03*
D21*
X44000000Y-81437500D03*
X44000000Y-83562500D03*
D19*
X94037500Y-46000000D03*
X91962500Y-46000000D03*
X94075000Y-91000000D03*
X92000000Y-91000000D03*
D18*
X47962500Y-43000000D03*
X50037500Y-43000000D03*
D19*
X94037500Y-70000000D03*
X91962500Y-70000000D03*
D24*
X52750000Y-101750000D03*
X50750000Y-101750000D03*
D20*
X97750000Y-80062500D03*
X97750000Y-77937500D03*
D25*
X76000000Y-51500000D03*
X67500000Y-94000000D03*
X43500000Y-108000000D03*
X58500000Y-63000000D03*
X66000000Y-51500000D03*
X58500000Y-37000000D03*
X61500000Y-76500000D03*
X100750000Y-33500000D03*
X59500000Y-82000000D03*
X72750000Y-33500000D03*
X54500000Y-85000000D03*
X42500000Y-107000000D03*
X83500000Y-67000000D03*
X62000000Y-59500000D03*
X83500000Y-74000000D03*
X82000000Y-51500000D03*
X69500000Y-82000000D03*
X88750000Y-33500000D03*
X60500000Y-74000000D03*
X58500000Y-43000000D03*
X58000000Y-43500000D03*
X60500000Y-42000000D03*
X77500000Y-106000000D03*
X83500000Y-47000000D03*
X40750000Y-61440000D03*
X89500000Y-73000000D03*
X40750000Y-79220000D03*
X74500000Y-109000000D03*
X102500000Y-94960000D03*
X48750000Y-33500000D03*
X58500000Y-67000000D03*
X40750000Y-71600000D03*
X49000000Y-105000000D03*
X72000000Y-59500000D03*
X83000000Y-76500000D03*
X64500000Y-97850500D03*
X71000000Y-81000000D03*
X61500000Y-94000000D03*
X89500000Y-42000000D03*
X102500000Y-92420000D03*
X80500000Y-103000000D03*
X59500000Y-58000000D03*
X76000000Y-59500000D03*
X89500000Y-63000000D03*
X58500000Y-85000000D03*
X87500000Y-85000000D03*
X83500000Y-37000000D03*
X40750000Y-48740000D03*
X75500000Y-76500000D03*
X52500000Y-65000000D03*
X63500000Y-94000000D03*
X68000000Y-76500000D03*
X40750000Y-81760000D03*
X40750000Y-86840000D03*
X102500000Y-49240000D03*
X83500000Y-51000000D03*
X52500000Y-82000000D03*
X72500000Y-75000000D03*
X85000000Y-116500000D03*
X80000000Y-59500000D03*
X58500000Y-38000000D03*
X89500000Y-41000000D03*
X58500000Y-62000000D03*
X40750000Y-51280000D03*
X58500000Y-84000000D03*
X61500000Y-75000000D03*
X52500000Y-48000000D03*
X60500000Y-58000000D03*
X89500000Y-74000000D03*
X102500000Y-44160000D03*
X74500000Y-37000000D03*
X55500000Y-107000000D03*
X49000000Y-107000000D03*
X47000000Y-109000000D03*
X60000000Y-67500000D03*
X102500000Y-77180000D03*
X74000000Y-43500000D03*
X40750000Y-66520000D03*
X40750000Y-99540000D03*
X59500000Y-55000000D03*
X77500000Y-94000000D03*
X60500000Y-78000000D03*
X52500000Y-93000000D03*
X75500000Y-104000000D03*
X59500000Y-63000000D03*
X89500000Y-71000000D03*
X78000000Y-59500000D03*
X76500000Y-107000000D03*
X58500000Y-51000000D03*
X70000000Y-59500000D03*
X52500000Y-80000000D03*
X102500000Y-89880000D03*
X83500000Y-70000000D03*
X81000000Y-116500000D03*
X67000000Y-76500000D03*
X52500000Y-66000000D03*
X89500000Y-81000000D03*
X92750000Y-33500000D03*
X59500000Y-42000000D03*
X102500000Y-54320000D03*
X62000000Y-51500000D03*
X40750000Y-104620000D03*
X83500000Y-58000000D03*
X52500000Y-42000000D03*
X40750000Y-58900000D03*
X102500000Y-100040000D03*
X71500000Y-108000000D03*
X66000000Y-43500000D03*
X83500000Y-78000000D03*
X60500000Y-50000000D03*
X76500000Y-103000000D03*
X78000000Y-43500000D03*
X52500000Y-73000000D03*
X77000000Y-76500000D03*
X44000000Y-97500000D03*
X64000000Y-51500000D03*
X52500000Y-55000000D03*
X52500000Y-79000000D03*
X41500000Y-106000000D03*
X81500000Y-76500000D03*
X52500000Y-95000000D03*
X75500000Y-108000000D03*
X68000000Y-59500000D03*
X59500000Y-66000000D03*
X60000000Y-51500000D03*
X82500000Y-75000000D03*
X102500000Y-67020000D03*
X52500000Y-97800000D03*
X101000000Y-116500000D03*
X79500000Y-94000000D03*
X60500000Y-94000000D03*
X40750000Y-74140000D03*
X68000000Y-51500000D03*
X40750000Y-36040000D03*
X40750000Y-38580000D03*
X102500000Y-46700000D03*
X46000000Y-106000000D03*
X102500000Y-102580000D03*
X80500000Y-97850500D03*
X76500000Y-97850500D03*
X40750000Y-89380000D03*
X60500000Y-55000000D03*
X78500000Y-97850500D03*
X40750000Y-41120000D03*
X84000000Y-43500000D03*
X58500000Y-50000000D03*
X40750000Y-69060000D03*
X58500000Y-54000000D03*
X74500000Y-97850500D03*
X74000000Y-59500000D03*
X70000000Y-67500000D03*
X58500000Y-82000000D03*
X87500000Y-87000000D03*
X49000000Y-116500000D03*
X102500000Y-107660000D03*
X52500000Y-72000000D03*
X40750000Y-94460000D03*
X40750000Y-53820000D03*
X58500000Y-66000000D03*
X89500000Y-94000000D03*
X70500000Y-97850500D03*
X89500000Y-93000000D03*
X80000000Y-51500000D03*
X75500000Y-75000000D03*
X52500000Y-81000000D03*
X64000000Y-67500000D03*
X102500000Y-36540000D03*
X58500000Y-86000000D03*
X64500000Y-75000000D03*
X54500000Y-87000000D03*
X59500000Y-93000000D03*
X56750000Y-33500000D03*
X84750000Y-33500000D03*
X84000000Y-59500000D03*
X68750000Y-33500000D03*
X89500000Y-50000000D03*
X66000000Y-59500000D03*
X52500000Y-71000000D03*
X51500000Y-107000000D03*
X102500000Y-79720000D03*
X69500000Y-75000000D03*
X52500000Y-50000000D03*
X58500000Y-92000000D03*
X76000000Y-67500000D03*
X52500000Y-58000000D03*
X102500000Y-59400000D03*
X82000000Y-43500000D03*
X77500000Y-102000000D03*
X77000000Y-79500000D03*
X70000000Y-43500000D03*
X58500000Y-55000000D03*
X89500000Y-47000000D03*
X93000000Y-116500000D03*
X73500000Y-94000000D03*
X58500000Y-42000000D03*
X54500000Y-86000000D03*
X83500000Y-38000000D03*
X45000000Y-116500000D03*
X69500000Y-81000000D03*
X77000000Y-116500000D03*
X72000000Y-51500000D03*
X89500000Y-95000000D03*
X59500000Y-50000000D03*
X82500000Y-92000000D03*
X40750000Y-102080000D03*
X89500000Y-65000000D03*
X89500000Y-56000000D03*
X102500000Y-51780000D03*
X40750000Y-63980000D03*
X52500000Y-56000000D03*
X60500000Y-97800000D03*
X52500000Y-41000000D03*
X60750000Y-33500000D03*
X52750000Y-33500000D03*
X68500000Y-37000000D03*
X102500000Y-69560000D03*
X84000000Y-51500000D03*
X40750000Y-56360000D03*
X79500000Y-104000000D03*
X84000000Y-67500000D03*
X59500000Y-71000000D03*
X58500000Y-46000000D03*
X60500000Y-63000000D03*
X59500000Y-46000000D03*
X59500000Y-37000000D03*
X49000000Y-102500000D03*
X63000000Y-75000000D03*
X51500000Y-109000000D03*
X86500000Y-97000000D03*
X40750000Y-43660000D03*
X52500000Y-64000000D03*
X81000000Y-75000000D03*
X74500000Y-105000000D03*
X78000000Y-67500000D03*
X58500000Y-87000000D03*
X49000000Y-109000000D03*
X80000000Y-67500000D03*
X72500000Y-107000000D03*
X58500000Y-96000000D03*
X72500000Y-97850500D03*
X62000000Y-67500000D03*
X52500000Y-47000000D03*
X60500000Y-100000000D03*
X52500000Y-57000000D03*
X58500000Y-70000000D03*
X40750000Y-46200000D03*
X102500000Y-82260000D03*
X71000000Y-75000000D03*
X102500000Y-105120000D03*
X65500000Y-94000000D03*
X58500000Y-109000000D03*
X58500000Y-59000000D03*
X83500000Y-66000000D03*
X89500000Y-82000000D03*
X61000000Y-116500000D03*
X68000000Y-43500000D03*
X58500000Y-78000000D03*
X49000000Y-100000000D03*
X52500000Y-40000000D03*
X83500000Y-54000000D03*
X89500000Y-92000000D03*
X59500000Y-74000000D03*
X58500000Y-75000000D03*
X52500000Y-49000000D03*
X83500000Y-71000000D03*
X66500000Y-97850500D03*
X58500000Y-74000000D03*
X58500000Y-97800000D03*
X83500000Y-42000000D03*
X74000000Y-75000000D03*
X102500000Y-97500000D03*
X53500000Y-109000000D03*
X60500000Y-104000000D03*
X83500000Y-43000000D03*
X89500000Y-39000000D03*
X76000000Y-43500000D03*
X80000000Y-43500000D03*
X64000000Y-59500000D03*
X83500000Y-46000000D03*
X80000000Y-76500000D03*
X83500000Y-62000000D03*
X78500000Y-105000000D03*
X102500000Y-84800000D03*
X71500000Y-94000000D03*
X67500000Y-37000000D03*
X89500000Y-79000000D03*
X40750000Y-97000000D03*
X52500000Y-92000000D03*
X60500000Y-46000000D03*
X82000000Y-67500000D03*
X81500000Y-102000000D03*
X69500000Y-94000000D03*
X72000000Y-67500000D03*
X44000000Y-100000000D03*
X44000000Y-102500000D03*
X44500000Y-104500000D03*
X83500000Y-59000000D03*
X89500000Y-49000000D03*
X75500000Y-94000000D03*
X54200000Y-97800000D03*
X74000000Y-67500000D03*
X83500000Y-50000000D03*
X83500000Y-84000000D03*
X60500000Y-71000000D03*
X52500000Y-39000000D03*
X52500000Y-63000000D03*
X83500000Y-92000000D03*
X89500000Y-57000000D03*
X102500000Y-41620000D03*
X72000000Y-43500000D03*
X40750000Y-91920000D03*
X89500000Y-48000000D03*
X83500000Y-75000000D03*
X71000000Y-82000000D03*
X68000000Y-67500000D03*
X102500000Y-74640000D03*
X89500000Y-58000000D03*
X66500000Y-37000000D03*
X75500000Y-79500000D03*
X89500000Y-64000000D03*
X82000000Y-59500000D03*
X59500000Y-78000000D03*
X66000000Y-75000000D03*
X83500000Y-82000000D03*
X83500000Y-55000000D03*
X60000000Y-75000000D03*
X62500000Y-97850500D03*
X73500000Y-106000000D03*
X58500000Y-83000000D03*
X89000000Y-116500000D03*
X49000000Y-97800000D03*
X53500000Y-107000000D03*
X89500000Y-66000000D03*
X83500000Y-96000000D03*
X60000000Y-43500000D03*
X102500000Y-61940000D03*
X80500000Y-93000000D03*
X60000000Y-76500000D03*
X52500000Y-74000000D03*
X66000000Y-67500000D03*
X82500000Y-37000000D03*
X64000000Y-43500000D03*
X102500000Y-56860000D03*
X58500000Y-58000000D03*
X40750000Y-76680000D03*
X58500000Y-71000000D03*
X40750000Y-84300000D03*
X89500000Y-40000000D03*
X78500000Y-76500000D03*
X78000000Y-51500000D03*
X60500000Y-66000000D03*
X96750000Y-33500000D03*
X97000000Y-116500000D03*
X61500000Y-78000000D03*
X60500000Y-106000000D03*
X70000000Y-51500000D03*
X68500000Y-97850500D03*
X60500000Y-37000000D03*
X80750000Y-33500000D03*
X89500000Y-80000000D03*
X45000000Y-109000000D03*
X89500000Y-72000000D03*
X52500000Y-94000000D03*
X74000000Y-51500000D03*
X102500000Y-64480000D03*
X64750000Y-33500000D03*
X76750000Y-33500000D03*
X65000000Y-116500000D03*
X102500000Y-72100000D03*
X60000000Y-59500000D03*
X102500000Y-39080000D03*
X62000000Y-43500000D03*
X89500000Y-55000000D03*
X102500000Y-87340000D03*
X60500000Y-102000000D03*
X82500000Y-97000000D03*
X49250000Y-108000000D03*
X84000000Y-99500000D03*
X42250000Y-88000000D03*
X85000000Y-99500000D03*
X51750000Y-108000000D03*
X86000000Y-99500000D03*
X50500000Y-108000000D03*
X70500000Y-85000000D03*
X71500000Y-85000000D03*
X74000000Y-87250000D03*
X74000000Y-88250000D03*
X101500000Y-98500000D03*
X100249500Y-99500000D03*
X90500000Y-98500000D03*
X93000000Y-98500000D03*
X87000000Y-100000000D03*
D26*
X91962500Y-54000000D02*
X90580000Y-54000000D01*
X51340000Y-83000000D02*
X51420000Y-83080000D01*
X90660000Y-43000000D02*
X90580000Y-43080000D01*
X91962500Y-62000000D02*
X90580000Y-62000000D01*
X91962500Y-43000000D02*
X90660000Y-43000000D01*
X91962500Y-46000000D02*
X90580000Y-46000000D01*
X50037500Y-59000000D02*
X51340000Y-59000000D01*
X51340000Y-75000000D02*
X51420000Y-75080000D01*
X90660000Y-51000000D02*
X90580000Y-51080000D01*
X90660000Y-75000000D02*
X90580000Y-75080000D01*
X51270000Y-96000000D02*
X51302500Y-95967500D01*
X91962500Y-96000000D02*
X90580000Y-96000000D01*
X90660000Y-83000000D02*
X90580000Y-83080000D01*
X51190000Y-91000000D02*
X51302500Y-90887500D01*
X91962500Y-59000000D02*
X90660000Y-59000000D01*
X91962500Y-70000000D02*
X90580000Y-70000000D01*
X90660000Y-67000000D02*
X90580000Y-67080000D01*
X50037500Y-43000000D02*
X51340000Y-43000000D01*
X91962500Y-51000000D02*
X90660000Y-51000000D01*
X91962500Y-83000000D02*
X90660000Y-83000000D01*
X91962500Y-75000000D02*
X90660000Y-75000000D01*
X91962500Y-78000000D02*
X90580000Y-78000000D01*
X50037500Y-96000000D02*
X51270000Y-96000000D01*
X50037500Y-78000000D02*
X51420000Y-78000000D01*
X49537500Y-91000000D02*
X51190000Y-91000000D01*
X50037500Y-51000000D02*
X51340000Y-51000000D01*
X50037500Y-75000000D02*
X51340000Y-75000000D01*
X50037500Y-38000000D02*
X51420000Y-38000000D01*
X91962500Y-38000000D02*
X90580000Y-38000000D01*
X51340000Y-43000000D02*
X51420000Y-43080000D01*
X50037500Y-46000000D02*
X51420000Y-46000000D01*
X51340000Y-51000000D02*
X51420000Y-51080000D01*
X50037500Y-83000000D02*
X51340000Y-83000000D01*
X91962500Y-67000000D02*
X90660000Y-67000000D01*
X50037500Y-54000000D02*
X51420000Y-54000000D01*
X51340000Y-59000000D02*
X51420000Y-59080000D01*
X50037500Y-67000000D02*
X51340000Y-67000000D01*
X50037500Y-70000000D02*
X51420000Y-70000000D01*
X92000000Y-91000000D02*
X90660000Y-91000000D01*
X90660000Y-59000000D02*
X90580000Y-59080000D01*
X90660000Y-91000000D02*
X90580000Y-90920000D01*
X51340000Y-67000000D02*
X51420000Y-67080000D01*
X99200000Y-64250000D02*
X99200000Y-56000000D01*
D27*
X44000000Y-65437500D02*
X42437500Y-65437500D01*
D26*
X99200000Y-72000000D02*
X98062500Y-72000000D01*
X45625000Y-35250000D02*
X97750000Y-35250000D01*
X97750000Y-35250000D02*
X99200000Y-36700000D01*
X42250000Y-65250000D02*
X42250000Y-57500000D01*
X50500000Y-108000000D02*
X51750000Y-108000000D01*
X99200000Y-56000000D02*
X98062500Y-56000000D01*
X42250000Y-94000000D02*
X42250000Y-88000000D01*
D27*
X44000000Y-81437500D02*
X42437500Y-81437500D01*
D26*
X42250000Y-45312500D02*
X44000000Y-43562500D01*
X99200000Y-48000000D02*
X99200000Y-42000000D01*
X84000000Y-99500000D02*
X85000000Y-99500000D01*
D28*
X42312500Y-93937500D02*
X42250000Y-94000000D01*
D27*
X42312500Y-48937500D02*
X42250000Y-49000000D01*
D26*
X99200000Y-36700000D02*
X99200000Y-42000000D01*
X98062500Y-56000000D02*
X98000000Y-56062500D01*
X84840000Y-103000000D02*
X84840000Y-99660000D01*
X42250000Y-88000000D02*
X42250000Y-81250000D01*
D27*
X44000000Y-48937500D02*
X42312500Y-48937500D01*
X42437500Y-81437500D02*
X42250000Y-81250000D01*
D26*
X97812500Y-48000000D02*
X97750000Y-48062500D01*
X97937500Y-64250000D02*
X97750000Y-64062500D01*
D27*
X42312500Y-57437500D02*
X42250000Y-57500000D01*
D26*
X49250000Y-108000000D02*
X50500000Y-108000000D01*
X97750000Y-93062500D02*
X99200000Y-91612500D01*
X99200000Y-64250000D02*
X97937500Y-64250000D01*
X42250000Y-81250000D02*
X42250000Y-73500000D01*
D27*
X44000000Y-73437500D02*
X42312500Y-73437500D01*
D26*
X42250000Y-45312500D02*
X42250000Y-38625000D01*
X42250000Y-104750000D02*
X42250000Y-94000000D01*
D27*
X42312500Y-73437500D02*
X42250000Y-73500000D01*
D26*
X42250000Y-38625000D02*
X45625000Y-35250000D01*
X85000000Y-99500000D02*
X86000000Y-99500000D01*
X42250000Y-49000000D02*
X42250000Y-45312500D01*
X49250000Y-108000000D02*
X45500000Y-108000000D01*
X97937500Y-80250000D02*
X97750000Y-80062500D01*
X42250000Y-73500000D02*
X42250000Y-65250000D01*
X45500000Y-108000000D02*
X42250000Y-104750000D01*
X99200000Y-41262500D02*
X98000000Y-40062500D01*
X99200000Y-80250000D02*
X99200000Y-72000000D01*
X99200000Y-48000000D02*
X97812500Y-48000000D01*
D27*
X44000000Y-57437500D02*
X42312500Y-57437500D01*
D26*
X99200000Y-56000000D02*
X99200000Y-48000000D01*
X99200000Y-42000000D02*
X99200000Y-41262500D01*
X99200000Y-80250000D02*
X97937500Y-80250000D01*
X99200000Y-72000000D02*
X99200000Y-64250000D01*
D27*
X42437500Y-65437500D02*
X42250000Y-65250000D01*
D26*
X84840000Y-99660000D02*
X85000000Y-99500000D01*
X98062500Y-72000000D02*
X98000000Y-72062500D01*
D28*
X43750000Y-93937500D02*
X42312500Y-93937500D01*
D26*
X42250000Y-57500000D02*
X42250000Y-49000000D01*
X99200000Y-91612500D02*
X99200000Y-80250000D01*
X47962500Y-78000000D02*
X46340000Y-78000000D01*
D27*
X45857500Y-83562500D02*
X46340000Y-83080000D01*
X44000000Y-83562500D02*
X45857500Y-83562500D01*
D26*
X46420000Y-83000000D02*
X46340000Y-83080000D01*
D27*
X47962500Y-83000000D02*
X46420000Y-83000000D01*
D26*
X47962500Y-38000000D02*
X46340000Y-38000000D01*
X47962500Y-46000000D02*
X46340000Y-46000000D01*
X47962500Y-54000000D02*
X46340000Y-54000000D01*
D27*
X46340000Y-62000000D02*
X47962500Y-62000000D01*
D26*
X47962500Y-70000000D02*
X46340000Y-70000000D01*
X47462500Y-91000000D02*
X46335000Y-91000000D01*
X46335000Y-91000000D02*
X46222500Y-90887500D01*
D27*
X46340000Y-42340000D02*
X46340000Y-43080000D01*
X45437500Y-41437500D02*
X46340000Y-42340000D01*
X44000000Y-41437500D02*
X45437500Y-41437500D01*
D26*
X46420000Y-43000000D02*
X46340000Y-43080000D01*
X47962500Y-43000000D02*
X46420000Y-43000000D01*
D27*
X46322500Y-51062500D02*
X46340000Y-51080000D01*
D26*
X47962500Y-51000000D02*
X46420000Y-51000000D01*
X46420000Y-51000000D02*
X46340000Y-51080000D01*
D27*
X44000000Y-51062500D02*
X46322500Y-51062500D01*
D26*
X47962500Y-59000000D02*
X46420000Y-59000000D01*
X46420000Y-59000000D02*
X46340000Y-59080000D01*
D27*
X45857500Y-59562500D02*
X46340000Y-59080000D01*
X44000000Y-59562500D02*
X45857500Y-59562500D01*
D26*
X47962500Y-67000000D02*
X46420000Y-67000000D01*
X46420000Y-67000000D02*
X46340000Y-67080000D01*
D27*
X44000000Y-67562500D02*
X45857500Y-67562500D01*
X45857500Y-67562500D02*
X46340000Y-67080000D01*
D26*
X46420000Y-75000000D02*
X46340000Y-75080000D01*
D27*
X45857500Y-75562500D02*
X46340000Y-75080000D01*
D26*
X47962500Y-75000000D02*
X46420000Y-75000000D01*
D27*
X44000000Y-75562500D02*
X45857500Y-75562500D01*
D28*
X46127500Y-96062500D02*
X46222500Y-95967500D01*
D26*
X47962500Y-96000000D02*
X46255000Y-96000000D01*
X46255000Y-96000000D02*
X46222500Y-95967500D01*
D28*
X43750000Y-96062500D02*
X46127500Y-96062500D01*
D27*
X64957500Y-106287500D02*
X64000000Y-105330000D01*
X66500000Y-106287500D02*
X64957500Y-106287500D01*
D26*
X94037500Y-38000000D02*
X95660000Y-38000000D01*
D27*
X95660000Y-38000000D02*
X97937500Y-38000000D01*
X97937500Y-38000000D02*
X98000000Y-37937500D01*
X95722500Y-45937500D02*
X95660000Y-46000000D01*
X97750000Y-45937500D02*
X95722500Y-45937500D01*
D26*
X94037500Y-46000000D02*
X95660000Y-46000000D01*
D27*
X95722500Y-53937500D02*
X95660000Y-54000000D01*
X98000000Y-53937500D02*
X95722500Y-53937500D01*
D26*
X94037500Y-54000000D02*
X95660000Y-54000000D01*
D27*
X97750000Y-61937500D02*
X95722500Y-61937500D01*
X95722500Y-61937500D02*
X95660000Y-62000000D01*
D26*
X94037500Y-62000000D02*
X95660000Y-62000000D01*
D27*
X95722500Y-69937500D02*
X95660000Y-70000000D01*
X98000000Y-69937500D02*
X95722500Y-69937500D01*
D26*
X94037500Y-70000000D02*
X95660000Y-70000000D01*
X94075000Y-91000000D02*
X95580000Y-91000000D01*
D27*
X95677500Y-90937500D02*
X95660000Y-90920000D01*
D26*
X95580000Y-91000000D02*
X95660000Y-90920000D01*
D27*
X97750000Y-90937500D02*
X95677500Y-90937500D01*
D26*
X94037500Y-43000000D02*
X95580000Y-43000000D01*
X95580000Y-43000000D02*
X95660000Y-43080000D01*
X94037500Y-51000000D02*
X95580000Y-51000000D01*
X95580000Y-51000000D02*
X95660000Y-51080000D01*
X94037500Y-59000000D02*
X95580000Y-59000000D01*
X95580000Y-59000000D02*
X95660000Y-59080000D01*
X95580000Y-67000000D02*
X95660000Y-67080000D01*
X94037500Y-67000000D02*
X95580000Y-67000000D01*
X94037500Y-75000000D02*
X95580000Y-75000000D01*
X95580000Y-75000000D02*
X95660000Y-75080000D01*
X94037500Y-96000000D02*
X95660000Y-96000000D01*
D27*
X66500000Y-99962500D02*
X64287500Y-99962500D01*
X64287500Y-99962500D02*
X64000000Y-100250000D01*
X97750000Y-77937500D02*
X95722500Y-77937500D01*
D26*
X94037500Y-78000000D02*
X95660000Y-78000000D01*
D27*
X95722500Y-77937500D02*
X95660000Y-78000000D01*
D26*
X94037500Y-83000000D02*
X95580000Y-83000000D01*
X95580000Y-83000000D02*
X95660000Y-83080000D01*
D27*
X71750000Y-85000000D02*
X74000000Y-87250000D01*
X71500000Y-85000000D02*
X71750000Y-85000000D01*
X70500000Y-85000000D02*
X71500000Y-85000000D01*
X74000000Y-87250000D02*
X74000000Y-88250000D01*
D29*
X85500000Y-67080000D02*
X85500000Y-70000000D01*
X85500000Y-70000000D02*
X85500000Y-75080000D01*
X85500000Y-59080000D02*
X85500000Y-62000000D01*
X85500000Y-83080000D02*
X85500000Y-90920000D01*
X72460000Y-109040000D02*
X72460000Y-113960000D01*
X85500000Y-75080000D02*
X85500000Y-78000000D01*
X85500000Y-46000000D02*
X85500000Y-51080000D01*
X85500000Y-78000000D02*
X85500000Y-83080000D01*
X85500000Y-43080000D02*
X85500000Y-46000000D01*
X85500000Y-54000000D02*
X85500000Y-59080000D01*
X85500000Y-90920000D02*
X85500000Y-96000000D01*
X85500000Y-51080000D02*
X85500000Y-54000000D01*
X85500000Y-96000000D02*
X72460000Y-109040000D01*
X85500000Y-62000000D02*
X85500000Y-67080000D01*
X85500000Y-38000000D02*
X85500000Y-43080000D01*
X58920000Y-105330000D02*
X58920000Y-106080000D01*
X54500000Y-110500000D02*
X54500000Y-114000000D01*
X58920000Y-100250000D02*
X58920000Y-105330000D01*
X58920000Y-106080000D02*
X54500000Y-110500000D01*
X56500000Y-78000000D02*
X56500000Y-75080000D01*
X56500000Y-46000000D02*
X56500000Y-43080000D01*
X56382500Y-83197500D02*
X56500000Y-83080000D01*
X56500000Y-70000000D02*
X56500000Y-67080000D01*
X56380000Y-100250000D02*
X56380000Y-105330000D01*
X56500000Y-51080000D02*
X56500000Y-46000000D01*
X56382500Y-95967500D02*
X56382500Y-90887500D01*
X56500000Y-59080000D02*
X56500000Y-54000000D01*
X56382500Y-100247500D02*
X56380000Y-100250000D01*
X56500000Y-62000000D02*
X56500000Y-59080000D01*
X56500000Y-75080000D02*
X56500000Y-70000000D01*
X56382500Y-95967500D02*
X56382500Y-100247500D01*
X56500000Y-83080000D02*
X56500000Y-78000000D01*
X56382500Y-90887500D02*
X56382500Y-83197500D01*
X56500000Y-43080000D02*
X56500000Y-38000000D01*
X56500000Y-54000000D02*
X56500000Y-51080000D01*
X56500000Y-67080000D02*
X56500000Y-62000000D01*
D27*
X89920000Y-103000000D02*
X89920000Y-102580000D01*
X89920000Y-102580000D02*
X94000000Y-98500000D01*
X94000000Y-98500000D02*
X101500000Y-98500000D01*
X94500000Y-99500000D02*
X100249500Y-99500000D01*
X92460000Y-101540000D02*
X94500000Y-99500000D01*
X92460000Y-103000000D02*
X92460000Y-101540000D01*
X93000000Y-98500000D02*
X90500000Y-98500000D01*
X87380000Y-103000000D02*
X87380000Y-100380000D01*
X87380000Y-100380000D02*
X87000000Y-100000000D01*
D29*
X53840000Y-100250000D02*
X53840000Y-105330000D01*
G04 #@! TA.AperFunction,Conductor*
G36*
X103937500Y-28017113D02*
G01*
X103982887Y-28062500D01*
X103999500Y-28124500D01*
X103999500Y-117875500D01*
X103982887Y-117937500D01*
X103937500Y-117982887D01*
X103875500Y-117999500D01*
X39124500Y-117999500D01*
X39062500Y-117982887D01*
X39017113Y-117937500D01*
X39000500Y-117875500D01*
X39000500Y-104702611D01*
X41345781Y-104702611D01*
X41349330Y-104770337D01*
X41349500Y-104776826D01*
X41349500Y-104797198D01*
X41351627Y-104817445D01*
X41352136Y-104823909D01*
X41355686Y-104891645D01*
X41359315Y-104905187D01*
X41362860Y-104924315D01*
X41364325Y-104938254D01*
X41385282Y-105002754D01*
X41387125Y-105008976D01*
X41404679Y-105074487D01*
X41411042Y-105086974D01*
X41418489Y-105104953D01*
X41422820Y-105118283D01*
X41456725Y-105177008D01*
X41459823Y-105182713D01*
X41490615Y-105243146D01*
X41490617Y-105243149D01*
X41499439Y-105254043D01*
X41510458Y-105270076D01*
X41517466Y-105282215D01*
X41562855Y-105332626D01*
X41567066Y-105337556D01*
X41579883Y-105353382D01*
X41594274Y-105367773D01*
X41598743Y-105372482D01*
X41644129Y-105422888D01*
X41655467Y-105431125D01*
X41670265Y-105443764D01*
X44806235Y-108579734D01*
X44818873Y-108594531D01*
X44827111Y-108605871D01*
X44877516Y-108651255D01*
X44882225Y-108655724D01*
X44896620Y-108670119D01*
X44912461Y-108682947D01*
X44917355Y-108687127D01*
X44967784Y-108732533D01*
X44967786Y-108732534D01*
X44967787Y-108732535D01*
X44979916Y-108739537D01*
X44995958Y-108750562D01*
X45006850Y-108759383D01*
X45029345Y-108770844D01*
X45067292Y-108790178D01*
X45072949Y-108793249D01*
X45131716Y-108827179D01*
X45145053Y-108831512D01*
X45163020Y-108838955D01*
X45175512Y-108845320D01*
X45175514Y-108845321D01*
X45241028Y-108862876D01*
X45247251Y-108864719D01*
X45311744Y-108885674D01*
X45325686Y-108887138D01*
X45344815Y-108890684D01*
X45358354Y-108894313D01*
X45426098Y-108897862D01*
X45432552Y-108898371D01*
X45452804Y-108900500D01*
X45452808Y-108900500D01*
X45473174Y-108900500D01*
X45479663Y-108900670D01*
X45547388Y-108904219D01*
X45561228Y-108902026D01*
X45580626Y-108900500D01*
X51797189Y-108900500D01*
X51797192Y-108900500D01*
X51938256Y-108885674D01*
X52118284Y-108827179D01*
X52282216Y-108732533D01*
X52422888Y-108605871D01*
X52534151Y-108452730D01*
X52611144Y-108279803D01*
X52642456Y-108132491D01*
X52650500Y-108094648D01*
X52650500Y-107905352D01*
X52611144Y-107720197D01*
X52534151Y-107547269D01*
X52422889Y-107394129D01*
X52282216Y-107267466D01*
X52118284Y-107172820D01*
X51938257Y-107114326D01*
X51902989Y-107110619D01*
X51797192Y-107099500D01*
X51797189Y-107099500D01*
X45924361Y-107099500D01*
X45876908Y-107090061D01*
X45836680Y-107063181D01*
X43273507Y-104500008D01*
X51649500Y-104500008D01*
X51660000Y-104602796D01*
X51715186Y-104769334D01*
X51807288Y-104918657D01*
X51931342Y-105042711D01*
X51985859Y-105076337D01*
X52080666Y-105134814D01*
X52192016Y-105171712D01*
X52247202Y-105189999D01*
X52349991Y-105200500D01*
X52460730Y-105200500D01*
X52525826Y-105218961D01*
X52571539Y-105268846D01*
X52581218Y-105319415D01*
X52583777Y-105319192D01*
X52589028Y-105379207D01*
X52589172Y-105382513D01*
X52594361Y-105440172D01*
X52594388Y-105440479D01*
X52604203Y-105552666D01*
X52633138Y-105657509D01*
X52633382Y-105658405D01*
X52661768Y-105764345D01*
X52663547Y-105769176D01*
X52664506Y-105771168D01*
X52664507Y-105771170D01*
X52666548Y-105775408D01*
X52709594Y-105864797D01*
X52710255Y-105866192D01*
X52753709Y-105959379D01*
X52761771Y-105973144D01*
X52762168Y-105973970D01*
X52821258Y-106055300D01*
X52822515Y-106057062D01*
X52878402Y-106136878D01*
X52879273Y-106137749D01*
X52891906Y-106152538D01*
X52894478Y-106156078D01*
X52964676Y-106223195D01*
X52966665Y-106225140D01*
X53033123Y-106291598D01*
X53036963Y-106294287D01*
X53051525Y-106306230D01*
X53057175Y-106311632D01*
X53135375Y-106363251D01*
X53138133Y-106365127D01*
X53212357Y-106417100D01*
X53212360Y-106417101D01*
X53212361Y-106417102D01*
X53219731Y-106420538D01*
X53235633Y-106429431D01*
X53245032Y-106435635D01*
X53328030Y-106471110D01*
X53331653Y-106472728D01*
X53410670Y-106509575D01*
X53421850Y-106512570D01*
X53438488Y-106518323D01*
X53444799Y-106521020D01*
X53452012Y-106524103D01*
X53536657Y-106543422D01*
X53541097Y-106544523D01*
X53622023Y-106566207D01*
X53636995Y-106567516D01*
X53653756Y-106570149D01*
X53671463Y-106574191D01*
X53754812Y-106577933D01*
X53759965Y-106578274D01*
X53833851Y-106584739D01*
X53839999Y-106585277D01*
X53839999Y-106585276D01*
X53840000Y-106585277D01*
X53858391Y-106583667D01*
X53874757Y-106583321D01*
X53896330Y-106584290D01*
X53975622Y-106573548D01*
X53981398Y-106572905D01*
X54022126Y-106569343D01*
X54057972Y-106566208D01*
X54057975Y-106566207D01*
X54057977Y-106566207D01*
X54079142Y-106560535D01*
X54094568Y-106557436D01*
X54119387Y-106554075D01*
X54192205Y-106530413D01*
X54198410Y-106528577D01*
X54233815Y-106519090D01*
X54269327Y-106509576D01*
X54269327Y-106509575D01*
X54269330Y-106509575D01*
X54292301Y-106498862D01*
X54306386Y-106493314D01*
X54333464Y-106484517D01*
X54397853Y-106449866D01*
X54404178Y-106446693D01*
X54467639Y-106417102D01*
X54491216Y-106400592D01*
X54503575Y-106392975D01*
X54531681Y-106377852D01*
X54586187Y-106334383D01*
X54592325Y-106329794D01*
X54646877Y-106291598D01*
X54669666Y-106268807D01*
X54680026Y-106259549D01*
X54707666Y-106237508D01*
X54751268Y-106187600D01*
X54756923Y-106181550D01*
X54801598Y-106136877D01*
X54822049Y-106107667D01*
X54830249Y-106097200D01*
X54855765Y-106067996D01*
X54887985Y-106014068D01*
X54892859Y-106006541D01*
X54927102Y-105957639D01*
X54943631Y-105922189D01*
X54949549Y-105911025D01*
X54971215Y-105874764D01*
X54992083Y-105819156D01*
X54995778Y-105810359D01*
X54997164Y-105807387D01*
X55042591Y-105755415D01*
X55108771Y-105735784D01*
X55175192Y-105754582D01*
X55221271Y-105805982D01*
X55249594Y-105864797D01*
X55250255Y-105866192D01*
X55293709Y-105959379D01*
X55301771Y-105973144D01*
X55302168Y-105973970D01*
X55361258Y-106055300D01*
X55362515Y-106057062D01*
X55418402Y-106136878D01*
X55419273Y-106137749D01*
X55431906Y-106152538D01*
X55434478Y-106156078D01*
X55504676Y-106223195D01*
X55506665Y-106225140D01*
X55573123Y-106291598D01*
X55576963Y-106294287D01*
X55591525Y-106306230D01*
X55597175Y-106311632D01*
X55675375Y-106363251D01*
X55678133Y-106365127D01*
X55752357Y-106417100D01*
X55752360Y-106417101D01*
X55752361Y-106417102D01*
X55759731Y-106420538D01*
X55775633Y-106429431D01*
X55785032Y-106435635D01*
X55868030Y-106471110D01*
X55871653Y-106472728D01*
X55950670Y-106509575D01*
X55961850Y-106512570D01*
X55978488Y-106518323D01*
X55984799Y-106521020D01*
X55992012Y-106524103D01*
X56076657Y-106543422D01*
X56081097Y-106544523D01*
X56162023Y-106566207D01*
X56176995Y-106567516D01*
X56193756Y-106570149D01*
X56211463Y-106574191D01*
X56294812Y-106577933D01*
X56299965Y-106578274D01*
X56359924Y-106583520D01*
X56424601Y-106608673D01*
X56465636Y-106664638D01*
X56470175Y-106733887D01*
X56436795Y-106794729D01*
X53670343Y-109561181D01*
X53659980Y-109570443D01*
X53632335Y-109592491D01*
X53588735Y-109642392D01*
X53583050Y-109648473D01*
X53576059Y-109655464D01*
X53549928Y-109686764D01*
X53548124Y-109688876D01*
X53484235Y-109762003D01*
X53481986Y-109765767D01*
X53470739Y-109781617D01*
X53467932Y-109784979D01*
X53419978Y-109869490D01*
X53418604Y-109871849D01*
X53369719Y-109953671D01*
X53368782Y-109955241D01*
X53367246Y-109959335D01*
X53359009Y-109976944D01*
X53356847Y-109980753D01*
X53324762Y-110072444D01*
X53323814Y-110075057D01*
X53289691Y-110165978D01*
X53288910Y-110170282D01*
X53283950Y-110189077D01*
X53282501Y-110193217D01*
X53267304Y-110289166D01*
X53266838Y-110291907D01*
X53249500Y-110387450D01*
X53249500Y-110391830D01*
X53247973Y-110411229D01*
X53247290Y-110415539D01*
X53249469Y-110512640D01*
X53249500Y-110515422D01*
X53249500Y-114056153D01*
X53264623Y-114224190D01*
X53324507Y-114441171D01*
X53422170Y-114643972D01*
X53490483Y-114737996D01*
X53554478Y-114826078D01*
X53717175Y-114981632D01*
X53905032Y-115105635D01*
X54112012Y-115194103D01*
X54331463Y-115244191D01*
X54536998Y-115253421D01*
X54556328Y-115254290D01*
X54556328Y-115254289D01*
X54556330Y-115254290D01*
X54779387Y-115224075D01*
X54993464Y-115154517D01*
X55191681Y-115047852D01*
X55367666Y-114907508D01*
X55515765Y-114737996D01*
X55631215Y-114544764D01*
X55710307Y-114334024D01*
X55750500Y-114112547D01*
X55750500Y-111069336D01*
X55759939Y-111021883D01*
X55786819Y-110981655D01*
X56696030Y-110072444D01*
X57812934Y-108955539D01*
X71207290Y-108955539D01*
X71209469Y-109052640D01*
X71209500Y-109055422D01*
X71209500Y-114016153D01*
X71224623Y-114184190D01*
X71284507Y-114401171D01*
X71382170Y-114603972D01*
X71450483Y-114697996D01*
X71514478Y-114786078D01*
X71677175Y-114941632D01*
X71865032Y-115065635D01*
X72072012Y-115154103D01*
X72291463Y-115204191D01*
X72496998Y-115213421D01*
X72516328Y-115214290D01*
X72516328Y-115214289D01*
X72516330Y-115214290D01*
X72739387Y-115184075D01*
X72953464Y-115114517D01*
X73151681Y-115007852D01*
X73327666Y-114867508D01*
X73475765Y-114697996D01*
X73591215Y-114504764D01*
X73670307Y-114294024D01*
X73710500Y-114072547D01*
X73710500Y-109609336D01*
X73719939Y-109561883D01*
X73746819Y-109521655D01*
X76095654Y-107172820D01*
X83157341Y-100111131D01*
X83210841Y-100079618D01*
X83272914Y-100077992D01*
X83327992Y-100106664D01*
X83467783Y-100232533D01*
X83631715Y-100327179D01*
X83663154Y-100337394D01*
X83811744Y-100385674D01*
X83828463Y-100387431D01*
X83884839Y-100407950D01*
X83924985Y-100452536D01*
X83939500Y-100510751D01*
X83939500Y-101939242D01*
X83930061Y-101986695D01*
X83903181Y-102026923D01*
X83801505Y-102128598D01*
X83665965Y-102322170D01*
X83566097Y-102536336D01*
X83504936Y-102764592D01*
X83484340Y-103000000D01*
X83504936Y-103235407D01*
X83548289Y-103397202D01*
X83566097Y-103463663D01*
X83665965Y-103677830D01*
X83801505Y-103871401D01*
X83968599Y-104038495D01*
X84162170Y-104174035D01*
X84376337Y-104273903D01*
X84604592Y-104335063D01*
X84840000Y-104355659D01*
X85075408Y-104335063D01*
X85303663Y-104273903D01*
X85517830Y-104174035D01*
X85711401Y-104038495D01*
X85878495Y-103871401D01*
X86008426Y-103685839D01*
X86052743Y-103646975D01*
X86110000Y-103632964D01*
X86167257Y-103646975D01*
X86211573Y-103685839D01*
X86341505Y-103871401D01*
X86508599Y-104038495D01*
X86694160Y-104168426D01*
X86733024Y-104212743D01*
X86747035Y-104270000D01*
X86733024Y-104327257D01*
X86694159Y-104371575D01*
X86686410Y-104377001D01*
X86519555Y-104493834D01*
X86508595Y-104501508D01*
X86341505Y-104668598D01*
X86205965Y-104862170D01*
X86106097Y-105076336D01*
X86044936Y-105304592D01*
X86024340Y-105540000D01*
X86044936Y-105775407D01*
X86078319Y-105899992D01*
X86106097Y-106003663D01*
X86205965Y-106217830D01*
X86341505Y-106411401D01*
X86508599Y-106578495D01*
X86702170Y-106714035D01*
X86916337Y-106813903D01*
X87144592Y-106875063D01*
X87380000Y-106895659D01*
X87615408Y-106875063D01*
X87843663Y-106813903D01*
X88057830Y-106714035D01*
X88251401Y-106578495D01*
X88418495Y-106411401D01*
X88548426Y-106225839D01*
X88592743Y-106186975D01*
X88650000Y-106172964D01*
X88707257Y-106186975D01*
X88751573Y-106225839D01*
X88881505Y-106411401D01*
X89048599Y-106578495D01*
X89242170Y-106714035D01*
X89456337Y-106813903D01*
X89684592Y-106875063D01*
X89920000Y-106895659D01*
X90155408Y-106875063D01*
X90383663Y-106813903D01*
X90597830Y-106714035D01*
X90791401Y-106578495D01*
X90958495Y-106411401D01*
X91088426Y-106225839D01*
X91132743Y-106186975D01*
X91190000Y-106172964D01*
X91247257Y-106186975D01*
X91291573Y-106225839D01*
X91421505Y-106411401D01*
X91588599Y-106578495D01*
X91782170Y-106714035D01*
X91996337Y-106813903D01*
X92224592Y-106875063D01*
X92460000Y-106895659D01*
X92695408Y-106875063D01*
X92923663Y-106813903D01*
X93137830Y-106714035D01*
X93331401Y-106578495D01*
X93498495Y-106411401D01*
X93628426Y-106225839D01*
X93672743Y-106186975D01*
X93730000Y-106172964D01*
X93787257Y-106186975D01*
X93831573Y-106225839D01*
X93961505Y-106411401D01*
X94128599Y-106578495D01*
X94322170Y-106714035D01*
X94536337Y-106813903D01*
X94764592Y-106875063D01*
X95000000Y-106895659D01*
X95235408Y-106875063D01*
X95463663Y-106813903D01*
X95677830Y-106714035D01*
X95871401Y-106578495D01*
X96038495Y-106411401D01*
X96174035Y-106217830D01*
X96273903Y-106003663D01*
X96335063Y-105775408D01*
X96355659Y-105540000D01*
X96335063Y-105304592D01*
X96273903Y-105076337D01*
X96174035Y-104862171D01*
X96038495Y-104668599D01*
X95871401Y-104501505D01*
X95863730Y-104493834D01*
X95866305Y-104491258D01*
X95836239Y-104454320D01*
X95827427Y-104387244D01*
X95855135Y-104325526D01*
X95911111Y-104287538D01*
X95919334Y-104284814D01*
X96068656Y-104192712D01*
X96192712Y-104068656D01*
X96284814Y-103919334D01*
X96339999Y-103752797D01*
X96350500Y-103650009D01*
X96350499Y-102349992D01*
X96339999Y-102247203D01*
X96284814Y-102080666D01*
X96211315Y-101961505D01*
X96192711Y-101931342D01*
X96068657Y-101807288D01*
X95919334Y-101715186D01*
X95752797Y-101660000D01*
X95650009Y-101649500D01*
X94349991Y-101649500D01*
X94247203Y-101660000D01*
X94080665Y-101715186D01*
X93931342Y-101807288D01*
X93807288Y-101931342D01*
X93715185Y-102080666D01*
X93712460Y-102088892D01*
X93674465Y-102144871D01*
X93612742Y-102172574D01*
X93545664Y-102163754D01*
X93508743Y-102133692D01*
X93506166Y-102136270D01*
X93331403Y-101961507D01*
X93331402Y-101961506D01*
X93331401Y-101961505D01*
X93274678Y-101921787D01*
X93238417Y-101882214D01*
X93222276Y-101831021D01*
X93229282Y-101777803D01*
X93258121Y-101732535D01*
X94753837Y-100236819D01*
X94794066Y-100209939D01*
X94841519Y-100200500D01*
X99958024Y-100200500D01*
X99998977Y-100207457D01*
X100081441Y-100236313D01*
X100249500Y-100255249D01*
X100417559Y-100236313D01*
X100577190Y-100180456D01*
X100720390Y-100090477D01*
X100839977Y-99970890D01*
X100929956Y-99827690D01*
X100985813Y-99668059D01*
X101004749Y-99500000D01*
X100986538Y-99338384D01*
X100998039Y-99270699D01*
X101043787Y-99219506D01*
X101109759Y-99200500D01*
X101208524Y-99200500D01*
X101249477Y-99207457D01*
X101331941Y-99236313D01*
X101500000Y-99255249D01*
X101668059Y-99236313D01*
X101827690Y-99180456D01*
X101970890Y-99090477D01*
X102090477Y-98970890D01*
X102180456Y-98827690D01*
X102236313Y-98668059D01*
X102255249Y-98500000D01*
X102236313Y-98331941D01*
X102180456Y-98172310D01*
X102090477Y-98029110D01*
X101970890Y-97909523D01*
X101827690Y-97819544D01*
X101668059Y-97763687D01*
X101668058Y-97763686D01*
X101668056Y-97763686D01*
X101500000Y-97744750D01*
X101331943Y-97763686D01*
X101249478Y-97792542D01*
X101208524Y-97799500D01*
X94024910Y-97799500D01*
X94017423Y-97799274D01*
X93957391Y-97795642D01*
X93898242Y-97806481D01*
X93890843Y-97807608D01*
X93831122Y-97814860D01*
X93821641Y-97818456D01*
X93800036Y-97824479D01*
X93790069Y-97826305D01*
X93735234Y-97850984D01*
X93728318Y-97853848D01*
X93672069Y-97875181D01*
X93663725Y-97880941D01*
X93644183Y-97891963D01*
X93634944Y-97896121D01*
X93621059Y-97906999D01*
X93575990Y-97929343D01*
X93525754Y-97931946D01*
X93478618Y-97914379D01*
X93442943Y-97891963D01*
X93327690Y-97819544D01*
X93168059Y-97763687D01*
X93168058Y-97763686D01*
X93168056Y-97763686D01*
X93000000Y-97744750D01*
X92831943Y-97763686D01*
X92749478Y-97792542D01*
X92708524Y-97799500D01*
X90791476Y-97799500D01*
X90750522Y-97792542D01*
X90668056Y-97763686D01*
X90500000Y-97744750D01*
X90331943Y-97763686D01*
X90172310Y-97819544D01*
X90029108Y-97909524D01*
X89909524Y-98029108D01*
X89819544Y-98172310D01*
X89763686Y-98331943D01*
X89744750Y-98500000D01*
X89763686Y-98668056D01*
X89763686Y-98668058D01*
X89763687Y-98668059D01*
X89819544Y-98827690D01*
X89909523Y-98970890D01*
X90029110Y-99090477D01*
X90172310Y-99180456D01*
X90331941Y-99236313D01*
X90500000Y-99255249D01*
X90668059Y-99236313D01*
X90750522Y-99207457D01*
X90791476Y-99200500D01*
X92009481Y-99200500D01*
X92065776Y-99214015D01*
X92109799Y-99251615D01*
X92131954Y-99305102D01*
X92127412Y-99362818D01*
X92097162Y-99412181D01*
X89891641Y-101617700D01*
X89856365Y-101642401D01*
X89814768Y-101653547D01*
X89684592Y-101664936D01*
X89456336Y-101726097D01*
X89242170Y-101825965D01*
X89048598Y-101961505D01*
X88881505Y-102128598D01*
X88751575Y-102314159D01*
X88707257Y-102353025D01*
X88650000Y-102367036D01*
X88592743Y-102353025D01*
X88548425Y-102314159D01*
X88449286Y-102172574D01*
X88418495Y-102128599D01*
X88251401Y-101961505D01*
X88133376Y-101878863D01*
X88094511Y-101834546D01*
X88080500Y-101777289D01*
X88080500Y-100404910D01*
X88080726Y-100397423D01*
X88081330Y-100387430D01*
X88084357Y-100337394D01*
X88073509Y-100278201D01*
X88072392Y-100270856D01*
X88065140Y-100211128D01*
X88061546Y-100201652D01*
X88055520Y-100180036D01*
X88053694Y-100170068D01*
X88028997Y-100115195D01*
X88026155Y-100108334D01*
X88004818Y-100052070D01*
X87999058Y-100043726D01*
X87988039Y-100024190D01*
X87983878Y-100014943D01*
X87980466Y-100010588D01*
X87946785Y-99967596D01*
X87942354Y-99961577D01*
X87908183Y-99912071D01*
X87863153Y-99872178D01*
X87857715Y-99867058D01*
X87709882Y-99719225D01*
X87680522Y-99672500D01*
X87680456Y-99672310D01*
X87590477Y-99529110D01*
X87470890Y-99409523D01*
X87327690Y-99319544D01*
X87168059Y-99263687D01*
X87168058Y-99263686D01*
X87168056Y-99263686D01*
X87000001Y-99244750D01*
X86968414Y-99248309D01*
X86916802Y-99243208D01*
X86871790Y-99217444D01*
X86841254Y-99175525D01*
X86803387Y-99090475D01*
X86784150Y-99047267D01*
X86672889Y-98894129D01*
X86532216Y-98767466D01*
X86368284Y-98672820D01*
X86188257Y-98614326D01*
X86152989Y-98610619D01*
X86047192Y-98599500D01*
X86047189Y-98599500D01*
X85080626Y-98599500D01*
X85061228Y-98597973D01*
X85047388Y-98595781D01*
X84979670Y-98599330D01*
X84973180Y-98599500D01*
X84968336Y-98599500D01*
X84912041Y-98585985D01*
X84868018Y-98548385D01*
X84845863Y-98494898D01*
X84850405Y-98437182D01*
X84880655Y-98387819D01*
X85096164Y-98172310D01*
X86292647Y-96975825D01*
X86292651Y-96975823D01*
X86306874Y-96961599D01*
X86306877Y-96961598D01*
X86329676Y-96938798D01*
X86340026Y-96929549D01*
X86367666Y-96907508D01*
X86411268Y-96857600D01*
X86416923Y-96851550D01*
X86461598Y-96806877D01*
X86482053Y-96777662D01*
X86490235Y-96767215D01*
X86515765Y-96737996D01*
X86518004Y-96734246D01*
X86529268Y-96718371D01*
X86532068Y-96715018D01*
X86555456Y-96673796D01*
X86561703Y-96663910D01*
X86587102Y-96627639D01*
X86603635Y-96592182D01*
X86609553Y-96581018D01*
X86631215Y-96544764D01*
X86632749Y-96540673D01*
X86640999Y-96523039D01*
X86643153Y-96519245D01*
X86653628Y-96489307D01*
X86685199Y-96440422D01*
X86735597Y-96411322D01*
X86793721Y-96408420D01*
X86846767Y-96432355D01*
X86883052Y-96477854D01*
X86952898Y-96627639D01*
X87078402Y-96806877D01*
X87233123Y-96961598D01*
X87412361Y-97087102D01*
X87610670Y-97179575D01*
X87822023Y-97236207D01*
X88040000Y-97255277D01*
X88257977Y-97236207D01*
X88469330Y-97179575D01*
X88667639Y-97087102D01*
X88846877Y-96961598D01*
X89001598Y-96806877D01*
X89127102Y-96627639D01*
X89174960Y-96525008D01*
X92949500Y-96525008D01*
X92960000Y-96627796D01*
X93015186Y-96794334D01*
X93107288Y-96943657D01*
X93231342Y-97067711D01*
X93287895Y-97102593D01*
X93380666Y-97159814D01*
X93492016Y-97196712D01*
X93547202Y-97214999D01*
X93557703Y-97216071D01*
X93649991Y-97225500D01*
X94425008Y-97225499D01*
X94527797Y-97214999D01*
X94694334Y-97159814D01*
X94832510Y-97074587D01*
X94855993Y-97060103D01*
X94857236Y-97062118D01*
X94885058Y-97044953D01*
X94942040Y-97039963D01*
X94995196Y-97061079D01*
X95032361Y-97087102D01*
X95230670Y-97179575D01*
X95442023Y-97236207D01*
X95660000Y-97255277D01*
X95877977Y-97236207D01*
X96089330Y-97179575D01*
X96287639Y-97087102D01*
X96466877Y-96961598D01*
X96621598Y-96806877D01*
X96747102Y-96627639D01*
X96839575Y-96429330D01*
X96896207Y-96217977D01*
X96915277Y-96000000D01*
X96896207Y-95782023D01*
X96839575Y-95570670D01*
X96747102Y-95372362D01*
X96621598Y-95193123D01*
X96466877Y-95038402D01*
X96287639Y-94912898D01*
X96196205Y-94870261D01*
X96089331Y-94820425D01*
X95877974Y-94763792D01*
X95660000Y-94744722D01*
X95442025Y-94763792D01*
X95230668Y-94820425D01*
X95032358Y-94912899D01*
X94995196Y-94938920D01*
X94942045Y-94960035D01*
X94885071Y-94955050D01*
X94857236Y-94937881D01*
X94855993Y-94939897D01*
X94694334Y-94840186D01*
X94527797Y-94785000D01*
X94425009Y-94774500D01*
X93649991Y-94774500D01*
X93547203Y-94785000D01*
X93380665Y-94840186D01*
X93231342Y-94932288D01*
X93107288Y-95056342D01*
X93015186Y-95205665D01*
X92960000Y-95372202D01*
X92949500Y-95474990D01*
X92949500Y-96525008D01*
X89174960Y-96525008D01*
X89219575Y-96429330D01*
X89276207Y-96217977D01*
X89295277Y-96000000D01*
X89276207Y-95782023D01*
X89219575Y-95570670D01*
X89127102Y-95372362D01*
X89001598Y-95193123D01*
X88846877Y-95038402D01*
X88667639Y-94912898D01*
X88576205Y-94870261D01*
X88469331Y-94820425D01*
X88257974Y-94763792D01*
X88040000Y-94744722D01*
X87822025Y-94763792D01*
X87610668Y-94820425D01*
X87412361Y-94912898D01*
X87233122Y-95038402D01*
X87078402Y-95193122D01*
X86976075Y-95339262D01*
X86928858Y-95379589D01*
X86868010Y-95391969D01*
X86808790Y-95373297D01*
X86766047Y-95328255D01*
X86750500Y-95268139D01*
X86750500Y-91651862D01*
X86766047Y-91591746D01*
X86808790Y-91546704D01*
X86868010Y-91528032D01*
X86928858Y-91540411D01*
X86976073Y-91580736D01*
X87078402Y-91726877D01*
X87233123Y-91881598D01*
X87412361Y-92007102D01*
X87610670Y-92099575D01*
X87822023Y-92156207D01*
X88040000Y-92175277D01*
X88257977Y-92156207D01*
X88469330Y-92099575D01*
X88667639Y-92007102D01*
X88846877Y-91881598D01*
X89001598Y-91726877D01*
X89127102Y-91547639D01*
X89219575Y-91349330D01*
X89276207Y-91137977D01*
X89295277Y-90920000D01*
X89276207Y-90702023D01*
X89219575Y-90490670D01*
X89127102Y-90292362D01*
X89001598Y-90113123D01*
X88846877Y-89958402D01*
X88667639Y-89832898D01*
X88564924Y-89785001D01*
X88469331Y-89740425D01*
X88257974Y-89683792D01*
X88040000Y-89664722D01*
X87822025Y-89683792D01*
X87610668Y-89740425D01*
X87412361Y-89832898D01*
X87233122Y-89958402D01*
X87078402Y-90113122D01*
X86976075Y-90259262D01*
X86928858Y-90299589D01*
X86868010Y-90311969D01*
X86808790Y-90293297D01*
X86766047Y-90248255D01*
X86750500Y-90188139D01*
X86750500Y-83811862D01*
X86766047Y-83751746D01*
X86808790Y-83706704D01*
X86868010Y-83688032D01*
X86928858Y-83700411D01*
X86976073Y-83740736D01*
X87078402Y-83886877D01*
X87233123Y-84041598D01*
X87412361Y-84167102D01*
X87610670Y-84259575D01*
X87822023Y-84316207D01*
X88040000Y-84335277D01*
X88257977Y-84316207D01*
X88469330Y-84259575D01*
X88667639Y-84167102D01*
X88846877Y-84041598D01*
X89001598Y-83886877D01*
X89127102Y-83707639D01*
X89212264Y-83525008D01*
X92949500Y-83525008D01*
X92960000Y-83627796D01*
X93015186Y-83794334D01*
X93107288Y-83943657D01*
X93231342Y-84067711D01*
X93287895Y-84102592D01*
X93380666Y-84159814D01*
X93492017Y-84196712D01*
X93547202Y-84214999D01*
X93557702Y-84216071D01*
X93649991Y-84225500D01*
X94425008Y-84225499D01*
X94527797Y-84214999D01*
X94694334Y-84159814D01*
X94799108Y-84095188D01*
X94843853Y-84078411D01*
X94891625Y-84079801D01*
X94935322Y-84099154D01*
X95032361Y-84167102D01*
X95230670Y-84259575D01*
X95442023Y-84316207D01*
X95660000Y-84335277D01*
X95877977Y-84316207D01*
X96089330Y-84259575D01*
X96287639Y-84167102D01*
X96466877Y-84041598D01*
X96621598Y-83886877D01*
X96747102Y-83707639D01*
X96839575Y-83509330D01*
X96896207Y-83297977D01*
X96915277Y-83080000D01*
X96896207Y-82862023D01*
X96839575Y-82650670D01*
X96747102Y-82452362D01*
X96621598Y-82273123D01*
X96466877Y-82118402D01*
X96287639Y-81992898D01*
X96196205Y-81950261D01*
X96089331Y-81900425D01*
X95877974Y-81843792D01*
X95660000Y-81824722D01*
X95442025Y-81843792D01*
X95230665Y-81900426D01*
X95023692Y-81996939D01*
X94974894Y-82008505D01*
X94925506Y-81999796D01*
X94883607Y-81972238D01*
X94843657Y-81932288D01*
X94694334Y-81840186D01*
X94527797Y-81785000D01*
X94425009Y-81774500D01*
X93649991Y-81774500D01*
X93547203Y-81785000D01*
X93380665Y-81840186D01*
X93231342Y-81932288D01*
X93107288Y-82056342D01*
X93015186Y-82205665D01*
X92960000Y-82372202D01*
X92949500Y-82474990D01*
X92949500Y-83525008D01*
X89212264Y-83525008D01*
X89219575Y-83509330D01*
X89276207Y-83297977D01*
X89295277Y-83080000D01*
X89276207Y-82862023D01*
X89219575Y-82650670D01*
X89127102Y-82452362D01*
X89001598Y-82273123D01*
X88846877Y-82118402D01*
X88667639Y-81992898D01*
X88576205Y-81950261D01*
X88469331Y-81900425D01*
X88257974Y-81843792D01*
X88040000Y-81824722D01*
X87822025Y-81843792D01*
X87610668Y-81900425D01*
X87412361Y-81992898D01*
X87233122Y-82118402D01*
X87078402Y-82273122D01*
X86976075Y-82419262D01*
X86928858Y-82459589D01*
X86868010Y-82471969D01*
X86808790Y-82453297D01*
X86766047Y-82408255D01*
X86750500Y-82348139D01*
X86750500Y-78731862D01*
X86766047Y-78671746D01*
X86808790Y-78626704D01*
X86868010Y-78608032D01*
X86928858Y-78620411D01*
X86976073Y-78660736D01*
X87078402Y-78806877D01*
X87233123Y-78961598D01*
X87412361Y-79087102D01*
X87610670Y-79179575D01*
X87822023Y-79236207D01*
X88040000Y-79255277D01*
X88257977Y-79236207D01*
X88469330Y-79179575D01*
X88667639Y-79087102D01*
X88846877Y-78961598D01*
X89001598Y-78806877D01*
X89127102Y-78627639D01*
X89219575Y-78429330D01*
X89276207Y-78217977D01*
X89295277Y-78000000D01*
X89276207Y-77782023D01*
X89219575Y-77570670D01*
X89127102Y-77372362D01*
X89001598Y-77193123D01*
X88846877Y-77038402D01*
X88667639Y-76912898D01*
X88535400Y-76851234D01*
X88469331Y-76820425D01*
X88257974Y-76763792D01*
X88040000Y-76744722D01*
X87822025Y-76763792D01*
X87610668Y-76820425D01*
X87412361Y-76912898D01*
X87233122Y-77038402D01*
X87078402Y-77193122D01*
X86976075Y-77339262D01*
X86928858Y-77379589D01*
X86868010Y-77391969D01*
X86808790Y-77373297D01*
X86766047Y-77328255D01*
X86750500Y-77268139D01*
X86750500Y-75811862D01*
X86766047Y-75751746D01*
X86808790Y-75706704D01*
X86868010Y-75688032D01*
X86928858Y-75700411D01*
X86976073Y-75740736D01*
X87078402Y-75886877D01*
X87233123Y-76041598D01*
X87412361Y-76167102D01*
X87610670Y-76259575D01*
X87822023Y-76316207D01*
X88040000Y-76335277D01*
X88257977Y-76316207D01*
X88469330Y-76259575D01*
X88667639Y-76167102D01*
X88846877Y-76041598D01*
X89001598Y-75886877D01*
X89127102Y-75707639D01*
X89212264Y-75525008D01*
X92949500Y-75525008D01*
X92960000Y-75627796D01*
X93015186Y-75794334D01*
X93107288Y-75943657D01*
X93231342Y-76067711D01*
X93287895Y-76102592D01*
X93380666Y-76159814D01*
X93492016Y-76196712D01*
X93547202Y-76214999D01*
X93557702Y-76216071D01*
X93649991Y-76225500D01*
X94425008Y-76225499D01*
X94527797Y-76214999D01*
X94694334Y-76159814D01*
X94799108Y-76095188D01*
X94843853Y-76078411D01*
X94891625Y-76079801D01*
X94935322Y-76099154D01*
X95032361Y-76167102D01*
X95230670Y-76259575D01*
X95442023Y-76316207D01*
X95660000Y-76335277D01*
X95877977Y-76316207D01*
X96089330Y-76259575D01*
X96287639Y-76167102D01*
X96466877Y-76041598D01*
X96621598Y-75886877D01*
X96747102Y-75707639D01*
X96839575Y-75509330D01*
X96896207Y-75297977D01*
X96915277Y-75080000D01*
X96896207Y-74862023D01*
X96839575Y-74650670D01*
X96747102Y-74452362D01*
X96621598Y-74273123D01*
X96466877Y-74118402D01*
X96287639Y-73992898D01*
X96196205Y-73950261D01*
X96089331Y-73900425D01*
X95877974Y-73843792D01*
X95660000Y-73824722D01*
X95442025Y-73843792D01*
X95230665Y-73900426D01*
X95023692Y-73996939D01*
X94974894Y-74008505D01*
X94925506Y-73999796D01*
X94883607Y-73972238D01*
X94843657Y-73932288D01*
X94694334Y-73840186D01*
X94527797Y-73785000D01*
X94425009Y-73774500D01*
X93649991Y-73774500D01*
X93547203Y-73785000D01*
X93380665Y-73840186D01*
X93231342Y-73932288D01*
X93107288Y-74056342D01*
X93015186Y-74205665D01*
X92960000Y-74372202D01*
X92949500Y-74474990D01*
X92949500Y-75525008D01*
X89212264Y-75525008D01*
X89219575Y-75509330D01*
X89276207Y-75297977D01*
X89295277Y-75080000D01*
X89276207Y-74862023D01*
X89219575Y-74650670D01*
X89127102Y-74452362D01*
X89001598Y-74273123D01*
X88846877Y-74118402D01*
X88667639Y-73992898D01*
X88576205Y-73950261D01*
X88469331Y-73900425D01*
X88257974Y-73843792D01*
X88040000Y-73824722D01*
X87822025Y-73843792D01*
X87610668Y-73900425D01*
X87412361Y-73992898D01*
X87233122Y-74118402D01*
X87078402Y-74273122D01*
X86976075Y-74419262D01*
X86928858Y-74459589D01*
X86868010Y-74471969D01*
X86808790Y-74453297D01*
X86766047Y-74408255D01*
X86750500Y-74348139D01*
X86750500Y-70731862D01*
X86766047Y-70671746D01*
X86808790Y-70626704D01*
X86868010Y-70608032D01*
X86928858Y-70620411D01*
X86976073Y-70660736D01*
X87078402Y-70806877D01*
X87233123Y-70961598D01*
X87412361Y-71087102D01*
X87610670Y-71179575D01*
X87822023Y-71236207D01*
X88040000Y-71255277D01*
X88257977Y-71236207D01*
X88469330Y-71179575D01*
X88667639Y-71087102D01*
X88846877Y-70961598D01*
X89001598Y-70806877D01*
X89127102Y-70627639D01*
X89219575Y-70429330D01*
X89276207Y-70217977D01*
X89295277Y-70000000D01*
X89276207Y-69782023D01*
X89219575Y-69570670D01*
X89127102Y-69372362D01*
X89001598Y-69193123D01*
X88846877Y-69038402D01*
X88667639Y-68912898D01*
X88535400Y-68851234D01*
X88469331Y-68820425D01*
X88257974Y-68763792D01*
X88040000Y-68744722D01*
X87822025Y-68763792D01*
X87610668Y-68820425D01*
X87412361Y-68912898D01*
X87233122Y-69038402D01*
X87078402Y-69193122D01*
X86976075Y-69339262D01*
X86928858Y-69379589D01*
X86868010Y-69391969D01*
X86808790Y-69373297D01*
X86766047Y-69328255D01*
X86750500Y-69268139D01*
X86750500Y-67811862D01*
X86766047Y-67751746D01*
X86808790Y-67706704D01*
X86868010Y-67688032D01*
X86928858Y-67700411D01*
X86976073Y-67740736D01*
X87078402Y-67886877D01*
X87233123Y-68041598D01*
X87412361Y-68167102D01*
X87610670Y-68259575D01*
X87822023Y-68316207D01*
X88040000Y-68335277D01*
X88257977Y-68316207D01*
X88469330Y-68259575D01*
X88667639Y-68167102D01*
X88846877Y-68041598D01*
X89001598Y-67886877D01*
X89127102Y-67707639D01*
X89212264Y-67525008D01*
X92949500Y-67525008D01*
X92960000Y-67627796D01*
X93015186Y-67794334D01*
X93107288Y-67943657D01*
X93231342Y-68067711D01*
X93287895Y-68102592D01*
X93380666Y-68159814D01*
X93492016Y-68196712D01*
X93547202Y-68214999D01*
X93557703Y-68216071D01*
X93649991Y-68225500D01*
X94425008Y-68225499D01*
X94527797Y-68214999D01*
X94694334Y-68159814D01*
X94799108Y-68095188D01*
X94843853Y-68078411D01*
X94891625Y-68079801D01*
X94935322Y-68099154D01*
X95032361Y-68167102D01*
X95230670Y-68259575D01*
X95442023Y-68316207D01*
X95660000Y-68335277D01*
X95877977Y-68316207D01*
X96089330Y-68259575D01*
X96287639Y-68167102D01*
X96466877Y-68041598D01*
X96621598Y-67886877D01*
X96747102Y-67707639D01*
X96839575Y-67509330D01*
X96896207Y-67297977D01*
X96915277Y-67080000D01*
X96896207Y-66862023D01*
X96839575Y-66650670D01*
X96747102Y-66452362D01*
X96621598Y-66273123D01*
X96466877Y-66118402D01*
X96287639Y-65992898D01*
X96196205Y-65950261D01*
X96089331Y-65900425D01*
X95877974Y-65843792D01*
X95660000Y-65824722D01*
X95442025Y-65843792D01*
X95230665Y-65900426D01*
X95023692Y-65996939D01*
X94974894Y-66008505D01*
X94925506Y-65999796D01*
X94883607Y-65972238D01*
X94843657Y-65932288D01*
X94694334Y-65840186D01*
X94527797Y-65785000D01*
X94425009Y-65774500D01*
X93649991Y-65774500D01*
X93547203Y-65785000D01*
X93380665Y-65840186D01*
X93231342Y-65932288D01*
X93107288Y-66056342D01*
X93015186Y-66205665D01*
X92960000Y-66372202D01*
X92949500Y-66474990D01*
X92949500Y-67525008D01*
X89212264Y-67525008D01*
X89219575Y-67509330D01*
X89276207Y-67297977D01*
X89295277Y-67080000D01*
X89276207Y-66862023D01*
X89219575Y-66650670D01*
X89127102Y-66452362D01*
X89001598Y-66273123D01*
X88846877Y-66118402D01*
X88667639Y-65992898D01*
X88576205Y-65950261D01*
X88469331Y-65900425D01*
X88257974Y-65843792D01*
X88040000Y-65824722D01*
X87822025Y-65843792D01*
X87610668Y-65900425D01*
X87412361Y-65992898D01*
X87233122Y-66118402D01*
X87078402Y-66273122D01*
X86976075Y-66419262D01*
X86928858Y-66459589D01*
X86868010Y-66471969D01*
X86808790Y-66453297D01*
X86766047Y-66408255D01*
X86750500Y-66348139D01*
X86750500Y-62731862D01*
X86766047Y-62671746D01*
X86808790Y-62626704D01*
X86868010Y-62608032D01*
X86928858Y-62620411D01*
X86976073Y-62660736D01*
X87078402Y-62806877D01*
X87233123Y-62961598D01*
X87412361Y-63087102D01*
X87610670Y-63179575D01*
X87822023Y-63236207D01*
X88040000Y-63255277D01*
X88257977Y-63236207D01*
X88469330Y-63179575D01*
X88667639Y-63087102D01*
X88846877Y-62961598D01*
X89001598Y-62806877D01*
X89127102Y-62627639D01*
X89219575Y-62429330D01*
X89276207Y-62217977D01*
X89295277Y-62000000D01*
X89276207Y-61782023D01*
X89219575Y-61570670D01*
X89127102Y-61372362D01*
X89001598Y-61193123D01*
X88846877Y-61038402D01*
X88667639Y-60912898D01*
X88535400Y-60851234D01*
X88469331Y-60820425D01*
X88257974Y-60763792D01*
X88040000Y-60744722D01*
X87822025Y-60763792D01*
X87610668Y-60820425D01*
X87412361Y-60912898D01*
X87233122Y-61038402D01*
X87078402Y-61193122D01*
X86976075Y-61339262D01*
X86928858Y-61379589D01*
X86868010Y-61391969D01*
X86808790Y-61373297D01*
X86766047Y-61328255D01*
X86750500Y-61268139D01*
X86750500Y-59811862D01*
X86766047Y-59751746D01*
X86808790Y-59706704D01*
X86868010Y-59688032D01*
X86928858Y-59700411D01*
X86976073Y-59740736D01*
X87078402Y-59886877D01*
X87233123Y-60041598D01*
X87412361Y-60167102D01*
X87610670Y-60259575D01*
X87822023Y-60316207D01*
X88040000Y-60335277D01*
X88257977Y-60316207D01*
X88469330Y-60259575D01*
X88667639Y-60167102D01*
X88846877Y-60041598D01*
X89001598Y-59886877D01*
X89127102Y-59707639D01*
X89212264Y-59525008D01*
X92949500Y-59525008D01*
X92960000Y-59627796D01*
X93015186Y-59794334D01*
X93107288Y-59943657D01*
X93231342Y-60067711D01*
X93287895Y-60102592D01*
X93380666Y-60159814D01*
X93492016Y-60196712D01*
X93547202Y-60214999D01*
X93557702Y-60216071D01*
X93649991Y-60225500D01*
X94425008Y-60225499D01*
X94527797Y-60214999D01*
X94694334Y-60159814D01*
X94799108Y-60095188D01*
X94843853Y-60078411D01*
X94891625Y-60079801D01*
X94935322Y-60099154D01*
X95032361Y-60167102D01*
X95230670Y-60259575D01*
X95442023Y-60316207D01*
X95660000Y-60335277D01*
X95877977Y-60316207D01*
X96089330Y-60259575D01*
X96287639Y-60167102D01*
X96466877Y-60041598D01*
X96621598Y-59886877D01*
X96747102Y-59707639D01*
X96839575Y-59509330D01*
X96896207Y-59297977D01*
X96915277Y-59080000D01*
X96896207Y-58862023D01*
X96839575Y-58650670D01*
X96747102Y-58452362D01*
X96621598Y-58273123D01*
X96466877Y-58118402D01*
X96287639Y-57992898D01*
X96196205Y-57950261D01*
X96089331Y-57900425D01*
X95877974Y-57843792D01*
X95660000Y-57824722D01*
X95442025Y-57843792D01*
X95230665Y-57900426D01*
X95023692Y-57996939D01*
X94974894Y-58008505D01*
X94925506Y-57999796D01*
X94883607Y-57972238D01*
X94843657Y-57932288D01*
X94694334Y-57840186D01*
X94527797Y-57785000D01*
X94425009Y-57774500D01*
X93649991Y-57774500D01*
X93547203Y-57785000D01*
X93380665Y-57840186D01*
X93231342Y-57932288D01*
X93107288Y-58056342D01*
X93015186Y-58205665D01*
X92960000Y-58372202D01*
X92949500Y-58474990D01*
X92949500Y-59525008D01*
X89212264Y-59525008D01*
X89219575Y-59509330D01*
X89276207Y-59297977D01*
X89295277Y-59080000D01*
X89276207Y-58862023D01*
X89219575Y-58650670D01*
X89127102Y-58452362D01*
X89001598Y-58273123D01*
X88846877Y-58118402D01*
X88667639Y-57992898D01*
X88576205Y-57950261D01*
X88469331Y-57900425D01*
X88257974Y-57843792D01*
X88040000Y-57824722D01*
X87822025Y-57843792D01*
X87610668Y-57900425D01*
X87412361Y-57992898D01*
X87233122Y-58118402D01*
X87078402Y-58273122D01*
X86976075Y-58419262D01*
X86928858Y-58459589D01*
X86868010Y-58471969D01*
X86808790Y-58453297D01*
X86766047Y-58408255D01*
X86750500Y-58348139D01*
X86750500Y-54731862D01*
X86766047Y-54671746D01*
X86808790Y-54626704D01*
X86868010Y-54608032D01*
X86928858Y-54620411D01*
X86976073Y-54660736D01*
X87078402Y-54806877D01*
X87233123Y-54961598D01*
X87412361Y-55087102D01*
X87610670Y-55179575D01*
X87822023Y-55236207D01*
X88040000Y-55255277D01*
X88257977Y-55236207D01*
X88469330Y-55179575D01*
X88667639Y-55087102D01*
X88846877Y-54961598D01*
X89001598Y-54806877D01*
X89127102Y-54627639D01*
X89219575Y-54429330D01*
X89276207Y-54217977D01*
X89295277Y-54000000D01*
X89276207Y-53782023D01*
X89219575Y-53570670D01*
X89127102Y-53372362D01*
X89001598Y-53193123D01*
X88846877Y-53038402D01*
X88667639Y-52912898D01*
X88535400Y-52851234D01*
X88469331Y-52820425D01*
X88257974Y-52763792D01*
X88040000Y-52744722D01*
X87822025Y-52763792D01*
X87610668Y-52820425D01*
X87412361Y-52912898D01*
X87233122Y-53038402D01*
X87078402Y-53193122D01*
X86976075Y-53339262D01*
X86928858Y-53379589D01*
X86868010Y-53391969D01*
X86808790Y-53373297D01*
X86766047Y-53328255D01*
X86750500Y-53268139D01*
X86750500Y-51811862D01*
X86766047Y-51751746D01*
X86808790Y-51706704D01*
X86868010Y-51688032D01*
X86928858Y-51700411D01*
X86976073Y-51740736D01*
X87078402Y-51886877D01*
X87233123Y-52041598D01*
X87412361Y-52167102D01*
X87610670Y-52259575D01*
X87822023Y-52316207D01*
X88040000Y-52335277D01*
X88257977Y-52316207D01*
X88469330Y-52259575D01*
X88667639Y-52167102D01*
X88846877Y-52041598D01*
X89001598Y-51886877D01*
X89127102Y-51707639D01*
X89212264Y-51525008D01*
X92949500Y-51525008D01*
X92960000Y-51627796D01*
X93015186Y-51794334D01*
X93107288Y-51943657D01*
X93231342Y-52067711D01*
X93287895Y-52102593D01*
X93380666Y-52159814D01*
X93492017Y-52196712D01*
X93547202Y-52214999D01*
X93557702Y-52216071D01*
X93649991Y-52225500D01*
X94425008Y-52225499D01*
X94527797Y-52214999D01*
X94694334Y-52159814D01*
X94799108Y-52095188D01*
X94843853Y-52078411D01*
X94891625Y-52079801D01*
X94935322Y-52099154D01*
X95032361Y-52167102D01*
X95230670Y-52259575D01*
X95442023Y-52316207D01*
X95660000Y-52335277D01*
X95877977Y-52316207D01*
X96089330Y-52259575D01*
X96287639Y-52167102D01*
X96466877Y-52041598D01*
X96621598Y-51886877D01*
X96747102Y-51707639D01*
X96839575Y-51509330D01*
X96896207Y-51297977D01*
X96915277Y-51080000D01*
X96896207Y-50862023D01*
X96839575Y-50650670D01*
X96747102Y-50452362D01*
X96621598Y-50273123D01*
X96466877Y-50118402D01*
X96287639Y-49992898D01*
X96196205Y-49950261D01*
X96089331Y-49900425D01*
X95877974Y-49843792D01*
X95660000Y-49824722D01*
X95442025Y-49843792D01*
X95230665Y-49900426D01*
X95023692Y-49996939D01*
X94974894Y-50008505D01*
X94925506Y-49999796D01*
X94883607Y-49972238D01*
X94843657Y-49932288D01*
X94694334Y-49840186D01*
X94527797Y-49785000D01*
X94425009Y-49774500D01*
X93649991Y-49774500D01*
X93547203Y-49785000D01*
X93380665Y-49840186D01*
X93231342Y-49932288D01*
X93107288Y-50056342D01*
X93015186Y-50205665D01*
X92960000Y-50372202D01*
X92949500Y-50474990D01*
X92949500Y-51525008D01*
X89212264Y-51525008D01*
X89219575Y-51509330D01*
X89276207Y-51297977D01*
X89295277Y-51080000D01*
X89276207Y-50862023D01*
X89219575Y-50650670D01*
X89127102Y-50452362D01*
X89001598Y-50273123D01*
X88846877Y-50118402D01*
X88667639Y-49992898D01*
X88576205Y-49950261D01*
X88469331Y-49900425D01*
X88257974Y-49843792D01*
X88040000Y-49824722D01*
X87822025Y-49843792D01*
X87610668Y-49900425D01*
X87412361Y-49992898D01*
X87233122Y-50118402D01*
X87078402Y-50273122D01*
X86976075Y-50419262D01*
X86928858Y-50459589D01*
X86868010Y-50471969D01*
X86808790Y-50453297D01*
X86766047Y-50408255D01*
X86750500Y-50348139D01*
X86750500Y-46731862D01*
X86766047Y-46671746D01*
X86808790Y-46626704D01*
X86868010Y-46608032D01*
X86928858Y-46620411D01*
X86976073Y-46660736D01*
X87078402Y-46806877D01*
X87233123Y-46961598D01*
X87412361Y-47087102D01*
X87610670Y-47179575D01*
X87822023Y-47236207D01*
X88040000Y-47255277D01*
X88257977Y-47236207D01*
X88469330Y-47179575D01*
X88667639Y-47087102D01*
X88846877Y-46961598D01*
X89001598Y-46806877D01*
X89127102Y-46627639D01*
X89219575Y-46429330D01*
X89276207Y-46217977D01*
X89295277Y-46000000D01*
X89276207Y-45782023D01*
X89219575Y-45570670D01*
X89127102Y-45372362D01*
X89001598Y-45193123D01*
X88846877Y-45038402D01*
X88667639Y-44912898D01*
X88535400Y-44851234D01*
X88469331Y-44820425D01*
X88257974Y-44763792D01*
X88040000Y-44744722D01*
X87822025Y-44763792D01*
X87610668Y-44820425D01*
X87412361Y-44912898D01*
X87233122Y-45038402D01*
X87078402Y-45193122D01*
X86976075Y-45339262D01*
X86928858Y-45379589D01*
X86868010Y-45391969D01*
X86808790Y-45373297D01*
X86766047Y-45328255D01*
X86750500Y-45268139D01*
X86750500Y-43811862D01*
X86766047Y-43751746D01*
X86808790Y-43706704D01*
X86868010Y-43688032D01*
X86928858Y-43700411D01*
X86976073Y-43740736D01*
X87078402Y-43886877D01*
X87233123Y-44041598D01*
X87412361Y-44167102D01*
X87610670Y-44259575D01*
X87822023Y-44316207D01*
X88040000Y-44335277D01*
X88257977Y-44316207D01*
X88469330Y-44259575D01*
X88667639Y-44167102D01*
X88846877Y-44041598D01*
X89001598Y-43886877D01*
X89127102Y-43707639D01*
X89212264Y-43525008D01*
X92949500Y-43525008D01*
X92960000Y-43627796D01*
X93015186Y-43794334D01*
X93107288Y-43943657D01*
X93231342Y-44067711D01*
X93287895Y-44102593D01*
X93380666Y-44159814D01*
X93492016Y-44196712D01*
X93547202Y-44214999D01*
X93557703Y-44216071D01*
X93649991Y-44225500D01*
X94425008Y-44225499D01*
X94527797Y-44214999D01*
X94694334Y-44159814D01*
X94799108Y-44095188D01*
X94843853Y-44078411D01*
X94891625Y-44079801D01*
X94935322Y-44099154D01*
X95032361Y-44167102D01*
X95230670Y-44259575D01*
X95442023Y-44316207D01*
X95660000Y-44335277D01*
X95877977Y-44316207D01*
X96089330Y-44259575D01*
X96287639Y-44167102D01*
X96466877Y-44041598D01*
X96621598Y-43886877D01*
X96747102Y-43707639D01*
X96839575Y-43509330D01*
X96896207Y-43297977D01*
X96915277Y-43080000D01*
X96896207Y-42862023D01*
X96839575Y-42650670D01*
X96747102Y-42452362D01*
X96621598Y-42273123D01*
X96466877Y-42118402D01*
X96287639Y-41992898D01*
X96196205Y-41950261D01*
X96089331Y-41900425D01*
X95877974Y-41843792D01*
X95659999Y-41824722D01*
X95442025Y-41843792D01*
X95230665Y-41900426D01*
X95023692Y-41996939D01*
X94974894Y-42008505D01*
X94925506Y-41999796D01*
X94883607Y-41972238D01*
X94843657Y-41932288D01*
X94694334Y-41840186D01*
X94527797Y-41785000D01*
X94425009Y-41774500D01*
X93649991Y-41774500D01*
X93547203Y-41785000D01*
X93380665Y-41840186D01*
X93231342Y-41932288D01*
X93107288Y-42056342D01*
X93015186Y-42205665D01*
X92960000Y-42372202D01*
X92949500Y-42474990D01*
X92949500Y-43525008D01*
X89212264Y-43525008D01*
X89219575Y-43509330D01*
X89276207Y-43297977D01*
X89295277Y-43080000D01*
X89276207Y-42862023D01*
X89219575Y-42650670D01*
X89127102Y-42452362D01*
X89001598Y-42273123D01*
X88846877Y-42118402D01*
X88667639Y-41992898D01*
X88576205Y-41950261D01*
X88469331Y-41900425D01*
X88257974Y-41843792D01*
X88039999Y-41824722D01*
X87822025Y-41843792D01*
X87610668Y-41900425D01*
X87412361Y-41992898D01*
X87233122Y-42118402D01*
X87078402Y-42273122D01*
X86976075Y-42419262D01*
X86928858Y-42459589D01*
X86868010Y-42471969D01*
X86808790Y-42453297D01*
X86766047Y-42408255D01*
X86750500Y-42348139D01*
X86750500Y-38731862D01*
X86766047Y-38671746D01*
X86808790Y-38626704D01*
X86868010Y-38608032D01*
X86928858Y-38620411D01*
X86976073Y-38660736D01*
X87078402Y-38806877D01*
X87233123Y-38961598D01*
X87412361Y-39087102D01*
X87610670Y-39179575D01*
X87822023Y-39236207D01*
X88040000Y-39255277D01*
X88257977Y-39236207D01*
X88469330Y-39179575D01*
X88667639Y-39087102D01*
X88846877Y-38961598D01*
X89001598Y-38806877D01*
X89127102Y-38627639D01*
X89219575Y-38429330D01*
X89276207Y-38217977D01*
X89295277Y-38000000D01*
X89276207Y-37782023D01*
X89219575Y-37570670D01*
X89127102Y-37372362D01*
X89001598Y-37193123D01*
X88846877Y-37038402D01*
X88667639Y-36912898D01*
X88535400Y-36851234D01*
X88469331Y-36820425D01*
X88257974Y-36763792D01*
X88040000Y-36744722D01*
X87822025Y-36763792D01*
X87610668Y-36820425D01*
X87412361Y-36912898D01*
X87233122Y-37038402D01*
X87078402Y-37193122D01*
X86952898Y-37372361D01*
X86882830Y-37522621D01*
X86837398Y-37574589D01*
X86771220Y-37594214D01*
X86704803Y-37575414D01*
X86658729Y-37524019D01*
X86630386Y-37465164D01*
X86629766Y-37463854D01*
X86586292Y-37370625D01*
X86578227Y-37356853D01*
X86577829Y-37356027D01*
X86518669Y-37274600D01*
X86517538Y-37273015D01*
X86461598Y-37193123D01*
X86460727Y-37192252D01*
X86448088Y-37177453D01*
X86445524Y-37173924D01*
X86421253Y-37150719D01*
X86375322Y-37106804D01*
X86373333Y-37104858D01*
X86306877Y-37038402D01*
X86303037Y-37035713D01*
X86288477Y-37023771D01*
X86282826Y-37018368D01*
X86204661Y-36966772D01*
X86201849Y-36964860D01*
X86127642Y-36912899D01*
X86124263Y-36911323D01*
X86120260Y-36909457D01*
X86104364Y-36900567D01*
X86094969Y-36894365D01*
X86061650Y-36880124D01*
X86011955Y-36858883D01*
X86008336Y-36857266D01*
X85929325Y-36820422D01*
X85918141Y-36817425D01*
X85901513Y-36811677D01*
X85887988Y-36805897D01*
X85803351Y-36786578D01*
X85798854Y-36785462D01*
X85717981Y-36763793D01*
X85706886Y-36762822D01*
X85703005Y-36762482D01*
X85686231Y-36759847D01*
X85668537Y-36755809D01*
X85585221Y-36752066D01*
X85579982Y-36751719D01*
X85499997Y-36744722D01*
X85481595Y-36746331D01*
X85465242Y-36746677D01*
X85443673Y-36745709D01*
X85364422Y-36756444D01*
X85358586Y-36757094D01*
X85282022Y-36763792D01*
X85260867Y-36769461D01*
X85245422Y-36772564D01*
X85220607Y-36775925D01*
X85147827Y-36799573D01*
X85141606Y-36801416D01*
X85070668Y-36820425D01*
X85047692Y-36831138D01*
X85033614Y-36836684D01*
X85006537Y-36845482D01*
X84942161Y-36880124D01*
X84935810Y-36883310D01*
X84872360Y-36912898D01*
X84848779Y-36929409D01*
X84836423Y-36937023D01*
X84808321Y-36952146D01*
X84753830Y-36995600D01*
X84747644Y-37000225D01*
X84693120Y-37038403D01*
X84670329Y-37061194D01*
X84659967Y-37070455D01*
X84632333Y-37092493D01*
X84588738Y-37142389D01*
X84583042Y-37148481D01*
X84538402Y-37193121D01*
X84517945Y-37222336D01*
X84509755Y-37232792D01*
X84484235Y-37262002D01*
X84452010Y-37315937D01*
X84447140Y-37323457D01*
X84412896Y-37372364D01*
X84396371Y-37407800D01*
X84390441Y-37418986D01*
X84368785Y-37455233D01*
X84347917Y-37510834D01*
X84344208Y-37519662D01*
X84320425Y-37570667D01*
X84309415Y-37611755D01*
X84305736Y-37623225D01*
X84289691Y-37665979D01*
X84279699Y-37721034D01*
X84277469Y-37730979D01*
X84263793Y-37782022D01*
X84259786Y-37827815D01*
X84258266Y-37839142D01*
X84249500Y-37887454D01*
X84249500Y-37939985D01*
X84249028Y-37950793D01*
X84244722Y-37999999D01*
X84249028Y-38049207D01*
X84249500Y-38060015D01*
X84249500Y-43019985D01*
X84249028Y-43030793D01*
X84244722Y-43080000D01*
X84249028Y-43129207D01*
X84249500Y-43140015D01*
X84249500Y-45939985D01*
X84249028Y-45950793D01*
X84244722Y-46000000D01*
X84249028Y-46049207D01*
X84249500Y-46060015D01*
X84249500Y-51019985D01*
X84249028Y-51030793D01*
X84244722Y-51079999D01*
X84249028Y-51129207D01*
X84249500Y-51140015D01*
X84249500Y-53939985D01*
X84249028Y-53950793D01*
X84244722Y-54000000D01*
X84249028Y-54049207D01*
X84249500Y-54060015D01*
X84249500Y-59019985D01*
X84249028Y-59030793D01*
X84244722Y-59079999D01*
X84249028Y-59129207D01*
X84249500Y-59140015D01*
X84249500Y-61939985D01*
X84249028Y-61950793D01*
X84244722Y-62000000D01*
X84249028Y-62049207D01*
X84249500Y-62060015D01*
X84249500Y-67019985D01*
X84249028Y-67030793D01*
X84244722Y-67080000D01*
X84249028Y-67129207D01*
X84249500Y-67140015D01*
X84249500Y-69939985D01*
X84249028Y-69950793D01*
X84244722Y-69999999D01*
X84249028Y-70049207D01*
X84249500Y-70060015D01*
X84249500Y-75019985D01*
X84249028Y-75030793D01*
X84244722Y-75079999D01*
X84249028Y-75129207D01*
X84249500Y-75140015D01*
X84249500Y-77939985D01*
X84249028Y-77950793D01*
X84244722Y-78000000D01*
X84249028Y-78049207D01*
X84249500Y-78060015D01*
X84249500Y-83019985D01*
X84249028Y-83030793D01*
X84244722Y-83080000D01*
X84249028Y-83129207D01*
X84249500Y-83140015D01*
X84249500Y-90859985D01*
X84249028Y-90870793D01*
X84244722Y-90920000D01*
X84249028Y-90969207D01*
X84249500Y-90980015D01*
X84249500Y-95430664D01*
X84240061Y-95478117D01*
X84213181Y-95518345D01*
X71630343Y-108101181D01*
X71619980Y-108110443D01*
X71592335Y-108132491D01*
X71548735Y-108182392D01*
X71543050Y-108188473D01*
X71536059Y-108195464D01*
X71509928Y-108226764D01*
X71508124Y-108228876D01*
X71444235Y-108302003D01*
X71441986Y-108305767D01*
X71430739Y-108321617D01*
X71427932Y-108324979D01*
X71379978Y-108409490D01*
X71378604Y-108411849D01*
X71329719Y-108493671D01*
X71328782Y-108495241D01*
X71327246Y-108499335D01*
X71319009Y-108516944D01*
X71316847Y-108520753D01*
X71284762Y-108612444D01*
X71283814Y-108615057D01*
X71249691Y-108705978D01*
X71248910Y-108710282D01*
X71243950Y-108729077D01*
X71242501Y-108733217D01*
X71227304Y-108829166D01*
X71226838Y-108831907D01*
X71209500Y-108927450D01*
X71209500Y-108931830D01*
X71207973Y-108951229D01*
X71207290Y-108955539D01*
X57812934Y-108955539D01*
X59749667Y-107018805D01*
X59760016Y-107009557D01*
X59787666Y-106987508D01*
X59831268Y-106937600D01*
X59836959Y-106931514D01*
X59843945Y-106924529D01*
X59870132Y-106893160D01*
X59871781Y-106891229D01*
X59935765Y-106817996D01*
X59938002Y-106814251D01*
X59949269Y-106798370D01*
X59952068Y-106795019D01*
X60000008Y-106710529D01*
X60001375Y-106708182D01*
X60051214Y-106624765D01*
X60051215Y-106624764D01*
X60052749Y-106620674D01*
X60060998Y-106603041D01*
X60063153Y-106599245D01*
X60095261Y-106507484D01*
X60096141Y-106505057D01*
X60130307Y-106414024D01*
X60131086Y-106409727D01*
X60136050Y-106390917D01*
X60137498Y-106386782D01*
X60149400Y-106311632D01*
X60152696Y-106290825D01*
X60153154Y-106288124D01*
X60170500Y-106192547D01*
X60170500Y-106188170D01*
X60172027Y-106168771D01*
X60172710Y-106164460D01*
X60170530Y-106067358D01*
X60170500Y-106064578D01*
X60170500Y-105390015D01*
X60170972Y-105379207D01*
X60173231Y-105353382D01*
X60175277Y-105330000D01*
X62744722Y-105330000D01*
X62763792Y-105547974D01*
X62820425Y-105759331D01*
X62848329Y-105819170D01*
X62912898Y-105957639D01*
X63038402Y-106136877D01*
X63193123Y-106291598D01*
X63372361Y-106417102D01*
X63570670Y-106509575D01*
X63782023Y-106566207D01*
X63916033Y-106577931D01*
X63999999Y-106585277D01*
X63999999Y-106585276D01*
X64000000Y-106585277D01*
X64185731Y-106569028D01*
X64238948Y-106576034D01*
X64284219Y-106604875D01*
X64444551Y-106765207D01*
X64449671Y-106770645D01*
X64489571Y-106815683D01*
X64539077Y-106849854D01*
X64545106Y-106854290D01*
X64592443Y-106891377D01*
X64601678Y-106895533D01*
X64621226Y-106906558D01*
X64629570Y-106912318D01*
X64685822Y-106933651D01*
X64692728Y-106936512D01*
X64747568Y-106961194D01*
X64757530Y-106963019D01*
X64779150Y-106969046D01*
X64788625Y-106972639D01*
X64788628Y-106972640D01*
X64848356Y-106979892D01*
X64855701Y-106981009D01*
X64914894Y-106991857D01*
X64974921Y-106988226D01*
X64982409Y-106988000D01*
X65297912Y-106988000D01*
X65358344Y-107003723D01*
X65403451Y-107046904D01*
X65432288Y-107093657D01*
X65556342Y-107217711D01*
X65556344Y-107217712D01*
X65705666Y-107309814D01*
X65817016Y-107346712D01*
X65872202Y-107364999D01*
X65882703Y-107366071D01*
X65974991Y-107375500D01*
X67025008Y-107375499D01*
X67127797Y-107364999D01*
X67294334Y-107309814D01*
X67443656Y-107217712D01*
X67567712Y-107093656D01*
X67659814Y-106944334D01*
X67714999Y-106777797D01*
X67725500Y-106675009D01*
X67725499Y-105899992D01*
X67714999Y-105797203D01*
X67659814Y-105630666D01*
X67567712Y-105481344D01*
X67567711Y-105481342D01*
X67443657Y-105357288D01*
X67294334Y-105265186D01*
X67127797Y-105210000D01*
X67025009Y-105199500D01*
X65974991Y-105199500D01*
X65872203Y-105210000D01*
X65705665Y-105265186D01*
X65556344Y-105357287D01*
X65464697Y-105448934D01*
X65413269Y-105479834D01*
X65353354Y-105482973D01*
X65298979Y-105457617D01*
X65262872Y-105409700D01*
X65253488Y-105350444D01*
X65255277Y-105330000D01*
X65254331Y-105319192D01*
X65236207Y-105112025D01*
X65236207Y-105112023D01*
X65179575Y-104900670D01*
X65087102Y-104702362D01*
X64961598Y-104523123D01*
X64806877Y-104368402D01*
X64627639Y-104242898D01*
X64479962Y-104174035D01*
X64429331Y-104150425D01*
X64217974Y-104093792D01*
X64000000Y-104074722D01*
X63782025Y-104093792D01*
X63570668Y-104150425D01*
X63372361Y-104242898D01*
X63193122Y-104368402D01*
X63038402Y-104523122D01*
X62912898Y-104702361D01*
X62820425Y-104900668D01*
X62763792Y-105112025D01*
X62744722Y-105330000D01*
X60175277Y-105330000D01*
X60174331Y-105319192D01*
X60172954Y-105303447D01*
X60170971Y-105280791D01*
X60170500Y-105269985D01*
X60170500Y-100799545D01*
X62749500Y-100799545D01*
X62760007Y-100902399D01*
X62815228Y-101069045D01*
X62907394Y-101218470D01*
X63031529Y-101342605D01*
X63031531Y-101342606D01*
X63031532Y-101342607D01*
X63180953Y-101434771D01*
X63264277Y-101462381D01*
X63347600Y-101489992D01*
X63399027Y-101495245D01*
X63450454Y-101500500D01*
X64549545Y-101500500D01*
X64549546Y-101500500D01*
X64652399Y-101489992D01*
X64819047Y-101434771D01*
X64968468Y-101342607D01*
X65092607Y-101218468D01*
X65184771Y-101069047D01*
X65239992Y-100902399D01*
X65243692Y-100866178D01*
X65269503Y-100802227D01*
X65325487Y-100761954D01*
X65394328Y-100757819D01*
X65454731Y-100791100D01*
X65556342Y-100892711D01*
X65556344Y-100892712D01*
X65705666Y-100984814D01*
X65817017Y-101021712D01*
X65872202Y-101039999D01*
X65882703Y-101041071D01*
X65974991Y-101050500D01*
X67025008Y-101050499D01*
X67127797Y-101039999D01*
X67294334Y-100984814D01*
X67443656Y-100892712D01*
X67567712Y-100768656D01*
X67659814Y-100619334D01*
X67714999Y-100452797D01*
X67725500Y-100350009D01*
X67725499Y-99574992D01*
X67717838Y-99500000D01*
X67714999Y-99472203D01*
X67699000Y-99423922D01*
X67659814Y-99305666D01*
X67595963Y-99202146D01*
X67567711Y-99156342D01*
X67443657Y-99032288D01*
X67294334Y-98940186D01*
X67127797Y-98885000D01*
X67025009Y-98874500D01*
X65974991Y-98874500D01*
X65872203Y-98885000D01*
X65705665Y-98940186D01*
X65556342Y-99032288D01*
X65432288Y-99156342D01*
X65403451Y-99203096D01*
X65358344Y-99246277D01*
X65297912Y-99262000D01*
X65124437Y-99262000D01*
X65076984Y-99252561D01*
X65036758Y-99225683D01*
X64968468Y-99157393D01*
X64819047Y-99065229D01*
X64819046Y-99065228D01*
X64819045Y-99065228D01*
X64652399Y-99010007D01*
X64559079Y-99000473D01*
X64549546Y-98999500D01*
X63450454Y-98999500D01*
X63441729Y-99000391D01*
X63347600Y-99010007D01*
X63180954Y-99065228D01*
X63031529Y-99157394D01*
X62907394Y-99281529D01*
X62815228Y-99430954D01*
X62760007Y-99597600D01*
X62749500Y-99700455D01*
X62749500Y-100799545D01*
X60170500Y-100799545D01*
X60170500Y-100310015D01*
X60170972Y-100299207D01*
X60173455Y-100270829D01*
X60175277Y-100250000D01*
X60170971Y-100200791D01*
X60170827Y-100197486D01*
X60170500Y-100193852D01*
X60170500Y-100193845D01*
X60165638Y-100139827D01*
X60165611Y-100139517D01*
X60155797Y-100027334D01*
X60126851Y-99922455D01*
X60126607Y-99921558D01*
X60124065Y-99912071D01*
X60099575Y-99820670D01*
X60099574Y-99820667D01*
X60098224Y-99815629D01*
X60096457Y-99810832D01*
X60050428Y-99715250D01*
X60049766Y-99713854D01*
X60006292Y-99620625D01*
X59998227Y-99606853D01*
X59997829Y-99606027D01*
X59938669Y-99524600D01*
X59937538Y-99523015D01*
X59881598Y-99443123D01*
X59880726Y-99442251D01*
X59868088Y-99427453D01*
X59865524Y-99423924D01*
X59795322Y-99356804D01*
X59793333Y-99354858D01*
X59726877Y-99288402D01*
X59723037Y-99285713D01*
X59708477Y-99273771D01*
X59702826Y-99268368D01*
X59624661Y-99216772D01*
X59621849Y-99214860D01*
X59547642Y-99162899D01*
X59544263Y-99161323D01*
X59540260Y-99159457D01*
X59524364Y-99150567D01*
X59514969Y-99144365D01*
X59481650Y-99130124D01*
X59431955Y-99108883D01*
X59428336Y-99107266D01*
X59349325Y-99070422D01*
X59338141Y-99067425D01*
X59321513Y-99061677D01*
X59307988Y-99055897D01*
X59223351Y-99036578D01*
X59218854Y-99035462D01*
X59137981Y-99013793D01*
X59126886Y-99012822D01*
X59123005Y-99012482D01*
X59106231Y-99009847D01*
X59088537Y-99005809D01*
X59005221Y-99002066D01*
X58999982Y-99001719D01*
X58919997Y-98994722D01*
X58901595Y-98996331D01*
X58885242Y-98996677D01*
X58863673Y-98995709D01*
X58784422Y-99006444D01*
X58778586Y-99007094D01*
X58702022Y-99013792D01*
X58680867Y-99019461D01*
X58665422Y-99022564D01*
X58640607Y-99025925D01*
X58567827Y-99049573D01*
X58561606Y-99051416D01*
X58490668Y-99070425D01*
X58467692Y-99081138D01*
X58453614Y-99086684D01*
X58426537Y-99095482D01*
X58362161Y-99130124D01*
X58355810Y-99133310D01*
X58292360Y-99162898D01*
X58268779Y-99179409D01*
X58256423Y-99187023D01*
X58228321Y-99202146D01*
X58173830Y-99245600D01*
X58167644Y-99250225D01*
X58113120Y-99288403D01*
X58090329Y-99311194D01*
X58079967Y-99320455D01*
X58052333Y-99342493D01*
X58008738Y-99392389D01*
X58003042Y-99398481D01*
X57958402Y-99443121D01*
X57937945Y-99472336D01*
X57929755Y-99482792D01*
X57904235Y-99512002D01*
X57872010Y-99565937D01*
X57867142Y-99573453D01*
X57858577Y-99585685D01*
X57811364Y-99626015D01*
X57750515Y-99638397D01*
X57691293Y-99619727D01*
X57648548Y-99574685D01*
X57633000Y-99514567D01*
X57633000Y-96027515D01*
X57633472Y-96016707D01*
X57637777Y-95967500D01*
X57633472Y-95918293D01*
X57633000Y-95907485D01*
X57633000Y-90947515D01*
X57633472Y-90936707D01*
X57637777Y-90887500D01*
X57635843Y-90865397D01*
X57633471Y-90838291D01*
X57633000Y-90827485D01*
X57633000Y-84999999D01*
X69744750Y-84999999D01*
X69763686Y-85168056D01*
X69763686Y-85168058D01*
X69763687Y-85168059D01*
X69819544Y-85327690D01*
X69909523Y-85470890D01*
X70029110Y-85590477D01*
X70172310Y-85680456D01*
X70331941Y-85736313D01*
X70443980Y-85748936D01*
X70499999Y-85755249D01*
X70499999Y-85755248D01*
X70500000Y-85755249D01*
X70668059Y-85736313D01*
X70750522Y-85707457D01*
X70791476Y-85700500D01*
X71208524Y-85700500D01*
X71249477Y-85707457D01*
X71331941Y-85736313D01*
X71417434Y-85745945D01*
X71473329Y-85752244D01*
X71513247Y-85763744D01*
X71547126Y-85787783D01*
X73263181Y-87503837D01*
X73290061Y-87544065D01*
X73299500Y-87591518D01*
X73299500Y-87958524D01*
X73292542Y-87999478D01*
X73263686Y-88081943D01*
X73244750Y-88249999D01*
X73263686Y-88418056D01*
X73263686Y-88418058D01*
X73263687Y-88418059D01*
X73319544Y-88577690D01*
X73409523Y-88720890D01*
X73529110Y-88840477D01*
X73672310Y-88930456D01*
X73831941Y-88986313D01*
X74000000Y-89005249D01*
X74168059Y-88986313D01*
X74327690Y-88930456D01*
X74470890Y-88840477D01*
X74590477Y-88720890D01*
X74680456Y-88577690D01*
X74736313Y-88418059D01*
X74755249Y-88250000D01*
X74736313Y-88081941D01*
X74707457Y-87999477D01*
X74700500Y-87958524D01*
X74700500Y-87541476D01*
X74707458Y-87500522D01*
X74736313Y-87418059D01*
X74755249Y-87250000D01*
X74736313Y-87081941D01*
X74680456Y-86922310D01*
X74590477Y-86779110D01*
X74470890Y-86659523D01*
X74470889Y-86659522D01*
X74327689Y-86569543D01*
X74327497Y-86569476D01*
X74280774Y-86540117D01*
X72262940Y-84522283D01*
X72257822Y-84516847D01*
X72217929Y-84471817D01*
X72168432Y-84437651D01*
X72162405Y-84433216D01*
X72133709Y-84410735D01*
X72115057Y-84396122D01*
X72115055Y-84396121D01*
X72115054Y-84396120D01*
X72105813Y-84391961D01*
X72086273Y-84380941D01*
X72077930Y-84375182D01*
X72077927Y-84375181D01*
X72077926Y-84375180D01*
X72021701Y-84353856D01*
X72014783Y-84350991D01*
X71959929Y-84326303D01*
X71949952Y-84324475D01*
X71928339Y-84318450D01*
X71918873Y-84314860D01*
X71859172Y-84307610D01*
X71851771Y-84306483D01*
X71792605Y-84295641D01*
X71789172Y-84295849D01*
X71740735Y-84289117D01*
X71668056Y-84263686D01*
X71500000Y-84244750D01*
X71331943Y-84263686D01*
X71249478Y-84292542D01*
X71208524Y-84299500D01*
X70791476Y-84299500D01*
X70750522Y-84292542D01*
X70668056Y-84263686D01*
X70500000Y-84244750D01*
X70331943Y-84263686D01*
X70172310Y-84319544D01*
X70029108Y-84409524D01*
X69909524Y-84529108D01*
X69819544Y-84672310D01*
X69763686Y-84831943D01*
X69744750Y-84999999D01*
X57633000Y-84999999D01*
X57633000Y-83649328D01*
X57639958Y-83608373D01*
X57643150Y-83599249D01*
X57643153Y-83599245D01*
X57657667Y-83557763D01*
X57662322Y-83546328D01*
X57679575Y-83509330D01*
X57690589Y-83468222D01*
X57694265Y-83456767D01*
X57699662Y-83442386D01*
X57710307Y-83414024D01*
X57711086Y-83409731D01*
X57716056Y-83390903D01*
X57717498Y-83386783D01*
X57723835Y-83346761D01*
X57726528Y-83334095D01*
X57736207Y-83297977D01*
X57740212Y-83252185D01*
X57741734Y-83240847D01*
X57750500Y-83192546D01*
X57750500Y-83188170D01*
X57752027Y-83168772D01*
X57752710Y-83164460D01*
X57751877Y-83127387D01*
X57752317Y-83113824D01*
X57755277Y-83080000D01*
X57750971Y-83030791D01*
X57750500Y-83019985D01*
X57750500Y-78060015D01*
X57750972Y-78049207D01*
X57755277Y-78000000D01*
X57750972Y-77950793D01*
X57750500Y-77939985D01*
X57750500Y-75140015D01*
X57750972Y-75129207D01*
X57755277Y-75080000D01*
X57750972Y-75030793D01*
X57750500Y-75019985D01*
X57750500Y-70060015D01*
X57750972Y-70049207D01*
X57755277Y-70000000D01*
X57750972Y-69950793D01*
X57750500Y-69939985D01*
X57750500Y-67140015D01*
X57750972Y-67129207D01*
X57755277Y-67079999D01*
X57750972Y-67030793D01*
X57750500Y-67019985D01*
X57750500Y-62060015D01*
X57750972Y-62049207D01*
X57755277Y-62000000D01*
X57750972Y-61950793D01*
X57750500Y-61939985D01*
X57750500Y-59140015D01*
X57750972Y-59129207D01*
X57755277Y-59080000D01*
X57750972Y-59030793D01*
X57750500Y-59019985D01*
X57750500Y-54060015D01*
X57750972Y-54049207D01*
X57755277Y-54000000D01*
X57750972Y-53950793D01*
X57750500Y-53939985D01*
X57750500Y-51140015D01*
X57750972Y-51129207D01*
X57755277Y-51079999D01*
X57750972Y-51030793D01*
X57750500Y-51019985D01*
X57750500Y-46060015D01*
X57750972Y-46049207D01*
X57755277Y-45999999D01*
X57750972Y-45950793D01*
X57750500Y-45939985D01*
X57750500Y-43140015D01*
X57750972Y-43129207D01*
X57755277Y-43080000D01*
X57750972Y-43030793D01*
X57750500Y-43019985D01*
X57750500Y-38060015D01*
X57750972Y-38049207D01*
X57751781Y-38039966D01*
X57755277Y-38000000D01*
X57750971Y-37950791D01*
X57750827Y-37947486D01*
X57750500Y-37943852D01*
X57750500Y-37943845D01*
X57745638Y-37889827D01*
X57745611Y-37889517D01*
X57735797Y-37777334D01*
X57706851Y-37672455D01*
X57706607Y-37671558D01*
X57705111Y-37665976D01*
X57679575Y-37570670D01*
X57679574Y-37570667D01*
X57678224Y-37565629D01*
X57676457Y-37560832D01*
X57630428Y-37465250D01*
X57629766Y-37463854D01*
X57586292Y-37370625D01*
X57578227Y-37356853D01*
X57577829Y-37356027D01*
X57518669Y-37274600D01*
X57517538Y-37273015D01*
X57461598Y-37193123D01*
X57460727Y-37192252D01*
X57448088Y-37177453D01*
X57445524Y-37173924D01*
X57421253Y-37150719D01*
X57375322Y-37106804D01*
X57373333Y-37104858D01*
X57306877Y-37038402D01*
X57303037Y-37035713D01*
X57288477Y-37023771D01*
X57282826Y-37018368D01*
X57204661Y-36966772D01*
X57201849Y-36964860D01*
X57127642Y-36912899D01*
X57124263Y-36911323D01*
X57120260Y-36909457D01*
X57104364Y-36900567D01*
X57094969Y-36894365D01*
X57061650Y-36880124D01*
X57011955Y-36858883D01*
X57008336Y-36857266D01*
X56929325Y-36820422D01*
X56918141Y-36817425D01*
X56901513Y-36811677D01*
X56887988Y-36805897D01*
X56803351Y-36786578D01*
X56798854Y-36785462D01*
X56717981Y-36763793D01*
X56706886Y-36762822D01*
X56703005Y-36762482D01*
X56686231Y-36759847D01*
X56668537Y-36755809D01*
X56585221Y-36752066D01*
X56579982Y-36751719D01*
X56499997Y-36744722D01*
X56481595Y-36746331D01*
X56465242Y-36746677D01*
X56443673Y-36745709D01*
X56364422Y-36756444D01*
X56358586Y-36757094D01*
X56282022Y-36763792D01*
X56260867Y-36769461D01*
X56245422Y-36772564D01*
X56220607Y-36775925D01*
X56147827Y-36799573D01*
X56141606Y-36801416D01*
X56070668Y-36820425D01*
X56047692Y-36831138D01*
X56033614Y-36836684D01*
X56006537Y-36845482D01*
X55942161Y-36880124D01*
X55935810Y-36883310D01*
X55872360Y-36912898D01*
X55848779Y-36929409D01*
X55836423Y-36937023D01*
X55808321Y-36952146D01*
X55753830Y-36995600D01*
X55747644Y-37000225D01*
X55693120Y-37038403D01*
X55670329Y-37061194D01*
X55659967Y-37070455D01*
X55632333Y-37092493D01*
X55588738Y-37142389D01*
X55583042Y-37148481D01*
X55538402Y-37193121D01*
X55517945Y-37222336D01*
X55509755Y-37232792D01*
X55484235Y-37262002D01*
X55452010Y-37315937D01*
X55447140Y-37323457D01*
X55412896Y-37372364D01*
X55396371Y-37407800D01*
X55390441Y-37418986D01*
X55368785Y-37455233D01*
X55347917Y-37510834D01*
X55344208Y-37519663D01*
X55342382Y-37523579D01*
X55296625Y-37575756D01*
X55230000Y-37595176D01*
X55163374Y-37575757D01*
X55117617Y-37523581D01*
X55094958Y-37474990D01*
X55047102Y-37372362D01*
X54921598Y-37193123D01*
X54766877Y-37038402D01*
X54587639Y-36912898D01*
X54455400Y-36851234D01*
X54389331Y-36820425D01*
X54177974Y-36763792D01*
X53960000Y-36744722D01*
X53742025Y-36763792D01*
X53530668Y-36820425D01*
X53332361Y-36912898D01*
X53153122Y-37038402D01*
X52998402Y-37193122D01*
X52872898Y-37372361D01*
X52780425Y-37570668D01*
X52723792Y-37782025D01*
X52704722Y-38000000D01*
X52723792Y-38217974D01*
X52780425Y-38429331D01*
X52799303Y-38469814D01*
X52872898Y-38627639D01*
X52998402Y-38806877D01*
X53153123Y-38961598D01*
X53332361Y-39087102D01*
X53530670Y-39179575D01*
X53742023Y-39236207D01*
X53960000Y-39255277D01*
X54177977Y-39236207D01*
X54389330Y-39179575D01*
X54587639Y-39087102D01*
X54766877Y-38961598D01*
X54921598Y-38806877D01*
X55023926Y-38660736D01*
X55071142Y-38620411D01*
X55131990Y-38608032D01*
X55191210Y-38626704D01*
X55233953Y-38671746D01*
X55249500Y-38731862D01*
X55249500Y-42348139D01*
X55233953Y-42408255D01*
X55191210Y-42453297D01*
X55131990Y-42471969D01*
X55071142Y-42459589D01*
X55023925Y-42419262D01*
X54990974Y-42372203D01*
X54921598Y-42273123D01*
X54766877Y-42118402D01*
X54587639Y-41992898D01*
X54496205Y-41950261D01*
X54389331Y-41900425D01*
X54177974Y-41843792D01*
X53959999Y-41824722D01*
X53742025Y-41843792D01*
X53530668Y-41900425D01*
X53332361Y-41992898D01*
X53153122Y-42118402D01*
X52998402Y-42273122D01*
X52872898Y-42452361D01*
X52780425Y-42650668D01*
X52723792Y-42862025D01*
X52704722Y-43079999D01*
X52723792Y-43297974D01*
X52780425Y-43509331D01*
X52787736Y-43525009D01*
X52872898Y-43707639D01*
X52998402Y-43886877D01*
X53153123Y-44041598D01*
X53332361Y-44167102D01*
X53530670Y-44259575D01*
X53742023Y-44316207D01*
X53960000Y-44335277D01*
X54177977Y-44316207D01*
X54389330Y-44259575D01*
X54587639Y-44167102D01*
X54766877Y-44041598D01*
X54921598Y-43886877D01*
X55023926Y-43740736D01*
X55071142Y-43700411D01*
X55131990Y-43688032D01*
X55191210Y-43706704D01*
X55233953Y-43751746D01*
X55249500Y-43811862D01*
X55249500Y-45268139D01*
X55233953Y-45328255D01*
X55191210Y-45373297D01*
X55131990Y-45391969D01*
X55071142Y-45379589D01*
X55023925Y-45339262D01*
X54988675Y-45288919D01*
X54921598Y-45193123D01*
X54766877Y-45038402D01*
X54587639Y-44912898D01*
X54455400Y-44851234D01*
X54389331Y-44820425D01*
X54177974Y-44763792D01*
X53960000Y-44744722D01*
X53742025Y-44763792D01*
X53530668Y-44820425D01*
X53332361Y-44912898D01*
X53153122Y-45038402D01*
X52998402Y-45193122D01*
X52872898Y-45372361D01*
X52780425Y-45570668D01*
X52723792Y-45782025D01*
X52704722Y-46000000D01*
X52723792Y-46217974D01*
X52723793Y-46217977D01*
X52780425Y-46429330D01*
X52872898Y-46627639D01*
X52998402Y-46806877D01*
X53153123Y-46961598D01*
X53332361Y-47087102D01*
X53530670Y-47179575D01*
X53742023Y-47236207D01*
X53960000Y-47255277D01*
X54177977Y-47236207D01*
X54389330Y-47179575D01*
X54587639Y-47087102D01*
X54766877Y-46961598D01*
X54921598Y-46806877D01*
X55023926Y-46660736D01*
X55071142Y-46620411D01*
X55131990Y-46608032D01*
X55191210Y-46626704D01*
X55233953Y-46671746D01*
X55249500Y-46731862D01*
X55249500Y-50348139D01*
X55233953Y-50408255D01*
X55191210Y-50453297D01*
X55131990Y-50471969D01*
X55071142Y-50459589D01*
X55023925Y-50419262D01*
X54990974Y-50372203D01*
X54921598Y-50273123D01*
X54766877Y-50118402D01*
X54587639Y-49992898D01*
X54496205Y-49950261D01*
X54389331Y-49900425D01*
X54177974Y-49843792D01*
X53960000Y-49824722D01*
X53742025Y-49843792D01*
X53530668Y-49900425D01*
X53332361Y-49992898D01*
X53153122Y-50118402D01*
X52998402Y-50273122D01*
X52872898Y-50452361D01*
X52780425Y-50650668D01*
X52723792Y-50862025D01*
X52704722Y-51080000D01*
X52723792Y-51297974D01*
X52780425Y-51509331D01*
X52787736Y-51525009D01*
X52872898Y-51707639D01*
X52998402Y-51886877D01*
X53153123Y-52041598D01*
X53332361Y-52167102D01*
X53530670Y-52259575D01*
X53742023Y-52316207D01*
X53960000Y-52335277D01*
X54177977Y-52316207D01*
X54389330Y-52259575D01*
X54587639Y-52167102D01*
X54766877Y-52041598D01*
X54921598Y-51886877D01*
X55023926Y-51740736D01*
X55071142Y-51700411D01*
X55131990Y-51688032D01*
X55191210Y-51706704D01*
X55233953Y-51751746D01*
X55249500Y-51811862D01*
X55249500Y-53268139D01*
X55233953Y-53328255D01*
X55191210Y-53373297D01*
X55131990Y-53391969D01*
X55071142Y-53379589D01*
X55023925Y-53339262D01*
X55016218Y-53328255D01*
X54921598Y-53193123D01*
X54766877Y-53038402D01*
X54587639Y-52912898D01*
X54455400Y-52851234D01*
X54389331Y-52820425D01*
X54177974Y-52763792D01*
X53960000Y-52744722D01*
X53742025Y-52763792D01*
X53530668Y-52820425D01*
X53332361Y-52912898D01*
X53153122Y-53038402D01*
X52998402Y-53193122D01*
X52872898Y-53372361D01*
X52780425Y-53570668D01*
X52723792Y-53782025D01*
X52704722Y-53999999D01*
X52723792Y-54217974D01*
X52723793Y-54217977D01*
X52780425Y-54429330D01*
X52872898Y-54627639D01*
X52998402Y-54806877D01*
X53153123Y-54961598D01*
X53332361Y-55087102D01*
X53530670Y-55179575D01*
X53742023Y-55236207D01*
X53960000Y-55255277D01*
X54177977Y-55236207D01*
X54389330Y-55179575D01*
X54587639Y-55087102D01*
X54766877Y-54961598D01*
X54921598Y-54806877D01*
X55023926Y-54660736D01*
X55071142Y-54620411D01*
X55131990Y-54608032D01*
X55191210Y-54626704D01*
X55233953Y-54671746D01*
X55249500Y-54731862D01*
X55249500Y-58348139D01*
X55233953Y-58408255D01*
X55191210Y-58453297D01*
X55131990Y-58471969D01*
X55071142Y-58459589D01*
X55023925Y-58419262D01*
X54990974Y-58372203D01*
X54921598Y-58273123D01*
X54766877Y-58118402D01*
X54587639Y-57992898D01*
X54496205Y-57950261D01*
X54389331Y-57900425D01*
X54177974Y-57843792D01*
X53960000Y-57824722D01*
X53742025Y-57843792D01*
X53530668Y-57900425D01*
X53332361Y-57992898D01*
X53153122Y-58118402D01*
X52998402Y-58273122D01*
X52872898Y-58452361D01*
X52780425Y-58650668D01*
X52723792Y-58862025D01*
X52704722Y-59079999D01*
X52723792Y-59297974D01*
X52780425Y-59509331D01*
X52787736Y-59525009D01*
X52872898Y-59707639D01*
X52998402Y-59886877D01*
X53153123Y-60041598D01*
X53332361Y-60167102D01*
X53530670Y-60259575D01*
X53742023Y-60316207D01*
X53960000Y-60335277D01*
X54177977Y-60316207D01*
X54389330Y-60259575D01*
X54587639Y-60167102D01*
X54766877Y-60041598D01*
X54921598Y-59886877D01*
X55023926Y-59740736D01*
X55071142Y-59700411D01*
X55131990Y-59688032D01*
X55191210Y-59706704D01*
X55233953Y-59751746D01*
X55249500Y-59811862D01*
X55249500Y-61268139D01*
X55233953Y-61328255D01*
X55191210Y-61373297D01*
X55131990Y-61391969D01*
X55071142Y-61379589D01*
X55023925Y-61339262D01*
X55016218Y-61328255D01*
X54921598Y-61193123D01*
X54766877Y-61038402D01*
X54587639Y-60912898D01*
X54455400Y-60851234D01*
X54389331Y-60820425D01*
X54177974Y-60763792D01*
X53960000Y-60744722D01*
X53742025Y-60763792D01*
X53530668Y-60820425D01*
X53332361Y-60912898D01*
X53153122Y-61038402D01*
X52998402Y-61193122D01*
X52872898Y-61372361D01*
X52780425Y-61570668D01*
X52723792Y-61782025D01*
X52704722Y-62000000D01*
X52723792Y-62217974D01*
X52723793Y-62217977D01*
X52780425Y-62429330D01*
X52872898Y-62627639D01*
X52998402Y-62806877D01*
X53153123Y-62961598D01*
X53332361Y-63087102D01*
X53530670Y-63179575D01*
X53742023Y-63236207D01*
X53960000Y-63255277D01*
X54177977Y-63236207D01*
X54389330Y-63179575D01*
X54587639Y-63087102D01*
X54766877Y-62961598D01*
X54921598Y-62806877D01*
X55023926Y-62660736D01*
X55071142Y-62620411D01*
X55131990Y-62608032D01*
X55191210Y-62626704D01*
X55233953Y-62671746D01*
X55249500Y-62731862D01*
X55249500Y-66348139D01*
X55233953Y-66408255D01*
X55191210Y-66453297D01*
X55131990Y-66471969D01*
X55071142Y-66459589D01*
X55023925Y-66419262D01*
X54990974Y-66372203D01*
X54921598Y-66273123D01*
X54766877Y-66118402D01*
X54587639Y-65992898D01*
X54496205Y-65950261D01*
X54389331Y-65900425D01*
X54177974Y-65843792D01*
X53960000Y-65824722D01*
X53742025Y-65843792D01*
X53530668Y-65900425D01*
X53332361Y-65992898D01*
X53153122Y-66118402D01*
X52998402Y-66273122D01*
X52872898Y-66452361D01*
X52780425Y-66650668D01*
X52723792Y-66862025D01*
X52704722Y-67080000D01*
X52723792Y-67297974D01*
X52780425Y-67509331D01*
X52787736Y-67525009D01*
X52872898Y-67707639D01*
X52998402Y-67886877D01*
X53153123Y-68041598D01*
X53332361Y-68167102D01*
X53530670Y-68259575D01*
X53742023Y-68316207D01*
X53960000Y-68335277D01*
X54177977Y-68316207D01*
X54389330Y-68259575D01*
X54587639Y-68167102D01*
X54766877Y-68041598D01*
X54921598Y-67886877D01*
X55023926Y-67740736D01*
X55071142Y-67700411D01*
X55131990Y-67688032D01*
X55191210Y-67706704D01*
X55233953Y-67751746D01*
X55249500Y-67811862D01*
X55249500Y-69268139D01*
X55233953Y-69328255D01*
X55191210Y-69373297D01*
X55131990Y-69391969D01*
X55071142Y-69379589D01*
X55023925Y-69339262D01*
X55016218Y-69328255D01*
X54921598Y-69193123D01*
X54766877Y-69038402D01*
X54587639Y-68912898D01*
X54455400Y-68851234D01*
X54389331Y-68820425D01*
X54177974Y-68763792D01*
X53960000Y-68744722D01*
X53742025Y-68763792D01*
X53530668Y-68820425D01*
X53332361Y-68912898D01*
X53153122Y-69038402D01*
X52998402Y-69193122D01*
X52872898Y-69372361D01*
X52780425Y-69570668D01*
X52723792Y-69782025D01*
X52704722Y-70000000D01*
X52723792Y-70217974D01*
X52723793Y-70217977D01*
X52780425Y-70429330D01*
X52872898Y-70627639D01*
X52998402Y-70806877D01*
X53153123Y-70961598D01*
X53332361Y-71087102D01*
X53530670Y-71179575D01*
X53742023Y-71236207D01*
X53960000Y-71255277D01*
X54177977Y-71236207D01*
X54389330Y-71179575D01*
X54587639Y-71087102D01*
X54766877Y-70961598D01*
X54921598Y-70806877D01*
X55023926Y-70660736D01*
X55071142Y-70620411D01*
X55131990Y-70608032D01*
X55191210Y-70626704D01*
X55233953Y-70671746D01*
X55249500Y-70731862D01*
X55249500Y-74348139D01*
X55233953Y-74408255D01*
X55191210Y-74453297D01*
X55131990Y-74471969D01*
X55071142Y-74459589D01*
X55023925Y-74419262D01*
X54990974Y-74372203D01*
X54921598Y-74273123D01*
X54766877Y-74118402D01*
X54587639Y-73992898D01*
X54496205Y-73950261D01*
X54389331Y-73900425D01*
X54177974Y-73843792D01*
X53960000Y-73824722D01*
X53742025Y-73843792D01*
X53530668Y-73900425D01*
X53332361Y-73992898D01*
X53153122Y-74118402D01*
X52998402Y-74273122D01*
X52872898Y-74452361D01*
X52780425Y-74650668D01*
X52723792Y-74862025D01*
X52704722Y-75080000D01*
X52723792Y-75297974D01*
X52780425Y-75509331D01*
X52787736Y-75525009D01*
X52872898Y-75707639D01*
X52998402Y-75886877D01*
X53153123Y-76041598D01*
X53332361Y-76167102D01*
X53530670Y-76259575D01*
X53742023Y-76316207D01*
X53960000Y-76335277D01*
X54177977Y-76316207D01*
X54389330Y-76259575D01*
X54587639Y-76167102D01*
X54766877Y-76041598D01*
X54921598Y-75886877D01*
X55023926Y-75740736D01*
X55071142Y-75700411D01*
X55131990Y-75688032D01*
X55191210Y-75706704D01*
X55233953Y-75751746D01*
X55249500Y-75811862D01*
X55249500Y-77268139D01*
X55233953Y-77328255D01*
X55191210Y-77373297D01*
X55131990Y-77391969D01*
X55071142Y-77379589D01*
X55023925Y-77339262D01*
X55016218Y-77328255D01*
X54921598Y-77193123D01*
X54766877Y-77038402D01*
X54587639Y-76912898D01*
X54455400Y-76851234D01*
X54389331Y-76820425D01*
X54177974Y-76763792D01*
X53960000Y-76744722D01*
X53742025Y-76763792D01*
X53530668Y-76820425D01*
X53332361Y-76912898D01*
X53153122Y-77038402D01*
X52998402Y-77193122D01*
X52872898Y-77372361D01*
X52780425Y-77570668D01*
X52723792Y-77782025D01*
X52704722Y-78000000D01*
X52723792Y-78217974D01*
X52723793Y-78217977D01*
X52780425Y-78429330D01*
X52872898Y-78627639D01*
X52998402Y-78806877D01*
X53153123Y-78961598D01*
X53332361Y-79087102D01*
X53530670Y-79179575D01*
X53742023Y-79236207D01*
X53960000Y-79255277D01*
X54177977Y-79236207D01*
X54389330Y-79179575D01*
X54587639Y-79087102D01*
X54766877Y-78961598D01*
X54921598Y-78806877D01*
X55023926Y-78660736D01*
X55071142Y-78620411D01*
X55131990Y-78608032D01*
X55191210Y-78626704D01*
X55233953Y-78671746D01*
X55249500Y-78731862D01*
X55249500Y-82348139D01*
X55233953Y-82408255D01*
X55191210Y-82453297D01*
X55131990Y-82471969D01*
X55071142Y-82459589D01*
X55023925Y-82419262D01*
X54990974Y-82372203D01*
X54921598Y-82273123D01*
X54766877Y-82118402D01*
X54587639Y-81992898D01*
X54496205Y-81950261D01*
X54389331Y-81900425D01*
X54177974Y-81843792D01*
X53960000Y-81824722D01*
X53742025Y-81843792D01*
X53530668Y-81900425D01*
X53332361Y-81992898D01*
X53153122Y-82118402D01*
X52998402Y-82273122D01*
X52872898Y-82452361D01*
X52780425Y-82650668D01*
X52723792Y-82862025D01*
X52704722Y-83079999D01*
X52723792Y-83297974D01*
X52780425Y-83509331D01*
X52828083Y-83611532D01*
X52872898Y-83707639D01*
X52998402Y-83886877D01*
X53153123Y-84041598D01*
X53332361Y-84167102D01*
X53530670Y-84259575D01*
X53742023Y-84316207D01*
X53960000Y-84335277D01*
X54177977Y-84316207D01*
X54389330Y-84259575D01*
X54587639Y-84167102D01*
X54766877Y-84041598D01*
X54920318Y-83888156D01*
X54969682Y-83857906D01*
X55027398Y-83853364D01*
X55080885Y-83875519D01*
X55118485Y-83919542D01*
X55132000Y-83975837D01*
X55132000Y-90155639D01*
X55116453Y-90215755D01*
X55073710Y-90260797D01*
X55014490Y-90279469D01*
X54953642Y-90267089D01*
X54906425Y-90226762D01*
X54898718Y-90215755D01*
X54804098Y-90080623D01*
X54649377Y-89925902D01*
X54470139Y-89800398D01*
X54378705Y-89757761D01*
X54271831Y-89707925D01*
X54060474Y-89651292D01*
X53842500Y-89632222D01*
X53624525Y-89651292D01*
X53413168Y-89707925D01*
X53214861Y-89800398D01*
X53035622Y-89925902D01*
X52880902Y-90080622D01*
X52755398Y-90259861D01*
X52662925Y-90458168D01*
X52606292Y-90669525D01*
X52587222Y-90887500D01*
X52606292Y-91105474D01*
X52615000Y-91137974D01*
X52662925Y-91316830D01*
X52755398Y-91515139D01*
X52880902Y-91694377D01*
X53035623Y-91849098D01*
X53214861Y-91974602D01*
X53413170Y-92067075D01*
X53624523Y-92123707D01*
X53769840Y-92136420D01*
X53842499Y-92142777D01*
X53842499Y-92142776D01*
X53842500Y-92142777D01*
X54060477Y-92123707D01*
X54271830Y-92067075D01*
X54470139Y-91974602D01*
X54649377Y-91849098D01*
X54804098Y-91694377D01*
X54906426Y-91548236D01*
X54953642Y-91507911D01*
X55014490Y-91495532D01*
X55073710Y-91514204D01*
X55116453Y-91559246D01*
X55132000Y-91619362D01*
X55132000Y-95235639D01*
X55116453Y-95295755D01*
X55073710Y-95340797D01*
X55014490Y-95359469D01*
X54953642Y-95347089D01*
X54906425Y-95306762D01*
X54879381Y-95268139D01*
X54804098Y-95160623D01*
X54649377Y-95005902D01*
X54470139Y-94880398D01*
X54378705Y-94837761D01*
X54271831Y-94787925D01*
X54060474Y-94731292D01*
X53842500Y-94712222D01*
X53624525Y-94731292D01*
X53413168Y-94787925D01*
X53214861Y-94880398D01*
X53035622Y-95005902D01*
X52880902Y-95160622D01*
X52755398Y-95339861D01*
X52662925Y-95538168D01*
X52606292Y-95749525D01*
X52587222Y-95967500D01*
X52606292Y-96185474D01*
X52662925Y-96396831D01*
X52683252Y-96440422D01*
X52755398Y-96595139D01*
X52880902Y-96774377D01*
X53035623Y-96929098D01*
X53214861Y-97054602D01*
X53413170Y-97147075D01*
X53624523Y-97203707D01*
X53842500Y-97222777D01*
X54060477Y-97203707D01*
X54271830Y-97147075D01*
X54470139Y-97054602D01*
X54649377Y-96929098D01*
X54804098Y-96774377D01*
X54906426Y-96628236D01*
X54953642Y-96587911D01*
X55014490Y-96575532D01*
X55073710Y-96594204D01*
X55116453Y-96639246D01*
X55132000Y-96699362D01*
X55132000Y-99519176D01*
X55116662Y-99578913D01*
X55074443Y-99623872D01*
X55015787Y-99642931D01*
X54955204Y-99631375D01*
X54907684Y-99592063D01*
X54858669Y-99524600D01*
X54857538Y-99523015D01*
X54801598Y-99443123D01*
X54800726Y-99442251D01*
X54788088Y-99427453D01*
X54785524Y-99423924D01*
X54715322Y-99356804D01*
X54713333Y-99354858D01*
X54646877Y-99288402D01*
X54643037Y-99285713D01*
X54628477Y-99273771D01*
X54622826Y-99268368D01*
X54544661Y-99216772D01*
X54541849Y-99214860D01*
X54467642Y-99162899D01*
X54464263Y-99161323D01*
X54460260Y-99159457D01*
X54444364Y-99150567D01*
X54434969Y-99144365D01*
X54401650Y-99130124D01*
X54351955Y-99108883D01*
X54348336Y-99107266D01*
X54269325Y-99070422D01*
X54258141Y-99067425D01*
X54241513Y-99061677D01*
X54227988Y-99055897D01*
X54143351Y-99036578D01*
X54138854Y-99035462D01*
X54057981Y-99013793D01*
X54046886Y-99012822D01*
X54043005Y-99012482D01*
X54026231Y-99009847D01*
X54008537Y-99005809D01*
X53925221Y-99002066D01*
X53919982Y-99001719D01*
X53839997Y-98994722D01*
X53821595Y-98996331D01*
X53805242Y-98996677D01*
X53783673Y-98995709D01*
X53704422Y-99006444D01*
X53698586Y-99007094D01*
X53622022Y-99013792D01*
X53600867Y-99019461D01*
X53585422Y-99022564D01*
X53560607Y-99025925D01*
X53487827Y-99049573D01*
X53481606Y-99051416D01*
X53410668Y-99070425D01*
X53387692Y-99081138D01*
X53373614Y-99086684D01*
X53346537Y-99095482D01*
X53282161Y-99130124D01*
X53275810Y-99133310D01*
X53212360Y-99162898D01*
X53188779Y-99179409D01*
X53176423Y-99187023D01*
X53148321Y-99202146D01*
X53093830Y-99245600D01*
X53087644Y-99250225D01*
X53033120Y-99288403D01*
X53010329Y-99311194D01*
X52999967Y-99320455D01*
X52972333Y-99342493D01*
X52928738Y-99392389D01*
X52923042Y-99398481D01*
X52878402Y-99443121D01*
X52857945Y-99472336D01*
X52849755Y-99482792D01*
X52824235Y-99512002D01*
X52792010Y-99565937D01*
X52787140Y-99573457D01*
X52752896Y-99622364D01*
X52736371Y-99657800D01*
X52730441Y-99668986D01*
X52708785Y-99705233D01*
X52687917Y-99760834D01*
X52684208Y-99769662D01*
X52660425Y-99820667D01*
X52649415Y-99861755D01*
X52645736Y-99873225D01*
X52629691Y-99915979D01*
X52619699Y-99971034D01*
X52617469Y-99980979D01*
X52603793Y-100032022D01*
X52599786Y-100077815D01*
X52598266Y-100089142D01*
X52589500Y-100137454D01*
X52589500Y-100189985D01*
X52589028Y-100200793D01*
X52584722Y-100250000D01*
X52589028Y-100299207D01*
X52589500Y-100310015D01*
X52589500Y-100425501D01*
X52572887Y-100487501D01*
X52527500Y-100532888D01*
X52465500Y-100549501D01*
X52349991Y-100549501D01*
X52247203Y-100560000D01*
X52080665Y-100615186D01*
X51931342Y-100707288D01*
X51807288Y-100831342D01*
X51715186Y-100980665D01*
X51660000Y-101147202D01*
X51649500Y-101249990D01*
X51649500Y-102250008D01*
X51660000Y-102352796D01*
X51715186Y-102519334D01*
X51807288Y-102668657D01*
X51925950Y-102787319D01*
X51958044Y-102842906D01*
X51958044Y-102907094D01*
X51925950Y-102962681D01*
X51807288Y-103081342D01*
X51715186Y-103230665D01*
X51660000Y-103397202D01*
X51649500Y-103499990D01*
X51649500Y-104500008D01*
X43273507Y-104500008D01*
X43186819Y-104413320D01*
X43159939Y-104373092D01*
X43150500Y-104325639D01*
X43150500Y-97120413D01*
X43169278Y-97054805D01*
X43219925Y-97009069D01*
X43287102Y-96997055D01*
X43320825Y-97000500D01*
X43320826Y-97000500D01*
X44179174Y-97000500D01*
X44277685Y-96990436D01*
X44277685Y-96990435D01*
X44437287Y-96937549D01*
X44580391Y-96849281D01*
X44635338Y-96794334D01*
X44705354Y-96724319D01*
X44745582Y-96697439D01*
X44793035Y-96688000D01*
X44915533Y-96688000D01*
X44965748Y-96698623D01*
X45007360Y-96728671D01*
X45033238Y-96772994D01*
X45034787Y-96777669D01*
X45037728Y-96786545D01*
X45129894Y-96935970D01*
X45254029Y-97060105D01*
X45254031Y-97060106D01*
X45254032Y-97060107D01*
X45403453Y-97152271D01*
X45426214Y-97159813D01*
X45570100Y-97207492D01*
X45621527Y-97212745D01*
X45672954Y-97218000D01*
X46772045Y-97218000D01*
X46772046Y-97218000D01*
X46874899Y-97207492D01*
X47041547Y-97152271D01*
X47102394Y-97114739D01*
X47167490Y-97096277D01*
X47232584Y-97114737D01*
X47305666Y-97159814D01*
X47416690Y-97196603D01*
X47472202Y-97214999D01*
X47482703Y-97216071D01*
X47574991Y-97225500D01*
X48350008Y-97225499D01*
X48452797Y-97214999D01*
X48619334Y-97159814D01*
X48768656Y-97067712D01*
X48892712Y-96943656D01*
X48984814Y-96794334D01*
X49039999Y-96627797D01*
X49050500Y-96525009D01*
X49050499Y-95474992D01*
X49039999Y-95372203D01*
X48984814Y-95205666D01*
X48892712Y-95056344D01*
X48892711Y-95056342D01*
X48768657Y-94932288D01*
X48619334Y-94840186D01*
X48452797Y-94785000D01*
X48350009Y-94774500D01*
X47574991Y-94774500D01*
X47472203Y-94785000D01*
X47305664Y-94840186D01*
X47285275Y-94852762D01*
X47220180Y-94871221D01*
X47155086Y-94852760D01*
X47041547Y-94782729D01*
X46874899Y-94727507D01*
X46781579Y-94717973D01*
X46772046Y-94717000D01*
X45672954Y-94717000D01*
X45664229Y-94717891D01*
X45570100Y-94727507D01*
X45403454Y-94782728D01*
X45254029Y-94874894D01*
X45129894Y-94999029D01*
X45037728Y-95148454D01*
X44982507Y-95315100D01*
X44981435Y-95325602D01*
X44961012Y-95382140D01*
X44916398Y-95422429D01*
X44858077Y-95437000D01*
X44793035Y-95437000D01*
X44745582Y-95427561D01*
X44705354Y-95400681D01*
X44580393Y-95275720D01*
X44466816Y-95205665D01*
X44437287Y-95187451D01*
X44437286Y-95187450D01*
X44437285Y-95187450D01*
X44277685Y-95134563D01*
X44179174Y-95124500D01*
X43320826Y-95124500D01*
X43320825Y-95124500D01*
X43287102Y-95127945D01*
X43219925Y-95115931D01*
X43169278Y-95070195D01*
X43150500Y-95004587D01*
X43150500Y-94995413D01*
X43169278Y-94929805D01*
X43219925Y-94884069D01*
X43287102Y-94872055D01*
X43320825Y-94875500D01*
X43320826Y-94875500D01*
X44179174Y-94875500D01*
X44277685Y-94865436D01*
X44277684Y-94865436D01*
X44437287Y-94812549D01*
X44580391Y-94724281D01*
X44699281Y-94605391D01*
X44787549Y-94462287D01*
X44840436Y-94302685D01*
X44850500Y-94204174D01*
X44850500Y-93670826D01*
X44840436Y-93572315D01*
X44787549Y-93412713D01*
X44699281Y-93269609D01*
X44699280Y-93269608D01*
X44699279Y-93269606D01*
X44580393Y-93150720D01*
X44437285Y-93062450D01*
X44277685Y-93009563D01*
X44179174Y-92999500D01*
X43320826Y-92999500D01*
X43320825Y-92999500D01*
X43287102Y-93002945D01*
X43219925Y-92990931D01*
X43169278Y-92945195D01*
X43150500Y-92879587D01*
X43150500Y-90887500D01*
X44967222Y-90887500D01*
X44986292Y-91105474D01*
X44995000Y-91137974D01*
X45042925Y-91316830D01*
X45135398Y-91515139D01*
X45260902Y-91694377D01*
X45415623Y-91849098D01*
X45594861Y-91974602D01*
X45793170Y-92067075D01*
X46004523Y-92123707D01*
X46149840Y-92136420D01*
X46222499Y-92142777D01*
X46222499Y-92142776D01*
X46222500Y-92142777D01*
X46440477Y-92123707D01*
X46602593Y-92080267D01*
X46652656Y-92077352D01*
X46699781Y-92094504D01*
X46805666Y-92159814D01*
X46889066Y-92187450D01*
X46972202Y-92214999D01*
X46982703Y-92216071D01*
X47074991Y-92225500D01*
X47850008Y-92225499D01*
X47952797Y-92214999D01*
X48119334Y-92159814D01*
X48268656Y-92067712D01*
X48392712Y-91943656D01*
X48484814Y-91794334D01*
X48539999Y-91627797D01*
X48550500Y-91525009D01*
X48550499Y-90474992D01*
X48539999Y-90372203D01*
X48484814Y-90205666D01*
X48392712Y-90056344D01*
X48392711Y-90056342D01*
X48268657Y-89932288D01*
X48119334Y-89840186D01*
X47952797Y-89785000D01*
X47850009Y-89774500D01*
X47074991Y-89774500D01*
X46972201Y-89785000D01*
X46928304Y-89799547D01*
X46882091Y-89805631D01*
X46836897Y-89794223D01*
X46762715Y-89759631D01*
X46651831Y-89707925D01*
X46440474Y-89651292D01*
X46222500Y-89632222D01*
X46004525Y-89651292D01*
X45793168Y-89707925D01*
X45594861Y-89800398D01*
X45415622Y-89925902D01*
X45260902Y-90080622D01*
X45135398Y-90259861D01*
X45042925Y-90458168D01*
X44986292Y-90669525D01*
X44967222Y-90887500D01*
X43150500Y-90887500D01*
X43150500Y-84555517D01*
X43164097Y-84499061D01*
X43201907Y-84454987D01*
X43255637Y-84432960D01*
X43313504Y-84437811D01*
X43472314Y-84490436D01*
X43570826Y-84500500D01*
X44429174Y-84500500D01*
X44527685Y-84490436D01*
X44583876Y-84471816D01*
X44687287Y-84437549D01*
X44830391Y-84349281D01*
X44880355Y-84299316D01*
X44920581Y-84272439D01*
X44968034Y-84263000D01*
X45495598Y-84263000D01*
X45534602Y-84269294D01*
X45687600Y-84319992D01*
X45731481Y-84324475D01*
X45790454Y-84330500D01*
X46889545Y-84330500D01*
X46889546Y-84330500D01*
X46992399Y-84319992D01*
X47159047Y-84264771D01*
X47271768Y-84195243D01*
X47322469Y-84177620D01*
X47375865Y-84183075D01*
X47472203Y-84214999D01*
X47574991Y-84225500D01*
X48350008Y-84225499D01*
X48452797Y-84214999D01*
X48619334Y-84159814D01*
X48768656Y-84067712D01*
X48892712Y-83943656D01*
X48984814Y-83794334D01*
X49039999Y-83627797D01*
X49050500Y-83525009D01*
X49050499Y-82474992D01*
X49039999Y-82372203D01*
X48984814Y-82205666D01*
X48926750Y-82111529D01*
X48892711Y-82056342D01*
X48768657Y-81932288D01*
X48619334Y-81840186D01*
X48452797Y-81785000D01*
X48350009Y-81774500D01*
X47574991Y-81774500D01*
X47472203Y-81785000D01*
X47305665Y-81840186D01*
X47245585Y-81877243D01*
X47194884Y-81894865D01*
X47141487Y-81889409D01*
X46992401Y-81840008D01*
X46923830Y-81833002D01*
X46889546Y-81829500D01*
X45790454Y-81829500D01*
X45781729Y-81830391D01*
X45687600Y-81840007D01*
X45520954Y-81895228D01*
X45371529Y-81987394D01*
X45247394Y-82111529D01*
X45155228Y-82260954D01*
X45100007Y-82427600D01*
X45089500Y-82530455D01*
X45089500Y-82735466D01*
X45075985Y-82791761D01*
X45038385Y-82835784D01*
X44984897Y-82857939D01*
X44927181Y-82853397D01*
X44877818Y-82823146D01*
X44830393Y-82775720D01*
X44687285Y-82687450D01*
X44527685Y-82634563D01*
X44429174Y-82624500D01*
X43570826Y-82624500D01*
X43472314Y-82634563D01*
X43313504Y-82687189D01*
X43255637Y-82692040D01*
X43201907Y-82670013D01*
X43164097Y-82625939D01*
X43150500Y-82569483D01*
X43150500Y-82430517D01*
X43164097Y-82374061D01*
X43201907Y-82329987D01*
X43255637Y-82307960D01*
X43313504Y-82312811D01*
X43472314Y-82365436D01*
X43570826Y-82375500D01*
X44429174Y-82375500D01*
X44527685Y-82365436D01*
X44527685Y-82365435D01*
X44687287Y-82312549D01*
X44830391Y-82224281D01*
X44949281Y-82105391D01*
X45037549Y-81962287D01*
X45090436Y-81802685D01*
X45100500Y-81704174D01*
X45100500Y-81170826D01*
X45090436Y-81072315D01*
X45080809Y-81043264D01*
X45037549Y-80912714D01*
X45037549Y-80912713D01*
X44949281Y-80769609D01*
X44949280Y-80769608D01*
X44949279Y-80769606D01*
X44830393Y-80650720D01*
X44687285Y-80562450D01*
X44527685Y-80509563D01*
X44429174Y-80499500D01*
X43570826Y-80499500D01*
X43472314Y-80509563D01*
X43313504Y-80562189D01*
X43255637Y-80567040D01*
X43201907Y-80545013D01*
X43164097Y-80500939D01*
X43150500Y-80444483D01*
X43150500Y-78000000D01*
X45084722Y-78000000D01*
X45103792Y-78217974D01*
X45103793Y-78217977D01*
X45160425Y-78429330D01*
X45252898Y-78627639D01*
X45378402Y-78806877D01*
X45533123Y-78961598D01*
X45712361Y-79087102D01*
X45910670Y-79179575D01*
X46122023Y-79236207D01*
X46340000Y-79255277D01*
X46557977Y-79236207D01*
X46769330Y-79179575D01*
X46967639Y-79087102D01*
X47004801Y-79061079D01*
X47057951Y-79039964D01*
X47114927Y-79044949D01*
X47142763Y-79062118D01*
X47144007Y-79060103D01*
X47187780Y-79087102D01*
X47305666Y-79159814D01*
X47389066Y-79187450D01*
X47472202Y-79214999D01*
X47482702Y-79216071D01*
X47574991Y-79225500D01*
X48350008Y-79225499D01*
X48452797Y-79214999D01*
X48619334Y-79159814D01*
X48768656Y-79067712D01*
X48892712Y-78943656D01*
X48984814Y-78794334D01*
X49039999Y-78627797D01*
X49050500Y-78525009D01*
X49050499Y-77474992D01*
X49039999Y-77372203D01*
X48984814Y-77205666D01*
X48927592Y-77112895D01*
X48892711Y-77056342D01*
X48768657Y-76932288D01*
X48619334Y-76840186D01*
X48452797Y-76785000D01*
X48350009Y-76774500D01*
X47574991Y-76774500D01*
X47472203Y-76785000D01*
X47305665Y-76840186D01*
X47144008Y-76939897D01*
X47142765Y-76937881D01*
X47114916Y-76955054D01*
X47057948Y-76960034D01*
X47004803Y-76938920D01*
X46967639Y-76912898D01*
X46769331Y-76820425D01*
X46557974Y-76763792D01*
X46340000Y-76744722D01*
X46122025Y-76763792D01*
X45910668Y-76820425D01*
X45712361Y-76912898D01*
X45533122Y-77038402D01*
X45378402Y-77193122D01*
X45252898Y-77372361D01*
X45160425Y-77570668D01*
X45103792Y-77782025D01*
X45084722Y-78000000D01*
X43150500Y-78000000D01*
X43150500Y-76555517D01*
X43164097Y-76499061D01*
X43201907Y-76454987D01*
X43255637Y-76432960D01*
X43313504Y-76437811D01*
X43472314Y-76490436D01*
X43570826Y-76500500D01*
X44429174Y-76500500D01*
X44527685Y-76490436D01*
X44527685Y-76490435D01*
X44687287Y-76437549D01*
X44830391Y-76349281D01*
X44880355Y-76299316D01*
X44920581Y-76272439D01*
X44968034Y-76263000D01*
X45495598Y-76263000D01*
X45534602Y-76269294D01*
X45687600Y-76319992D01*
X45739027Y-76325246D01*
X45790454Y-76330500D01*
X46889545Y-76330500D01*
X46889546Y-76330500D01*
X46992399Y-76319992D01*
X47159047Y-76264771D01*
X47271768Y-76195243D01*
X47322469Y-76177620D01*
X47375865Y-76183075D01*
X47472203Y-76214999D01*
X47574991Y-76225500D01*
X48350008Y-76225499D01*
X48452797Y-76214999D01*
X48619334Y-76159814D01*
X48768656Y-76067712D01*
X48892712Y-75943656D01*
X48984814Y-75794334D01*
X49039999Y-75627797D01*
X49050500Y-75525009D01*
X49050499Y-74474992D01*
X49039999Y-74372203D01*
X48984814Y-74205666D01*
X48926750Y-74111529D01*
X48892711Y-74056342D01*
X48768657Y-73932288D01*
X48619334Y-73840186D01*
X48452797Y-73785000D01*
X48350009Y-73774500D01*
X47574991Y-73774500D01*
X47472203Y-73785000D01*
X47305665Y-73840186D01*
X47245585Y-73877243D01*
X47194884Y-73894865D01*
X47141487Y-73889409D01*
X46992401Y-73840008D01*
X46923830Y-73833002D01*
X46889546Y-73829500D01*
X45790454Y-73829500D01*
X45781729Y-73830391D01*
X45687600Y-73840007D01*
X45520954Y-73895228D01*
X45371529Y-73987394D01*
X45247394Y-74111529D01*
X45155228Y-74260954D01*
X45100007Y-74427600D01*
X45089500Y-74530455D01*
X45089500Y-74735466D01*
X45075985Y-74791761D01*
X45038385Y-74835784D01*
X44984897Y-74857939D01*
X44927181Y-74853397D01*
X44877818Y-74823146D01*
X44830393Y-74775720D01*
X44687285Y-74687450D01*
X44527685Y-74634563D01*
X44429174Y-74624500D01*
X43570826Y-74624500D01*
X43472314Y-74634563D01*
X43313504Y-74687189D01*
X43255637Y-74692040D01*
X43201907Y-74670013D01*
X43164097Y-74625939D01*
X43150500Y-74569483D01*
X43150500Y-74430517D01*
X43164097Y-74374061D01*
X43201907Y-74329987D01*
X43255637Y-74307960D01*
X43313504Y-74312811D01*
X43472314Y-74365436D01*
X43570826Y-74375500D01*
X44429174Y-74375500D01*
X44527685Y-74365436D01*
X44527684Y-74365436D01*
X44687287Y-74312549D01*
X44830391Y-74224281D01*
X44949281Y-74105391D01*
X45037549Y-73962287D01*
X45090436Y-73802685D01*
X45100500Y-73704174D01*
X45100500Y-73170826D01*
X45090436Y-73072315D01*
X45037549Y-72912713D01*
X44949281Y-72769609D01*
X44949280Y-72769608D01*
X44949279Y-72769606D01*
X44830393Y-72650720D01*
X44687285Y-72562450D01*
X44527685Y-72509563D01*
X44429174Y-72499500D01*
X43570826Y-72499500D01*
X43472314Y-72509563D01*
X43313504Y-72562189D01*
X43255637Y-72567040D01*
X43201907Y-72545013D01*
X43164097Y-72500939D01*
X43150500Y-72444483D01*
X43150500Y-70000000D01*
X45084722Y-70000000D01*
X45103792Y-70217974D01*
X45103793Y-70217977D01*
X45160425Y-70429330D01*
X45252898Y-70627639D01*
X45378402Y-70806877D01*
X45533123Y-70961598D01*
X45712361Y-71087102D01*
X45910670Y-71179575D01*
X46122023Y-71236207D01*
X46340000Y-71255277D01*
X46557977Y-71236207D01*
X46769330Y-71179575D01*
X46967639Y-71087102D01*
X47004801Y-71061079D01*
X47057951Y-71039964D01*
X47114927Y-71044949D01*
X47142763Y-71062118D01*
X47144007Y-71060103D01*
X47187780Y-71087102D01*
X47305666Y-71159814D01*
X47389066Y-71187450D01*
X47472202Y-71214999D01*
X47482702Y-71216071D01*
X47574991Y-71225500D01*
X48350008Y-71225499D01*
X48452797Y-71214999D01*
X48619334Y-71159814D01*
X48768656Y-71067712D01*
X48892712Y-70943656D01*
X48984814Y-70794334D01*
X49039999Y-70627797D01*
X49050500Y-70525009D01*
X49050499Y-69474992D01*
X49039999Y-69372203D01*
X48984814Y-69205666D01*
X48892712Y-69056344D01*
X48892711Y-69056342D01*
X48768657Y-68932288D01*
X48619334Y-68840186D01*
X48452797Y-68785000D01*
X48350009Y-68774500D01*
X47574991Y-68774500D01*
X47472203Y-68785000D01*
X47305665Y-68840186D01*
X47144008Y-68939897D01*
X47142765Y-68937881D01*
X47114916Y-68955054D01*
X47057948Y-68960034D01*
X47004803Y-68938920D01*
X46967639Y-68912898D01*
X46769331Y-68820425D01*
X46557974Y-68763792D01*
X46340000Y-68744722D01*
X46122025Y-68763792D01*
X45910668Y-68820425D01*
X45712361Y-68912898D01*
X45533122Y-69038402D01*
X45378402Y-69193122D01*
X45252898Y-69372361D01*
X45160425Y-69570668D01*
X45103792Y-69782025D01*
X45084722Y-70000000D01*
X43150500Y-70000000D01*
X43150500Y-68555517D01*
X43164097Y-68499061D01*
X43201907Y-68454987D01*
X43255637Y-68432960D01*
X43313504Y-68437811D01*
X43472314Y-68490436D01*
X43570826Y-68500500D01*
X44429174Y-68500500D01*
X44527685Y-68490436D01*
X44527685Y-68490435D01*
X44687287Y-68437549D01*
X44830391Y-68349281D01*
X44880355Y-68299316D01*
X44920581Y-68272439D01*
X44968034Y-68263000D01*
X45495598Y-68263000D01*
X45534602Y-68269294D01*
X45687600Y-68319992D01*
X45739027Y-68325245D01*
X45790454Y-68330500D01*
X46889545Y-68330500D01*
X46889546Y-68330500D01*
X46992399Y-68319992D01*
X47159047Y-68264771D01*
X47271768Y-68195243D01*
X47322469Y-68177620D01*
X47375865Y-68183075D01*
X47472203Y-68214999D01*
X47574991Y-68225500D01*
X48350008Y-68225499D01*
X48452797Y-68214999D01*
X48619334Y-68159814D01*
X48768656Y-68067712D01*
X48892712Y-67943656D01*
X48984814Y-67794334D01*
X49039999Y-67627797D01*
X49050500Y-67525009D01*
X49050499Y-66474992D01*
X49039999Y-66372203D01*
X48984814Y-66205666D01*
X48926750Y-66111529D01*
X48892711Y-66056342D01*
X48768657Y-65932288D01*
X48619334Y-65840186D01*
X48452797Y-65785000D01*
X48350009Y-65774500D01*
X47574991Y-65774500D01*
X47472203Y-65785000D01*
X47305665Y-65840186D01*
X47245585Y-65877243D01*
X47194884Y-65894865D01*
X47141487Y-65889409D01*
X46992401Y-65840008D01*
X46923830Y-65833002D01*
X46889546Y-65829500D01*
X45790454Y-65829500D01*
X45781729Y-65830391D01*
X45687600Y-65840007D01*
X45520954Y-65895228D01*
X45371529Y-65987394D01*
X45247394Y-66111529D01*
X45155228Y-66260954D01*
X45100007Y-66427600D01*
X45089500Y-66530455D01*
X45089500Y-66735466D01*
X45075985Y-66791761D01*
X45038385Y-66835784D01*
X44984897Y-66857939D01*
X44927181Y-66853397D01*
X44877818Y-66823146D01*
X44830393Y-66775720D01*
X44687285Y-66687450D01*
X44527685Y-66634563D01*
X44429174Y-66624500D01*
X43570826Y-66624500D01*
X43472314Y-66634563D01*
X43313504Y-66687189D01*
X43255637Y-66692040D01*
X43201907Y-66670013D01*
X43164097Y-66625939D01*
X43150500Y-66569483D01*
X43150500Y-66430517D01*
X43164097Y-66374061D01*
X43201907Y-66329987D01*
X43255637Y-66307960D01*
X43313504Y-66312811D01*
X43472314Y-66365436D01*
X43570826Y-66375500D01*
X44429174Y-66375500D01*
X44527685Y-66365436D01*
X44527684Y-66365436D01*
X44687287Y-66312549D01*
X44830391Y-66224281D01*
X44949281Y-66105391D01*
X45037549Y-65962287D01*
X45090436Y-65802685D01*
X45100500Y-65704174D01*
X45100500Y-65170826D01*
X45090436Y-65072315D01*
X45080809Y-65043264D01*
X45037549Y-64912714D01*
X45037549Y-64912713D01*
X44949281Y-64769609D01*
X44949280Y-64769608D01*
X44949279Y-64769606D01*
X44830393Y-64650720D01*
X44687285Y-64562450D01*
X44527685Y-64509563D01*
X44429174Y-64499500D01*
X43570826Y-64499500D01*
X43472314Y-64509563D01*
X43313504Y-64562189D01*
X43255637Y-64567040D01*
X43201907Y-64545013D01*
X43164097Y-64500939D01*
X43150500Y-64444483D01*
X43150500Y-62000000D01*
X45084722Y-62000000D01*
X45103792Y-62217974D01*
X45103793Y-62217977D01*
X45160425Y-62429330D01*
X45252898Y-62627639D01*
X45378402Y-62806877D01*
X45533123Y-62961598D01*
X45712361Y-63087102D01*
X45910670Y-63179575D01*
X46122023Y-63236207D01*
X46340000Y-63255277D01*
X46557977Y-63236207D01*
X46769330Y-63179575D01*
X46967639Y-63087102D01*
X47004801Y-63061079D01*
X47057951Y-63039964D01*
X47114927Y-63044949D01*
X47142763Y-63062118D01*
X47144007Y-63060103D01*
X47187780Y-63087102D01*
X47305666Y-63159814D01*
X47389066Y-63187450D01*
X47472202Y-63214999D01*
X47482702Y-63216071D01*
X47574991Y-63225500D01*
X48350008Y-63225499D01*
X48452797Y-63214999D01*
X48619334Y-63159814D01*
X48768656Y-63067712D01*
X48892712Y-62943656D01*
X48984814Y-62794334D01*
X49039999Y-62627797D01*
X49050500Y-62525009D01*
X49050499Y-61474992D01*
X49039999Y-61372203D01*
X48984814Y-61205666D01*
X48927592Y-61112895D01*
X48892711Y-61056342D01*
X48768657Y-60932288D01*
X48619334Y-60840186D01*
X48452797Y-60785000D01*
X48350009Y-60774500D01*
X47574991Y-60774500D01*
X47472203Y-60785000D01*
X47305665Y-60840186D01*
X47144008Y-60939897D01*
X47142765Y-60937881D01*
X47114916Y-60955054D01*
X47057948Y-60960034D01*
X47004803Y-60938920D01*
X46967639Y-60912898D01*
X46769331Y-60820425D01*
X46557974Y-60763792D01*
X46340000Y-60744722D01*
X46122025Y-60763792D01*
X45910668Y-60820425D01*
X45712361Y-60912898D01*
X45533122Y-61038402D01*
X45378402Y-61193122D01*
X45252898Y-61372361D01*
X45160425Y-61570668D01*
X45103792Y-61782025D01*
X45084722Y-62000000D01*
X43150500Y-62000000D01*
X43150500Y-60555517D01*
X43164097Y-60499061D01*
X43201907Y-60454987D01*
X43255637Y-60432960D01*
X43313504Y-60437811D01*
X43472314Y-60490436D01*
X43570826Y-60500500D01*
X44429174Y-60500500D01*
X44527685Y-60490436D01*
X44527684Y-60490436D01*
X44687287Y-60437549D01*
X44830391Y-60349281D01*
X44880355Y-60299316D01*
X44920581Y-60272439D01*
X44968034Y-60263000D01*
X45495598Y-60263000D01*
X45534602Y-60269294D01*
X45687600Y-60319992D01*
X45739027Y-60325246D01*
X45790454Y-60330500D01*
X46889545Y-60330500D01*
X46889546Y-60330500D01*
X46992399Y-60319992D01*
X47159047Y-60264771D01*
X47271768Y-60195243D01*
X47322469Y-60177620D01*
X47375865Y-60183075D01*
X47472203Y-60214999D01*
X47574991Y-60225500D01*
X48350008Y-60225499D01*
X48452797Y-60214999D01*
X48619334Y-60159814D01*
X48768656Y-60067712D01*
X48892712Y-59943656D01*
X48984814Y-59794334D01*
X49039999Y-59627797D01*
X49050500Y-59525009D01*
X49050499Y-58474992D01*
X49039999Y-58372203D01*
X48984814Y-58205666D01*
X48926750Y-58111529D01*
X48892711Y-58056342D01*
X48768657Y-57932288D01*
X48619334Y-57840186D01*
X48452797Y-57785000D01*
X48350009Y-57774500D01*
X47574991Y-57774500D01*
X47472203Y-57785000D01*
X47305665Y-57840186D01*
X47245585Y-57877243D01*
X47194884Y-57894865D01*
X47141487Y-57889409D01*
X46992401Y-57840008D01*
X46923830Y-57833002D01*
X46889546Y-57829500D01*
X45790454Y-57829500D01*
X45781729Y-57830391D01*
X45687600Y-57840007D01*
X45520954Y-57895228D01*
X45371529Y-57987394D01*
X45247394Y-58111529D01*
X45155228Y-58260954D01*
X45100007Y-58427600D01*
X45089500Y-58530455D01*
X45089500Y-58735466D01*
X45075985Y-58791761D01*
X45038385Y-58835784D01*
X44984897Y-58857939D01*
X44927181Y-58853397D01*
X44877818Y-58823146D01*
X44830393Y-58775720D01*
X44687285Y-58687450D01*
X44527685Y-58634563D01*
X44429174Y-58624500D01*
X43570826Y-58624500D01*
X43472314Y-58634563D01*
X43313504Y-58687189D01*
X43255637Y-58692040D01*
X43201907Y-58670013D01*
X43164097Y-58625939D01*
X43150500Y-58569483D01*
X43150500Y-58430517D01*
X43164097Y-58374061D01*
X43201907Y-58329987D01*
X43255637Y-58307960D01*
X43313504Y-58312811D01*
X43472314Y-58365436D01*
X43570826Y-58375500D01*
X44429174Y-58375500D01*
X44527685Y-58365436D01*
X44527684Y-58365436D01*
X44687287Y-58312549D01*
X44830391Y-58224281D01*
X44949281Y-58105391D01*
X45037549Y-57962287D01*
X45090436Y-57802685D01*
X45100500Y-57704174D01*
X45100500Y-57170826D01*
X45090436Y-57072315D01*
X45037549Y-56912713D01*
X44949281Y-56769609D01*
X44949280Y-56769608D01*
X44949279Y-56769606D01*
X44830393Y-56650720D01*
X44687285Y-56562450D01*
X44527685Y-56509563D01*
X44429174Y-56499500D01*
X43570826Y-56499500D01*
X43472314Y-56509563D01*
X43313504Y-56562189D01*
X43255637Y-56567040D01*
X43201907Y-56545013D01*
X43164097Y-56500939D01*
X43150500Y-56444483D01*
X43150500Y-53999999D01*
X45084722Y-53999999D01*
X45103792Y-54217974D01*
X45103793Y-54217977D01*
X45160425Y-54429330D01*
X45252898Y-54627639D01*
X45378402Y-54806877D01*
X45533123Y-54961598D01*
X45712361Y-55087102D01*
X45910670Y-55179575D01*
X46122023Y-55236207D01*
X46340000Y-55255277D01*
X46557977Y-55236207D01*
X46769330Y-55179575D01*
X46967639Y-55087102D01*
X47004801Y-55061079D01*
X47057951Y-55039964D01*
X47114927Y-55044949D01*
X47142763Y-55062118D01*
X47144007Y-55060103D01*
X47187780Y-55087102D01*
X47305666Y-55159814D01*
X47389066Y-55187450D01*
X47472202Y-55214999D01*
X47482702Y-55216071D01*
X47574991Y-55225500D01*
X48350008Y-55225499D01*
X48452797Y-55214999D01*
X48619334Y-55159814D01*
X48768656Y-55067712D01*
X48892712Y-54943656D01*
X48984814Y-54794334D01*
X49039999Y-54627797D01*
X49050500Y-54525009D01*
X49050499Y-53474992D01*
X49039999Y-53372203D01*
X48984814Y-53205666D01*
X48892712Y-53056344D01*
X48892711Y-53056342D01*
X48768657Y-52932288D01*
X48619334Y-52840186D01*
X48452797Y-52785000D01*
X48350009Y-52774500D01*
X47574991Y-52774500D01*
X47472203Y-52785000D01*
X47305665Y-52840186D01*
X47144008Y-52939897D01*
X47142765Y-52937881D01*
X47114916Y-52955054D01*
X47057948Y-52960034D01*
X47004803Y-52938920D01*
X46967639Y-52912898D01*
X46769331Y-52820425D01*
X46557974Y-52763792D01*
X46340000Y-52744722D01*
X46122025Y-52763792D01*
X45910668Y-52820425D01*
X45712361Y-52912898D01*
X45533122Y-53038402D01*
X45378402Y-53193122D01*
X45252898Y-53372361D01*
X45160425Y-53570668D01*
X45103792Y-53782025D01*
X45084722Y-53999999D01*
X43150500Y-53999999D01*
X43150500Y-52055517D01*
X43164097Y-51999061D01*
X43201907Y-51954987D01*
X43255637Y-51932960D01*
X43313504Y-51937811D01*
X43472314Y-51990436D01*
X43570826Y-52000500D01*
X44429174Y-52000500D01*
X44527685Y-51990436D01*
X44527685Y-51990435D01*
X44687287Y-51937549D01*
X44830391Y-51849281D01*
X44880355Y-51799316D01*
X44920581Y-51772439D01*
X44968034Y-51763000D01*
X45020607Y-51763000D01*
X45070823Y-51773623D01*
X45112434Y-51803671D01*
X45138312Y-51847996D01*
X45155229Y-51899047D01*
X45217806Y-52000500D01*
X45247394Y-52048470D01*
X45371529Y-52172605D01*
X45371531Y-52172606D01*
X45371532Y-52172607D01*
X45520953Y-52264771D01*
X45604277Y-52292381D01*
X45687600Y-52319992D01*
X45739027Y-52325246D01*
X45790454Y-52330500D01*
X46889545Y-52330500D01*
X46889546Y-52330500D01*
X46992399Y-52319992D01*
X47159047Y-52264771D01*
X47271768Y-52195243D01*
X47322469Y-52177620D01*
X47375865Y-52183075D01*
X47472203Y-52214999D01*
X47574991Y-52225500D01*
X48350008Y-52225499D01*
X48452797Y-52214999D01*
X48619334Y-52159814D01*
X48768656Y-52067712D01*
X48892712Y-51943656D01*
X48984814Y-51794334D01*
X49039999Y-51627797D01*
X49050500Y-51525009D01*
X49050499Y-50474992D01*
X49039999Y-50372203D01*
X48984814Y-50205666D01*
X48892712Y-50056344D01*
X48892711Y-50056342D01*
X48768657Y-49932288D01*
X48619334Y-49840186D01*
X48452797Y-49785000D01*
X48350009Y-49774500D01*
X47574991Y-49774500D01*
X47472203Y-49785000D01*
X47305665Y-49840186D01*
X47245585Y-49877243D01*
X47194884Y-49894865D01*
X47141487Y-49889409D01*
X46992401Y-49840008D01*
X46923830Y-49833002D01*
X46889546Y-49829500D01*
X45790454Y-49829500D01*
X45781729Y-49830391D01*
X45687600Y-49840007D01*
X45520954Y-49895228D01*
X45371529Y-49987394D01*
X45247394Y-50111529D01*
X45155227Y-50260956D01*
X45149911Y-50277002D01*
X45124033Y-50321328D01*
X45082421Y-50351377D01*
X45032205Y-50362000D01*
X44968034Y-50362000D01*
X44920581Y-50352561D01*
X44880355Y-50325683D01*
X44830391Y-50275719D01*
X44830390Y-50275718D01*
X44687285Y-50187450D01*
X44527685Y-50134563D01*
X44429174Y-50124500D01*
X43570826Y-50124500D01*
X43472314Y-50134563D01*
X43313504Y-50187189D01*
X43255637Y-50192040D01*
X43201907Y-50170013D01*
X43164097Y-50125939D01*
X43150500Y-50069483D01*
X43150500Y-49930517D01*
X43164097Y-49874061D01*
X43201907Y-49829987D01*
X43255637Y-49807960D01*
X43313504Y-49812811D01*
X43472314Y-49865436D01*
X43570826Y-49875500D01*
X44429174Y-49875500D01*
X44527685Y-49865436D01*
X44527685Y-49865435D01*
X44687287Y-49812549D01*
X44830391Y-49724281D01*
X44949281Y-49605391D01*
X45037549Y-49462287D01*
X45090436Y-49302685D01*
X45100500Y-49204174D01*
X45100500Y-48670826D01*
X45090436Y-48572315D01*
X45037549Y-48412713D01*
X44949281Y-48269609D01*
X44949280Y-48269608D01*
X44949279Y-48269606D01*
X44830393Y-48150720D01*
X44687285Y-48062450D01*
X44527685Y-48009563D01*
X44429174Y-47999500D01*
X43570826Y-47999500D01*
X43472314Y-48009563D01*
X43313504Y-48062189D01*
X43255637Y-48067040D01*
X43201907Y-48045013D01*
X43164097Y-48000939D01*
X43150500Y-47944483D01*
X43150500Y-46000000D01*
X45084722Y-46000000D01*
X45103792Y-46217974D01*
X45103793Y-46217977D01*
X45160425Y-46429330D01*
X45252898Y-46627639D01*
X45378402Y-46806877D01*
X45533123Y-46961598D01*
X45712361Y-47087102D01*
X45910670Y-47179575D01*
X46122023Y-47236207D01*
X46340000Y-47255277D01*
X46557977Y-47236207D01*
X46769330Y-47179575D01*
X46967639Y-47087102D01*
X47004801Y-47061079D01*
X47057951Y-47039964D01*
X47114927Y-47044949D01*
X47142763Y-47062118D01*
X47144007Y-47060103D01*
X47187780Y-47087102D01*
X47305666Y-47159814D01*
X47389066Y-47187450D01*
X47472202Y-47214999D01*
X47482703Y-47216071D01*
X47574991Y-47225500D01*
X48350008Y-47225499D01*
X48452797Y-47214999D01*
X48619334Y-47159814D01*
X48768656Y-47067712D01*
X48892712Y-46943656D01*
X48984814Y-46794334D01*
X49039999Y-46627797D01*
X49050500Y-46525009D01*
X49050499Y-45474992D01*
X49039999Y-45372203D01*
X48984814Y-45205666D01*
X48927593Y-45112895D01*
X48892711Y-45056342D01*
X48768657Y-44932288D01*
X48619334Y-44840186D01*
X48452797Y-44785000D01*
X48350009Y-44774500D01*
X47574991Y-44774500D01*
X47472203Y-44785000D01*
X47305665Y-44840186D01*
X47144008Y-44939897D01*
X47142765Y-44937881D01*
X47114916Y-44955054D01*
X47057948Y-44960034D01*
X47004803Y-44938920D01*
X46967639Y-44912898D01*
X46769331Y-44820425D01*
X46557974Y-44763792D01*
X46340000Y-44744722D01*
X46122025Y-44763792D01*
X45910668Y-44820425D01*
X45712361Y-44912898D01*
X45533122Y-45038402D01*
X45378402Y-45193122D01*
X45252898Y-45372361D01*
X45160425Y-45570668D01*
X45103792Y-45782025D01*
X45084722Y-46000000D01*
X43150500Y-46000000D01*
X43150500Y-45736861D01*
X43159939Y-45689408D01*
X43186819Y-45649180D01*
X44299181Y-44536819D01*
X44339409Y-44509939D01*
X44386862Y-44500500D01*
X44429174Y-44500500D01*
X44527685Y-44490436D01*
X44527685Y-44490435D01*
X44687287Y-44437549D01*
X44830391Y-44349281D01*
X44949281Y-44230391D01*
X45037549Y-44087287D01*
X45037549Y-44087285D01*
X45045157Y-44074952D01*
X45046343Y-44075683D01*
X45070133Y-44038929D01*
X45125310Y-44009691D01*
X45187741Y-44011052D01*
X45241591Y-44042667D01*
X45371529Y-44172605D01*
X45371531Y-44172606D01*
X45371532Y-44172607D01*
X45520953Y-44264771D01*
X45604276Y-44292381D01*
X45687600Y-44319992D01*
X45739027Y-44325245D01*
X45790454Y-44330500D01*
X46889545Y-44330500D01*
X46889546Y-44330500D01*
X46992399Y-44319992D01*
X47159047Y-44264771D01*
X47271768Y-44195243D01*
X47322469Y-44177620D01*
X47375865Y-44183075D01*
X47472203Y-44214999D01*
X47574991Y-44225500D01*
X48350008Y-44225499D01*
X48452797Y-44214999D01*
X48619334Y-44159814D01*
X48768656Y-44067712D01*
X48892712Y-43943656D01*
X48984814Y-43794334D01*
X49039999Y-43627797D01*
X49050500Y-43525009D01*
X49050499Y-42474992D01*
X49039999Y-42372203D01*
X48984814Y-42205666D01*
X48892712Y-42056344D01*
X48892711Y-42056342D01*
X48768657Y-41932288D01*
X48619334Y-41840186D01*
X48452797Y-41785000D01*
X48350009Y-41774500D01*
X47574991Y-41774500D01*
X47472203Y-41785000D01*
X47305665Y-41840186D01*
X47245585Y-41877243D01*
X47194884Y-41894865D01*
X47141487Y-41889409D01*
X46992401Y-41840008D01*
X46923830Y-41833002D01*
X46889546Y-41829500D01*
X46889545Y-41829500D01*
X46871519Y-41829500D01*
X46824066Y-41820061D01*
X46783838Y-41793181D01*
X45950440Y-40959783D01*
X45945322Y-40954347D01*
X45905429Y-40909317D01*
X45855932Y-40875151D01*
X45849905Y-40870716D01*
X45802554Y-40833620D01*
X45793313Y-40829461D01*
X45773773Y-40818441D01*
X45765430Y-40812682D01*
X45765427Y-40812681D01*
X45765426Y-40812680D01*
X45709201Y-40791356D01*
X45702283Y-40788491D01*
X45647429Y-40763803D01*
X45637452Y-40761975D01*
X45615839Y-40755950D01*
X45606373Y-40752360D01*
X45546672Y-40745110D01*
X45539271Y-40743983D01*
X45480107Y-40733141D01*
X45420066Y-40736774D01*
X45412579Y-40737000D01*
X44968034Y-40737000D01*
X44920581Y-40727561D01*
X44880355Y-40700683D01*
X44830391Y-40650719D01*
X44830390Y-40650718D01*
X44687285Y-40562450D01*
X44527685Y-40509563D01*
X44429174Y-40499500D01*
X43570826Y-40499500D01*
X43472314Y-40509563D01*
X43313504Y-40562189D01*
X43255637Y-40567040D01*
X43201907Y-40545013D01*
X43164097Y-40500939D01*
X43150500Y-40444483D01*
X43150500Y-39049361D01*
X43159939Y-39001908D01*
X43186819Y-38961680D01*
X44148499Y-38000000D01*
X45084722Y-38000000D01*
X45103792Y-38217974D01*
X45160425Y-38429331D01*
X45179303Y-38469814D01*
X45252898Y-38627639D01*
X45378402Y-38806877D01*
X45533123Y-38961598D01*
X45712361Y-39087102D01*
X45910670Y-39179575D01*
X46122023Y-39236207D01*
X46340000Y-39255277D01*
X46557977Y-39236207D01*
X46769330Y-39179575D01*
X46967639Y-39087102D01*
X47004801Y-39061079D01*
X47057951Y-39039964D01*
X47114927Y-39044949D01*
X47142763Y-39062118D01*
X47144007Y-39060103D01*
X47187780Y-39087102D01*
X47305666Y-39159814D01*
X47389066Y-39187450D01*
X47472202Y-39214999D01*
X47482703Y-39216071D01*
X47574991Y-39225500D01*
X48350008Y-39225499D01*
X48452797Y-39214999D01*
X48619334Y-39159814D01*
X48768656Y-39067712D01*
X48892712Y-38943656D01*
X48984814Y-38794334D01*
X49039999Y-38627797D01*
X49050500Y-38525009D01*
X49050499Y-37474992D01*
X49039999Y-37372203D01*
X48984814Y-37205666D01*
X48923258Y-37105868D01*
X48892711Y-37056342D01*
X48768657Y-36932288D01*
X48619334Y-36840186D01*
X48452797Y-36785000D01*
X48350009Y-36774500D01*
X47574991Y-36774500D01*
X47472203Y-36785000D01*
X47305665Y-36840186D01*
X47144008Y-36939897D01*
X47142765Y-36937881D01*
X47114916Y-36955054D01*
X47057948Y-36960034D01*
X47004803Y-36938920D01*
X46967639Y-36912898D01*
X46769331Y-36820425D01*
X46557974Y-36763792D01*
X46340000Y-36744722D01*
X46122025Y-36763792D01*
X45910668Y-36820425D01*
X45712361Y-36912898D01*
X45533122Y-37038402D01*
X45378402Y-37193122D01*
X45252898Y-37372361D01*
X45160425Y-37570668D01*
X45103792Y-37782025D01*
X45084722Y-38000000D01*
X44148499Y-38000000D01*
X45961681Y-36186819D01*
X46001909Y-36159939D01*
X46049362Y-36150500D01*
X97325639Y-36150500D01*
X97373092Y-36159939D01*
X97413320Y-36186819D01*
X98014319Y-36787819D01*
X98044569Y-36837182D01*
X98049111Y-36894898D01*
X98026956Y-36948385D01*
X97982933Y-36985985D01*
X97926638Y-36999500D01*
X97570826Y-36999500D01*
X97472314Y-37009563D01*
X97312714Y-37062450D01*
X97169608Y-37150719D01*
X97060247Y-37260080D01*
X97006398Y-37291694D01*
X96943969Y-37293055D01*
X96888792Y-37263820D01*
X96854860Y-37211401D01*
X96852960Y-37205666D01*
X96844771Y-37180953D01*
X96752607Y-37031532D01*
X96752606Y-37031531D01*
X96752605Y-37031529D01*
X96628470Y-36907394D01*
X96519985Y-36840480D01*
X96479047Y-36815229D01*
X96479046Y-36815228D01*
X96479045Y-36815228D01*
X96312399Y-36760007D01*
X96219079Y-36750473D01*
X96209546Y-36749500D01*
X95110454Y-36749500D01*
X95101729Y-36750391D01*
X95007600Y-36760007D01*
X94840950Y-36815230D01*
X94812506Y-36832774D01*
X94747398Y-36851234D01*
X94709505Y-36840480D01*
X94708092Y-36844745D01*
X94527797Y-36785000D01*
X94425009Y-36774500D01*
X93649991Y-36774500D01*
X93547203Y-36785000D01*
X93380665Y-36840186D01*
X93231342Y-36932288D01*
X93107288Y-37056342D01*
X93015186Y-37205665D01*
X92960000Y-37372202D01*
X92949500Y-37474990D01*
X92949500Y-38525008D01*
X92960000Y-38627796D01*
X93015186Y-38794334D01*
X93107288Y-38943657D01*
X93231342Y-39067711D01*
X93231344Y-39067712D01*
X93380666Y-39159814D01*
X93464066Y-39187450D01*
X93547202Y-39214999D01*
X93557703Y-39216071D01*
X93649991Y-39225500D01*
X94425008Y-39225499D01*
X94527797Y-39214999D01*
X94694334Y-39159814D01*
X94694334Y-39159813D01*
X94708092Y-39155255D01*
X94709508Y-39159528D01*
X94747346Y-39148765D01*
X94812509Y-39167226D01*
X94840953Y-39184771D01*
X94925012Y-39212625D01*
X95007600Y-39239992D01*
X95059027Y-39245246D01*
X95110454Y-39250500D01*
X96209545Y-39250500D01*
X96209546Y-39250500D01*
X96312399Y-39239992D01*
X96479047Y-39184771D01*
X96628468Y-39092607D01*
X96752607Y-38968468D01*
X96844771Y-38819047D01*
X96855888Y-38785496D01*
X96881766Y-38741171D01*
X96923378Y-38711123D01*
X96973594Y-38700500D01*
X97095887Y-38700500D01*
X97160984Y-38718961D01*
X97169608Y-38724280D01*
X97169609Y-38724281D01*
X97312713Y-38812549D01*
X97332314Y-38819044D01*
X97472314Y-38865436D01*
X97570826Y-38875500D01*
X98175500Y-38875500D01*
X98237500Y-38892113D01*
X98282887Y-38937500D01*
X98299500Y-38999500D01*
X98299500Y-39000500D01*
X98282887Y-39062500D01*
X98237500Y-39107887D01*
X98175500Y-39124500D01*
X97570826Y-39124500D01*
X97472314Y-39134563D01*
X97312714Y-39187450D01*
X97169606Y-39275720D01*
X97050720Y-39394606D01*
X96962450Y-39537714D01*
X96909563Y-39697314D01*
X96899500Y-39795826D01*
X96899500Y-40329174D01*
X96909563Y-40427685D01*
X96962450Y-40587285D01*
X97050720Y-40730393D01*
X97169606Y-40849279D01*
X97169608Y-40849280D01*
X97169609Y-40849281D01*
X97312713Y-40937549D01*
X97379811Y-40959783D01*
X97472314Y-40990436D01*
X97570826Y-41000500D01*
X97613139Y-41000500D01*
X97660592Y-41009939D01*
X97700820Y-41036819D01*
X98263181Y-41599180D01*
X98290061Y-41639408D01*
X98299500Y-41686861D01*
X98299500Y-44875500D01*
X98282887Y-44937500D01*
X98237500Y-44982887D01*
X98175500Y-44999500D01*
X97320826Y-44999500D01*
X97222314Y-45009563D01*
X97062714Y-45062450D01*
X96957426Y-45127393D01*
X96895935Y-45145802D01*
X96833479Y-45130999D01*
X96786791Y-45086951D01*
X96752607Y-45031531D01*
X96628470Y-44907394D01*
X96519985Y-44840480D01*
X96479047Y-44815229D01*
X96479046Y-44815228D01*
X96479045Y-44815228D01*
X96312399Y-44760007D01*
X96219079Y-44750473D01*
X96209546Y-44749500D01*
X95110454Y-44749500D01*
X95101729Y-44750391D01*
X95007600Y-44760007D01*
X94840950Y-44815230D01*
X94812506Y-44832774D01*
X94747398Y-44851234D01*
X94709505Y-44840480D01*
X94708092Y-44844745D01*
X94527797Y-44785000D01*
X94425009Y-44774500D01*
X93649991Y-44774500D01*
X93547203Y-44785000D01*
X93380665Y-44840186D01*
X93231342Y-44932288D01*
X93107288Y-45056342D01*
X93015186Y-45205665D01*
X92960000Y-45372202D01*
X92949500Y-45474990D01*
X92949500Y-46525008D01*
X92960000Y-46627796D01*
X93015186Y-46794334D01*
X93107288Y-46943657D01*
X93231342Y-47067711D01*
X93231344Y-47067712D01*
X93380666Y-47159814D01*
X93464066Y-47187450D01*
X93547202Y-47214999D01*
X93557703Y-47216071D01*
X93649991Y-47225500D01*
X94425008Y-47225499D01*
X94527797Y-47214999D01*
X94694334Y-47159814D01*
X94694334Y-47159813D01*
X94708092Y-47155255D01*
X94709508Y-47159528D01*
X94747346Y-47148765D01*
X94812509Y-47167226D01*
X94840953Y-47184771D01*
X94925012Y-47212625D01*
X95007600Y-47239992D01*
X95059027Y-47245246D01*
X95110454Y-47250500D01*
X96209545Y-47250500D01*
X96209546Y-47250500D01*
X96312399Y-47239992D01*
X96479047Y-47184771D01*
X96628468Y-47092607D01*
X96752607Y-46968468D01*
X96842642Y-46822497D01*
X96889329Y-46778450D01*
X96951786Y-46763647D01*
X97013277Y-46782057D01*
X97062710Y-46812548D01*
X97222314Y-46865436D01*
X97320826Y-46875500D01*
X97576370Y-46875500D01*
X97642813Y-46894804D01*
X97688569Y-46946705D01*
X97699392Y-47015044D01*
X97671912Y-47078543D01*
X97614685Y-47117432D01*
X97611607Y-47118432D01*
X97573292Y-47124500D01*
X97320826Y-47124500D01*
X97222314Y-47134563D01*
X97062714Y-47187450D01*
X96919606Y-47275720D01*
X96800720Y-47394606D01*
X96712450Y-47537714D01*
X96659563Y-47697314D01*
X96649500Y-47795826D01*
X96649500Y-48329174D01*
X96659563Y-48427685D01*
X96712450Y-48587285D01*
X96800720Y-48730393D01*
X96919606Y-48849279D01*
X96919608Y-48849280D01*
X96919609Y-48849281D01*
X97062713Y-48937549D01*
X97142513Y-48963992D01*
X97222314Y-48990436D01*
X97320826Y-49000500D01*
X98175500Y-49000500D01*
X98237500Y-49017113D01*
X98282887Y-49062500D01*
X98299500Y-49124500D01*
X98299500Y-52875500D01*
X98282887Y-52937500D01*
X98237500Y-52982887D01*
X98175500Y-52999500D01*
X97570826Y-52999500D01*
X97472314Y-53009563D01*
X97312714Y-53062450D01*
X97169609Y-53150718D01*
X97144628Y-53175699D01*
X97119644Y-53200683D01*
X97079419Y-53227561D01*
X97031966Y-53237000D01*
X96948548Y-53237000D01*
X96888116Y-53221277D01*
X96843009Y-53178097D01*
X96826121Y-53150718D01*
X96752607Y-53031532D01*
X96752606Y-53031531D01*
X96752605Y-53031529D01*
X96628470Y-52907394D01*
X96519985Y-52840480D01*
X96479047Y-52815229D01*
X96479046Y-52815228D01*
X96479045Y-52815228D01*
X96312399Y-52760007D01*
X96219079Y-52750473D01*
X96209546Y-52749500D01*
X95110454Y-52749500D01*
X95101729Y-52750391D01*
X95007600Y-52760007D01*
X94840950Y-52815230D01*
X94812506Y-52832774D01*
X94747398Y-52851234D01*
X94709505Y-52840480D01*
X94708092Y-52844745D01*
X94527797Y-52785000D01*
X94425009Y-52774500D01*
X93649991Y-52774500D01*
X93547203Y-52785000D01*
X93380665Y-52840186D01*
X93231342Y-52932288D01*
X93107288Y-53056342D01*
X93015186Y-53205665D01*
X92960000Y-53372202D01*
X92949500Y-53474990D01*
X92949500Y-54525008D01*
X92960000Y-54627796D01*
X93015186Y-54794334D01*
X93107288Y-54943657D01*
X93231342Y-55067711D01*
X93231344Y-55067712D01*
X93380666Y-55159814D01*
X93464066Y-55187450D01*
X93547202Y-55214999D01*
X93557702Y-55216071D01*
X93649991Y-55225500D01*
X94425008Y-55225499D01*
X94527797Y-55214999D01*
X94694334Y-55159814D01*
X94694334Y-55159813D01*
X94708092Y-55155255D01*
X94709508Y-55159528D01*
X94747346Y-55148765D01*
X94812509Y-55167226D01*
X94840953Y-55184771D01*
X94925012Y-55212625D01*
X95007600Y-55239992D01*
X95059027Y-55245245D01*
X95110454Y-55250500D01*
X96209545Y-55250500D01*
X96209546Y-55250500D01*
X96312399Y-55239992D01*
X96479047Y-55184771D01*
X96628468Y-55092607D01*
X96752607Y-54968468D01*
X96844771Y-54819047D01*
X96876598Y-54722996D01*
X96902478Y-54678671D01*
X96944090Y-54648623D01*
X96994305Y-54638000D01*
X97031966Y-54638000D01*
X97079419Y-54647439D01*
X97119644Y-54674316D01*
X97169609Y-54724281D01*
X97312713Y-54812549D01*
X97332317Y-54819045D01*
X97472314Y-54865436D01*
X97570826Y-54875500D01*
X97826370Y-54875500D01*
X97892813Y-54894804D01*
X97938569Y-54946705D01*
X97949392Y-55015044D01*
X97921912Y-55078543D01*
X97864685Y-55117432D01*
X97861607Y-55118432D01*
X97823292Y-55124500D01*
X97570826Y-55124500D01*
X97472314Y-55134563D01*
X97312714Y-55187450D01*
X97169606Y-55275720D01*
X97050720Y-55394606D01*
X96962450Y-55537714D01*
X96909563Y-55697314D01*
X96899500Y-55795826D01*
X96899500Y-56329174D01*
X96909563Y-56427685D01*
X96962450Y-56587285D01*
X97050720Y-56730393D01*
X97169606Y-56849279D01*
X97169608Y-56849280D01*
X97169609Y-56849281D01*
X97312713Y-56937549D01*
X97392513Y-56963992D01*
X97472314Y-56990436D01*
X97570826Y-57000500D01*
X98175500Y-57000500D01*
X98237500Y-57017113D01*
X98282887Y-57062500D01*
X98299500Y-57124500D01*
X98299500Y-60875500D01*
X98282887Y-60937500D01*
X98237500Y-60982887D01*
X98175500Y-60999500D01*
X97320826Y-60999500D01*
X97222314Y-61009563D01*
X97062714Y-61062450D01*
X96957426Y-61127393D01*
X96895935Y-61145802D01*
X96833479Y-61130999D01*
X96786791Y-61086951D01*
X96752607Y-61031531D01*
X96628470Y-60907394D01*
X96519985Y-60840480D01*
X96479047Y-60815229D01*
X96479046Y-60815228D01*
X96479045Y-60815228D01*
X96312399Y-60760007D01*
X96219079Y-60750473D01*
X96209546Y-60749500D01*
X95110454Y-60749500D01*
X95101729Y-60750391D01*
X95007600Y-60760007D01*
X94840950Y-60815230D01*
X94812506Y-60832774D01*
X94747398Y-60851234D01*
X94709505Y-60840480D01*
X94708092Y-60844745D01*
X94527797Y-60785000D01*
X94425009Y-60774500D01*
X93649991Y-60774500D01*
X93547203Y-60785000D01*
X93380665Y-60840186D01*
X93231342Y-60932288D01*
X93107288Y-61056342D01*
X93015186Y-61205665D01*
X92960000Y-61372202D01*
X92949500Y-61474990D01*
X92949500Y-62525008D01*
X92960000Y-62627796D01*
X93015186Y-62794334D01*
X93107288Y-62943657D01*
X93231342Y-63067711D01*
X93231344Y-63067712D01*
X93380666Y-63159814D01*
X93464066Y-63187450D01*
X93547202Y-63214999D01*
X93557702Y-63216071D01*
X93649991Y-63225500D01*
X94425008Y-63225499D01*
X94527797Y-63214999D01*
X94694334Y-63159814D01*
X94694334Y-63159813D01*
X94708092Y-63155255D01*
X94709508Y-63159528D01*
X94747346Y-63148765D01*
X94812509Y-63167226D01*
X94840953Y-63184771D01*
X94925012Y-63212625D01*
X95007600Y-63239992D01*
X95059027Y-63245246D01*
X95110454Y-63250500D01*
X96209545Y-63250500D01*
X96209546Y-63250500D01*
X96312399Y-63239992D01*
X96479047Y-63184771D01*
X96628468Y-63092607D01*
X96752607Y-62968468D01*
X96842642Y-62822497D01*
X96889329Y-62778450D01*
X96951786Y-62763647D01*
X97013277Y-62782057D01*
X97062710Y-62812548D01*
X97222314Y-62865436D01*
X97320826Y-62875500D01*
X98175500Y-62875500D01*
X98237500Y-62892113D01*
X98282887Y-62937500D01*
X98299500Y-62999500D01*
X98299500Y-63000500D01*
X98282887Y-63062500D01*
X98237500Y-63107887D01*
X98175500Y-63124500D01*
X97320826Y-63124500D01*
X97222314Y-63134563D01*
X97062714Y-63187450D01*
X96919606Y-63275720D01*
X96800720Y-63394606D01*
X96712450Y-63537714D01*
X96659563Y-63697314D01*
X96649500Y-63795826D01*
X96649500Y-64329174D01*
X96659563Y-64427685D01*
X96712450Y-64587285D01*
X96800720Y-64730393D01*
X96919606Y-64849279D01*
X96919608Y-64849280D01*
X96919609Y-64849281D01*
X97062713Y-64937549D01*
X97142513Y-64963992D01*
X97222314Y-64990436D01*
X97320826Y-65000500D01*
X97397147Y-65000500D01*
X97453439Y-65014014D01*
X97472970Y-65023964D01*
X97504792Y-65040178D01*
X97510449Y-65043249D01*
X97569216Y-65077179D01*
X97582553Y-65081512D01*
X97600520Y-65088955D01*
X97613012Y-65095320D01*
X97613014Y-65095321D01*
X97678528Y-65112876D01*
X97684751Y-65114719D01*
X97749244Y-65135674D01*
X97763186Y-65137138D01*
X97782315Y-65140684D01*
X97795854Y-65144313D01*
X97863598Y-65147862D01*
X97870052Y-65148371D01*
X97890304Y-65150500D01*
X97890308Y-65150500D01*
X97910674Y-65150500D01*
X97917163Y-65150670D01*
X97984888Y-65154219D01*
X97998728Y-65152026D01*
X98018126Y-65150500D01*
X98175500Y-65150500D01*
X98237500Y-65167113D01*
X98282887Y-65212500D01*
X98299500Y-65274500D01*
X98299500Y-68875500D01*
X98282887Y-68937500D01*
X98237500Y-68982887D01*
X98175500Y-68999500D01*
X97570826Y-68999500D01*
X97472314Y-69009563D01*
X97312714Y-69062450D01*
X97169609Y-69150718D01*
X97144628Y-69175699D01*
X97119644Y-69200683D01*
X97079419Y-69227561D01*
X97031966Y-69237000D01*
X96948548Y-69237000D01*
X96888116Y-69221277D01*
X96843009Y-69178097D01*
X96826121Y-69150718D01*
X96752607Y-69031532D01*
X96752606Y-69031531D01*
X96752605Y-69031529D01*
X96628470Y-68907394D01*
X96519985Y-68840480D01*
X96479047Y-68815229D01*
X96479046Y-68815228D01*
X96479045Y-68815228D01*
X96312399Y-68760007D01*
X96219079Y-68750473D01*
X96209546Y-68749500D01*
X95110454Y-68749500D01*
X95101729Y-68750391D01*
X95007600Y-68760007D01*
X94840950Y-68815230D01*
X94812506Y-68832774D01*
X94747398Y-68851234D01*
X94709505Y-68840480D01*
X94708092Y-68844745D01*
X94527797Y-68785000D01*
X94425009Y-68774500D01*
X93649991Y-68774500D01*
X93547203Y-68785000D01*
X93380665Y-68840186D01*
X93231342Y-68932288D01*
X93107288Y-69056342D01*
X93015186Y-69205665D01*
X92960000Y-69372202D01*
X92949500Y-69474990D01*
X92949500Y-70525008D01*
X92960000Y-70627796D01*
X93015186Y-70794334D01*
X93107288Y-70943657D01*
X93231342Y-71067711D01*
X93231344Y-71067712D01*
X93380666Y-71159814D01*
X93464066Y-71187450D01*
X93547202Y-71214999D01*
X93557702Y-71216071D01*
X93649991Y-71225500D01*
X94425008Y-71225499D01*
X94527797Y-71214999D01*
X94694334Y-71159814D01*
X94694334Y-71159813D01*
X94708092Y-71155255D01*
X94709508Y-71159528D01*
X94747346Y-71148765D01*
X94812509Y-71167226D01*
X94840953Y-71184771D01*
X94925012Y-71212625D01*
X95007600Y-71239992D01*
X95059027Y-71245245D01*
X95110454Y-71250500D01*
X96209545Y-71250500D01*
X96209546Y-71250500D01*
X96312399Y-71239992D01*
X96479047Y-71184771D01*
X96628468Y-71092607D01*
X96752607Y-70968468D01*
X96844771Y-70819047D01*
X96876598Y-70722996D01*
X96902478Y-70678671D01*
X96944090Y-70648623D01*
X96994305Y-70638000D01*
X97031966Y-70638000D01*
X97079419Y-70647439D01*
X97119644Y-70674316D01*
X97169609Y-70724281D01*
X97312713Y-70812549D01*
X97332317Y-70819045D01*
X97472314Y-70865436D01*
X97570826Y-70875500D01*
X97826370Y-70875500D01*
X97892813Y-70894804D01*
X97938569Y-70946705D01*
X97949392Y-71015044D01*
X97921912Y-71078543D01*
X97864685Y-71117432D01*
X97861607Y-71118432D01*
X97823292Y-71124500D01*
X97570826Y-71124500D01*
X97472314Y-71134563D01*
X97312714Y-71187450D01*
X97169606Y-71275720D01*
X97050720Y-71394606D01*
X96962450Y-71537714D01*
X96909563Y-71697314D01*
X96899500Y-71795826D01*
X96899500Y-72329174D01*
X96909563Y-72427685D01*
X96962450Y-72587285D01*
X97050720Y-72730393D01*
X97169606Y-72849279D01*
X97169608Y-72849280D01*
X97169609Y-72849281D01*
X97312713Y-72937549D01*
X97392514Y-72963992D01*
X97472314Y-72990436D01*
X97570826Y-73000500D01*
X98175500Y-73000500D01*
X98237500Y-73017113D01*
X98282887Y-73062500D01*
X98299500Y-73124500D01*
X98299500Y-76875500D01*
X98282887Y-76937500D01*
X98237500Y-76982887D01*
X98175500Y-76999500D01*
X97320826Y-76999500D01*
X97222314Y-77009563D01*
X97062714Y-77062450D01*
X96957426Y-77127393D01*
X96895935Y-77145802D01*
X96833479Y-77130999D01*
X96786791Y-77086951D01*
X96752607Y-77031531D01*
X96628470Y-76907394D01*
X96519985Y-76840480D01*
X96479047Y-76815229D01*
X96479046Y-76815228D01*
X96479045Y-76815228D01*
X96312399Y-76760007D01*
X96219079Y-76750473D01*
X96209546Y-76749500D01*
X95110454Y-76749500D01*
X95101729Y-76750391D01*
X95007600Y-76760007D01*
X94840950Y-76815230D01*
X94812506Y-76832774D01*
X94747398Y-76851234D01*
X94709505Y-76840480D01*
X94708092Y-76844745D01*
X94527797Y-76785000D01*
X94425009Y-76774500D01*
X93649991Y-76774500D01*
X93547203Y-76785000D01*
X93380665Y-76840186D01*
X93231342Y-76932288D01*
X93107288Y-77056342D01*
X93015186Y-77205665D01*
X92960000Y-77372202D01*
X92949500Y-77474990D01*
X92949500Y-78525008D01*
X92960000Y-78627796D01*
X93015186Y-78794334D01*
X93107288Y-78943657D01*
X93231342Y-79067711D01*
X93231344Y-79067712D01*
X93380666Y-79159814D01*
X93464066Y-79187450D01*
X93547202Y-79214999D01*
X93557702Y-79216071D01*
X93649991Y-79225500D01*
X94425008Y-79225499D01*
X94527797Y-79214999D01*
X94694334Y-79159814D01*
X94694334Y-79159813D01*
X94708092Y-79155255D01*
X94709508Y-79159528D01*
X94747346Y-79148765D01*
X94812509Y-79167226D01*
X94840953Y-79184771D01*
X94925012Y-79212625D01*
X95007600Y-79239992D01*
X95059027Y-79245246D01*
X95110454Y-79250500D01*
X96209545Y-79250500D01*
X96209546Y-79250500D01*
X96312399Y-79239992D01*
X96479047Y-79184771D01*
X96628468Y-79092607D01*
X96752607Y-78968468D01*
X96842642Y-78822497D01*
X96889329Y-78778450D01*
X96951786Y-78763647D01*
X97013277Y-78782057D01*
X97062710Y-78812548D01*
X97222314Y-78865436D01*
X97320826Y-78875500D01*
X98175500Y-78875500D01*
X98237500Y-78892113D01*
X98282887Y-78937500D01*
X98299500Y-78999500D01*
X98299500Y-79000500D01*
X98282887Y-79062500D01*
X98237500Y-79107887D01*
X98175500Y-79124500D01*
X97320826Y-79124500D01*
X97222314Y-79134563D01*
X97062714Y-79187450D01*
X96919606Y-79275720D01*
X96800720Y-79394606D01*
X96712450Y-79537714D01*
X96659563Y-79697314D01*
X96649500Y-79795826D01*
X96649500Y-80329174D01*
X96659563Y-80427685D01*
X96712450Y-80587285D01*
X96800720Y-80730393D01*
X96919606Y-80849279D01*
X96919608Y-80849280D01*
X96919609Y-80849281D01*
X97062713Y-80937549D01*
X97142513Y-80963992D01*
X97222314Y-80990436D01*
X97320826Y-81000500D01*
X97397147Y-81000500D01*
X97453439Y-81014014D01*
X97472970Y-81023964D01*
X97504792Y-81040178D01*
X97510449Y-81043249D01*
X97569216Y-81077179D01*
X97582553Y-81081512D01*
X97600520Y-81088955D01*
X97613012Y-81095320D01*
X97613014Y-81095321D01*
X97678528Y-81112876D01*
X97684751Y-81114719D01*
X97749244Y-81135674D01*
X97763186Y-81137138D01*
X97782315Y-81140684D01*
X97795854Y-81144313D01*
X97863598Y-81147862D01*
X97870052Y-81148371D01*
X97890304Y-81150500D01*
X97890308Y-81150500D01*
X97910674Y-81150500D01*
X97917163Y-81150670D01*
X97984888Y-81154219D01*
X97998728Y-81152026D01*
X98018126Y-81150500D01*
X98175500Y-81150500D01*
X98237500Y-81167113D01*
X98282887Y-81212500D01*
X98299500Y-81274500D01*
X98299500Y-89875500D01*
X98282887Y-89937500D01*
X98237500Y-89982887D01*
X98175500Y-89999500D01*
X97320826Y-89999500D01*
X97222314Y-90009563D01*
X97062711Y-90062451D01*
X96993169Y-90105345D01*
X96931678Y-90123754D01*
X96869222Y-90108951D01*
X96822534Y-90064902D01*
X96821022Y-90062451D01*
X96771947Y-89982887D01*
X96752606Y-89951530D01*
X96628470Y-89827394D01*
X96479045Y-89735228D01*
X96312399Y-89680007D01*
X96219079Y-89670473D01*
X96209546Y-89669500D01*
X95110454Y-89669500D01*
X95101729Y-89670391D01*
X95007600Y-89680007D01*
X94840952Y-89735229D01*
X94741336Y-89796672D01*
X94690634Y-89814295D01*
X94637236Y-89808839D01*
X94565297Y-89785000D01*
X94462509Y-89774500D01*
X93687491Y-89774500D01*
X93584703Y-89785000D01*
X93418165Y-89840186D01*
X93268842Y-89932288D01*
X93144788Y-90056342D01*
X93052686Y-90205665D01*
X92997500Y-90372202D01*
X92987000Y-90474990D01*
X92987000Y-91525008D01*
X92997500Y-91627796D01*
X93052686Y-91794334D01*
X93144788Y-91943657D01*
X93268842Y-92067711D01*
X93300408Y-92087181D01*
X93418166Y-92159814D01*
X93501566Y-92187450D01*
X93584702Y-92214999D01*
X93595203Y-92216071D01*
X93687491Y-92225500D01*
X94462508Y-92225499D01*
X94565297Y-92214999D01*
X94731834Y-92159814D01*
X94778810Y-92130838D01*
X94829509Y-92113217D01*
X94882906Y-92118672D01*
X94946000Y-92139579D01*
X95007600Y-92159992D01*
X95059027Y-92165245D01*
X95110454Y-92170500D01*
X96209545Y-92170500D01*
X96209546Y-92170500D01*
X96312399Y-92159992D01*
X96479047Y-92104771D01*
X96628468Y-92012607D01*
X96752607Y-91888468D01*
X96806897Y-91800449D01*
X96853584Y-91756402D01*
X96916041Y-91741599D01*
X96977532Y-91760009D01*
X97062710Y-91812548D01*
X97222314Y-91865436D01*
X97320826Y-91875500D01*
X97364139Y-91875500D01*
X97420434Y-91889015D01*
X97464457Y-91926615D01*
X97486612Y-91980102D01*
X97482070Y-92037818D01*
X97451820Y-92087181D01*
X97450820Y-92088181D01*
X97410592Y-92115061D01*
X97363139Y-92124500D01*
X97320826Y-92124500D01*
X97222314Y-92134563D01*
X97062714Y-92187450D01*
X96919606Y-92275720D01*
X96800720Y-92394606D01*
X96712450Y-92537714D01*
X96659563Y-92697314D01*
X96649500Y-92795826D01*
X96649500Y-93329174D01*
X96659563Y-93427685D01*
X96712450Y-93587285D01*
X96800720Y-93730393D01*
X96919606Y-93849279D01*
X96919608Y-93849280D01*
X96919609Y-93849281D01*
X97062713Y-93937549D01*
X97142514Y-93963992D01*
X97222314Y-93990436D01*
X97320826Y-94000500D01*
X98179174Y-94000500D01*
X98277685Y-93990436D01*
X98277684Y-93990436D01*
X98437287Y-93937549D01*
X98580391Y-93849281D01*
X98699281Y-93730391D01*
X98787549Y-93587287D01*
X98840436Y-93427685D01*
X98850500Y-93329174D01*
X98850500Y-93286861D01*
X98859939Y-93239408D01*
X98886819Y-93199180D01*
X99290173Y-92795826D01*
X99779742Y-92306256D01*
X99794527Y-92293629D01*
X99805871Y-92285388D01*
X99851256Y-92234981D01*
X99855688Y-92230310D01*
X99870120Y-92215880D01*
X99882938Y-92200049D01*
X99887152Y-92195116D01*
X99932529Y-92144720D01*
X99932533Y-92144716D01*
X99939544Y-92132571D01*
X99950564Y-92116539D01*
X99953254Y-92113217D01*
X99959383Y-92105649D01*
X99990185Y-92045193D01*
X99993248Y-92039551D01*
X100027179Y-91980784D01*
X100031509Y-91967453D01*
X100038956Y-91949474D01*
X100045320Y-91936988D01*
X100062875Y-91871470D01*
X100064707Y-91865282D01*
X100085674Y-91800756D01*
X100087140Y-91786805D01*
X100090683Y-91767690D01*
X100094313Y-91754145D01*
X100097862Y-91686403D01*
X100098371Y-91679948D01*
X100100500Y-91659696D01*
X100100500Y-91639325D01*
X100100670Y-91632836D01*
X100102823Y-91591746D01*
X100104219Y-91565112D01*
X100102026Y-91551271D01*
X100100500Y-91531874D01*
X100100500Y-41343126D01*
X100102027Y-41323728D01*
X100102082Y-41323378D01*
X100104219Y-41309888D01*
X100100669Y-41242169D01*
X100100500Y-41235680D01*
X100100500Y-36780626D01*
X100102027Y-36761227D01*
X100102220Y-36760007D01*
X100104219Y-36747388D01*
X100100670Y-36679664D01*
X100100500Y-36673175D01*
X100100500Y-36652804D01*
X100098371Y-36632552D01*
X100097862Y-36626098D01*
X100094313Y-36558355D01*
X100090681Y-36544803D01*
X100087139Y-36525690D01*
X100085674Y-36511744D01*
X100064714Y-36447237D01*
X100062871Y-36441015D01*
X100045320Y-36375512D01*
X100038955Y-36363020D01*
X100031512Y-36345053D01*
X100027179Y-36331716D01*
X99993264Y-36272974D01*
X99990166Y-36267268D01*
X99959382Y-36206850D01*
X99950559Y-36195954D01*
X99939541Y-36179922D01*
X99932533Y-36167784D01*
X99932532Y-36167783D01*
X99932531Y-36167781D01*
X99887145Y-36117375D01*
X99882928Y-36112437D01*
X99870120Y-36096620D01*
X99855715Y-36082215D01*
X99851247Y-36077507D01*
X99847702Y-36073570D01*
X99805871Y-36027112D01*
X99794526Y-36018869D01*
X99779736Y-36006236D01*
X98443764Y-34670265D01*
X98431125Y-34655467D01*
X98422888Y-34644129D01*
X98372482Y-34598743D01*
X98367773Y-34594274D01*
X98353382Y-34579883D01*
X98353378Y-34579880D01*
X98337556Y-34567066D01*
X98332626Y-34562855D01*
X98282215Y-34517466D01*
X98270076Y-34510458D01*
X98254043Y-34499439D01*
X98243149Y-34490617D01*
X98243147Y-34490616D01*
X98243146Y-34490615D01*
X98182713Y-34459823D01*
X98177008Y-34456725D01*
X98118283Y-34422820D01*
X98104953Y-34418489D01*
X98086974Y-34411042D01*
X98074487Y-34404679D01*
X98008976Y-34387125D01*
X98002754Y-34385282D01*
X97938254Y-34364325D01*
X97924315Y-34362860D01*
X97905187Y-34359315D01*
X97891645Y-34355686D01*
X97823909Y-34352136D01*
X97817445Y-34351627D01*
X97797198Y-34349500D01*
X97797192Y-34349500D01*
X97776826Y-34349500D01*
X97770337Y-34349330D01*
X97765375Y-34349069D01*
X97702612Y-34345781D01*
X97702611Y-34345781D01*
X97695076Y-34346974D01*
X97688771Y-34347973D01*
X97669374Y-34349500D01*
X45705626Y-34349500D01*
X45686228Y-34347973D01*
X45672388Y-34345781D01*
X45604664Y-34349330D01*
X45598175Y-34349500D01*
X45577802Y-34349500D01*
X45557554Y-34351627D01*
X45551091Y-34352136D01*
X45483352Y-34355687D01*
X45469805Y-34359316D01*
X45450689Y-34362859D01*
X45436743Y-34364325D01*
X45372241Y-34385283D01*
X45366020Y-34387126D01*
X45300510Y-34404680D01*
X45288016Y-34411046D01*
X45270056Y-34418485D01*
X45256718Y-34422819D01*
X45197996Y-34456722D01*
X45192295Y-34459818D01*
X45131847Y-34490618D01*
X45120952Y-34499441D01*
X45104929Y-34510454D01*
X45092785Y-34517466D01*
X45042396Y-34562836D01*
X45037465Y-34567047D01*
X45021626Y-34579873D01*
X45007202Y-34594297D01*
X45002498Y-34598760D01*
X44952110Y-34644130D01*
X44943872Y-34655468D01*
X44931238Y-34670260D01*
X41670263Y-37931235D01*
X41655474Y-37943868D01*
X41644127Y-37952112D01*
X41598751Y-38002508D01*
X41594288Y-38007212D01*
X41579874Y-38021626D01*
X41567058Y-38037451D01*
X41562852Y-38042376D01*
X41517466Y-38092784D01*
X41510458Y-38104922D01*
X41499442Y-38120950D01*
X41490619Y-38131845D01*
X41459818Y-38192295D01*
X41456722Y-38197996D01*
X41422822Y-38256713D01*
X41418488Y-38270052D01*
X41411044Y-38288022D01*
X41404680Y-38300512D01*
X41387126Y-38366017D01*
X41385284Y-38372234D01*
X41364325Y-38436743D01*
X41362860Y-38450686D01*
X41359315Y-38469814D01*
X41355686Y-38483355D01*
X41352136Y-38551091D01*
X41351627Y-38557554D01*
X41349500Y-38577802D01*
X41349500Y-38598174D01*
X41349330Y-38604663D01*
X41345781Y-38672388D01*
X41347973Y-38686227D01*
X41349500Y-38705626D01*
X41349500Y-45285674D01*
X41349329Y-45292163D01*
X41345781Y-45359888D01*
X41347731Y-45372203D01*
X41347973Y-45373727D01*
X41349500Y-45393126D01*
X41349500Y-104669374D01*
X41347973Y-104688773D01*
X41345781Y-104702611D01*
X39000500Y-104702611D01*
X39000500Y-28124500D01*
X39017113Y-28062500D01*
X39062500Y-28017113D01*
X39124500Y-28000500D01*
X103875500Y-28000500D01*
X103937500Y-28017113D01*
G37*
G04 #@! TD.AperFunction*
G04 #@! TA.AperFunction,NonConductor*
G36*
X45080706Y-42151597D02*
G01*
X45124781Y-42189407D01*
X45146808Y-42243137D01*
X45141957Y-42301003D01*
X45100008Y-42427598D01*
X45089500Y-42530455D01*
X45089500Y-42735465D01*
X45075985Y-42791760D01*
X45038385Y-42835783D01*
X44984898Y-42857938D01*
X44927182Y-42853396D01*
X44877819Y-42823146D01*
X44830393Y-42775720D01*
X44687285Y-42687450D01*
X44527685Y-42634563D01*
X44429174Y-42624500D01*
X43570826Y-42624500D01*
X43472314Y-42634563D01*
X43313504Y-42687189D01*
X43255637Y-42692040D01*
X43201907Y-42670013D01*
X43164097Y-42625939D01*
X43150500Y-42569483D01*
X43150500Y-42430517D01*
X43164097Y-42374061D01*
X43201907Y-42329987D01*
X43255637Y-42307960D01*
X43313504Y-42312811D01*
X43472314Y-42365436D01*
X43570826Y-42375500D01*
X44429174Y-42375500D01*
X44527685Y-42365436D01*
X44527684Y-42365436D01*
X44687287Y-42312549D01*
X44830391Y-42224281D01*
X44880355Y-42174316D01*
X44920581Y-42147439D01*
X44968034Y-42138000D01*
X45024251Y-42138000D01*
X45080706Y-42151597D01*
G37*
G04 #@! TD.AperFunction*
G04 #@! TA.AperFunction,NonConductor*
G36*
X86340713Y-100383710D02*
G01*
X86378950Y-100422234D01*
X86409523Y-100470890D01*
X86529110Y-100590477D01*
X86592095Y-100630053D01*
X86621473Y-100648513D01*
X86664028Y-100693525D01*
X86679500Y-100753506D01*
X86679500Y-101777289D01*
X86665489Y-101834546D01*
X86626623Y-101878863D01*
X86602686Y-101895624D01*
X86508598Y-101961505D01*
X86341505Y-102128598D01*
X86211575Y-102314159D01*
X86167257Y-102353025D01*
X86110000Y-102367036D01*
X86052743Y-102353025D01*
X86008425Y-102314159D01*
X85909286Y-102172574D01*
X85878495Y-102128599D01*
X85776818Y-102026922D01*
X85749939Y-101986695D01*
X85740500Y-101939242D01*
X85740500Y-100524500D01*
X85757113Y-100462500D01*
X85802500Y-100417113D01*
X85864500Y-100400500D01*
X86047189Y-100400500D01*
X86047192Y-100400500D01*
X86188256Y-100385674D01*
X86235643Y-100370276D01*
X86289682Y-100365209D01*
X86340713Y-100383710D01*
G37*
G04 #@! TD.AperFunction*
G04 #@! TA.AperFunction,NonConductor*
G36*
X88707257Y-103646975D02*
G01*
X88751573Y-103685839D01*
X88881505Y-103871401D01*
X89048599Y-104038495D01*
X89234160Y-104168426D01*
X89273024Y-104212743D01*
X89287035Y-104270000D01*
X89273024Y-104327257D01*
X89234159Y-104371575D01*
X89226410Y-104377001D01*
X89059555Y-104493834D01*
X89048595Y-104501508D01*
X88881505Y-104668598D01*
X88751575Y-104854159D01*
X88707257Y-104893025D01*
X88650000Y-104907036D01*
X88592743Y-104893025D01*
X88548425Y-104854159D01*
X88527244Y-104823909D01*
X88418495Y-104668599D01*
X88251401Y-104501505D01*
X88065839Y-104371573D01*
X88026975Y-104327257D01*
X88012964Y-104270000D01*
X88026975Y-104212743D01*
X88065839Y-104168426D01*
X88251401Y-104038495D01*
X88418495Y-103871401D01*
X88548426Y-103685839D01*
X88592743Y-103646975D01*
X88650000Y-103632964D01*
X88707257Y-103646975D01*
G37*
G04 #@! TD.AperFunction*
G04 #@! TA.AperFunction,NonConductor*
G36*
X91247257Y-103646975D02*
G01*
X91291573Y-103685839D01*
X91421505Y-103871401D01*
X91588599Y-104038495D01*
X91774160Y-104168426D01*
X91813024Y-104212743D01*
X91827035Y-104270000D01*
X91813024Y-104327257D01*
X91774159Y-104371575D01*
X91766410Y-104377001D01*
X91599555Y-104493834D01*
X91588595Y-104501508D01*
X91421505Y-104668598D01*
X91291575Y-104854159D01*
X91247257Y-104893025D01*
X91190000Y-104907036D01*
X91132743Y-104893025D01*
X91088425Y-104854159D01*
X91067244Y-104823909D01*
X90958495Y-104668599D01*
X90791401Y-104501505D01*
X90605839Y-104371573D01*
X90566975Y-104327257D01*
X90552964Y-104270000D01*
X90566975Y-104212743D01*
X90605839Y-104168426D01*
X90791401Y-104038495D01*
X90958495Y-103871401D01*
X91088426Y-103685839D01*
X91132743Y-103646975D01*
X91190000Y-103632964D01*
X91247257Y-103646975D01*
G37*
G04 #@! TD.AperFunction*
G04 #@! TA.AperFunction,NonConductor*
G36*
X93674458Y-103855122D02*
G01*
X93712460Y-103911107D01*
X93715186Y-103919334D01*
X93715187Y-103919335D01*
X93807288Y-104068657D01*
X93931342Y-104192711D01*
X94012707Y-104242897D01*
X94080666Y-104284814D01*
X94088890Y-104287539D01*
X94144858Y-104325518D01*
X94172568Y-104387223D01*
X94163773Y-104454290D01*
X94133697Y-104491261D01*
X94136270Y-104493834D01*
X93961505Y-104668598D01*
X93831575Y-104854159D01*
X93787257Y-104893025D01*
X93730000Y-104907036D01*
X93672743Y-104893025D01*
X93628425Y-104854159D01*
X93607244Y-104823909D01*
X93498495Y-104668599D01*
X93331401Y-104501505D01*
X93145839Y-104371573D01*
X93106975Y-104327257D01*
X93092964Y-104270000D01*
X93106975Y-104212743D01*
X93145839Y-104168426D01*
X93331401Y-104038495D01*
X93498495Y-103871401D01*
X93498495Y-103871400D01*
X93506166Y-103863730D01*
X93508747Y-103866311D01*
X93545633Y-103836259D01*
X93612720Y-103827422D01*
X93674458Y-103855122D01*
G37*
G04 #@! TD.AperFunction*
M02*
