%TF.GenerationSoftware,KiCad,Pcbnew,7.0.1*%
%TF.CreationDate,2023-04-17T14:20:02+02:00*%
%TF.ProjectId,Dual_BPF,4475616c-5f42-4504-962e-6b696361645f,rev?*%
%TF.SameCoordinates,Original*%
%TF.FileFunction,Drillmap*%
%TF.FilePolarity,Positive*%
%FSLAX45Y45*%
G04 Gerber Fmt 4.5, Leading zero omitted, Abs format (unit mm)*
G04 Created by KiCad (PCBNEW 7.0.1) date 2023-04-17 14:20:02*
%MOMM*%
%LPD*%
G01*
G04 APERTURE LIST*
%ADD10C,0.100000*%
%ADD11C,0.200000*%
G04 APERTURE END LIST*
D10*
X3900000Y-2800000D02*
X10400000Y-2800000D01*
X10400000Y-11800000D02*
X3900000Y-11800000D01*
X10400000Y-2800000D02*
X10400000Y-11800000D01*
X3900000Y-11800000D02*
X3900000Y-2800000D01*
D11*
X4142619Y-12117524D02*
X4142619Y-11917524D01*
X4142619Y-11917524D02*
X4190238Y-11917524D01*
X4190238Y-11917524D02*
X4218810Y-11927048D01*
X4218810Y-11927048D02*
X4237857Y-11946095D01*
X4237857Y-11946095D02*
X4247381Y-11965143D01*
X4247381Y-11965143D02*
X4256905Y-12003238D01*
X4256905Y-12003238D02*
X4256905Y-12031809D01*
X4256905Y-12031809D02*
X4247381Y-12069905D01*
X4247381Y-12069905D02*
X4237857Y-12088952D01*
X4237857Y-12088952D02*
X4218810Y-12108000D01*
X4218810Y-12108000D02*
X4190238Y-12117524D01*
X4190238Y-12117524D02*
X4142619Y-12117524D01*
X4342619Y-12117524D02*
X4342619Y-11984190D01*
X4342619Y-12022286D02*
X4352143Y-12003238D01*
X4352143Y-12003238D02*
X4361667Y-11993714D01*
X4361667Y-11993714D02*
X4380714Y-11984190D01*
X4380714Y-11984190D02*
X4399762Y-11984190D01*
X4466429Y-12117524D02*
X4466429Y-11984190D01*
X4466429Y-11917524D02*
X4456905Y-11927048D01*
X4456905Y-11927048D02*
X4466429Y-11936571D01*
X4466429Y-11936571D02*
X4475952Y-11927048D01*
X4475952Y-11927048D02*
X4466429Y-11917524D01*
X4466429Y-11917524D02*
X4466429Y-11936571D01*
X4590238Y-12117524D02*
X4571190Y-12108000D01*
X4571190Y-12108000D02*
X4561667Y-12088952D01*
X4561667Y-12088952D02*
X4561667Y-11917524D01*
X4695000Y-12117524D02*
X4675952Y-12108000D01*
X4675952Y-12108000D02*
X4666429Y-12088952D01*
X4666429Y-12088952D02*
X4666429Y-11917524D01*
X4923571Y-12117524D02*
X4923571Y-11917524D01*
X4923571Y-11917524D02*
X4990238Y-12060381D01*
X4990238Y-12060381D02*
X5056905Y-11917524D01*
X5056905Y-11917524D02*
X5056905Y-12117524D01*
X5237857Y-12117524D02*
X5237857Y-12012762D01*
X5237857Y-12012762D02*
X5228333Y-11993714D01*
X5228333Y-11993714D02*
X5209286Y-11984190D01*
X5209286Y-11984190D02*
X5171190Y-11984190D01*
X5171190Y-11984190D02*
X5152143Y-11993714D01*
X5237857Y-12108000D02*
X5218810Y-12117524D01*
X5218810Y-12117524D02*
X5171190Y-12117524D01*
X5171190Y-12117524D02*
X5152143Y-12108000D01*
X5152143Y-12108000D02*
X5142619Y-12088952D01*
X5142619Y-12088952D02*
X5142619Y-12069905D01*
X5142619Y-12069905D02*
X5152143Y-12050857D01*
X5152143Y-12050857D02*
X5171190Y-12041333D01*
X5171190Y-12041333D02*
X5218810Y-12041333D01*
X5218810Y-12041333D02*
X5237857Y-12031809D01*
X5333095Y-11984190D02*
X5333095Y-12184190D01*
X5333095Y-11993714D02*
X5352143Y-11984190D01*
X5352143Y-11984190D02*
X5390238Y-11984190D01*
X5390238Y-11984190D02*
X5409286Y-11993714D01*
X5409286Y-11993714D02*
X5418810Y-12003238D01*
X5418810Y-12003238D02*
X5428333Y-12022286D01*
X5428333Y-12022286D02*
X5428333Y-12079428D01*
X5428333Y-12079428D02*
X5418810Y-12098476D01*
X5418810Y-12098476D02*
X5409286Y-12108000D01*
X5409286Y-12108000D02*
X5390238Y-12117524D01*
X5390238Y-12117524D02*
X5352143Y-12117524D01*
X5352143Y-12117524D02*
X5333095Y-12108000D01*
X5514048Y-12098476D02*
X5523571Y-12108000D01*
X5523571Y-12108000D02*
X5514048Y-12117524D01*
X5514048Y-12117524D02*
X5504524Y-12108000D01*
X5504524Y-12108000D02*
X5514048Y-12098476D01*
X5514048Y-12098476D02*
X5514048Y-12117524D01*
X5514048Y-11993714D02*
X5523571Y-12003238D01*
X5523571Y-12003238D02*
X5514048Y-12012762D01*
X5514048Y-12012762D02*
X5504524Y-12003238D01*
X5504524Y-12003238D02*
X5514048Y-11993714D01*
X5514048Y-11993714D02*
X5514048Y-12012762D01*
M02*
