G04 #@! TF.GenerationSoftware,KiCad,Pcbnew,7.0.1*
G04 #@! TF.CreationDate,2023-04-17T14:19:34+02:00*
G04 #@! TF.ProjectId,Dual_BPF,4475616c-5f42-4504-962e-6b696361645f,rev?*
G04 #@! TF.SameCoordinates,Original*
G04 #@! TF.FileFunction,Paste,Top*
G04 #@! TF.FilePolarity,Positive*
%FSLAX46Y46*%
G04 Gerber Fmt 4.6, Leading zero omitted, Abs format (unit mm)*
G04 Created by KiCad (PCBNEW 7.0.1) date 2023-04-17 14:19:34*
%MOMM*%
%LPD*%
G01*
G04 APERTURE LIST*
G04 Aperture macros list*
%AMRoundRect*
0 Rectangle with rounded corners*
0 $1 Rounding radius*
0 $2 $3 $4 $5 $6 $7 $8 $9 X,Y pos of 4 corners*
0 Add a 4 corners polygon primitive as box body*
4,1,4,$2,$3,$4,$5,$6,$7,$8,$9,$2,$3,0*
0 Add four circle primitives for the rounded corners*
1,1,$1+$1,$2,$3*
1,1,$1+$1,$4,$5*
1,1,$1+$1,$6,$7*
1,1,$1+$1,$8,$9*
0 Add four rect primitives between the rounded corners*
20,1,$1+$1,$2,$3,$4,$5,0*
20,1,$1+$1,$4,$5,$6,$7,0*
20,1,$1+$1,$6,$7,$8,$9,0*
20,1,$1+$1,$8,$9,$2,$3,0*%
%AMFreePoly0*
4,1,9,3.862500,-0.866500,0.737500,-0.866500,0.737500,-0.450000,-0.737500,-0.450000,-0.737500,0.450000,0.737500,0.450000,0.737500,0.866500,3.862500,0.866500,3.862500,-0.866500,3.862500,-0.866500,$1*%
G04 Aperture macros list end*
%ADD10RoundRect,0.250000X-0.475000X0.337500X-0.475000X-0.337500X0.475000X-0.337500X0.475000X0.337500X0*%
%ADD11RoundRect,0.250000X-0.337500X-0.475000X0.337500X-0.475000X0.337500X0.475000X-0.337500X0.475000X0*%
%ADD12RoundRect,0.250000X1.450000X-0.400000X1.450000X0.400000X-1.450000X0.400000X-1.450000X-0.400000X0*%
%ADD13RoundRect,0.250000X-0.450000X0.350000X-0.450000X-0.350000X0.450000X-0.350000X0.450000X0.350000X0*%
%ADD14RoundRect,0.250000X0.475000X-0.337500X0.475000X0.337500X-0.475000X0.337500X-0.475000X-0.337500X0*%
%ADD15RoundRect,0.218750X-0.381250X0.218750X-0.381250X-0.218750X0.381250X-0.218750X0.381250X0.218750X0*%
%ADD16RoundRect,0.250000X-0.400000X-1.450000X0.400000X-1.450000X0.400000X1.450000X-0.400000X1.450000X0*%
%ADD17RoundRect,0.250000X0.450000X-0.350000X0.450000X0.350000X-0.450000X0.350000X-0.450000X-0.350000X0*%
%ADD18RoundRect,0.250000X0.337500X0.475000X-0.337500X0.475000X-0.337500X-0.475000X0.337500X-0.475000X0*%
%ADD19RoundRect,0.250000X0.350000X0.450000X-0.350000X0.450000X-0.350000X-0.450000X0.350000X-0.450000X0*%
%ADD20RoundRect,0.250000X-1.450000X0.400000X-1.450000X-0.400000X1.450000X-0.400000X1.450000X0.400000X0*%
%ADD21RoundRect,0.250000X-0.350000X-0.450000X0.350000X-0.450000X0.350000X0.450000X-0.350000X0.450000X0*%
%ADD22R,1.500000X2.000000*%
%ADD23R,3.800000X2.000000*%
%ADD24RoundRect,0.218750X0.381250X-0.218750X0.381250X0.218750X-0.381250X0.218750X-0.381250X-0.218750X0*%
%ADD25RoundRect,0.250000X1.000000X0.900000X-1.000000X0.900000X-1.000000X-0.900000X1.000000X-0.900000X0*%
%ADD26R,1.300000X0.900000*%
%ADD27FreePoly0,0.000000*%
G04 APERTURE END LIST*
D10*
X74500000Y-39962500D03*
X74500000Y-42037500D03*
D11*
X67462500Y-50000000D03*
X69537500Y-50000000D03*
D12*
X63500000Y-74225000D03*
X63500000Y-69775000D03*
D11*
X73462500Y-64000000D03*
X75537500Y-64000000D03*
D13*
X80600000Y-77600000D03*
X80600000Y-79600000D03*
D14*
X83500000Y-87825000D03*
X83500000Y-85750000D03*
D15*
X44000000Y-37187500D03*
X44000000Y-39312500D03*
X44000000Y-77687500D03*
X44000000Y-79812500D03*
D16*
X67275000Y-55000000D03*
X71725000Y-55000000D03*
D12*
X64500000Y-81475000D03*
X64500000Y-77025000D03*
D17*
X73750000Y-85500000D03*
X73750000Y-83500000D03*
D11*
X67462500Y-66000000D03*
X69537500Y-66000000D03*
D18*
X75537500Y-70000000D03*
X73462500Y-70000000D03*
D15*
X98000000Y-93937500D03*
X98000000Y-96062500D03*
D11*
X67462500Y-58000000D03*
X69537500Y-58000000D03*
D16*
X67275000Y-47000000D03*
X71725000Y-47000000D03*
D10*
X67500000Y-78462500D03*
X67500000Y-80537500D03*
X62000000Y-83462500D03*
X62000000Y-85537500D03*
D15*
X98000000Y-57187500D03*
X98000000Y-59312500D03*
D12*
X63500000Y-42225000D03*
X63500000Y-37775000D03*
X63500000Y-58225000D03*
X63500000Y-53775000D03*
D19*
X79500000Y-81500000D03*
X77500000Y-81500000D03*
D18*
X75537500Y-62000000D03*
X73462500Y-62000000D03*
D16*
X67275000Y-71000000D03*
X71725000Y-71000000D03*
X67275000Y-63000000D03*
X71725000Y-63000000D03*
D18*
X71537500Y-77000000D03*
X69462500Y-77000000D03*
D15*
X98000000Y-73437500D03*
X98000000Y-75562500D03*
D20*
X78500000Y-45775000D03*
X78500000Y-50225000D03*
D12*
X63500000Y-50225000D03*
X63500000Y-45775000D03*
D11*
X67462500Y-74000000D03*
X69537500Y-74000000D03*
D20*
X78500000Y-53775000D03*
X78500000Y-58225000D03*
D18*
X76537500Y-38000000D03*
X74462500Y-38000000D03*
D15*
X44000000Y-53437500D03*
X44000000Y-55562500D03*
D12*
X79500000Y-42225000D03*
X79500000Y-37775000D03*
D21*
X65500000Y-83500000D03*
X67500000Y-83500000D03*
D12*
X63500000Y-66450000D03*
X63500000Y-62000000D03*
D17*
X78600000Y-79600000D03*
X78600000Y-77600000D03*
D15*
X98000000Y-65437500D03*
X98000000Y-67562500D03*
D11*
X73500000Y-56000000D03*
X75575000Y-56000000D03*
D14*
X61500000Y-81537500D03*
X61500000Y-79462500D03*
D18*
X73537500Y-92250000D03*
X71462500Y-92250000D03*
D20*
X78500000Y-69775000D03*
X78500000Y-74225000D03*
D21*
X71500000Y-90250000D03*
X73500000Y-90250000D03*
D18*
X75537500Y-81500000D03*
X73462500Y-81500000D03*
D20*
X78500000Y-61775000D03*
X78500000Y-66225000D03*
D15*
X44000000Y-45437500D03*
X44000000Y-47562500D03*
D20*
X70500000Y-79025000D03*
X70500000Y-83475000D03*
D15*
X98000000Y-40937500D03*
X98000000Y-43062500D03*
X98000000Y-49375000D03*
X98000000Y-51500000D03*
X98000000Y-81687500D03*
X98000000Y-83812500D03*
D22*
X69300000Y-85850000D03*
X67000000Y-85850000D03*
D23*
X67000000Y-92150000D03*
D22*
X64700000Y-85850000D03*
D15*
X44000000Y-69437500D03*
X44000000Y-71562500D03*
D12*
X71500000Y-42225000D03*
X71500000Y-37775000D03*
D24*
X66500000Y-106312500D03*
X66500000Y-104187500D03*
D17*
X71750000Y-88250000D03*
X71750000Y-86250000D03*
D25*
X80650000Y-87000000D03*
X76350000Y-87000000D03*
D11*
X73462500Y-48000000D03*
X75537500Y-48000000D03*
X66462500Y-40000000D03*
X68537500Y-40000000D03*
X66462500Y-42000000D03*
X68537500Y-42000000D03*
D15*
X44000000Y-61437500D03*
X44000000Y-63562500D03*
D24*
X66500000Y-102062500D03*
X66500000Y-99937500D03*
D14*
X76500000Y-42037500D03*
X76500000Y-39962500D03*
D11*
X73462500Y-72000000D03*
X75537500Y-72000000D03*
D15*
X43750000Y-90187500D03*
X43750000Y-92312500D03*
D18*
X75537500Y-46000000D03*
X73462500Y-46000000D03*
X75537500Y-54000000D03*
X73462500Y-54000000D03*
D26*
X73450000Y-76500000D03*
D27*
X73537500Y-78000000D03*
D26*
X73450000Y-79500000D03*
M02*
