%TF.GenerationSoftware,KiCad,Pcbnew,7.0.1*%
%TF.CreationDate,2023-05-03T08:49:08+02:00*%
%TF.ProjectId,Dual_BPF,4475616c-5f42-4504-962e-6b696361645f,rev?*%
%TF.SameCoordinates,Original*%
%TF.FileFunction,Drillmap*%
%TF.FilePolarity,Positive*%
%FSLAX45Y45*%
G04 Gerber Fmt 4.5, Leading zero omitted, Abs format (unit mm)*
G04 Created by KiCad (PCBNEW 7.0.1) date 2023-05-03 08:49:08*
%MOMM*%
%LPD*%
G01*
G04 APERTURE LIST*
%ADD10C,0.100000*%
%ADD11C,0.200000*%
%ADD12C,0.030000*%
%ADD13C,0.080000*%
%ADD14C,0.130048*%
%ADD15C,0.320000*%
G04 APERTURE END LIST*
D10*
X3900000Y-2800000D02*
X10400000Y-2800000D01*
X10400000Y-11800000D02*
X3900000Y-11800000D01*
X10400000Y-2800000D02*
X10400000Y-11800000D01*
X3900000Y-11800000D02*
X3900000Y-2800000D01*
D11*
D12*
X4060000Y-3589000D02*
X4090000Y-3619000D01*
X4090000Y-3589000D02*
X4060000Y-3619000D01*
X4060000Y-3843000D02*
X4090000Y-3873000D01*
X4090000Y-3843000D02*
X4060000Y-3873000D01*
X4060000Y-4097000D02*
X4090000Y-4127000D01*
X4090000Y-4097000D02*
X4060000Y-4127000D01*
X4060000Y-4351000D02*
X4090000Y-4381000D01*
X4090000Y-4351000D02*
X4060000Y-4381000D01*
X4060000Y-4605000D02*
X4090000Y-4635000D01*
X4090000Y-4605000D02*
X4060000Y-4635000D01*
X4060000Y-4859000D02*
X4090000Y-4889000D01*
X4090000Y-4859000D02*
X4060000Y-4889000D01*
X4060000Y-5113000D02*
X4090000Y-5143000D01*
X4090000Y-5113000D02*
X4060000Y-5143000D01*
X4060000Y-5367000D02*
X4090000Y-5397000D01*
X4090000Y-5367000D02*
X4060000Y-5397000D01*
X4060000Y-5621000D02*
X4090000Y-5651000D01*
X4090000Y-5621000D02*
X4060000Y-5651000D01*
X4060000Y-5875000D02*
X4090000Y-5905000D01*
X4090000Y-5875000D02*
X4060000Y-5905000D01*
X4060000Y-6129000D02*
X4090000Y-6159000D01*
X4090000Y-6129000D02*
X4060000Y-6159000D01*
X4060000Y-6383000D02*
X4090000Y-6413000D01*
X4090000Y-6383000D02*
X4060000Y-6413000D01*
X4060000Y-6637000D02*
X4090000Y-6667000D01*
X4090000Y-6637000D02*
X4060000Y-6667000D01*
X4060000Y-6891000D02*
X4090000Y-6921000D01*
X4090000Y-6891000D02*
X4060000Y-6921000D01*
X4060000Y-7145000D02*
X4090000Y-7175000D01*
X4090000Y-7145000D02*
X4060000Y-7175000D01*
X4060000Y-7399000D02*
X4090000Y-7429000D01*
X4090000Y-7399000D02*
X4060000Y-7429000D01*
X4060000Y-7653000D02*
X4090000Y-7683000D01*
X4090000Y-7653000D02*
X4060000Y-7683000D01*
X4060000Y-7907000D02*
X4090000Y-7937000D01*
X4090000Y-7907000D02*
X4060000Y-7937000D01*
X4060000Y-8161000D02*
X4090000Y-8191000D01*
X4090000Y-8161000D02*
X4060000Y-8191000D01*
X4060000Y-8415000D02*
X4090000Y-8445000D01*
X4090000Y-8415000D02*
X4060000Y-8445000D01*
X4060000Y-8669000D02*
X4090000Y-8699000D01*
X4090000Y-8669000D02*
X4060000Y-8699000D01*
X4060000Y-8923000D02*
X4090000Y-8953000D01*
X4090000Y-8923000D02*
X4060000Y-8953000D01*
X4060000Y-9177000D02*
X4090000Y-9207000D01*
X4090000Y-9177000D02*
X4060000Y-9207000D01*
X4060000Y-9431000D02*
X4090000Y-9461000D01*
X4090000Y-9431000D02*
X4060000Y-9461000D01*
X4060000Y-9685000D02*
X4090000Y-9715000D01*
X4090000Y-9685000D02*
X4060000Y-9715000D01*
X4060000Y-9939000D02*
X4090000Y-9969000D01*
X4090000Y-9939000D02*
X4060000Y-9969000D01*
X4060000Y-10193000D02*
X4090000Y-10223000D01*
X4090000Y-10193000D02*
X4060000Y-10223000D01*
X4060000Y-10447000D02*
X4090000Y-10477000D01*
X4090000Y-10447000D02*
X4060000Y-10477000D01*
X4135000Y-10585000D02*
X4165000Y-10615000D01*
X4165000Y-10585000D02*
X4135000Y-10615000D01*
X4210000Y-8785000D02*
X4240000Y-8815000D01*
X4240000Y-8785000D02*
X4210000Y-8815000D01*
X4235000Y-10685000D02*
X4265000Y-10715000D01*
X4265000Y-10685000D02*
X4235000Y-10715000D01*
X4335000Y-10785000D02*
X4365000Y-10815000D01*
X4365000Y-10785000D02*
X4335000Y-10815000D01*
X4385000Y-9735000D02*
X4415000Y-9765000D01*
X4415000Y-9735000D02*
X4385000Y-9765000D01*
X4385000Y-9985000D02*
X4415000Y-10015000D01*
X4415000Y-9985000D02*
X4385000Y-10015000D01*
X4385000Y-10235000D02*
X4415000Y-10265000D01*
X4415000Y-10235000D02*
X4385000Y-10265000D01*
X4435000Y-10435000D02*
X4465000Y-10465000D01*
X4465000Y-10435000D02*
X4435000Y-10465000D01*
X4485000Y-10885000D02*
X4515000Y-10915000D01*
X4515000Y-10885000D02*
X4485000Y-10915000D01*
X4485000Y-11635000D02*
X4515000Y-11665000D01*
X4515000Y-11635000D02*
X4485000Y-11665000D01*
X4585000Y-10585000D02*
X4615000Y-10615000D01*
X4615000Y-10585000D02*
X4585000Y-10615000D01*
X4685000Y-10885000D02*
X4715000Y-10915000D01*
X4715000Y-10885000D02*
X4685000Y-10915000D01*
X4860000Y-3335000D02*
X4890000Y-3365000D01*
X4890000Y-3335000D02*
X4860000Y-3365000D01*
X4885000Y-9765000D02*
X4915000Y-9795000D01*
X4915000Y-9765000D02*
X4885000Y-9795000D01*
X4885000Y-9985000D02*
X4915000Y-10015000D01*
X4915000Y-9985000D02*
X4885000Y-10015000D01*
X4885000Y-10235000D02*
X4915000Y-10265000D01*
X4915000Y-10235000D02*
X4885000Y-10265000D01*
X4885000Y-10485000D02*
X4915000Y-10515000D01*
X4915000Y-10485000D02*
X4885000Y-10515000D01*
X4885000Y-10685000D02*
X4915000Y-10715000D01*
X4915000Y-10685000D02*
X4885000Y-10715000D01*
X4885000Y-10885000D02*
X4915000Y-10915000D01*
X4915000Y-10885000D02*
X4885000Y-10915000D01*
X4885000Y-11635000D02*
X4915000Y-11665000D01*
X4915000Y-11635000D02*
X4885000Y-11665000D01*
X4910000Y-10785000D02*
X4940000Y-10815000D01*
X4940000Y-10785000D02*
X4910000Y-10815000D01*
X5035000Y-10785000D02*
X5065000Y-10815000D01*
X5065000Y-10785000D02*
X5035000Y-10815000D01*
X5135000Y-10685000D02*
X5165000Y-10715000D01*
X5165000Y-10685000D02*
X5135000Y-10715000D01*
X5135000Y-10885000D02*
X5165000Y-10915000D01*
X5165000Y-10885000D02*
X5135000Y-10915000D01*
X5160000Y-10785000D02*
X5190000Y-10815000D01*
X5190000Y-10785000D02*
X5160000Y-10815000D01*
X5235000Y-3885000D02*
X5265000Y-3915000D01*
X5265000Y-3885000D02*
X5235000Y-3915000D01*
X5235000Y-3985000D02*
X5265000Y-4015000D01*
X5265000Y-3985000D02*
X5235000Y-4015000D01*
X5235000Y-4085000D02*
X5265000Y-4115000D01*
X5265000Y-4085000D02*
X5235000Y-4115000D01*
X5235000Y-4185000D02*
X5265000Y-4215000D01*
X5265000Y-4185000D02*
X5235000Y-4215000D01*
X5235000Y-4685000D02*
X5265000Y-4715000D01*
X5265000Y-4685000D02*
X5235000Y-4715000D01*
X5235000Y-4785000D02*
X5265000Y-4815000D01*
X5265000Y-4785000D02*
X5235000Y-4815000D01*
X5235000Y-4885000D02*
X5265000Y-4915000D01*
X5265000Y-4885000D02*
X5235000Y-4915000D01*
X5235000Y-4985000D02*
X5265000Y-5015000D01*
X5265000Y-4985000D02*
X5235000Y-5015000D01*
X5235000Y-5485000D02*
X5265000Y-5515000D01*
X5265000Y-5485000D02*
X5235000Y-5515000D01*
X5235000Y-5585000D02*
X5265000Y-5615000D01*
X5265000Y-5585000D02*
X5235000Y-5615000D01*
X5235000Y-5685000D02*
X5265000Y-5715000D01*
X5265000Y-5685000D02*
X5235000Y-5715000D01*
X5235000Y-5785000D02*
X5265000Y-5815000D01*
X5265000Y-5785000D02*
X5235000Y-5815000D01*
X5235000Y-6285000D02*
X5265000Y-6315000D01*
X5265000Y-6285000D02*
X5235000Y-6315000D01*
X5235000Y-6385000D02*
X5265000Y-6415000D01*
X5265000Y-6385000D02*
X5235000Y-6415000D01*
X5235000Y-6485000D02*
X5265000Y-6515000D01*
X5265000Y-6485000D02*
X5235000Y-6515000D01*
X5235000Y-6585000D02*
X5265000Y-6615000D01*
X5265000Y-6585000D02*
X5235000Y-6615000D01*
X5235000Y-7085000D02*
X5265000Y-7115000D01*
X5265000Y-7085000D02*
X5235000Y-7115000D01*
X5235000Y-7185000D02*
X5265000Y-7215000D01*
X5265000Y-7185000D02*
X5235000Y-7215000D01*
X5235000Y-7285000D02*
X5265000Y-7315000D01*
X5265000Y-7285000D02*
X5235000Y-7315000D01*
X5235000Y-7385000D02*
X5265000Y-7415000D01*
X5265000Y-7385000D02*
X5235000Y-7415000D01*
X5235000Y-7885000D02*
X5265000Y-7915000D01*
X5265000Y-7885000D02*
X5235000Y-7915000D01*
X5235000Y-7985000D02*
X5265000Y-8015000D01*
X5265000Y-7985000D02*
X5235000Y-8015000D01*
X5235000Y-8085000D02*
X5265000Y-8115000D01*
X5265000Y-8085000D02*
X5235000Y-8115000D01*
X5235000Y-8185000D02*
X5265000Y-8215000D01*
X5265000Y-8185000D02*
X5235000Y-8215000D01*
X5235000Y-9185000D02*
X5265000Y-9215000D01*
X5265000Y-9185000D02*
X5235000Y-9215000D01*
X5235000Y-9285000D02*
X5265000Y-9315000D01*
X5265000Y-9285000D02*
X5235000Y-9315000D01*
X5235000Y-9385000D02*
X5265000Y-9415000D01*
X5265000Y-9385000D02*
X5235000Y-9415000D01*
X5235000Y-9485000D02*
X5265000Y-9515000D01*
X5265000Y-9485000D02*
X5235000Y-9515000D01*
X5235000Y-9765000D02*
X5265000Y-9795000D01*
X5265000Y-9765000D02*
X5235000Y-9795000D01*
X5260000Y-3335000D02*
X5290000Y-3365000D01*
X5290000Y-3335000D02*
X5260000Y-3365000D01*
X5335000Y-10685000D02*
X5365000Y-10715000D01*
X5365000Y-10685000D02*
X5335000Y-10715000D01*
X5335000Y-10885000D02*
X5365000Y-10915000D01*
X5365000Y-10885000D02*
X5335000Y-10915000D01*
X5405000Y-9765000D02*
X5435000Y-9795000D01*
X5435000Y-9765000D02*
X5405000Y-9795000D01*
X5435000Y-8485000D02*
X5465000Y-8515000D01*
X5465000Y-8485000D02*
X5435000Y-8515000D01*
X5435000Y-8585000D02*
X5465000Y-8615000D01*
X5465000Y-8585000D02*
X5435000Y-8615000D01*
X5435000Y-8685000D02*
X5465000Y-8715000D01*
X5465000Y-8685000D02*
X5435000Y-8715000D01*
X5535000Y-10685000D02*
X5565000Y-10715000D01*
X5565000Y-10685000D02*
X5535000Y-10715000D01*
X5660000Y-3335000D02*
X5690000Y-3365000D01*
X5690000Y-3335000D02*
X5660000Y-3365000D01*
X5785000Y-4335000D02*
X5815000Y-4365000D01*
X5815000Y-4335000D02*
X5785000Y-4365000D01*
X5835000Y-3685000D02*
X5865000Y-3715000D01*
X5865000Y-3685000D02*
X5835000Y-3715000D01*
X5835000Y-3785000D02*
X5865000Y-3815000D01*
X5865000Y-3785000D02*
X5835000Y-3815000D01*
X5835000Y-4185000D02*
X5865000Y-4215000D01*
X5865000Y-4185000D02*
X5835000Y-4215000D01*
X5835000Y-4285000D02*
X5865000Y-4315000D01*
X5865000Y-4285000D02*
X5835000Y-4315000D01*
X5835000Y-4585000D02*
X5865000Y-4615000D01*
X5865000Y-4585000D02*
X5835000Y-4615000D01*
X5835000Y-4985000D02*
X5865000Y-5015000D01*
X5865000Y-4985000D02*
X5835000Y-5015000D01*
X5835000Y-5085000D02*
X5865000Y-5115000D01*
X5865000Y-5085000D02*
X5835000Y-5115000D01*
X5835000Y-5385000D02*
X5865000Y-5415000D01*
X5865000Y-5385000D02*
X5835000Y-5415000D01*
X5835000Y-5485000D02*
X5865000Y-5515000D01*
X5865000Y-5485000D02*
X5835000Y-5515000D01*
X5835000Y-5785000D02*
X5865000Y-5815000D01*
X5865000Y-5785000D02*
X5835000Y-5815000D01*
X5835000Y-5885000D02*
X5865000Y-5915000D01*
X5865000Y-5885000D02*
X5835000Y-5915000D01*
X5835000Y-6185000D02*
X5865000Y-6215000D01*
X5865000Y-6185000D02*
X5835000Y-6215000D01*
X5835000Y-6285000D02*
X5865000Y-6315000D01*
X5865000Y-6285000D02*
X5835000Y-6315000D01*
X5835000Y-6585000D02*
X5865000Y-6615000D01*
X5865000Y-6585000D02*
X5835000Y-6615000D01*
X5835000Y-6685000D02*
X5865000Y-6715000D01*
X5865000Y-6685000D02*
X5835000Y-6715000D01*
X5835000Y-6985000D02*
X5865000Y-7015000D01*
X5865000Y-6985000D02*
X5835000Y-7015000D01*
X5835000Y-7085000D02*
X5865000Y-7115000D01*
X5865000Y-7085000D02*
X5835000Y-7115000D01*
X5835000Y-7385000D02*
X5865000Y-7415000D01*
X5865000Y-7385000D02*
X5835000Y-7415000D01*
X5835000Y-7485000D02*
X5865000Y-7515000D01*
X5865000Y-7485000D02*
X5835000Y-7515000D01*
X5835000Y-7785000D02*
X5865000Y-7815000D01*
X5865000Y-7785000D02*
X5835000Y-7815000D01*
X5835000Y-8185000D02*
X5865000Y-8215000D01*
X5865000Y-8185000D02*
X5835000Y-8215000D01*
X5835000Y-8285000D02*
X5865000Y-8315000D01*
X5865000Y-8285000D02*
X5835000Y-8315000D01*
X5835000Y-8385000D02*
X5865000Y-8415000D01*
X5865000Y-8385000D02*
X5835000Y-8415000D01*
X5835000Y-8485000D02*
X5865000Y-8515000D01*
X5865000Y-8485000D02*
X5835000Y-8515000D01*
X5835000Y-8585000D02*
X5865000Y-8615000D01*
X5865000Y-8585000D02*
X5835000Y-8615000D01*
X5835000Y-8685000D02*
X5865000Y-8715000D01*
X5865000Y-8685000D02*
X5835000Y-8715000D01*
X5835000Y-9185000D02*
X5865000Y-9215000D01*
X5865000Y-9185000D02*
X5835000Y-9215000D01*
X5835000Y-9585000D02*
X5865000Y-9615000D01*
X5865000Y-9585000D02*
X5835000Y-9615000D01*
X5835000Y-9765000D02*
X5865000Y-9795000D01*
X5865000Y-9765000D02*
X5835000Y-9795000D01*
X5835000Y-10885000D02*
X5865000Y-10915000D01*
X5865000Y-10885000D02*
X5835000Y-10915000D01*
X5935000Y-3685000D02*
X5965000Y-3715000D01*
X5965000Y-3685000D02*
X5935000Y-3715000D01*
X5935000Y-4185000D02*
X5965000Y-4215000D01*
X5965000Y-4185000D02*
X5935000Y-4215000D01*
X5935000Y-4585000D02*
X5965000Y-4615000D01*
X5965000Y-4585000D02*
X5935000Y-4615000D01*
X5935000Y-4985000D02*
X5965000Y-5015000D01*
X5965000Y-4985000D02*
X5935000Y-5015000D01*
X5935000Y-5485000D02*
X5965000Y-5515000D01*
X5965000Y-5485000D02*
X5935000Y-5515000D01*
X5935000Y-5785000D02*
X5965000Y-5815000D01*
X5965000Y-5785000D02*
X5935000Y-5815000D01*
X5935000Y-6285000D02*
X5965000Y-6315000D01*
X5965000Y-6285000D02*
X5935000Y-6315000D01*
X5935000Y-6585000D02*
X5965000Y-6615000D01*
X5965000Y-6585000D02*
X5935000Y-6615000D01*
X5935000Y-7085000D02*
X5965000Y-7115000D01*
X5965000Y-7085000D02*
X5935000Y-7115000D01*
X5935000Y-7385000D02*
X5965000Y-7415000D01*
X5965000Y-7385000D02*
X5935000Y-7415000D01*
X5935000Y-7785000D02*
X5965000Y-7815000D01*
X5965000Y-7785000D02*
X5935000Y-7815000D01*
X5935000Y-8185000D02*
X5965000Y-8215000D01*
X5965000Y-8185000D02*
X5935000Y-8215000D01*
X5935000Y-9285000D02*
X5965000Y-9315000D01*
X5965000Y-9285000D02*
X5935000Y-9315000D01*
X5985000Y-4335000D02*
X6015000Y-4365000D01*
X6015000Y-4335000D02*
X5985000Y-4365000D01*
X5985000Y-5135000D02*
X6015000Y-5165000D01*
X6015000Y-5135000D02*
X5985000Y-5165000D01*
X5985000Y-5935000D02*
X6015000Y-5965000D01*
X6015000Y-5935000D02*
X5985000Y-5965000D01*
X5985000Y-6735000D02*
X6015000Y-6765000D01*
X6015000Y-6735000D02*
X5985000Y-6765000D01*
X5985000Y-7485000D02*
X6015000Y-7515000D01*
X6015000Y-7485000D02*
X5985000Y-7515000D01*
X5985000Y-7635000D02*
X6015000Y-7665000D01*
X6015000Y-7635000D02*
X5985000Y-7665000D01*
X6035000Y-3685000D02*
X6065000Y-3715000D01*
X6065000Y-3685000D02*
X6035000Y-3715000D01*
X6035000Y-4185000D02*
X6065000Y-4215000D01*
X6065000Y-4185000D02*
X6035000Y-4215000D01*
X6035000Y-4585000D02*
X6065000Y-4615000D01*
X6065000Y-4585000D02*
X6035000Y-4615000D01*
X6035000Y-4985000D02*
X6065000Y-5015000D01*
X6065000Y-4985000D02*
X6035000Y-5015000D01*
X6035000Y-5485000D02*
X6065000Y-5515000D01*
X6065000Y-5485000D02*
X6035000Y-5515000D01*
X6035000Y-5785000D02*
X6065000Y-5815000D01*
X6065000Y-5785000D02*
X6035000Y-5815000D01*
X6035000Y-6285000D02*
X6065000Y-6315000D01*
X6065000Y-6285000D02*
X6035000Y-6315000D01*
X6035000Y-6585000D02*
X6065000Y-6615000D01*
X6065000Y-6585000D02*
X6035000Y-6615000D01*
X6035000Y-7085000D02*
X6065000Y-7115000D01*
X6065000Y-7085000D02*
X6035000Y-7115000D01*
X6035000Y-7385000D02*
X6065000Y-7415000D01*
X6065000Y-7385000D02*
X6035000Y-7415000D01*
X6035000Y-7785000D02*
X6065000Y-7815000D01*
X6065000Y-7785000D02*
X6035000Y-7815000D01*
X6035000Y-9385000D02*
X6065000Y-9415000D01*
X6065000Y-9385000D02*
X6035000Y-9415000D01*
X6035000Y-9765000D02*
X6065000Y-9795000D01*
X6065000Y-9765000D02*
X6035000Y-9795000D01*
X6035000Y-9985000D02*
X6065000Y-10015000D01*
X6065000Y-9985000D02*
X6035000Y-10015000D01*
X6035000Y-10185000D02*
X6065000Y-10215000D01*
X6065000Y-10185000D02*
X6035000Y-10215000D01*
X6035000Y-10385000D02*
X6065000Y-10415000D01*
X6065000Y-10385000D02*
X6035000Y-10415000D01*
X6035000Y-10585000D02*
X6065000Y-10615000D01*
X6065000Y-10585000D02*
X6035000Y-10615000D01*
X6060000Y-3335000D02*
X6090000Y-3365000D01*
X6090000Y-3335000D02*
X6060000Y-3365000D01*
X6085000Y-11635000D02*
X6115000Y-11665000D01*
X6115000Y-11635000D02*
X6085000Y-11665000D01*
X6135000Y-7485000D02*
X6165000Y-7515000D01*
X6165000Y-7485000D02*
X6135000Y-7515000D01*
X6135000Y-7635000D02*
X6165000Y-7665000D01*
X6165000Y-7635000D02*
X6135000Y-7665000D01*
X6135000Y-7785000D02*
X6165000Y-7815000D01*
X6165000Y-7785000D02*
X6135000Y-7815000D01*
X6135000Y-9385000D02*
X6165000Y-9415000D01*
X6165000Y-9385000D02*
X6135000Y-9415000D01*
X6185000Y-4335000D02*
X6215000Y-4365000D01*
X6215000Y-4335000D02*
X6185000Y-4365000D01*
X6185000Y-5135000D02*
X6215000Y-5165000D01*
X6215000Y-5135000D02*
X6185000Y-5165000D01*
X6185000Y-5935000D02*
X6215000Y-5965000D01*
X6215000Y-5935000D02*
X6185000Y-5965000D01*
X6185000Y-6735000D02*
X6215000Y-6765000D01*
X6215000Y-6735000D02*
X6185000Y-6765000D01*
X6235000Y-9770050D02*
X6265000Y-9800050D01*
X6265000Y-9770050D02*
X6235000Y-9800050D01*
X6285000Y-7485000D02*
X6315000Y-7515000D01*
X6315000Y-7485000D02*
X6285000Y-7515000D01*
X6335000Y-9385000D02*
X6365000Y-9415000D01*
X6365000Y-9385000D02*
X6335000Y-9415000D01*
X6385000Y-4335000D02*
X6415000Y-4365000D01*
X6415000Y-4335000D02*
X6385000Y-4365000D01*
X6385000Y-5135000D02*
X6415000Y-5165000D01*
X6415000Y-5135000D02*
X6385000Y-5165000D01*
X6385000Y-5935000D02*
X6415000Y-5965000D01*
X6415000Y-5935000D02*
X6385000Y-5965000D01*
X6385000Y-6735000D02*
X6415000Y-6765000D01*
X6415000Y-6735000D02*
X6385000Y-6765000D01*
X6435000Y-7485000D02*
X6465000Y-7515000D01*
X6465000Y-7485000D02*
X6435000Y-7515000D01*
X6435000Y-9770050D02*
X6465000Y-9800050D01*
X6465000Y-9770050D02*
X6435000Y-9800050D01*
X6460000Y-3335000D02*
X6490000Y-3365000D01*
X6490000Y-3335000D02*
X6460000Y-3365000D01*
X6485000Y-11635000D02*
X6515000Y-11665000D01*
X6515000Y-11635000D02*
X6485000Y-11665000D01*
X6535000Y-9385000D02*
X6565000Y-9415000D01*
X6565000Y-9385000D02*
X6535000Y-9415000D01*
X6585000Y-4335000D02*
X6615000Y-4365000D01*
X6615000Y-4335000D02*
X6585000Y-4365000D01*
X6585000Y-5135000D02*
X6615000Y-5165000D01*
X6615000Y-5135000D02*
X6585000Y-5165000D01*
X6585000Y-5935000D02*
X6615000Y-5965000D01*
X6615000Y-5935000D02*
X6585000Y-5965000D01*
X6585000Y-6735000D02*
X6615000Y-6765000D01*
X6615000Y-6735000D02*
X6585000Y-6765000D01*
X6585000Y-7485000D02*
X6615000Y-7515000D01*
X6615000Y-7485000D02*
X6585000Y-7515000D01*
X6635000Y-3685000D02*
X6665000Y-3715000D01*
X6665000Y-3685000D02*
X6635000Y-3715000D01*
X6635000Y-9770050D02*
X6665000Y-9800050D01*
X6665000Y-9770050D02*
X6635000Y-9800050D01*
X6685000Y-7635000D02*
X6715000Y-7665000D01*
X6715000Y-7635000D02*
X6685000Y-7665000D01*
X6735000Y-3685000D02*
X6765000Y-3715000D01*
X6765000Y-3685000D02*
X6735000Y-3715000D01*
X6735000Y-9385000D02*
X6765000Y-9415000D01*
X6765000Y-9385000D02*
X6735000Y-9415000D01*
X6785000Y-4335000D02*
X6815000Y-4365000D01*
X6815000Y-4335000D02*
X6785000Y-4365000D01*
X6785000Y-5135000D02*
X6815000Y-5165000D01*
X6815000Y-5135000D02*
X6785000Y-5165000D01*
X6785000Y-5935000D02*
X6815000Y-5965000D01*
X6815000Y-5935000D02*
X6785000Y-5965000D01*
X6785000Y-6735000D02*
X6815000Y-6765000D01*
X6815000Y-6735000D02*
X6785000Y-6765000D01*
X6785000Y-7635000D02*
X6815000Y-7665000D01*
X6815000Y-7635000D02*
X6785000Y-7665000D01*
X6835000Y-3685000D02*
X6865000Y-3715000D01*
X6865000Y-3685000D02*
X6835000Y-3715000D01*
X6835000Y-9770050D02*
X6865000Y-9800050D01*
X6865000Y-9770050D02*
X6835000Y-9800050D01*
X6860000Y-3335000D02*
X6890000Y-3365000D01*
X6890000Y-3335000D02*
X6860000Y-3365000D01*
X6935000Y-7485000D02*
X6965000Y-7515000D01*
X6965000Y-7485000D02*
X6935000Y-7515000D01*
X6935000Y-8085000D02*
X6965000Y-8115000D01*
X6965000Y-8085000D02*
X6935000Y-8115000D01*
X6935000Y-8185000D02*
X6965000Y-8215000D01*
X6965000Y-8185000D02*
X6935000Y-8215000D01*
X6935000Y-9385000D02*
X6965000Y-9415000D01*
X6965000Y-9385000D02*
X6935000Y-9415000D01*
X6985000Y-4335000D02*
X7015000Y-4365000D01*
X7015000Y-4335000D02*
X6985000Y-4365000D01*
X6985000Y-5135000D02*
X7015000Y-5165000D01*
X7015000Y-5135000D02*
X6985000Y-5165000D01*
X6985000Y-5935000D02*
X7015000Y-5965000D01*
X7015000Y-5935000D02*
X6985000Y-5965000D01*
X6985000Y-6735000D02*
X7015000Y-6765000D01*
X7015000Y-6735000D02*
X6985000Y-6765000D01*
X7035000Y-8485000D02*
X7065000Y-8515000D01*
X7065000Y-8485000D02*
X7035000Y-8515000D01*
X7035000Y-9770050D02*
X7065000Y-9800050D01*
X7065000Y-9770050D02*
X7035000Y-9800050D01*
X7085000Y-7485000D02*
X7115000Y-7515000D01*
X7115000Y-7485000D02*
X7085000Y-7515000D01*
X7085000Y-8085000D02*
X7115000Y-8115000D01*
X7115000Y-8085000D02*
X7085000Y-8115000D01*
X7085000Y-8185000D02*
X7115000Y-8215000D01*
X7115000Y-8185000D02*
X7085000Y-8215000D01*
X7135000Y-8485000D02*
X7165000Y-8515000D01*
X7165000Y-8485000D02*
X7135000Y-8515000D01*
X7135000Y-9385000D02*
X7165000Y-9415000D01*
X7165000Y-9385000D02*
X7135000Y-9415000D01*
X7135000Y-10785000D02*
X7165000Y-10815000D01*
X7165000Y-10785000D02*
X7135000Y-10815000D01*
X7185000Y-4335000D02*
X7215000Y-4365000D01*
X7215000Y-4335000D02*
X7185000Y-4365000D01*
X7185000Y-5135000D02*
X7215000Y-5165000D01*
X7215000Y-5135000D02*
X7185000Y-5165000D01*
X7185000Y-5935000D02*
X7215000Y-5965000D01*
X7215000Y-5935000D02*
X7185000Y-5965000D01*
X7185000Y-6735000D02*
X7215000Y-6765000D01*
X7215000Y-6735000D02*
X7185000Y-6765000D01*
X7235000Y-7485000D02*
X7265000Y-7515000D01*
X7265000Y-7485000D02*
X7235000Y-7515000D01*
X7235000Y-9770050D02*
X7265000Y-9800050D01*
X7265000Y-9770050D02*
X7235000Y-9800050D01*
X7235000Y-10685000D02*
X7265000Y-10715000D01*
X7265000Y-10685000D02*
X7235000Y-10715000D01*
X7260000Y-3335000D02*
X7290000Y-3365000D01*
X7290000Y-3335000D02*
X7260000Y-3365000D01*
X7335000Y-9385000D02*
X7365000Y-9415000D01*
X7365000Y-9385000D02*
X7335000Y-9415000D01*
X7335000Y-10585000D02*
X7365000Y-10615000D01*
X7365000Y-10585000D02*
X7335000Y-10615000D01*
X7385000Y-4335000D02*
X7415000Y-4365000D01*
X7415000Y-4335000D02*
X7385000Y-4365000D01*
X7385000Y-5135000D02*
X7415000Y-5165000D01*
X7415000Y-5135000D02*
X7385000Y-5165000D01*
X7385000Y-5935000D02*
X7415000Y-5965000D01*
X7415000Y-5935000D02*
X7385000Y-5965000D01*
X7385000Y-6735000D02*
X7415000Y-6765000D01*
X7415000Y-6735000D02*
X7385000Y-6765000D01*
X7385000Y-7485000D02*
X7415000Y-7515000D01*
X7415000Y-7485000D02*
X7385000Y-7515000D01*
X7385000Y-8710000D02*
X7415000Y-8740000D01*
X7415000Y-8710000D02*
X7385000Y-8740000D01*
X7385000Y-8810000D02*
X7415000Y-8840000D01*
X7415000Y-8810000D02*
X7385000Y-8840000D01*
X7435000Y-3685000D02*
X7465000Y-3715000D01*
X7465000Y-3685000D02*
X7435000Y-3715000D01*
X7435000Y-9770050D02*
X7465000Y-9800050D01*
X7465000Y-9770050D02*
X7435000Y-9800050D01*
X7435000Y-10485000D02*
X7465000Y-10515000D01*
X7465000Y-10485000D02*
X7435000Y-10515000D01*
X7435000Y-10885000D02*
X7465000Y-10915000D01*
X7465000Y-10885000D02*
X7435000Y-10915000D01*
X7535000Y-7485000D02*
X7565000Y-7515000D01*
X7565000Y-7485000D02*
X7535000Y-7515000D01*
X7535000Y-7635000D02*
X7565000Y-7665000D01*
X7565000Y-7635000D02*
X7535000Y-7665000D01*
X7535000Y-7935000D02*
X7565000Y-7965000D01*
X7565000Y-7935000D02*
X7535000Y-7965000D01*
X7535000Y-9385000D02*
X7565000Y-9415000D01*
X7565000Y-9385000D02*
X7535000Y-9415000D01*
X7535000Y-10385000D02*
X7565000Y-10415000D01*
X7565000Y-10385000D02*
X7535000Y-10415000D01*
X7535000Y-10785000D02*
X7565000Y-10815000D01*
X7565000Y-10785000D02*
X7535000Y-10815000D01*
X7585000Y-4335000D02*
X7615000Y-4365000D01*
X7615000Y-4335000D02*
X7585000Y-4365000D01*
X7585000Y-5135000D02*
X7615000Y-5165000D01*
X7615000Y-5135000D02*
X7585000Y-5165000D01*
X7585000Y-5935000D02*
X7615000Y-5965000D01*
X7615000Y-5935000D02*
X7585000Y-5965000D01*
X7585000Y-6735000D02*
X7615000Y-6765000D01*
X7615000Y-6735000D02*
X7585000Y-6765000D01*
X7635000Y-9770050D02*
X7665000Y-9800050D01*
X7665000Y-9770050D02*
X7635000Y-9800050D01*
X7635000Y-10285000D02*
X7665000Y-10315000D01*
X7665000Y-10285000D02*
X7635000Y-10315000D01*
X7635000Y-10685000D02*
X7665000Y-10715000D01*
X7665000Y-10685000D02*
X7635000Y-10715000D01*
X7660000Y-3335000D02*
X7690000Y-3365000D01*
X7690000Y-3335000D02*
X7660000Y-3365000D01*
X7685000Y-7635000D02*
X7715000Y-7665000D01*
X7715000Y-7635000D02*
X7685000Y-7665000D01*
X7685000Y-7935000D02*
X7715000Y-7965000D01*
X7715000Y-7935000D02*
X7685000Y-7965000D01*
X7685000Y-11635000D02*
X7715000Y-11665000D01*
X7715000Y-11635000D02*
X7685000Y-11665000D01*
X7735000Y-9385000D02*
X7765000Y-9415000D01*
X7765000Y-9385000D02*
X7735000Y-9415000D01*
X7735000Y-10185000D02*
X7765000Y-10215000D01*
X7765000Y-10185000D02*
X7735000Y-10215000D01*
X7735000Y-10585000D02*
X7765000Y-10615000D01*
X7765000Y-10585000D02*
X7735000Y-10615000D01*
X7785000Y-4335000D02*
X7815000Y-4365000D01*
X7815000Y-4335000D02*
X7785000Y-4365000D01*
X7785000Y-5135000D02*
X7815000Y-5165000D01*
X7815000Y-5135000D02*
X7785000Y-5165000D01*
X7785000Y-5935000D02*
X7815000Y-5965000D01*
X7815000Y-5935000D02*
X7785000Y-5965000D01*
X7785000Y-6735000D02*
X7815000Y-6765000D01*
X7815000Y-6735000D02*
X7785000Y-6765000D01*
X7835000Y-7635000D02*
X7865000Y-7665000D01*
X7865000Y-7635000D02*
X7835000Y-7665000D01*
X7835000Y-9770050D02*
X7865000Y-9800050D01*
X7865000Y-9770050D02*
X7835000Y-9800050D01*
X7835000Y-10485000D02*
X7865000Y-10515000D01*
X7865000Y-10485000D02*
X7835000Y-10515000D01*
X7935000Y-9385000D02*
X7965000Y-9415000D01*
X7965000Y-9385000D02*
X7935000Y-9415000D01*
X7935000Y-10385000D02*
X7965000Y-10415000D01*
X7965000Y-10385000D02*
X7935000Y-10415000D01*
X7985000Y-4335000D02*
X8015000Y-4365000D01*
X8015000Y-4335000D02*
X7985000Y-4365000D01*
X7985000Y-5135000D02*
X8015000Y-5165000D01*
X8015000Y-5135000D02*
X7985000Y-5165000D01*
X7985000Y-5935000D02*
X8015000Y-5965000D01*
X8015000Y-5935000D02*
X7985000Y-5965000D01*
X7985000Y-6735000D02*
X8015000Y-6765000D01*
X8015000Y-6735000D02*
X7985000Y-6765000D01*
X7985000Y-7635000D02*
X8015000Y-7665000D01*
X8015000Y-7635000D02*
X7985000Y-7665000D01*
X8035000Y-9285000D02*
X8065000Y-9315000D01*
X8065000Y-9285000D02*
X8035000Y-9315000D01*
X8035000Y-9770050D02*
X8065000Y-9800050D01*
X8065000Y-9770050D02*
X8035000Y-9800050D01*
X8035000Y-10285000D02*
X8065000Y-10315000D01*
X8065000Y-10285000D02*
X8035000Y-10315000D01*
X8060000Y-3335000D02*
X8090000Y-3365000D01*
X8090000Y-3335000D02*
X8060000Y-3365000D01*
X8085000Y-7485000D02*
X8115000Y-7515000D01*
X8115000Y-7485000D02*
X8085000Y-7515000D01*
X8085000Y-11635000D02*
X8115000Y-11665000D01*
X8115000Y-11635000D02*
X8085000Y-11665000D01*
X8135000Y-7635000D02*
X8165000Y-7665000D01*
X8165000Y-7635000D02*
X8135000Y-7665000D01*
X8135000Y-10185000D02*
X8165000Y-10215000D01*
X8165000Y-10185000D02*
X8135000Y-10215000D01*
X8185000Y-4335000D02*
X8215000Y-4365000D01*
X8215000Y-4335000D02*
X8185000Y-4365000D01*
X8185000Y-5135000D02*
X8215000Y-5165000D01*
X8215000Y-5135000D02*
X8185000Y-5165000D01*
X8185000Y-5935000D02*
X8215000Y-5965000D01*
X8215000Y-5935000D02*
X8185000Y-5965000D01*
X8185000Y-6735000D02*
X8215000Y-6765000D01*
X8215000Y-6735000D02*
X8185000Y-6765000D01*
X8235000Y-3685000D02*
X8265000Y-3715000D01*
X8265000Y-3685000D02*
X8235000Y-3715000D01*
X8235000Y-7485000D02*
X8265000Y-7515000D01*
X8265000Y-7485000D02*
X8235000Y-7515000D01*
X8235000Y-9185000D02*
X8265000Y-9215000D01*
X8265000Y-9185000D02*
X8235000Y-9215000D01*
X8235000Y-9685000D02*
X8265000Y-9715000D01*
X8265000Y-9685000D02*
X8235000Y-9715000D01*
X8285000Y-7635000D02*
X8315000Y-7665000D01*
X8315000Y-7635000D02*
X8285000Y-7665000D01*
X8335000Y-3685000D02*
X8365000Y-3715000D01*
X8365000Y-3685000D02*
X8335000Y-3715000D01*
X8335000Y-3785000D02*
X8365000Y-3815000D01*
X8365000Y-3785000D02*
X8335000Y-3815000D01*
X8335000Y-4185000D02*
X8365000Y-4215000D01*
X8365000Y-4185000D02*
X8335000Y-4215000D01*
X8335000Y-4285000D02*
X8365000Y-4315000D01*
X8365000Y-4285000D02*
X8335000Y-4315000D01*
X8335000Y-4585000D02*
X8365000Y-4615000D01*
X8365000Y-4585000D02*
X8335000Y-4615000D01*
X8335000Y-4685000D02*
X8365000Y-4715000D01*
X8365000Y-4685000D02*
X8335000Y-4715000D01*
X8335000Y-4985000D02*
X8365000Y-5015000D01*
X8365000Y-4985000D02*
X8335000Y-5015000D01*
X8335000Y-5085000D02*
X8365000Y-5115000D01*
X8365000Y-5085000D02*
X8335000Y-5115000D01*
X8335000Y-5385000D02*
X8365000Y-5415000D01*
X8365000Y-5385000D02*
X8335000Y-5415000D01*
X8335000Y-5485000D02*
X8365000Y-5515000D01*
X8365000Y-5485000D02*
X8335000Y-5515000D01*
X8335000Y-5785000D02*
X8365000Y-5815000D01*
X8365000Y-5785000D02*
X8335000Y-5815000D01*
X8335000Y-5885000D02*
X8365000Y-5915000D01*
X8365000Y-5885000D02*
X8335000Y-5915000D01*
X8335000Y-6185000D02*
X8365000Y-6215000D01*
X8365000Y-6185000D02*
X8335000Y-6215000D01*
X8335000Y-6585000D02*
X8365000Y-6615000D01*
X8365000Y-6585000D02*
X8335000Y-6615000D01*
X8335000Y-6685000D02*
X8365000Y-6715000D01*
X8365000Y-6685000D02*
X8335000Y-6715000D01*
X8335000Y-6985000D02*
X8365000Y-7015000D01*
X8365000Y-6985000D02*
X8335000Y-7015000D01*
X8335000Y-7085000D02*
X8365000Y-7115000D01*
X8365000Y-7085000D02*
X8335000Y-7115000D01*
X8335000Y-7385000D02*
X8365000Y-7415000D01*
X8365000Y-7385000D02*
X8335000Y-7415000D01*
X8335000Y-7485000D02*
X8365000Y-7515000D01*
X8365000Y-7485000D02*
X8335000Y-7515000D01*
X8335000Y-7785000D02*
X8365000Y-7815000D01*
X8365000Y-7785000D02*
X8335000Y-7815000D01*
X8335000Y-8185000D02*
X8365000Y-8215000D01*
X8365000Y-8185000D02*
X8335000Y-8215000D01*
X8335000Y-8385000D02*
X8365000Y-8415000D01*
X8365000Y-8385000D02*
X8335000Y-8415000D01*
X8335000Y-9185000D02*
X8365000Y-9215000D01*
X8365000Y-9185000D02*
X8335000Y-9215000D01*
X8335000Y-9585000D02*
X8365000Y-9615000D01*
X8365000Y-9585000D02*
X8335000Y-9615000D01*
X8385000Y-4335000D02*
X8415000Y-4365000D01*
X8415000Y-4335000D02*
X8385000Y-4365000D01*
X8385000Y-5135000D02*
X8415000Y-5165000D01*
X8415000Y-5135000D02*
X8385000Y-5165000D01*
X8385000Y-5935000D02*
X8415000Y-5965000D01*
X8415000Y-5935000D02*
X8385000Y-5965000D01*
X8385000Y-6735000D02*
X8415000Y-6765000D01*
X8415000Y-6735000D02*
X8385000Y-6765000D01*
X8385000Y-9935000D02*
X8415000Y-9965000D01*
X8415000Y-9935000D02*
X8385000Y-9965000D01*
X8460000Y-3335000D02*
X8490000Y-3365000D01*
X8490000Y-3335000D02*
X8460000Y-3365000D01*
X8485000Y-9935000D02*
X8515000Y-9965000D01*
X8515000Y-9935000D02*
X8485000Y-9965000D01*
X8485000Y-11635000D02*
X8515000Y-11665000D01*
X8515000Y-11635000D02*
X8485000Y-11665000D01*
X8585000Y-9935000D02*
X8615000Y-9965000D01*
X8615000Y-9935000D02*
X8585000Y-9965000D01*
X8635000Y-9685000D02*
X8665000Y-9715000D01*
X8665000Y-9685000D02*
X8635000Y-9715000D01*
X8685000Y-9985000D02*
X8715000Y-10015000D01*
X8715000Y-9985000D02*
X8685000Y-10015000D01*
X8735000Y-8485000D02*
X8765000Y-8515000D01*
X8765000Y-8485000D02*
X8735000Y-8515000D01*
X8735000Y-8685000D02*
X8765000Y-8715000D01*
X8765000Y-8685000D02*
X8735000Y-8715000D01*
X8860000Y-3335000D02*
X8890000Y-3365000D01*
X8890000Y-3335000D02*
X8860000Y-3365000D01*
X8885000Y-11635000D02*
X8915000Y-11665000D01*
X8915000Y-11635000D02*
X8885000Y-11665000D01*
X8935000Y-3885000D02*
X8965000Y-3915000D01*
X8965000Y-3885000D02*
X8935000Y-3915000D01*
X8935000Y-3985000D02*
X8965000Y-4015000D01*
X8965000Y-3985000D02*
X8935000Y-4015000D01*
X8935000Y-4085000D02*
X8965000Y-4115000D01*
X8965000Y-4085000D02*
X8935000Y-4115000D01*
X8935000Y-4185000D02*
X8965000Y-4215000D01*
X8965000Y-4185000D02*
X8935000Y-4215000D01*
X8935000Y-4685000D02*
X8965000Y-4715000D01*
X8965000Y-4685000D02*
X8935000Y-4715000D01*
X8935000Y-4785000D02*
X8965000Y-4815000D01*
X8965000Y-4785000D02*
X8935000Y-4815000D01*
X8935000Y-4885000D02*
X8965000Y-4915000D01*
X8965000Y-4885000D02*
X8935000Y-4915000D01*
X8935000Y-4985000D02*
X8965000Y-5015000D01*
X8965000Y-4985000D02*
X8935000Y-5015000D01*
X8935000Y-5485000D02*
X8965000Y-5515000D01*
X8965000Y-5485000D02*
X8935000Y-5515000D01*
X8935000Y-5585000D02*
X8965000Y-5615000D01*
X8965000Y-5585000D02*
X8935000Y-5615000D01*
X8935000Y-5685000D02*
X8965000Y-5715000D01*
X8965000Y-5685000D02*
X8935000Y-5715000D01*
X8935000Y-5785000D02*
X8965000Y-5815000D01*
X8965000Y-5785000D02*
X8935000Y-5815000D01*
X8935000Y-6285000D02*
X8965000Y-6315000D01*
X8965000Y-6285000D02*
X8935000Y-6315000D01*
X8935000Y-6385000D02*
X8965000Y-6415000D01*
X8965000Y-6385000D02*
X8935000Y-6415000D01*
X8935000Y-6485000D02*
X8965000Y-6515000D01*
X8965000Y-6485000D02*
X8935000Y-6515000D01*
X8935000Y-6585000D02*
X8965000Y-6615000D01*
X8965000Y-6585000D02*
X8935000Y-6615000D01*
X8935000Y-7085000D02*
X8965000Y-7115000D01*
X8965000Y-7085000D02*
X8935000Y-7115000D01*
X8935000Y-7185000D02*
X8965000Y-7215000D01*
X8965000Y-7185000D02*
X8935000Y-7215000D01*
X8935000Y-7285000D02*
X8965000Y-7315000D01*
X8965000Y-7285000D02*
X8935000Y-7315000D01*
X8935000Y-7385000D02*
X8965000Y-7415000D01*
X8965000Y-7385000D02*
X8935000Y-7415000D01*
X8935000Y-7885000D02*
X8965000Y-7915000D01*
X8965000Y-7885000D02*
X8935000Y-7915000D01*
X8935000Y-7985000D02*
X8965000Y-8015000D01*
X8965000Y-7985000D02*
X8935000Y-8015000D01*
X8935000Y-8085000D02*
X8965000Y-8115000D01*
X8965000Y-8085000D02*
X8935000Y-8115000D01*
X8935000Y-8185000D02*
X8965000Y-8215000D01*
X8965000Y-8185000D02*
X8935000Y-8215000D01*
X8935000Y-9185000D02*
X8965000Y-9215000D01*
X8965000Y-9185000D02*
X8935000Y-9215000D01*
X8935000Y-9285000D02*
X8965000Y-9315000D01*
X8965000Y-9285000D02*
X8935000Y-9315000D01*
X8935000Y-9385000D02*
X8965000Y-9415000D01*
X8965000Y-9385000D02*
X8935000Y-9415000D01*
X8935000Y-9485000D02*
X8965000Y-9515000D01*
X8965000Y-9485000D02*
X8935000Y-9515000D01*
X9035000Y-9835000D02*
X9065000Y-9865000D01*
X9065000Y-9835000D02*
X9035000Y-9865000D01*
X9260000Y-3335000D02*
X9290000Y-3365000D01*
X9290000Y-3335000D02*
X9260000Y-3365000D01*
X9285000Y-9835000D02*
X9315000Y-9865000D01*
X9315000Y-9835000D02*
X9285000Y-9865000D01*
X9285000Y-11635000D02*
X9315000Y-11665000D01*
X9315000Y-11635000D02*
X9285000Y-11665000D01*
X9660000Y-3335000D02*
X9690000Y-3365000D01*
X9690000Y-3335000D02*
X9660000Y-3365000D01*
X9685000Y-11635000D02*
X9715000Y-11665000D01*
X9715000Y-11635000D02*
X9685000Y-11665000D01*
X10009950Y-9935000D02*
X10039950Y-9965000D01*
X10039950Y-9935000D02*
X10009950Y-9965000D01*
X10060000Y-3335000D02*
X10090000Y-3365000D01*
X10090000Y-3335000D02*
X10060000Y-3365000D01*
X10085000Y-11635000D02*
X10115000Y-11665000D01*
X10115000Y-11635000D02*
X10085000Y-11665000D01*
X10135000Y-9835000D02*
X10165000Y-9865000D01*
X10165000Y-9835000D02*
X10135000Y-9865000D01*
X10235000Y-3639000D02*
X10265000Y-3669000D01*
X10265000Y-3639000D02*
X10235000Y-3669000D01*
X10235000Y-3893000D02*
X10265000Y-3923000D01*
X10265000Y-3893000D02*
X10235000Y-3923000D01*
X10235000Y-4147000D02*
X10265000Y-4177000D01*
X10265000Y-4147000D02*
X10235000Y-4177000D01*
X10235000Y-4401000D02*
X10265000Y-4431000D01*
X10265000Y-4401000D02*
X10235000Y-4431000D01*
X10235000Y-4655000D02*
X10265000Y-4685000D01*
X10265000Y-4655000D02*
X10235000Y-4685000D01*
X10235000Y-4909000D02*
X10265000Y-4939000D01*
X10265000Y-4909000D02*
X10235000Y-4939000D01*
X10235000Y-5163000D02*
X10265000Y-5193000D01*
X10265000Y-5163000D02*
X10235000Y-5193000D01*
X10235000Y-5417000D02*
X10265000Y-5447000D01*
X10265000Y-5417000D02*
X10235000Y-5447000D01*
X10235000Y-5671000D02*
X10265000Y-5701000D01*
X10265000Y-5671000D02*
X10235000Y-5701000D01*
X10235000Y-5925000D02*
X10265000Y-5955000D01*
X10265000Y-5925000D02*
X10235000Y-5955000D01*
X10235000Y-6179000D02*
X10265000Y-6209000D01*
X10265000Y-6179000D02*
X10235000Y-6209000D01*
X10235000Y-6433000D02*
X10265000Y-6463000D01*
X10265000Y-6433000D02*
X10235000Y-6463000D01*
X10235000Y-6687000D02*
X10265000Y-6717000D01*
X10265000Y-6687000D02*
X10235000Y-6717000D01*
X10235000Y-6941000D02*
X10265000Y-6971000D01*
X10265000Y-6941000D02*
X10235000Y-6971000D01*
X10235000Y-7195000D02*
X10265000Y-7225000D01*
X10265000Y-7195000D02*
X10235000Y-7225000D01*
X10235000Y-7449000D02*
X10265000Y-7479000D01*
X10265000Y-7449000D02*
X10235000Y-7479000D01*
X10235000Y-7703000D02*
X10265000Y-7733000D01*
X10265000Y-7703000D02*
X10235000Y-7733000D01*
X10235000Y-7957000D02*
X10265000Y-7987000D01*
X10265000Y-7957000D02*
X10235000Y-7987000D01*
X10235000Y-8211000D02*
X10265000Y-8241000D01*
X10265000Y-8211000D02*
X10235000Y-8241000D01*
X10235000Y-8465000D02*
X10265000Y-8495000D01*
X10265000Y-8465000D02*
X10235000Y-8495000D01*
X10235000Y-8719000D02*
X10265000Y-8749000D01*
X10265000Y-8719000D02*
X10235000Y-8749000D01*
X10235000Y-8973000D02*
X10265000Y-9003000D01*
X10265000Y-8973000D02*
X10235000Y-9003000D01*
X10235000Y-9227000D02*
X10265000Y-9257000D01*
X10265000Y-9227000D02*
X10235000Y-9257000D01*
X10235000Y-9481000D02*
X10265000Y-9511000D01*
X10265000Y-9481000D02*
X10235000Y-9511000D01*
X10235000Y-9735000D02*
X10265000Y-9765000D01*
X10265000Y-9735000D02*
X10235000Y-9765000D01*
X10235000Y-9989000D02*
X10265000Y-10019000D01*
X10265000Y-9989000D02*
X10235000Y-10019000D01*
X10235000Y-10243000D02*
X10265000Y-10273000D01*
X10265000Y-10243000D02*
X10235000Y-10273000D01*
X10235000Y-10497000D02*
X10265000Y-10527000D01*
X10265000Y-10497000D02*
X10235000Y-10527000D01*
X10235000Y-10751000D02*
X10265000Y-10781000D01*
X10265000Y-10751000D02*
X10235000Y-10781000D01*
D13*
X4662250Y-9088750D02*
G75*
G03*
X4662250Y-9088750I-40000J0D01*
G01*
X4662250Y-9596750D02*
G75*
G03*
X4662250Y-9596750I-40000J0D01*
G01*
X4674000Y-3800000D02*
G75*
G03*
X4674000Y-3800000I-40000J0D01*
G01*
X4674000Y-4308000D02*
G75*
G03*
X4674000Y-4308000I-40000J0D01*
G01*
X4674000Y-4600000D02*
G75*
G03*
X4674000Y-4600000I-40000J0D01*
G01*
X4674000Y-5108000D02*
G75*
G03*
X4674000Y-5108000I-40000J0D01*
G01*
X4674000Y-5400000D02*
G75*
G03*
X4674000Y-5400000I-40000J0D01*
G01*
X4674000Y-5908000D02*
G75*
G03*
X4674000Y-5908000I-40000J0D01*
G01*
X4674000Y-6200000D02*
G75*
G03*
X4674000Y-6200000I-40000J0D01*
G01*
X4674000Y-6708000D02*
G75*
G03*
X4674000Y-6708000I-40000J0D01*
G01*
X4674000Y-7000000D02*
G75*
G03*
X4674000Y-7000000I-40000J0D01*
G01*
X4674000Y-7508000D02*
G75*
G03*
X4674000Y-7508000I-40000J0D01*
G01*
X4674000Y-7800000D02*
G75*
G03*
X4674000Y-7800000I-40000J0D01*
G01*
X4674000Y-8308000D02*
G75*
G03*
X4674000Y-8308000I-40000J0D01*
G01*
X5170250Y-9088750D02*
G75*
G03*
X5170250Y-9088750I-40000J0D01*
G01*
X5170250Y-9596750D02*
G75*
G03*
X5170250Y-9596750I-40000J0D01*
G01*
X5182000Y-3800000D02*
G75*
G03*
X5182000Y-3800000I-40000J0D01*
G01*
X5182000Y-4308000D02*
G75*
G03*
X5182000Y-4308000I-40000J0D01*
G01*
X5182000Y-4600000D02*
G75*
G03*
X5182000Y-4600000I-40000J0D01*
G01*
X5182000Y-5108000D02*
G75*
G03*
X5182000Y-5108000I-40000J0D01*
G01*
X5182000Y-5400000D02*
G75*
G03*
X5182000Y-5400000I-40000J0D01*
G01*
X5182000Y-5908000D02*
G75*
G03*
X5182000Y-5908000I-40000J0D01*
G01*
X5182000Y-6200000D02*
G75*
G03*
X5182000Y-6200000I-40000J0D01*
G01*
X5182000Y-6708000D02*
G75*
G03*
X5182000Y-6708000I-40000J0D01*
G01*
X5182000Y-7000000D02*
G75*
G03*
X5182000Y-7000000I-40000J0D01*
G01*
X5182000Y-7508000D02*
G75*
G03*
X5182000Y-7508000I-40000J0D01*
G01*
X5182000Y-7800000D02*
G75*
G03*
X5182000Y-7800000I-40000J0D01*
G01*
X5182000Y-8308000D02*
G75*
G03*
X5182000Y-8308000I-40000J0D01*
G01*
X5424000Y-10025000D02*
G75*
G03*
X5424000Y-10025000I-40000J0D01*
G01*
X5424000Y-10533000D02*
G75*
G03*
X5424000Y-10533000I-40000J0D01*
G01*
X5424250Y-9088750D02*
G75*
G03*
X5424250Y-9088750I-40000J0D01*
G01*
X5424250Y-9596750D02*
G75*
G03*
X5424250Y-9596750I-40000J0D01*
G01*
X5436000Y-3800000D02*
G75*
G03*
X5436000Y-3800000I-40000J0D01*
G01*
X5436000Y-4308000D02*
G75*
G03*
X5436000Y-4308000I-40000J0D01*
G01*
X5436000Y-4600000D02*
G75*
G03*
X5436000Y-4600000I-40000J0D01*
G01*
X5436000Y-5108000D02*
G75*
G03*
X5436000Y-5108000I-40000J0D01*
G01*
X5436000Y-5400000D02*
G75*
G03*
X5436000Y-5400000I-40000J0D01*
G01*
X5436000Y-5908000D02*
G75*
G03*
X5436000Y-5908000I-40000J0D01*
G01*
X5436000Y-6200000D02*
G75*
G03*
X5436000Y-6200000I-40000J0D01*
G01*
X5436000Y-6708000D02*
G75*
G03*
X5436000Y-6708000I-40000J0D01*
G01*
X5436000Y-7000000D02*
G75*
G03*
X5436000Y-7000000I-40000J0D01*
G01*
X5436000Y-7508000D02*
G75*
G03*
X5436000Y-7508000I-40000J0D01*
G01*
X5436000Y-7800000D02*
G75*
G03*
X5436000Y-7800000I-40000J0D01*
G01*
X5436000Y-8308000D02*
G75*
G03*
X5436000Y-8308000I-40000J0D01*
G01*
X5678000Y-10025000D02*
G75*
G03*
X5678000Y-10025000I-40000J0D01*
G01*
X5678000Y-10533000D02*
G75*
G03*
X5678000Y-10533000I-40000J0D01*
G01*
X5678250Y-9088750D02*
G75*
G03*
X5678250Y-9088750I-40000J0D01*
G01*
X5678250Y-9596750D02*
G75*
G03*
X5678250Y-9596750I-40000J0D01*
G01*
X5690000Y-3800000D02*
G75*
G03*
X5690000Y-3800000I-40000J0D01*
G01*
X5690000Y-4308000D02*
G75*
G03*
X5690000Y-4308000I-40000J0D01*
G01*
X5690000Y-4600000D02*
G75*
G03*
X5690000Y-4600000I-40000J0D01*
G01*
X5690000Y-5108000D02*
G75*
G03*
X5690000Y-5108000I-40000J0D01*
G01*
X5690000Y-5400000D02*
G75*
G03*
X5690000Y-5400000I-40000J0D01*
G01*
X5690000Y-5908000D02*
G75*
G03*
X5690000Y-5908000I-40000J0D01*
G01*
X5690000Y-6200000D02*
G75*
G03*
X5690000Y-6200000I-40000J0D01*
G01*
X5690000Y-6708000D02*
G75*
G03*
X5690000Y-6708000I-40000J0D01*
G01*
X5690000Y-7000000D02*
G75*
G03*
X5690000Y-7000000I-40000J0D01*
G01*
X5690000Y-7508000D02*
G75*
G03*
X5690000Y-7508000I-40000J0D01*
G01*
X5690000Y-7800000D02*
G75*
G03*
X5690000Y-7800000I-40000J0D01*
G01*
X5690000Y-8308000D02*
G75*
G03*
X5690000Y-8308000I-40000J0D01*
G01*
X5932000Y-10025000D02*
G75*
G03*
X5932000Y-10025000I-40000J0D01*
G01*
X5932000Y-10533000D02*
G75*
G03*
X5932000Y-10533000I-40000J0D01*
G01*
X6440000Y-10025000D02*
G75*
G03*
X6440000Y-10025000I-40000J0D01*
G01*
X6440000Y-10533000D02*
G75*
G03*
X6440000Y-10533000I-40000J0D01*
G01*
X8590000Y-3800000D02*
G75*
G03*
X8590000Y-3800000I-40000J0D01*
G01*
X8590000Y-4308000D02*
G75*
G03*
X8590000Y-4308000I-40000J0D01*
G01*
X8590000Y-4600000D02*
G75*
G03*
X8590000Y-4600000I-40000J0D01*
G01*
X8590000Y-5108000D02*
G75*
G03*
X8590000Y-5108000I-40000J0D01*
G01*
X8590000Y-5400000D02*
G75*
G03*
X8590000Y-5400000I-40000J0D01*
G01*
X8590000Y-5908000D02*
G75*
G03*
X8590000Y-5908000I-40000J0D01*
G01*
X8590000Y-6200000D02*
G75*
G03*
X8590000Y-6200000I-40000J0D01*
G01*
X8590000Y-6708000D02*
G75*
G03*
X8590000Y-6708000I-40000J0D01*
G01*
X8590000Y-7000000D02*
G75*
G03*
X8590000Y-7000000I-40000J0D01*
G01*
X8590000Y-7508000D02*
G75*
G03*
X8590000Y-7508000I-40000J0D01*
G01*
X8590000Y-7800000D02*
G75*
G03*
X8590000Y-7800000I-40000J0D01*
G01*
X8590000Y-8308000D02*
G75*
G03*
X8590000Y-8308000I-40000J0D01*
G01*
X8590000Y-9092000D02*
G75*
G03*
X8590000Y-9092000I-40000J0D01*
G01*
X8590000Y-9600000D02*
G75*
G03*
X8590000Y-9600000I-40000J0D01*
G01*
X8844000Y-3800000D02*
G75*
G03*
X8844000Y-3800000I-40000J0D01*
G01*
X8844000Y-4308000D02*
G75*
G03*
X8844000Y-4308000I-40000J0D01*
G01*
X8844000Y-4600000D02*
G75*
G03*
X8844000Y-4600000I-40000J0D01*
G01*
X8844000Y-5108000D02*
G75*
G03*
X8844000Y-5108000I-40000J0D01*
G01*
X8844000Y-5400000D02*
G75*
G03*
X8844000Y-5400000I-40000J0D01*
G01*
X8844000Y-5908000D02*
G75*
G03*
X8844000Y-5908000I-40000J0D01*
G01*
X8844000Y-6200000D02*
G75*
G03*
X8844000Y-6200000I-40000J0D01*
G01*
X8844000Y-6708000D02*
G75*
G03*
X8844000Y-6708000I-40000J0D01*
G01*
X8844000Y-7000000D02*
G75*
G03*
X8844000Y-7000000I-40000J0D01*
G01*
X8844000Y-7508000D02*
G75*
G03*
X8844000Y-7508000I-40000J0D01*
G01*
X8844000Y-7800000D02*
G75*
G03*
X8844000Y-7800000I-40000J0D01*
G01*
X8844000Y-8308000D02*
G75*
G03*
X8844000Y-8308000I-40000J0D01*
G01*
X8844000Y-9092000D02*
G75*
G03*
X8844000Y-9092000I-40000J0D01*
G01*
X8844000Y-9600000D02*
G75*
G03*
X8844000Y-9600000I-40000J0D01*
G01*
X9098000Y-3800000D02*
G75*
G03*
X9098000Y-3800000I-40000J0D01*
G01*
X9098000Y-4308000D02*
G75*
G03*
X9098000Y-4308000I-40000J0D01*
G01*
X9098000Y-4600000D02*
G75*
G03*
X9098000Y-4600000I-40000J0D01*
G01*
X9098000Y-5108000D02*
G75*
G03*
X9098000Y-5108000I-40000J0D01*
G01*
X9098000Y-5400000D02*
G75*
G03*
X9098000Y-5400000I-40000J0D01*
G01*
X9098000Y-5908000D02*
G75*
G03*
X9098000Y-5908000I-40000J0D01*
G01*
X9098000Y-6200000D02*
G75*
G03*
X9098000Y-6200000I-40000J0D01*
G01*
X9098000Y-6708000D02*
G75*
G03*
X9098000Y-6708000I-40000J0D01*
G01*
X9098000Y-7000000D02*
G75*
G03*
X9098000Y-7000000I-40000J0D01*
G01*
X9098000Y-7508000D02*
G75*
G03*
X9098000Y-7508000I-40000J0D01*
G01*
X9098000Y-7800000D02*
G75*
G03*
X9098000Y-7800000I-40000J0D01*
G01*
X9098000Y-8308000D02*
G75*
G03*
X9098000Y-8308000I-40000J0D01*
G01*
X9098000Y-9092000D02*
G75*
G03*
X9098000Y-9092000I-40000J0D01*
G01*
X9098000Y-9600000D02*
G75*
G03*
X9098000Y-9600000I-40000J0D01*
G01*
X9606000Y-3800000D02*
G75*
G03*
X9606000Y-3800000I-40000J0D01*
G01*
X9606000Y-4308000D02*
G75*
G03*
X9606000Y-4308000I-40000J0D01*
G01*
X9606000Y-4600000D02*
G75*
G03*
X9606000Y-4600000I-40000J0D01*
G01*
X9606000Y-5108000D02*
G75*
G03*
X9606000Y-5108000I-40000J0D01*
G01*
X9606000Y-5400000D02*
G75*
G03*
X9606000Y-5400000I-40000J0D01*
G01*
X9606000Y-5908000D02*
G75*
G03*
X9606000Y-5908000I-40000J0D01*
G01*
X9606000Y-6200000D02*
G75*
G03*
X9606000Y-6200000I-40000J0D01*
G01*
X9606000Y-6708000D02*
G75*
G03*
X9606000Y-6708000I-40000J0D01*
G01*
X9606000Y-7000000D02*
G75*
G03*
X9606000Y-7000000I-40000J0D01*
G01*
X9606000Y-7508000D02*
G75*
G03*
X9606000Y-7508000I-40000J0D01*
G01*
X9606000Y-7800000D02*
G75*
G03*
X9606000Y-7800000I-40000J0D01*
G01*
X9606000Y-8308000D02*
G75*
G03*
X9606000Y-8308000I-40000J0D01*
G01*
X9606000Y-9092000D02*
G75*
G03*
X9606000Y-9092000I-40000J0D01*
G01*
X9606000Y-9600000D02*
G75*
G03*
X9606000Y-9600000I-40000J0D01*
G01*
D10*
X8484000Y-10250000D02*
X8484000Y-10350000D01*
X8434000Y-10300000D02*
X8534000Y-10300000D01*
X8484000Y-10504000D02*
X8484000Y-10604000D01*
X8434000Y-10554000D02*
X8534000Y-10554000D01*
X8738000Y-10250000D02*
X8738000Y-10350000D01*
X8688000Y-10300000D02*
X8788000Y-10300000D01*
X8738000Y-10504000D02*
X8738000Y-10604000D01*
X8688000Y-10554000D02*
X8788000Y-10554000D01*
X8992000Y-10250000D02*
X8992000Y-10350000D01*
X8942000Y-10300000D02*
X9042000Y-10300000D01*
X8992000Y-10504000D02*
X8992000Y-10604000D01*
X8942000Y-10554000D02*
X9042000Y-10554000D01*
X9246000Y-10250000D02*
X9246000Y-10350000D01*
X9196000Y-10300000D02*
X9296000Y-10300000D01*
X9246000Y-10504000D02*
X9246000Y-10604000D01*
X9196000Y-10554000D02*
X9296000Y-10554000D01*
X9500000Y-10250000D02*
X9500000Y-10350000D01*
X9450000Y-10300000D02*
X9550000Y-10300000D01*
X9500000Y-10504000D02*
X9500000Y-10604000D01*
X9450000Y-10554000D02*
X9550000Y-10554000D01*
D14*
X5241979Y-11191979D02*
X5241979Y-11100021D01*
X5150021Y-11100021D01*
X5150021Y-11191979D01*
X5241979Y-11191979D01*
X5241979Y-11699979D02*
X5241979Y-11608021D01*
X5150021Y-11608021D01*
X5150021Y-11699979D01*
X5241979Y-11699979D01*
X5495979Y-11445979D02*
X5495979Y-11354021D01*
X5404021Y-11354021D01*
X5404021Y-11445979D01*
X5495979Y-11445979D01*
X5749979Y-11191979D02*
X5749979Y-11100021D01*
X5658021Y-11100021D01*
X5658021Y-11191979D01*
X5749979Y-11191979D01*
X5749979Y-11699979D02*
X5749979Y-11608021D01*
X5658021Y-11608021D01*
X5658021Y-11699979D01*
X5749979Y-11699979D01*
X7037979Y-11187979D02*
X7037979Y-11096021D01*
X6946021Y-11096021D01*
X6946021Y-11187979D01*
X7037979Y-11187979D01*
X7037979Y-11695979D02*
X7037979Y-11604021D01*
X6946021Y-11604021D01*
X6946021Y-11695979D01*
X7037979Y-11695979D01*
X7291979Y-11441979D02*
X7291979Y-11350021D01*
X7200021Y-11350021D01*
X7200021Y-11441979D01*
X7291979Y-11441979D01*
X7545979Y-11187979D02*
X7545979Y-11096021D01*
X7454021Y-11096021D01*
X7454021Y-11187979D01*
X7545979Y-11187979D01*
X7545979Y-11695979D02*
X7545979Y-11604021D01*
X7454021Y-11604021D01*
X7454021Y-11695979D01*
X7545979Y-11695979D01*
D15*
X4250000Y-3310000D02*
X4410000Y-3150000D01*
X4250000Y-2990000D01*
X4090000Y-3150000D01*
X4250000Y-3310000D01*
X4250000Y-11460000D02*
X4410000Y-11300000D01*
X4250000Y-11140000D01*
X4090000Y-11300000D01*
X4250000Y-11460000D01*
X9950000Y-11460000D02*
X10110000Y-11300000D01*
X9950000Y-11140000D01*
X9790000Y-11300000D01*
X9950000Y-11460000D01*
X10000000Y-3310000D02*
X10160000Y-3150000D01*
X10000000Y-2990000D01*
X9840000Y-3150000D01*
X10000000Y-3310000D01*
D11*
X4142619Y-12117524D02*
X4142619Y-11917524D01*
X4142619Y-11917524D02*
X4190238Y-11917524D01*
X4190238Y-11917524D02*
X4218810Y-11927048D01*
X4218810Y-11927048D02*
X4237857Y-11946095D01*
X4237857Y-11946095D02*
X4247381Y-11965143D01*
X4247381Y-11965143D02*
X4256905Y-12003238D01*
X4256905Y-12003238D02*
X4256905Y-12031809D01*
X4256905Y-12031809D02*
X4247381Y-12069905D01*
X4247381Y-12069905D02*
X4237857Y-12088952D01*
X4237857Y-12088952D02*
X4218810Y-12108000D01*
X4218810Y-12108000D02*
X4190238Y-12117524D01*
X4190238Y-12117524D02*
X4142619Y-12117524D01*
X4342619Y-12117524D02*
X4342619Y-11984190D01*
X4342619Y-12022286D02*
X4352143Y-12003238D01*
X4352143Y-12003238D02*
X4361667Y-11993714D01*
X4361667Y-11993714D02*
X4380714Y-11984190D01*
X4380714Y-11984190D02*
X4399762Y-11984190D01*
X4466429Y-12117524D02*
X4466429Y-11984190D01*
X4466429Y-11917524D02*
X4456905Y-11927048D01*
X4456905Y-11927048D02*
X4466429Y-11936571D01*
X4466429Y-11936571D02*
X4475952Y-11927048D01*
X4475952Y-11927048D02*
X4466429Y-11917524D01*
X4466429Y-11917524D02*
X4466429Y-11936571D01*
X4590238Y-12117524D02*
X4571190Y-12108000D01*
X4571190Y-12108000D02*
X4561667Y-12088952D01*
X4561667Y-12088952D02*
X4561667Y-11917524D01*
X4695000Y-12117524D02*
X4675952Y-12108000D01*
X4675952Y-12108000D02*
X4666429Y-12088952D01*
X4666429Y-12088952D02*
X4666429Y-11917524D01*
X4923571Y-12117524D02*
X4923571Y-11917524D01*
X4923571Y-11917524D02*
X4990238Y-12060381D01*
X4990238Y-12060381D02*
X5056905Y-11917524D01*
X5056905Y-11917524D02*
X5056905Y-12117524D01*
X5237857Y-12117524D02*
X5237857Y-12012762D01*
X5237857Y-12012762D02*
X5228333Y-11993714D01*
X5228333Y-11993714D02*
X5209286Y-11984190D01*
X5209286Y-11984190D02*
X5171190Y-11984190D01*
X5171190Y-11984190D02*
X5152143Y-11993714D01*
X5237857Y-12108000D02*
X5218810Y-12117524D01*
X5218810Y-12117524D02*
X5171190Y-12117524D01*
X5171190Y-12117524D02*
X5152143Y-12108000D01*
X5152143Y-12108000D02*
X5142619Y-12088952D01*
X5142619Y-12088952D02*
X5142619Y-12069905D01*
X5142619Y-12069905D02*
X5152143Y-12050857D01*
X5152143Y-12050857D02*
X5171190Y-12041333D01*
X5171190Y-12041333D02*
X5218810Y-12041333D01*
X5218810Y-12041333D02*
X5237857Y-12031809D01*
X5333095Y-11984190D02*
X5333095Y-12184190D01*
X5333095Y-11993714D02*
X5352143Y-11984190D01*
X5352143Y-11984190D02*
X5390238Y-11984190D01*
X5390238Y-11984190D02*
X5409286Y-11993714D01*
X5409286Y-11993714D02*
X5418810Y-12003238D01*
X5418810Y-12003238D02*
X5428333Y-12022286D01*
X5428333Y-12022286D02*
X5428333Y-12079428D01*
X5428333Y-12079428D02*
X5418810Y-12098476D01*
X5418810Y-12098476D02*
X5409286Y-12108000D01*
X5409286Y-12108000D02*
X5390238Y-12117524D01*
X5390238Y-12117524D02*
X5352143Y-12117524D01*
X5352143Y-12117524D02*
X5333095Y-12108000D01*
X5514048Y-12098476D02*
X5523571Y-12108000D01*
X5523571Y-12108000D02*
X5514048Y-12117524D01*
X5514048Y-12117524D02*
X5504524Y-12108000D01*
X5504524Y-12108000D02*
X5514048Y-12098476D01*
X5514048Y-12098476D02*
X5514048Y-12117524D01*
X5514048Y-11993714D02*
X5523571Y-12003238D01*
X5523571Y-12003238D02*
X5514048Y-12012762D01*
X5514048Y-12012762D02*
X5504524Y-12003238D01*
X5504524Y-12003238D02*
X5514048Y-11993714D01*
X5514048Y-11993714D02*
X5514048Y-12012762D01*
D12*
X3865000Y-12430000D02*
X3895000Y-12460000D01*
X3895000Y-12430000D02*
X3865000Y-12460000D01*
D11*
X4180714Y-12337524D02*
X4199762Y-12337524D01*
X4199762Y-12337524D02*
X4218810Y-12347048D01*
X4218810Y-12347048D02*
X4228333Y-12356571D01*
X4228333Y-12356571D02*
X4237857Y-12375619D01*
X4237857Y-12375619D02*
X4247381Y-12413714D01*
X4247381Y-12413714D02*
X4247381Y-12461333D01*
X4247381Y-12461333D02*
X4237857Y-12499428D01*
X4237857Y-12499428D02*
X4228333Y-12518476D01*
X4228333Y-12518476D02*
X4218810Y-12528000D01*
X4218810Y-12528000D02*
X4199762Y-12537524D01*
X4199762Y-12537524D02*
X4180714Y-12537524D01*
X4180714Y-12537524D02*
X4161667Y-12528000D01*
X4161667Y-12528000D02*
X4152143Y-12518476D01*
X4152143Y-12518476D02*
X4142619Y-12499428D01*
X4142619Y-12499428D02*
X4133095Y-12461333D01*
X4133095Y-12461333D02*
X4133095Y-12413714D01*
X4133095Y-12413714D02*
X4142619Y-12375619D01*
X4142619Y-12375619D02*
X4152143Y-12356571D01*
X4152143Y-12356571D02*
X4161667Y-12347048D01*
X4161667Y-12347048D02*
X4180714Y-12337524D01*
X4333095Y-12518476D02*
X4342619Y-12528000D01*
X4342619Y-12528000D02*
X4333095Y-12537524D01*
X4333095Y-12537524D02*
X4323571Y-12528000D01*
X4323571Y-12528000D02*
X4333095Y-12518476D01*
X4333095Y-12518476D02*
X4333095Y-12537524D01*
X4409286Y-12337524D02*
X4533095Y-12337524D01*
X4533095Y-12337524D02*
X4466429Y-12413714D01*
X4466429Y-12413714D02*
X4495000Y-12413714D01*
X4495000Y-12413714D02*
X4514048Y-12423238D01*
X4514048Y-12423238D02*
X4523571Y-12432762D01*
X4523571Y-12432762D02*
X4533095Y-12451809D01*
X4533095Y-12451809D02*
X4533095Y-12499428D01*
X4533095Y-12499428D02*
X4523571Y-12518476D01*
X4523571Y-12518476D02*
X4514048Y-12528000D01*
X4514048Y-12528000D02*
X4495000Y-12537524D01*
X4495000Y-12537524D02*
X4437857Y-12537524D01*
X4437857Y-12537524D02*
X4418810Y-12528000D01*
X4418810Y-12528000D02*
X4409286Y-12518476D01*
X4656905Y-12337524D02*
X4675952Y-12337524D01*
X4675952Y-12337524D02*
X4695000Y-12347048D01*
X4695000Y-12347048D02*
X4704524Y-12356571D01*
X4704524Y-12356571D02*
X4714048Y-12375619D01*
X4714048Y-12375619D02*
X4723571Y-12413714D01*
X4723571Y-12413714D02*
X4723571Y-12461333D01*
X4723571Y-12461333D02*
X4714048Y-12499428D01*
X4714048Y-12499428D02*
X4704524Y-12518476D01*
X4704524Y-12518476D02*
X4695000Y-12528000D01*
X4695000Y-12528000D02*
X4675952Y-12537524D01*
X4675952Y-12537524D02*
X4656905Y-12537524D01*
X4656905Y-12537524D02*
X4637857Y-12528000D01*
X4637857Y-12528000D02*
X4628333Y-12518476D01*
X4628333Y-12518476D02*
X4618810Y-12499428D01*
X4618810Y-12499428D02*
X4609286Y-12461333D01*
X4609286Y-12461333D02*
X4609286Y-12413714D01*
X4609286Y-12413714D02*
X4618810Y-12375619D01*
X4618810Y-12375619D02*
X4628333Y-12356571D01*
X4628333Y-12356571D02*
X4637857Y-12347048D01*
X4637857Y-12347048D02*
X4656905Y-12337524D01*
X4847381Y-12337524D02*
X4866429Y-12337524D01*
X4866429Y-12337524D02*
X4885476Y-12347048D01*
X4885476Y-12347048D02*
X4895000Y-12356571D01*
X4895000Y-12356571D02*
X4904524Y-12375619D01*
X4904524Y-12375619D02*
X4914048Y-12413714D01*
X4914048Y-12413714D02*
X4914048Y-12461333D01*
X4914048Y-12461333D02*
X4904524Y-12499428D01*
X4904524Y-12499428D02*
X4895000Y-12518476D01*
X4895000Y-12518476D02*
X4885476Y-12528000D01*
X4885476Y-12528000D02*
X4866429Y-12537524D01*
X4866429Y-12537524D02*
X4847381Y-12537524D01*
X4847381Y-12537524D02*
X4828333Y-12528000D01*
X4828333Y-12528000D02*
X4818810Y-12518476D01*
X4818810Y-12518476D02*
X4809286Y-12499428D01*
X4809286Y-12499428D02*
X4799762Y-12461333D01*
X4799762Y-12461333D02*
X4799762Y-12413714D01*
X4799762Y-12413714D02*
X4809286Y-12375619D01*
X4809286Y-12375619D02*
X4818810Y-12356571D01*
X4818810Y-12356571D02*
X4828333Y-12347048D01*
X4828333Y-12347048D02*
X4847381Y-12337524D01*
X4999762Y-12537524D02*
X4999762Y-12404190D01*
X4999762Y-12423238D02*
X5009286Y-12413714D01*
X5009286Y-12413714D02*
X5028333Y-12404190D01*
X5028333Y-12404190D02*
X5056905Y-12404190D01*
X5056905Y-12404190D02*
X5075952Y-12413714D01*
X5075952Y-12413714D02*
X5085476Y-12432762D01*
X5085476Y-12432762D02*
X5085476Y-12537524D01*
X5085476Y-12432762D02*
X5095000Y-12413714D01*
X5095000Y-12413714D02*
X5114048Y-12404190D01*
X5114048Y-12404190D02*
X5142619Y-12404190D01*
X5142619Y-12404190D02*
X5161667Y-12413714D01*
X5161667Y-12413714D02*
X5171191Y-12432762D01*
X5171191Y-12432762D02*
X5171191Y-12537524D01*
X5266429Y-12537524D02*
X5266429Y-12404190D01*
X5266429Y-12423238D02*
X5275952Y-12413714D01*
X5275952Y-12413714D02*
X5295000Y-12404190D01*
X5295000Y-12404190D02*
X5323572Y-12404190D01*
X5323572Y-12404190D02*
X5342619Y-12413714D01*
X5342619Y-12413714D02*
X5352143Y-12432762D01*
X5352143Y-12432762D02*
X5352143Y-12537524D01*
X5352143Y-12432762D02*
X5361667Y-12413714D01*
X5361667Y-12413714D02*
X5380714Y-12404190D01*
X5380714Y-12404190D02*
X5409286Y-12404190D01*
X5409286Y-12404190D02*
X5428333Y-12413714D01*
X5428333Y-12413714D02*
X5437857Y-12432762D01*
X5437857Y-12432762D02*
X5437857Y-12537524D01*
X5828333Y-12328000D02*
X5656905Y-12585143D01*
X6085476Y-12337524D02*
X6104524Y-12337524D01*
X6104524Y-12337524D02*
X6123572Y-12347048D01*
X6123572Y-12347048D02*
X6133095Y-12356571D01*
X6133095Y-12356571D02*
X6142619Y-12375619D01*
X6142619Y-12375619D02*
X6152143Y-12413714D01*
X6152143Y-12413714D02*
X6152143Y-12461333D01*
X6152143Y-12461333D02*
X6142619Y-12499428D01*
X6142619Y-12499428D02*
X6133095Y-12518476D01*
X6133095Y-12518476D02*
X6123572Y-12528000D01*
X6123572Y-12528000D02*
X6104524Y-12537524D01*
X6104524Y-12537524D02*
X6085476Y-12537524D01*
X6085476Y-12537524D02*
X6066429Y-12528000D01*
X6066429Y-12528000D02*
X6056905Y-12518476D01*
X6056905Y-12518476D02*
X6047381Y-12499428D01*
X6047381Y-12499428D02*
X6037857Y-12461333D01*
X6037857Y-12461333D02*
X6037857Y-12413714D01*
X6037857Y-12413714D02*
X6047381Y-12375619D01*
X6047381Y-12375619D02*
X6056905Y-12356571D01*
X6056905Y-12356571D02*
X6066429Y-12347048D01*
X6066429Y-12347048D02*
X6085476Y-12337524D01*
X6237857Y-12518476D02*
X6247381Y-12528000D01*
X6247381Y-12528000D02*
X6237857Y-12537524D01*
X6237857Y-12537524D02*
X6228333Y-12528000D01*
X6228333Y-12528000D02*
X6237857Y-12518476D01*
X6237857Y-12518476D02*
X6237857Y-12537524D01*
X6371191Y-12337524D02*
X6390238Y-12337524D01*
X6390238Y-12337524D02*
X6409286Y-12347048D01*
X6409286Y-12347048D02*
X6418810Y-12356571D01*
X6418810Y-12356571D02*
X6428333Y-12375619D01*
X6428333Y-12375619D02*
X6437857Y-12413714D01*
X6437857Y-12413714D02*
X6437857Y-12461333D01*
X6437857Y-12461333D02*
X6428333Y-12499428D01*
X6428333Y-12499428D02*
X6418810Y-12518476D01*
X6418810Y-12518476D02*
X6409286Y-12528000D01*
X6409286Y-12528000D02*
X6390238Y-12537524D01*
X6390238Y-12537524D02*
X6371191Y-12537524D01*
X6371191Y-12537524D02*
X6352143Y-12528000D01*
X6352143Y-12528000D02*
X6342619Y-12518476D01*
X6342619Y-12518476D02*
X6333095Y-12499428D01*
X6333095Y-12499428D02*
X6323572Y-12461333D01*
X6323572Y-12461333D02*
X6323572Y-12413714D01*
X6323572Y-12413714D02*
X6333095Y-12375619D01*
X6333095Y-12375619D02*
X6342619Y-12356571D01*
X6342619Y-12356571D02*
X6352143Y-12347048D01*
X6352143Y-12347048D02*
X6371191Y-12337524D01*
X6628333Y-12537524D02*
X6514048Y-12537524D01*
X6571191Y-12537524D02*
X6571191Y-12337524D01*
X6571191Y-12337524D02*
X6552143Y-12366095D01*
X6552143Y-12366095D02*
X6533095Y-12385143D01*
X6533095Y-12385143D02*
X6514048Y-12394667D01*
X6818810Y-12537524D02*
X6704524Y-12537524D01*
X6761667Y-12537524D02*
X6761667Y-12337524D01*
X6761667Y-12337524D02*
X6742619Y-12366095D01*
X6742619Y-12366095D02*
X6723572Y-12385143D01*
X6723572Y-12385143D02*
X6704524Y-12394667D01*
X6933095Y-12423238D02*
X6914048Y-12413714D01*
X6914048Y-12413714D02*
X6904524Y-12404190D01*
X6904524Y-12404190D02*
X6895000Y-12385143D01*
X6895000Y-12385143D02*
X6895000Y-12375619D01*
X6895000Y-12375619D02*
X6904524Y-12356571D01*
X6904524Y-12356571D02*
X6914048Y-12347048D01*
X6914048Y-12347048D02*
X6933095Y-12337524D01*
X6933095Y-12337524D02*
X6971191Y-12337524D01*
X6971191Y-12337524D02*
X6990238Y-12347048D01*
X6990238Y-12347048D02*
X6999762Y-12356571D01*
X6999762Y-12356571D02*
X7009286Y-12375619D01*
X7009286Y-12375619D02*
X7009286Y-12385143D01*
X7009286Y-12385143D02*
X6999762Y-12404190D01*
X6999762Y-12404190D02*
X6990238Y-12413714D01*
X6990238Y-12413714D02*
X6971191Y-12423238D01*
X6971191Y-12423238D02*
X6933095Y-12423238D01*
X6933095Y-12423238D02*
X6914048Y-12432762D01*
X6914048Y-12432762D02*
X6904524Y-12442286D01*
X6904524Y-12442286D02*
X6895000Y-12461333D01*
X6895000Y-12461333D02*
X6895000Y-12499428D01*
X6895000Y-12499428D02*
X6904524Y-12518476D01*
X6904524Y-12518476D02*
X6914048Y-12528000D01*
X6914048Y-12528000D02*
X6933095Y-12537524D01*
X6933095Y-12537524D02*
X6971191Y-12537524D01*
X6971191Y-12537524D02*
X6990238Y-12528000D01*
X6990238Y-12528000D02*
X6999762Y-12518476D01*
X6999762Y-12518476D02*
X7009286Y-12499428D01*
X7009286Y-12499428D02*
X7009286Y-12461333D01*
X7009286Y-12461333D02*
X6999762Y-12442286D01*
X6999762Y-12442286D02*
X6990238Y-12432762D01*
X6990238Y-12432762D02*
X6971191Y-12423238D01*
X7085476Y-12337524D02*
X7085476Y-12375619D01*
X7161667Y-12337524D02*
X7161667Y-12375619D01*
X7456905Y-12613714D02*
X7447381Y-12604190D01*
X7447381Y-12604190D02*
X7428334Y-12575619D01*
X7428334Y-12575619D02*
X7418810Y-12556571D01*
X7418810Y-12556571D02*
X7409286Y-12528000D01*
X7409286Y-12528000D02*
X7399762Y-12480381D01*
X7399762Y-12480381D02*
X7399762Y-12442286D01*
X7399762Y-12442286D02*
X7409286Y-12394667D01*
X7409286Y-12394667D02*
X7418810Y-12366095D01*
X7418810Y-12366095D02*
X7428334Y-12347048D01*
X7428334Y-12347048D02*
X7447381Y-12318476D01*
X7447381Y-12318476D02*
X7456905Y-12308952D01*
X7514048Y-12337524D02*
X7637857Y-12337524D01*
X7637857Y-12337524D02*
X7571191Y-12413714D01*
X7571191Y-12413714D02*
X7599762Y-12413714D01*
X7599762Y-12413714D02*
X7618810Y-12423238D01*
X7618810Y-12423238D02*
X7628334Y-12432762D01*
X7628334Y-12432762D02*
X7637857Y-12451809D01*
X7637857Y-12451809D02*
X7637857Y-12499428D01*
X7637857Y-12499428D02*
X7628334Y-12518476D01*
X7628334Y-12518476D02*
X7618810Y-12528000D01*
X7618810Y-12528000D02*
X7599762Y-12537524D01*
X7599762Y-12537524D02*
X7542619Y-12537524D01*
X7542619Y-12537524D02*
X7523572Y-12528000D01*
X7523572Y-12528000D02*
X7514048Y-12518476D01*
X7733095Y-12537524D02*
X7771191Y-12537524D01*
X7771191Y-12537524D02*
X7790238Y-12528000D01*
X7790238Y-12528000D02*
X7799762Y-12518476D01*
X7799762Y-12518476D02*
X7818810Y-12489905D01*
X7818810Y-12489905D02*
X7828334Y-12451809D01*
X7828334Y-12451809D02*
X7828334Y-12375619D01*
X7828334Y-12375619D02*
X7818810Y-12356571D01*
X7818810Y-12356571D02*
X7809286Y-12347048D01*
X7809286Y-12347048D02*
X7790238Y-12337524D01*
X7790238Y-12337524D02*
X7752143Y-12337524D01*
X7752143Y-12337524D02*
X7733095Y-12347048D01*
X7733095Y-12347048D02*
X7723572Y-12356571D01*
X7723572Y-12356571D02*
X7714048Y-12375619D01*
X7714048Y-12375619D02*
X7714048Y-12423238D01*
X7714048Y-12423238D02*
X7723572Y-12442286D01*
X7723572Y-12442286D02*
X7733095Y-12451809D01*
X7733095Y-12451809D02*
X7752143Y-12461333D01*
X7752143Y-12461333D02*
X7790238Y-12461333D01*
X7790238Y-12461333D02*
X7809286Y-12451809D01*
X7809286Y-12451809D02*
X7818810Y-12442286D01*
X7818810Y-12442286D02*
X7828334Y-12423238D01*
X7904524Y-12356571D02*
X7914048Y-12347048D01*
X7914048Y-12347048D02*
X7933095Y-12337524D01*
X7933095Y-12337524D02*
X7980715Y-12337524D01*
X7980715Y-12337524D02*
X7999762Y-12347048D01*
X7999762Y-12347048D02*
X8009286Y-12356571D01*
X8009286Y-12356571D02*
X8018810Y-12375619D01*
X8018810Y-12375619D02*
X8018810Y-12394667D01*
X8018810Y-12394667D02*
X8009286Y-12423238D01*
X8009286Y-12423238D02*
X7895000Y-12537524D01*
X7895000Y-12537524D02*
X8018810Y-12537524D01*
X8256905Y-12537524D02*
X8256905Y-12337524D01*
X8342619Y-12537524D02*
X8342619Y-12432762D01*
X8342619Y-12432762D02*
X8333096Y-12413714D01*
X8333096Y-12413714D02*
X8314048Y-12404190D01*
X8314048Y-12404190D02*
X8285476Y-12404190D01*
X8285476Y-12404190D02*
X8266429Y-12413714D01*
X8266429Y-12413714D02*
X8256905Y-12423238D01*
X8466429Y-12537524D02*
X8447381Y-12528000D01*
X8447381Y-12528000D02*
X8437858Y-12518476D01*
X8437858Y-12518476D02*
X8428334Y-12499428D01*
X8428334Y-12499428D02*
X8428334Y-12442286D01*
X8428334Y-12442286D02*
X8437858Y-12423238D01*
X8437858Y-12423238D02*
X8447381Y-12413714D01*
X8447381Y-12413714D02*
X8466429Y-12404190D01*
X8466429Y-12404190D02*
X8495000Y-12404190D01*
X8495000Y-12404190D02*
X8514048Y-12413714D01*
X8514048Y-12413714D02*
X8523572Y-12423238D01*
X8523572Y-12423238D02*
X8533096Y-12442286D01*
X8533096Y-12442286D02*
X8533096Y-12499428D01*
X8533096Y-12499428D02*
X8523572Y-12518476D01*
X8523572Y-12518476D02*
X8514048Y-12528000D01*
X8514048Y-12528000D02*
X8495000Y-12537524D01*
X8495000Y-12537524D02*
X8466429Y-12537524D01*
X8647381Y-12537524D02*
X8628334Y-12528000D01*
X8628334Y-12528000D02*
X8618810Y-12508952D01*
X8618810Y-12508952D02*
X8618810Y-12337524D01*
X8799762Y-12528000D02*
X8780715Y-12537524D01*
X8780715Y-12537524D02*
X8742619Y-12537524D01*
X8742619Y-12537524D02*
X8723572Y-12528000D01*
X8723572Y-12528000D02*
X8714048Y-12508952D01*
X8714048Y-12508952D02*
X8714048Y-12432762D01*
X8714048Y-12432762D02*
X8723572Y-12413714D01*
X8723572Y-12413714D02*
X8742619Y-12404190D01*
X8742619Y-12404190D02*
X8780715Y-12404190D01*
X8780715Y-12404190D02*
X8799762Y-12413714D01*
X8799762Y-12413714D02*
X8809286Y-12432762D01*
X8809286Y-12432762D02*
X8809286Y-12451809D01*
X8809286Y-12451809D02*
X8714048Y-12470857D01*
X8885477Y-12528000D02*
X8904524Y-12537524D01*
X8904524Y-12537524D02*
X8942619Y-12537524D01*
X8942619Y-12537524D02*
X8961667Y-12528000D01*
X8961667Y-12528000D02*
X8971191Y-12508952D01*
X8971191Y-12508952D02*
X8971191Y-12499428D01*
X8971191Y-12499428D02*
X8961667Y-12480381D01*
X8961667Y-12480381D02*
X8942619Y-12470857D01*
X8942619Y-12470857D02*
X8914048Y-12470857D01*
X8914048Y-12470857D02*
X8895000Y-12461333D01*
X8895000Y-12461333D02*
X8885477Y-12442286D01*
X8885477Y-12442286D02*
X8885477Y-12432762D01*
X8885477Y-12432762D02*
X8895000Y-12413714D01*
X8895000Y-12413714D02*
X8914048Y-12404190D01*
X8914048Y-12404190D02*
X8942619Y-12404190D01*
X8942619Y-12404190D02*
X8961667Y-12413714D01*
X9037858Y-12613714D02*
X9047381Y-12604190D01*
X9047381Y-12604190D02*
X9066429Y-12575619D01*
X9066429Y-12575619D02*
X9075953Y-12556571D01*
X9075953Y-12556571D02*
X9085477Y-12528000D01*
X9085477Y-12528000D02*
X9095000Y-12480381D01*
X9095000Y-12480381D02*
X9095000Y-12442286D01*
X9095000Y-12442286D02*
X9085477Y-12394667D01*
X9085477Y-12394667D02*
X9075953Y-12366095D01*
X9075953Y-12366095D02*
X9066429Y-12347048D01*
X9066429Y-12347048D02*
X9047381Y-12318476D01*
X9047381Y-12318476D02*
X9037858Y-12308952D01*
D13*
X3895000Y-12709000D02*
G75*
G03*
X3895000Y-12709000I-40000J0D01*
G01*
D11*
X4180714Y-12601524D02*
X4199762Y-12601524D01*
X4199762Y-12601524D02*
X4218810Y-12611048D01*
X4218810Y-12611048D02*
X4228333Y-12620571D01*
X4228333Y-12620571D02*
X4237857Y-12639619D01*
X4237857Y-12639619D02*
X4247381Y-12677714D01*
X4247381Y-12677714D02*
X4247381Y-12725333D01*
X4247381Y-12725333D02*
X4237857Y-12763428D01*
X4237857Y-12763428D02*
X4228333Y-12782476D01*
X4228333Y-12782476D02*
X4218810Y-12792000D01*
X4218810Y-12792000D02*
X4199762Y-12801524D01*
X4199762Y-12801524D02*
X4180714Y-12801524D01*
X4180714Y-12801524D02*
X4161667Y-12792000D01*
X4161667Y-12792000D02*
X4152143Y-12782476D01*
X4152143Y-12782476D02*
X4142619Y-12763428D01*
X4142619Y-12763428D02*
X4133095Y-12725333D01*
X4133095Y-12725333D02*
X4133095Y-12677714D01*
X4133095Y-12677714D02*
X4142619Y-12639619D01*
X4142619Y-12639619D02*
X4152143Y-12620571D01*
X4152143Y-12620571D02*
X4161667Y-12611048D01*
X4161667Y-12611048D02*
X4180714Y-12601524D01*
X4333095Y-12782476D02*
X4342619Y-12792000D01*
X4342619Y-12792000D02*
X4333095Y-12801524D01*
X4333095Y-12801524D02*
X4323571Y-12792000D01*
X4323571Y-12792000D02*
X4333095Y-12782476D01*
X4333095Y-12782476D02*
X4333095Y-12801524D01*
X4456905Y-12687238D02*
X4437857Y-12677714D01*
X4437857Y-12677714D02*
X4428333Y-12668190D01*
X4428333Y-12668190D02*
X4418810Y-12649143D01*
X4418810Y-12649143D02*
X4418810Y-12639619D01*
X4418810Y-12639619D02*
X4428333Y-12620571D01*
X4428333Y-12620571D02*
X4437857Y-12611048D01*
X4437857Y-12611048D02*
X4456905Y-12601524D01*
X4456905Y-12601524D02*
X4495000Y-12601524D01*
X4495000Y-12601524D02*
X4514048Y-12611048D01*
X4514048Y-12611048D02*
X4523571Y-12620571D01*
X4523571Y-12620571D02*
X4533095Y-12639619D01*
X4533095Y-12639619D02*
X4533095Y-12649143D01*
X4533095Y-12649143D02*
X4523571Y-12668190D01*
X4523571Y-12668190D02*
X4514048Y-12677714D01*
X4514048Y-12677714D02*
X4495000Y-12687238D01*
X4495000Y-12687238D02*
X4456905Y-12687238D01*
X4456905Y-12687238D02*
X4437857Y-12696762D01*
X4437857Y-12696762D02*
X4428333Y-12706286D01*
X4428333Y-12706286D02*
X4418810Y-12725333D01*
X4418810Y-12725333D02*
X4418810Y-12763428D01*
X4418810Y-12763428D02*
X4428333Y-12782476D01*
X4428333Y-12782476D02*
X4437857Y-12792000D01*
X4437857Y-12792000D02*
X4456905Y-12801524D01*
X4456905Y-12801524D02*
X4495000Y-12801524D01*
X4495000Y-12801524D02*
X4514048Y-12792000D01*
X4514048Y-12792000D02*
X4523571Y-12782476D01*
X4523571Y-12782476D02*
X4533095Y-12763428D01*
X4533095Y-12763428D02*
X4533095Y-12725333D01*
X4533095Y-12725333D02*
X4523571Y-12706286D01*
X4523571Y-12706286D02*
X4514048Y-12696762D01*
X4514048Y-12696762D02*
X4495000Y-12687238D01*
X4656905Y-12601524D02*
X4675952Y-12601524D01*
X4675952Y-12601524D02*
X4695000Y-12611048D01*
X4695000Y-12611048D02*
X4704524Y-12620571D01*
X4704524Y-12620571D02*
X4714048Y-12639619D01*
X4714048Y-12639619D02*
X4723571Y-12677714D01*
X4723571Y-12677714D02*
X4723571Y-12725333D01*
X4723571Y-12725333D02*
X4714048Y-12763428D01*
X4714048Y-12763428D02*
X4704524Y-12782476D01*
X4704524Y-12782476D02*
X4695000Y-12792000D01*
X4695000Y-12792000D02*
X4675952Y-12801524D01*
X4675952Y-12801524D02*
X4656905Y-12801524D01*
X4656905Y-12801524D02*
X4637857Y-12792000D01*
X4637857Y-12792000D02*
X4628333Y-12782476D01*
X4628333Y-12782476D02*
X4618810Y-12763428D01*
X4618810Y-12763428D02*
X4609286Y-12725333D01*
X4609286Y-12725333D02*
X4609286Y-12677714D01*
X4609286Y-12677714D02*
X4618810Y-12639619D01*
X4618810Y-12639619D02*
X4628333Y-12620571D01*
X4628333Y-12620571D02*
X4637857Y-12611048D01*
X4637857Y-12611048D02*
X4656905Y-12601524D01*
X4847381Y-12601524D02*
X4866429Y-12601524D01*
X4866429Y-12601524D02*
X4885476Y-12611048D01*
X4885476Y-12611048D02*
X4895000Y-12620571D01*
X4895000Y-12620571D02*
X4904524Y-12639619D01*
X4904524Y-12639619D02*
X4914048Y-12677714D01*
X4914048Y-12677714D02*
X4914048Y-12725333D01*
X4914048Y-12725333D02*
X4904524Y-12763428D01*
X4904524Y-12763428D02*
X4895000Y-12782476D01*
X4895000Y-12782476D02*
X4885476Y-12792000D01*
X4885476Y-12792000D02*
X4866429Y-12801524D01*
X4866429Y-12801524D02*
X4847381Y-12801524D01*
X4847381Y-12801524D02*
X4828333Y-12792000D01*
X4828333Y-12792000D02*
X4818810Y-12782476D01*
X4818810Y-12782476D02*
X4809286Y-12763428D01*
X4809286Y-12763428D02*
X4799762Y-12725333D01*
X4799762Y-12725333D02*
X4799762Y-12677714D01*
X4799762Y-12677714D02*
X4809286Y-12639619D01*
X4809286Y-12639619D02*
X4818810Y-12620571D01*
X4818810Y-12620571D02*
X4828333Y-12611048D01*
X4828333Y-12611048D02*
X4847381Y-12601524D01*
X4999762Y-12801524D02*
X4999762Y-12668190D01*
X4999762Y-12687238D02*
X5009286Y-12677714D01*
X5009286Y-12677714D02*
X5028333Y-12668190D01*
X5028333Y-12668190D02*
X5056905Y-12668190D01*
X5056905Y-12668190D02*
X5075952Y-12677714D01*
X5075952Y-12677714D02*
X5085476Y-12696762D01*
X5085476Y-12696762D02*
X5085476Y-12801524D01*
X5085476Y-12696762D02*
X5095000Y-12677714D01*
X5095000Y-12677714D02*
X5114048Y-12668190D01*
X5114048Y-12668190D02*
X5142619Y-12668190D01*
X5142619Y-12668190D02*
X5161667Y-12677714D01*
X5161667Y-12677714D02*
X5171191Y-12696762D01*
X5171191Y-12696762D02*
X5171191Y-12801524D01*
X5266429Y-12801524D02*
X5266429Y-12668190D01*
X5266429Y-12687238D02*
X5275952Y-12677714D01*
X5275952Y-12677714D02*
X5295000Y-12668190D01*
X5295000Y-12668190D02*
X5323572Y-12668190D01*
X5323572Y-12668190D02*
X5342619Y-12677714D01*
X5342619Y-12677714D02*
X5352143Y-12696762D01*
X5352143Y-12696762D02*
X5352143Y-12801524D01*
X5352143Y-12696762D02*
X5361667Y-12677714D01*
X5361667Y-12677714D02*
X5380714Y-12668190D01*
X5380714Y-12668190D02*
X5409286Y-12668190D01*
X5409286Y-12668190D02*
X5428333Y-12677714D01*
X5428333Y-12677714D02*
X5437857Y-12696762D01*
X5437857Y-12696762D02*
X5437857Y-12801524D01*
X5828333Y-12592000D02*
X5656905Y-12849143D01*
X6085476Y-12601524D02*
X6104524Y-12601524D01*
X6104524Y-12601524D02*
X6123572Y-12611048D01*
X6123572Y-12611048D02*
X6133095Y-12620571D01*
X6133095Y-12620571D02*
X6142619Y-12639619D01*
X6142619Y-12639619D02*
X6152143Y-12677714D01*
X6152143Y-12677714D02*
X6152143Y-12725333D01*
X6152143Y-12725333D02*
X6142619Y-12763428D01*
X6142619Y-12763428D02*
X6133095Y-12782476D01*
X6133095Y-12782476D02*
X6123572Y-12792000D01*
X6123572Y-12792000D02*
X6104524Y-12801524D01*
X6104524Y-12801524D02*
X6085476Y-12801524D01*
X6085476Y-12801524D02*
X6066429Y-12792000D01*
X6066429Y-12792000D02*
X6056905Y-12782476D01*
X6056905Y-12782476D02*
X6047381Y-12763428D01*
X6047381Y-12763428D02*
X6037857Y-12725333D01*
X6037857Y-12725333D02*
X6037857Y-12677714D01*
X6037857Y-12677714D02*
X6047381Y-12639619D01*
X6047381Y-12639619D02*
X6056905Y-12620571D01*
X6056905Y-12620571D02*
X6066429Y-12611048D01*
X6066429Y-12611048D02*
X6085476Y-12601524D01*
X6237857Y-12782476D02*
X6247381Y-12792000D01*
X6247381Y-12792000D02*
X6237857Y-12801524D01*
X6237857Y-12801524D02*
X6228333Y-12792000D01*
X6228333Y-12792000D02*
X6237857Y-12782476D01*
X6237857Y-12782476D02*
X6237857Y-12801524D01*
X6371191Y-12601524D02*
X6390238Y-12601524D01*
X6390238Y-12601524D02*
X6409286Y-12611048D01*
X6409286Y-12611048D02*
X6418810Y-12620571D01*
X6418810Y-12620571D02*
X6428333Y-12639619D01*
X6428333Y-12639619D02*
X6437857Y-12677714D01*
X6437857Y-12677714D02*
X6437857Y-12725333D01*
X6437857Y-12725333D02*
X6428333Y-12763428D01*
X6428333Y-12763428D02*
X6418810Y-12782476D01*
X6418810Y-12782476D02*
X6409286Y-12792000D01*
X6409286Y-12792000D02*
X6390238Y-12801524D01*
X6390238Y-12801524D02*
X6371191Y-12801524D01*
X6371191Y-12801524D02*
X6352143Y-12792000D01*
X6352143Y-12792000D02*
X6342619Y-12782476D01*
X6342619Y-12782476D02*
X6333095Y-12763428D01*
X6333095Y-12763428D02*
X6323572Y-12725333D01*
X6323572Y-12725333D02*
X6323572Y-12677714D01*
X6323572Y-12677714D02*
X6333095Y-12639619D01*
X6333095Y-12639619D02*
X6342619Y-12620571D01*
X6342619Y-12620571D02*
X6352143Y-12611048D01*
X6352143Y-12611048D02*
X6371191Y-12601524D01*
X6504524Y-12601524D02*
X6628333Y-12601524D01*
X6628333Y-12601524D02*
X6561667Y-12677714D01*
X6561667Y-12677714D02*
X6590238Y-12677714D01*
X6590238Y-12677714D02*
X6609286Y-12687238D01*
X6609286Y-12687238D02*
X6618810Y-12696762D01*
X6618810Y-12696762D02*
X6628333Y-12715809D01*
X6628333Y-12715809D02*
X6628333Y-12763428D01*
X6628333Y-12763428D02*
X6618810Y-12782476D01*
X6618810Y-12782476D02*
X6609286Y-12792000D01*
X6609286Y-12792000D02*
X6590238Y-12801524D01*
X6590238Y-12801524D02*
X6533095Y-12801524D01*
X6533095Y-12801524D02*
X6514048Y-12792000D01*
X6514048Y-12792000D02*
X6504524Y-12782476D01*
X6818810Y-12801524D02*
X6704524Y-12801524D01*
X6761667Y-12801524D02*
X6761667Y-12601524D01*
X6761667Y-12601524D02*
X6742619Y-12630095D01*
X6742619Y-12630095D02*
X6723572Y-12649143D01*
X6723572Y-12649143D02*
X6704524Y-12658667D01*
X6999762Y-12601524D02*
X6904524Y-12601524D01*
X6904524Y-12601524D02*
X6895000Y-12696762D01*
X6895000Y-12696762D02*
X6904524Y-12687238D01*
X6904524Y-12687238D02*
X6923572Y-12677714D01*
X6923572Y-12677714D02*
X6971191Y-12677714D01*
X6971191Y-12677714D02*
X6990238Y-12687238D01*
X6990238Y-12687238D02*
X6999762Y-12696762D01*
X6999762Y-12696762D02*
X7009286Y-12715809D01*
X7009286Y-12715809D02*
X7009286Y-12763428D01*
X7009286Y-12763428D02*
X6999762Y-12782476D01*
X6999762Y-12782476D02*
X6990238Y-12792000D01*
X6990238Y-12792000D02*
X6971191Y-12801524D01*
X6971191Y-12801524D02*
X6923572Y-12801524D01*
X6923572Y-12801524D02*
X6904524Y-12792000D01*
X6904524Y-12792000D02*
X6895000Y-12782476D01*
X7085476Y-12601524D02*
X7085476Y-12639619D01*
X7161667Y-12601524D02*
X7161667Y-12639619D01*
X7456905Y-12877714D02*
X7447381Y-12868190D01*
X7447381Y-12868190D02*
X7428334Y-12839619D01*
X7428334Y-12839619D02*
X7418810Y-12820571D01*
X7418810Y-12820571D02*
X7409286Y-12792000D01*
X7409286Y-12792000D02*
X7399762Y-12744381D01*
X7399762Y-12744381D02*
X7399762Y-12706286D01*
X7399762Y-12706286D02*
X7409286Y-12658667D01*
X7409286Y-12658667D02*
X7418810Y-12630095D01*
X7418810Y-12630095D02*
X7428334Y-12611048D01*
X7428334Y-12611048D02*
X7447381Y-12582476D01*
X7447381Y-12582476D02*
X7456905Y-12572952D01*
X7637857Y-12801524D02*
X7523572Y-12801524D01*
X7580714Y-12801524D02*
X7580714Y-12601524D01*
X7580714Y-12601524D02*
X7561667Y-12630095D01*
X7561667Y-12630095D02*
X7542619Y-12649143D01*
X7542619Y-12649143D02*
X7523572Y-12658667D01*
X7714048Y-12620571D02*
X7723572Y-12611048D01*
X7723572Y-12611048D02*
X7742619Y-12601524D01*
X7742619Y-12601524D02*
X7790238Y-12601524D01*
X7790238Y-12601524D02*
X7809286Y-12611048D01*
X7809286Y-12611048D02*
X7818810Y-12620571D01*
X7818810Y-12620571D02*
X7828334Y-12639619D01*
X7828334Y-12639619D02*
X7828334Y-12658667D01*
X7828334Y-12658667D02*
X7818810Y-12687238D01*
X7818810Y-12687238D02*
X7704524Y-12801524D01*
X7704524Y-12801524D02*
X7828334Y-12801524D01*
X7952143Y-12601524D02*
X7971191Y-12601524D01*
X7971191Y-12601524D02*
X7990238Y-12611048D01*
X7990238Y-12611048D02*
X7999762Y-12620571D01*
X7999762Y-12620571D02*
X8009286Y-12639619D01*
X8009286Y-12639619D02*
X8018810Y-12677714D01*
X8018810Y-12677714D02*
X8018810Y-12725333D01*
X8018810Y-12725333D02*
X8009286Y-12763428D01*
X8009286Y-12763428D02*
X7999762Y-12782476D01*
X7999762Y-12782476D02*
X7990238Y-12792000D01*
X7990238Y-12792000D02*
X7971191Y-12801524D01*
X7971191Y-12801524D02*
X7952143Y-12801524D01*
X7952143Y-12801524D02*
X7933095Y-12792000D01*
X7933095Y-12792000D02*
X7923572Y-12782476D01*
X7923572Y-12782476D02*
X7914048Y-12763428D01*
X7914048Y-12763428D02*
X7904524Y-12725333D01*
X7904524Y-12725333D02*
X7904524Y-12677714D01*
X7904524Y-12677714D02*
X7914048Y-12639619D01*
X7914048Y-12639619D02*
X7923572Y-12620571D01*
X7923572Y-12620571D02*
X7933095Y-12611048D01*
X7933095Y-12611048D02*
X7952143Y-12601524D01*
X8256905Y-12801524D02*
X8256905Y-12601524D01*
X8342619Y-12801524D02*
X8342619Y-12696762D01*
X8342619Y-12696762D02*
X8333096Y-12677714D01*
X8333096Y-12677714D02*
X8314048Y-12668190D01*
X8314048Y-12668190D02*
X8285476Y-12668190D01*
X8285476Y-12668190D02*
X8266429Y-12677714D01*
X8266429Y-12677714D02*
X8256905Y-12687238D01*
X8466429Y-12801524D02*
X8447381Y-12792000D01*
X8447381Y-12792000D02*
X8437858Y-12782476D01*
X8437858Y-12782476D02*
X8428334Y-12763428D01*
X8428334Y-12763428D02*
X8428334Y-12706286D01*
X8428334Y-12706286D02*
X8437858Y-12687238D01*
X8437858Y-12687238D02*
X8447381Y-12677714D01*
X8447381Y-12677714D02*
X8466429Y-12668190D01*
X8466429Y-12668190D02*
X8495000Y-12668190D01*
X8495000Y-12668190D02*
X8514048Y-12677714D01*
X8514048Y-12677714D02*
X8523572Y-12687238D01*
X8523572Y-12687238D02*
X8533096Y-12706286D01*
X8533096Y-12706286D02*
X8533096Y-12763428D01*
X8533096Y-12763428D02*
X8523572Y-12782476D01*
X8523572Y-12782476D02*
X8514048Y-12792000D01*
X8514048Y-12792000D02*
X8495000Y-12801524D01*
X8495000Y-12801524D02*
X8466429Y-12801524D01*
X8647381Y-12801524D02*
X8628334Y-12792000D01*
X8628334Y-12792000D02*
X8618810Y-12772952D01*
X8618810Y-12772952D02*
X8618810Y-12601524D01*
X8799762Y-12792000D02*
X8780715Y-12801524D01*
X8780715Y-12801524D02*
X8742619Y-12801524D01*
X8742619Y-12801524D02*
X8723572Y-12792000D01*
X8723572Y-12792000D02*
X8714048Y-12772952D01*
X8714048Y-12772952D02*
X8714048Y-12696762D01*
X8714048Y-12696762D02*
X8723572Y-12677714D01*
X8723572Y-12677714D02*
X8742619Y-12668190D01*
X8742619Y-12668190D02*
X8780715Y-12668190D01*
X8780715Y-12668190D02*
X8799762Y-12677714D01*
X8799762Y-12677714D02*
X8809286Y-12696762D01*
X8809286Y-12696762D02*
X8809286Y-12715809D01*
X8809286Y-12715809D02*
X8714048Y-12734857D01*
X8885477Y-12792000D02*
X8904524Y-12801524D01*
X8904524Y-12801524D02*
X8942619Y-12801524D01*
X8942619Y-12801524D02*
X8961667Y-12792000D01*
X8961667Y-12792000D02*
X8971191Y-12772952D01*
X8971191Y-12772952D02*
X8971191Y-12763428D01*
X8971191Y-12763428D02*
X8961667Y-12744381D01*
X8961667Y-12744381D02*
X8942619Y-12734857D01*
X8942619Y-12734857D02*
X8914048Y-12734857D01*
X8914048Y-12734857D02*
X8895000Y-12725333D01*
X8895000Y-12725333D02*
X8885477Y-12706286D01*
X8885477Y-12706286D02*
X8885477Y-12696762D01*
X8885477Y-12696762D02*
X8895000Y-12677714D01*
X8895000Y-12677714D02*
X8914048Y-12668190D01*
X8914048Y-12668190D02*
X8942619Y-12668190D01*
X8942619Y-12668190D02*
X8961667Y-12677714D01*
X9037858Y-12877714D02*
X9047381Y-12868190D01*
X9047381Y-12868190D02*
X9066429Y-12839619D01*
X9066429Y-12839619D02*
X9075953Y-12820571D01*
X9075953Y-12820571D02*
X9085477Y-12792000D01*
X9085477Y-12792000D02*
X9095000Y-12744381D01*
X9095000Y-12744381D02*
X9095000Y-12706286D01*
X9095000Y-12706286D02*
X9085477Y-12658667D01*
X9085477Y-12658667D02*
X9075953Y-12630095D01*
X9075953Y-12630095D02*
X9066429Y-12611048D01*
X9066429Y-12611048D02*
X9047381Y-12582476D01*
X9047381Y-12582476D02*
X9037858Y-12572952D01*
D10*
X3845000Y-12923000D02*
X3845000Y-13023000D01*
X3795000Y-12973000D02*
X3895000Y-12973000D01*
D11*
X4247381Y-13065524D02*
X4133095Y-13065524D01*
X4190238Y-13065524D02*
X4190238Y-12865524D01*
X4190238Y-12865524D02*
X4171190Y-12894095D01*
X4171190Y-12894095D02*
X4152143Y-12913143D01*
X4152143Y-12913143D02*
X4133095Y-12922667D01*
X4333095Y-13046476D02*
X4342619Y-13056000D01*
X4342619Y-13056000D02*
X4333095Y-13065524D01*
X4333095Y-13065524D02*
X4323571Y-13056000D01*
X4323571Y-13056000D02*
X4333095Y-13046476D01*
X4333095Y-13046476D02*
X4333095Y-13065524D01*
X4466429Y-12865524D02*
X4485476Y-12865524D01*
X4485476Y-12865524D02*
X4504524Y-12875048D01*
X4504524Y-12875048D02*
X4514048Y-12884571D01*
X4514048Y-12884571D02*
X4523571Y-12903619D01*
X4523571Y-12903619D02*
X4533095Y-12941714D01*
X4533095Y-12941714D02*
X4533095Y-12989333D01*
X4533095Y-12989333D02*
X4523571Y-13027428D01*
X4523571Y-13027428D02*
X4514048Y-13046476D01*
X4514048Y-13046476D02*
X4504524Y-13056000D01*
X4504524Y-13056000D02*
X4485476Y-13065524D01*
X4485476Y-13065524D02*
X4466429Y-13065524D01*
X4466429Y-13065524D02*
X4447381Y-13056000D01*
X4447381Y-13056000D02*
X4437857Y-13046476D01*
X4437857Y-13046476D02*
X4428333Y-13027428D01*
X4428333Y-13027428D02*
X4418810Y-12989333D01*
X4418810Y-12989333D02*
X4418810Y-12941714D01*
X4418810Y-12941714D02*
X4428333Y-12903619D01*
X4428333Y-12903619D02*
X4437857Y-12884571D01*
X4437857Y-12884571D02*
X4447381Y-12875048D01*
X4447381Y-12875048D02*
X4466429Y-12865524D01*
X4656905Y-12865524D02*
X4675952Y-12865524D01*
X4675952Y-12865524D02*
X4695000Y-12875048D01*
X4695000Y-12875048D02*
X4704524Y-12884571D01*
X4704524Y-12884571D02*
X4714048Y-12903619D01*
X4714048Y-12903619D02*
X4723571Y-12941714D01*
X4723571Y-12941714D02*
X4723571Y-12989333D01*
X4723571Y-12989333D02*
X4714048Y-13027428D01*
X4714048Y-13027428D02*
X4704524Y-13046476D01*
X4704524Y-13046476D02*
X4695000Y-13056000D01*
X4695000Y-13056000D02*
X4675952Y-13065524D01*
X4675952Y-13065524D02*
X4656905Y-13065524D01*
X4656905Y-13065524D02*
X4637857Y-13056000D01*
X4637857Y-13056000D02*
X4628333Y-13046476D01*
X4628333Y-13046476D02*
X4618810Y-13027428D01*
X4618810Y-13027428D02*
X4609286Y-12989333D01*
X4609286Y-12989333D02*
X4609286Y-12941714D01*
X4609286Y-12941714D02*
X4618810Y-12903619D01*
X4618810Y-12903619D02*
X4628333Y-12884571D01*
X4628333Y-12884571D02*
X4637857Y-12875048D01*
X4637857Y-12875048D02*
X4656905Y-12865524D01*
X4847381Y-12865524D02*
X4866429Y-12865524D01*
X4866429Y-12865524D02*
X4885476Y-12875048D01*
X4885476Y-12875048D02*
X4895000Y-12884571D01*
X4895000Y-12884571D02*
X4904524Y-12903619D01*
X4904524Y-12903619D02*
X4914048Y-12941714D01*
X4914048Y-12941714D02*
X4914048Y-12989333D01*
X4914048Y-12989333D02*
X4904524Y-13027428D01*
X4904524Y-13027428D02*
X4895000Y-13046476D01*
X4895000Y-13046476D02*
X4885476Y-13056000D01*
X4885476Y-13056000D02*
X4866429Y-13065524D01*
X4866429Y-13065524D02*
X4847381Y-13065524D01*
X4847381Y-13065524D02*
X4828333Y-13056000D01*
X4828333Y-13056000D02*
X4818810Y-13046476D01*
X4818810Y-13046476D02*
X4809286Y-13027428D01*
X4809286Y-13027428D02*
X4799762Y-12989333D01*
X4799762Y-12989333D02*
X4799762Y-12941714D01*
X4799762Y-12941714D02*
X4809286Y-12903619D01*
X4809286Y-12903619D02*
X4818810Y-12884571D01*
X4818810Y-12884571D02*
X4828333Y-12875048D01*
X4828333Y-12875048D02*
X4847381Y-12865524D01*
X4999762Y-13065524D02*
X4999762Y-12932190D01*
X4999762Y-12951238D02*
X5009286Y-12941714D01*
X5009286Y-12941714D02*
X5028333Y-12932190D01*
X5028333Y-12932190D02*
X5056905Y-12932190D01*
X5056905Y-12932190D02*
X5075952Y-12941714D01*
X5075952Y-12941714D02*
X5085476Y-12960762D01*
X5085476Y-12960762D02*
X5085476Y-13065524D01*
X5085476Y-12960762D02*
X5095000Y-12941714D01*
X5095000Y-12941714D02*
X5114048Y-12932190D01*
X5114048Y-12932190D02*
X5142619Y-12932190D01*
X5142619Y-12932190D02*
X5161667Y-12941714D01*
X5161667Y-12941714D02*
X5171191Y-12960762D01*
X5171191Y-12960762D02*
X5171191Y-13065524D01*
X5266429Y-13065524D02*
X5266429Y-12932190D01*
X5266429Y-12951238D02*
X5275952Y-12941714D01*
X5275952Y-12941714D02*
X5295000Y-12932190D01*
X5295000Y-12932190D02*
X5323572Y-12932190D01*
X5323572Y-12932190D02*
X5342619Y-12941714D01*
X5342619Y-12941714D02*
X5352143Y-12960762D01*
X5352143Y-12960762D02*
X5352143Y-13065524D01*
X5352143Y-12960762D02*
X5361667Y-12941714D01*
X5361667Y-12941714D02*
X5380714Y-12932190D01*
X5380714Y-12932190D02*
X5409286Y-12932190D01*
X5409286Y-12932190D02*
X5428333Y-12941714D01*
X5428333Y-12941714D02*
X5437857Y-12960762D01*
X5437857Y-12960762D02*
X5437857Y-13065524D01*
X5828333Y-12856000D02*
X5656905Y-13113143D01*
X6085476Y-12865524D02*
X6104524Y-12865524D01*
X6104524Y-12865524D02*
X6123572Y-12875048D01*
X6123572Y-12875048D02*
X6133095Y-12884571D01*
X6133095Y-12884571D02*
X6142619Y-12903619D01*
X6142619Y-12903619D02*
X6152143Y-12941714D01*
X6152143Y-12941714D02*
X6152143Y-12989333D01*
X6152143Y-12989333D02*
X6142619Y-13027428D01*
X6142619Y-13027428D02*
X6133095Y-13046476D01*
X6133095Y-13046476D02*
X6123572Y-13056000D01*
X6123572Y-13056000D02*
X6104524Y-13065524D01*
X6104524Y-13065524D02*
X6085476Y-13065524D01*
X6085476Y-13065524D02*
X6066429Y-13056000D01*
X6066429Y-13056000D02*
X6056905Y-13046476D01*
X6056905Y-13046476D02*
X6047381Y-13027428D01*
X6047381Y-13027428D02*
X6037857Y-12989333D01*
X6037857Y-12989333D02*
X6037857Y-12941714D01*
X6037857Y-12941714D02*
X6047381Y-12903619D01*
X6047381Y-12903619D02*
X6056905Y-12884571D01*
X6056905Y-12884571D02*
X6066429Y-12875048D01*
X6066429Y-12875048D02*
X6085476Y-12865524D01*
X6237857Y-13046476D02*
X6247381Y-13056000D01*
X6247381Y-13056000D02*
X6237857Y-13065524D01*
X6237857Y-13065524D02*
X6228333Y-13056000D01*
X6228333Y-13056000D02*
X6237857Y-13046476D01*
X6237857Y-13046476D02*
X6237857Y-13065524D01*
X6371191Y-12865524D02*
X6390238Y-12865524D01*
X6390238Y-12865524D02*
X6409286Y-12875048D01*
X6409286Y-12875048D02*
X6418810Y-12884571D01*
X6418810Y-12884571D02*
X6428333Y-12903619D01*
X6428333Y-12903619D02*
X6437857Y-12941714D01*
X6437857Y-12941714D02*
X6437857Y-12989333D01*
X6437857Y-12989333D02*
X6428333Y-13027428D01*
X6428333Y-13027428D02*
X6418810Y-13046476D01*
X6418810Y-13046476D02*
X6409286Y-13056000D01*
X6409286Y-13056000D02*
X6390238Y-13065524D01*
X6390238Y-13065524D02*
X6371191Y-13065524D01*
X6371191Y-13065524D02*
X6352143Y-13056000D01*
X6352143Y-13056000D02*
X6342619Y-13046476D01*
X6342619Y-13046476D02*
X6333095Y-13027428D01*
X6333095Y-13027428D02*
X6323572Y-12989333D01*
X6323572Y-12989333D02*
X6323572Y-12941714D01*
X6323572Y-12941714D02*
X6333095Y-12903619D01*
X6333095Y-12903619D02*
X6342619Y-12884571D01*
X6342619Y-12884571D02*
X6352143Y-12875048D01*
X6352143Y-12875048D02*
X6371191Y-12865524D01*
X6504524Y-12865524D02*
X6628333Y-12865524D01*
X6628333Y-12865524D02*
X6561667Y-12941714D01*
X6561667Y-12941714D02*
X6590238Y-12941714D01*
X6590238Y-12941714D02*
X6609286Y-12951238D01*
X6609286Y-12951238D02*
X6618810Y-12960762D01*
X6618810Y-12960762D02*
X6628333Y-12979809D01*
X6628333Y-12979809D02*
X6628333Y-13027428D01*
X6628333Y-13027428D02*
X6618810Y-13046476D01*
X6618810Y-13046476D02*
X6609286Y-13056000D01*
X6609286Y-13056000D02*
X6590238Y-13065524D01*
X6590238Y-13065524D02*
X6533095Y-13065524D01*
X6533095Y-13065524D02*
X6514048Y-13056000D01*
X6514048Y-13056000D02*
X6504524Y-13046476D01*
X6723572Y-13065524D02*
X6761667Y-13065524D01*
X6761667Y-13065524D02*
X6780714Y-13056000D01*
X6780714Y-13056000D02*
X6790238Y-13046476D01*
X6790238Y-13046476D02*
X6809286Y-13017905D01*
X6809286Y-13017905D02*
X6818810Y-12979809D01*
X6818810Y-12979809D02*
X6818810Y-12903619D01*
X6818810Y-12903619D02*
X6809286Y-12884571D01*
X6809286Y-12884571D02*
X6799762Y-12875048D01*
X6799762Y-12875048D02*
X6780714Y-12865524D01*
X6780714Y-12865524D02*
X6742619Y-12865524D01*
X6742619Y-12865524D02*
X6723572Y-12875048D01*
X6723572Y-12875048D02*
X6714048Y-12884571D01*
X6714048Y-12884571D02*
X6704524Y-12903619D01*
X6704524Y-12903619D02*
X6704524Y-12951238D01*
X6704524Y-12951238D02*
X6714048Y-12970286D01*
X6714048Y-12970286D02*
X6723572Y-12979809D01*
X6723572Y-12979809D02*
X6742619Y-12989333D01*
X6742619Y-12989333D02*
X6780714Y-12989333D01*
X6780714Y-12989333D02*
X6799762Y-12979809D01*
X6799762Y-12979809D02*
X6809286Y-12970286D01*
X6809286Y-12970286D02*
X6818810Y-12951238D01*
X6990238Y-12932190D02*
X6990238Y-13065524D01*
X6942619Y-12856000D02*
X6895000Y-12998857D01*
X6895000Y-12998857D02*
X7018810Y-12998857D01*
X7085476Y-12865524D02*
X7085476Y-12903619D01*
X7161667Y-12865524D02*
X7161667Y-12903619D01*
X7456905Y-13141714D02*
X7447381Y-13132190D01*
X7447381Y-13132190D02*
X7428334Y-13103619D01*
X7428334Y-13103619D02*
X7418810Y-13084571D01*
X7418810Y-13084571D02*
X7409286Y-13056000D01*
X7409286Y-13056000D02*
X7399762Y-13008381D01*
X7399762Y-13008381D02*
X7399762Y-12970286D01*
X7399762Y-12970286D02*
X7409286Y-12922667D01*
X7409286Y-12922667D02*
X7418810Y-12894095D01*
X7418810Y-12894095D02*
X7428334Y-12875048D01*
X7428334Y-12875048D02*
X7447381Y-12846476D01*
X7447381Y-12846476D02*
X7456905Y-12836952D01*
X7637857Y-13065524D02*
X7523572Y-13065524D01*
X7580714Y-13065524D02*
X7580714Y-12865524D01*
X7580714Y-12865524D02*
X7561667Y-12894095D01*
X7561667Y-12894095D02*
X7542619Y-12913143D01*
X7542619Y-12913143D02*
X7523572Y-12922667D01*
X7761667Y-12865524D02*
X7780715Y-12865524D01*
X7780715Y-12865524D02*
X7799762Y-12875048D01*
X7799762Y-12875048D02*
X7809286Y-12884571D01*
X7809286Y-12884571D02*
X7818810Y-12903619D01*
X7818810Y-12903619D02*
X7828334Y-12941714D01*
X7828334Y-12941714D02*
X7828334Y-12989333D01*
X7828334Y-12989333D02*
X7818810Y-13027428D01*
X7818810Y-13027428D02*
X7809286Y-13046476D01*
X7809286Y-13046476D02*
X7799762Y-13056000D01*
X7799762Y-13056000D02*
X7780715Y-13065524D01*
X7780715Y-13065524D02*
X7761667Y-13065524D01*
X7761667Y-13065524D02*
X7742619Y-13056000D01*
X7742619Y-13056000D02*
X7733095Y-13046476D01*
X7733095Y-13046476D02*
X7723572Y-13027428D01*
X7723572Y-13027428D02*
X7714048Y-12989333D01*
X7714048Y-12989333D02*
X7714048Y-12941714D01*
X7714048Y-12941714D02*
X7723572Y-12903619D01*
X7723572Y-12903619D02*
X7733095Y-12884571D01*
X7733095Y-12884571D02*
X7742619Y-12875048D01*
X7742619Y-12875048D02*
X7761667Y-12865524D01*
X8066429Y-13065524D02*
X8066429Y-12865524D01*
X8152143Y-13065524D02*
X8152143Y-12960762D01*
X8152143Y-12960762D02*
X8142619Y-12941714D01*
X8142619Y-12941714D02*
X8123572Y-12932190D01*
X8123572Y-12932190D02*
X8095000Y-12932190D01*
X8095000Y-12932190D02*
X8075953Y-12941714D01*
X8075953Y-12941714D02*
X8066429Y-12951238D01*
X8275953Y-13065524D02*
X8256905Y-13056000D01*
X8256905Y-13056000D02*
X8247381Y-13046476D01*
X8247381Y-13046476D02*
X8237857Y-13027428D01*
X8237857Y-13027428D02*
X8237857Y-12970286D01*
X8237857Y-12970286D02*
X8247381Y-12951238D01*
X8247381Y-12951238D02*
X8256905Y-12941714D01*
X8256905Y-12941714D02*
X8275953Y-12932190D01*
X8275953Y-12932190D02*
X8304524Y-12932190D01*
X8304524Y-12932190D02*
X8323572Y-12941714D01*
X8323572Y-12941714D02*
X8333096Y-12951238D01*
X8333096Y-12951238D02*
X8342619Y-12970286D01*
X8342619Y-12970286D02*
X8342619Y-13027428D01*
X8342619Y-13027428D02*
X8333096Y-13046476D01*
X8333096Y-13046476D02*
X8323572Y-13056000D01*
X8323572Y-13056000D02*
X8304524Y-13065524D01*
X8304524Y-13065524D02*
X8275953Y-13065524D01*
X8456905Y-13065524D02*
X8437858Y-13056000D01*
X8437858Y-13056000D02*
X8428334Y-13036952D01*
X8428334Y-13036952D02*
X8428334Y-12865524D01*
X8609286Y-13056000D02*
X8590239Y-13065524D01*
X8590239Y-13065524D02*
X8552143Y-13065524D01*
X8552143Y-13065524D02*
X8533096Y-13056000D01*
X8533096Y-13056000D02*
X8523572Y-13036952D01*
X8523572Y-13036952D02*
X8523572Y-12960762D01*
X8523572Y-12960762D02*
X8533096Y-12941714D01*
X8533096Y-12941714D02*
X8552143Y-12932190D01*
X8552143Y-12932190D02*
X8590239Y-12932190D01*
X8590239Y-12932190D02*
X8609286Y-12941714D01*
X8609286Y-12941714D02*
X8618810Y-12960762D01*
X8618810Y-12960762D02*
X8618810Y-12979809D01*
X8618810Y-12979809D02*
X8523572Y-12998857D01*
X8695000Y-13056000D02*
X8714048Y-13065524D01*
X8714048Y-13065524D02*
X8752143Y-13065524D01*
X8752143Y-13065524D02*
X8771191Y-13056000D01*
X8771191Y-13056000D02*
X8780715Y-13036952D01*
X8780715Y-13036952D02*
X8780715Y-13027428D01*
X8780715Y-13027428D02*
X8771191Y-13008381D01*
X8771191Y-13008381D02*
X8752143Y-12998857D01*
X8752143Y-12998857D02*
X8723572Y-12998857D01*
X8723572Y-12998857D02*
X8704524Y-12989333D01*
X8704524Y-12989333D02*
X8695000Y-12970286D01*
X8695000Y-12970286D02*
X8695000Y-12960762D01*
X8695000Y-12960762D02*
X8704524Y-12941714D01*
X8704524Y-12941714D02*
X8723572Y-12932190D01*
X8723572Y-12932190D02*
X8752143Y-12932190D01*
X8752143Y-12932190D02*
X8771191Y-12941714D01*
X8847381Y-13141714D02*
X8856905Y-13132190D01*
X8856905Y-13132190D02*
X8875953Y-13103619D01*
X8875953Y-13103619D02*
X8885477Y-13084571D01*
X8885477Y-13084571D02*
X8895000Y-13056000D01*
X8895000Y-13056000D02*
X8904524Y-13008381D01*
X8904524Y-13008381D02*
X8904524Y-12970286D01*
X8904524Y-12970286D02*
X8895000Y-12922667D01*
X8895000Y-12922667D02*
X8885477Y-12894095D01*
X8885477Y-12894095D02*
X8875953Y-12875048D01*
X8875953Y-12875048D02*
X8856905Y-12846476D01*
X8856905Y-12846476D02*
X8847381Y-12836952D01*
D14*
X3875955Y-13282979D02*
X3875955Y-13191021D01*
X3783997Y-13191021D01*
X3783997Y-13282979D01*
X3875955Y-13282979D01*
D11*
X4247381Y-13329524D02*
X4133095Y-13329524D01*
X4190238Y-13329524D02*
X4190238Y-13129524D01*
X4190238Y-13129524D02*
X4171190Y-13158095D01*
X4171190Y-13158095D02*
X4152143Y-13177143D01*
X4152143Y-13177143D02*
X4133095Y-13186667D01*
X4333095Y-13310476D02*
X4342619Y-13320000D01*
X4342619Y-13320000D02*
X4333095Y-13329524D01*
X4333095Y-13329524D02*
X4323571Y-13320000D01*
X4323571Y-13320000D02*
X4333095Y-13310476D01*
X4333095Y-13310476D02*
X4333095Y-13329524D01*
X4409286Y-13129524D02*
X4533095Y-13129524D01*
X4533095Y-13129524D02*
X4466429Y-13205714D01*
X4466429Y-13205714D02*
X4495000Y-13205714D01*
X4495000Y-13205714D02*
X4514048Y-13215238D01*
X4514048Y-13215238D02*
X4523571Y-13224762D01*
X4523571Y-13224762D02*
X4533095Y-13243809D01*
X4533095Y-13243809D02*
X4533095Y-13291428D01*
X4533095Y-13291428D02*
X4523571Y-13310476D01*
X4523571Y-13310476D02*
X4514048Y-13320000D01*
X4514048Y-13320000D02*
X4495000Y-13329524D01*
X4495000Y-13329524D02*
X4437857Y-13329524D01*
X4437857Y-13329524D02*
X4418810Y-13320000D01*
X4418810Y-13320000D02*
X4409286Y-13310476D01*
X4656905Y-13129524D02*
X4675952Y-13129524D01*
X4675952Y-13129524D02*
X4695000Y-13139048D01*
X4695000Y-13139048D02*
X4704524Y-13148571D01*
X4704524Y-13148571D02*
X4714048Y-13167619D01*
X4714048Y-13167619D02*
X4723571Y-13205714D01*
X4723571Y-13205714D02*
X4723571Y-13253333D01*
X4723571Y-13253333D02*
X4714048Y-13291428D01*
X4714048Y-13291428D02*
X4704524Y-13310476D01*
X4704524Y-13310476D02*
X4695000Y-13320000D01*
X4695000Y-13320000D02*
X4675952Y-13329524D01*
X4675952Y-13329524D02*
X4656905Y-13329524D01*
X4656905Y-13329524D02*
X4637857Y-13320000D01*
X4637857Y-13320000D02*
X4628333Y-13310476D01*
X4628333Y-13310476D02*
X4618810Y-13291428D01*
X4618810Y-13291428D02*
X4609286Y-13253333D01*
X4609286Y-13253333D02*
X4609286Y-13205714D01*
X4609286Y-13205714D02*
X4618810Y-13167619D01*
X4618810Y-13167619D02*
X4628333Y-13148571D01*
X4628333Y-13148571D02*
X4637857Y-13139048D01*
X4637857Y-13139048D02*
X4656905Y-13129524D01*
X4847381Y-13129524D02*
X4866429Y-13129524D01*
X4866429Y-13129524D02*
X4885476Y-13139048D01*
X4885476Y-13139048D02*
X4895000Y-13148571D01*
X4895000Y-13148571D02*
X4904524Y-13167619D01*
X4904524Y-13167619D02*
X4914048Y-13205714D01*
X4914048Y-13205714D02*
X4914048Y-13253333D01*
X4914048Y-13253333D02*
X4904524Y-13291428D01*
X4904524Y-13291428D02*
X4895000Y-13310476D01*
X4895000Y-13310476D02*
X4885476Y-13320000D01*
X4885476Y-13320000D02*
X4866429Y-13329524D01*
X4866429Y-13329524D02*
X4847381Y-13329524D01*
X4847381Y-13329524D02*
X4828333Y-13320000D01*
X4828333Y-13320000D02*
X4818810Y-13310476D01*
X4818810Y-13310476D02*
X4809286Y-13291428D01*
X4809286Y-13291428D02*
X4799762Y-13253333D01*
X4799762Y-13253333D02*
X4799762Y-13205714D01*
X4799762Y-13205714D02*
X4809286Y-13167619D01*
X4809286Y-13167619D02*
X4818810Y-13148571D01*
X4818810Y-13148571D02*
X4828333Y-13139048D01*
X4828333Y-13139048D02*
X4847381Y-13129524D01*
X4999762Y-13329524D02*
X4999762Y-13196190D01*
X4999762Y-13215238D02*
X5009286Y-13205714D01*
X5009286Y-13205714D02*
X5028333Y-13196190D01*
X5028333Y-13196190D02*
X5056905Y-13196190D01*
X5056905Y-13196190D02*
X5075952Y-13205714D01*
X5075952Y-13205714D02*
X5085476Y-13224762D01*
X5085476Y-13224762D02*
X5085476Y-13329524D01*
X5085476Y-13224762D02*
X5095000Y-13205714D01*
X5095000Y-13205714D02*
X5114048Y-13196190D01*
X5114048Y-13196190D02*
X5142619Y-13196190D01*
X5142619Y-13196190D02*
X5161667Y-13205714D01*
X5161667Y-13205714D02*
X5171191Y-13224762D01*
X5171191Y-13224762D02*
X5171191Y-13329524D01*
X5266429Y-13329524D02*
X5266429Y-13196190D01*
X5266429Y-13215238D02*
X5275952Y-13205714D01*
X5275952Y-13205714D02*
X5295000Y-13196190D01*
X5295000Y-13196190D02*
X5323572Y-13196190D01*
X5323572Y-13196190D02*
X5342619Y-13205714D01*
X5342619Y-13205714D02*
X5352143Y-13224762D01*
X5352143Y-13224762D02*
X5352143Y-13329524D01*
X5352143Y-13224762D02*
X5361667Y-13205714D01*
X5361667Y-13205714D02*
X5380714Y-13196190D01*
X5380714Y-13196190D02*
X5409286Y-13196190D01*
X5409286Y-13196190D02*
X5428333Y-13205714D01*
X5428333Y-13205714D02*
X5437857Y-13224762D01*
X5437857Y-13224762D02*
X5437857Y-13329524D01*
X5828333Y-13120000D02*
X5656905Y-13377143D01*
X6085476Y-13129524D02*
X6104524Y-13129524D01*
X6104524Y-13129524D02*
X6123572Y-13139048D01*
X6123572Y-13139048D02*
X6133095Y-13148571D01*
X6133095Y-13148571D02*
X6142619Y-13167619D01*
X6142619Y-13167619D02*
X6152143Y-13205714D01*
X6152143Y-13205714D02*
X6152143Y-13253333D01*
X6152143Y-13253333D02*
X6142619Y-13291428D01*
X6142619Y-13291428D02*
X6133095Y-13310476D01*
X6133095Y-13310476D02*
X6123572Y-13320000D01*
X6123572Y-13320000D02*
X6104524Y-13329524D01*
X6104524Y-13329524D02*
X6085476Y-13329524D01*
X6085476Y-13329524D02*
X6066429Y-13320000D01*
X6066429Y-13320000D02*
X6056905Y-13310476D01*
X6056905Y-13310476D02*
X6047381Y-13291428D01*
X6047381Y-13291428D02*
X6037857Y-13253333D01*
X6037857Y-13253333D02*
X6037857Y-13205714D01*
X6037857Y-13205714D02*
X6047381Y-13167619D01*
X6047381Y-13167619D02*
X6056905Y-13148571D01*
X6056905Y-13148571D02*
X6066429Y-13139048D01*
X6066429Y-13139048D02*
X6085476Y-13129524D01*
X6237857Y-13310476D02*
X6247381Y-13320000D01*
X6247381Y-13320000D02*
X6237857Y-13329524D01*
X6237857Y-13329524D02*
X6228333Y-13320000D01*
X6228333Y-13320000D02*
X6237857Y-13310476D01*
X6237857Y-13310476D02*
X6237857Y-13329524D01*
X6371191Y-13129524D02*
X6390238Y-13129524D01*
X6390238Y-13129524D02*
X6409286Y-13139048D01*
X6409286Y-13139048D02*
X6418810Y-13148571D01*
X6418810Y-13148571D02*
X6428333Y-13167619D01*
X6428333Y-13167619D02*
X6437857Y-13205714D01*
X6437857Y-13205714D02*
X6437857Y-13253333D01*
X6437857Y-13253333D02*
X6428333Y-13291428D01*
X6428333Y-13291428D02*
X6418810Y-13310476D01*
X6418810Y-13310476D02*
X6409286Y-13320000D01*
X6409286Y-13320000D02*
X6390238Y-13329524D01*
X6390238Y-13329524D02*
X6371191Y-13329524D01*
X6371191Y-13329524D02*
X6352143Y-13320000D01*
X6352143Y-13320000D02*
X6342619Y-13310476D01*
X6342619Y-13310476D02*
X6333095Y-13291428D01*
X6333095Y-13291428D02*
X6323572Y-13253333D01*
X6323572Y-13253333D02*
X6323572Y-13205714D01*
X6323572Y-13205714D02*
X6333095Y-13167619D01*
X6333095Y-13167619D02*
X6342619Y-13148571D01*
X6342619Y-13148571D02*
X6352143Y-13139048D01*
X6352143Y-13139048D02*
X6371191Y-13129524D01*
X6618810Y-13129524D02*
X6523572Y-13129524D01*
X6523572Y-13129524D02*
X6514048Y-13224762D01*
X6514048Y-13224762D02*
X6523572Y-13215238D01*
X6523572Y-13215238D02*
X6542619Y-13205714D01*
X6542619Y-13205714D02*
X6590238Y-13205714D01*
X6590238Y-13205714D02*
X6609286Y-13215238D01*
X6609286Y-13215238D02*
X6618810Y-13224762D01*
X6618810Y-13224762D02*
X6628333Y-13243809D01*
X6628333Y-13243809D02*
X6628333Y-13291428D01*
X6628333Y-13291428D02*
X6618810Y-13310476D01*
X6618810Y-13310476D02*
X6609286Y-13320000D01*
X6609286Y-13320000D02*
X6590238Y-13329524D01*
X6590238Y-13329524D02*
X6542619Y-13329524D01*
X6542619Y-13329524D02*
X6523572Y-13320000D01*
X6523572Y-13320000D02*
X6514048Y-13310476D01*
X6818810Y-13329524D02*
X6704524Y-13329524D01*
X6761667Y-13329524D02*
X6761667Y-13129524D01*
X6761667Y-13129524D02*
X6742619Y-13158095D01*
X6742619Y-13158095D02*
X6723572Y-13177143D01*
X6723572Y-13177143D02*
X6704524Y-13186667D01*
X6895000Y-13148571D02*
X6904524Y-13139048D01*
X6904524Y-13139048D02*
X6923572Y-13129524D01*
X6923572Y-13129524D02*
X6971191Y-13129524D01*
X6971191Y-13129524D02*
X6990238Y-13139048D01*
X6990238Y-13139048D02*
X6999762Y-13148571D01*
X6999762Y-13148571D02*
X7009286Y-13167619D01*
X7009286Y-13167619D02*
X7009286Y-13186667D01*
X7009286Y-13186667D02*
X6999762Y-13215238D01*
X6999762Y-13215238D02*
X6885476Y-13329524D01*
X6885476Y-13329524D02*
X7009286Y-13329524D01*
X7085476Y-13129524D02*
X7085476Y-13167619D01*
X7161667Y-13129524D02*
X7161667Y-13167619D01*
X7456905Y-13405714D02*
X7447381Y-13396190D01*
X7447381Y-13396190D02*
X7428334Y-13367619D01*
X7428334Y-13367619D02*
X7418810Y-13348571D01*
X7418810Y-13348571D02*
X7409286Y-13320000D01*
X7409286Y-13320000D02*
X7399762Y-13272381D01*
X7399762Y-13272381D02*
X7399762Y-13234286D01*
X7399762Y-13234286D02*
X7409286Y-13186667D01*
X7409286Y-13186667D02*
X7418810Y-13158095D01*
X7418810Y-13158095D02*
X7428334Y-13139048D01*
X7428334Y-13139048D02*
X7447381Y-13110476D01*
X7447381Y-13110476D02*
X7456905Y-13100952D01*
X7637857Y-13329524D02*
X7523572Y-13329524D01*
X7580714Y-13329524D02*
X7580714Y-13129524D01*
X7580714Y-13129524D02*
X7561667Y-13158095D01*
X7561667Y-13158095D02*
X7542619Y-13177143D01*
X7542619Y-13177143D02*
X7523572Y-13186667D01*
X7761667Y-13129524D02*
X7780715Y-13129524D01*
X7780715Y-13129524D02*
X7799762Y-13139048D01*
X7799762Y-13139048D02*
X7809286Y-13148571D01*
X7809286Y-13148571D02*
X7818810Y-13167619D01*
X7818810Y-13167619D02*
X7828334Y-13205714D01*
X7828334Y-13205714D02*
X7828334Y-13253333D01*
X7828334Y-13253333D02*
X7818810Y-13291428D01*
X7818810Y-13291428D02*
X7809286Y-13310476D01*
X7809286Y-13310476D02*
X7799762Y-13320000D01*
X7799762Y-13320000D02*
X7780715Y-13329524D01*
X7780715Y-13329524D02*
X7761667Y-13329524D01*
X7761667Y-13329524D02*
X7742619Y-13320000D01*
X7742619Y-13320000D02*
X7733095Y-13310476D01*
X7733095Y-13310476D02*
X7723572Y-13291428D01*
X7723572Y-13291428D02*
X7714048Y-13253333D01*
X7714048Y-13253333D02*
X7714048Y-13205714D01*
X7714048Y-13205714D02*
X7723572Y-13167619D01*
X7723572Y-13167619D02*
X7733095Y-13148571D01*
X7733095Y-13148571D02*
X7742619Y-13139048D01*
X7742619Y-13139048D02*
X7761667Y-13129524D01*
X8066429Y-13329524D02*
X8066429Y-13129524D01*
X8152143Y-13329524D02*
X8152143Y-13224762D01*
X8152143Y-13224762D02*
X8142619Y-13205714D01*
X8142619Y-13205714D02*
X8123572Y-13196190D01*
X8123572Y-13196190D02*
X8095000Y-13196190D01*
X8095000Y-13196190D02*
X8075953Y-13205714D01*
X8075953Y-13205714D02*
X8066429Y-13215238D01*
X8275953Y-13329524D02*
X8256905Y-13320000D01*
X8256905Y-13320000D02*
X8247381Y-13310476D01*
X8247381Y-13310476D02*
X8237857Y-13291428D01*
X8237857Y-13291428D02*
X8237857Y-13234286D01*
X8237857Y-13234286D02*
X8247381Y-13215238D01*
X8247381Y-13215238D02*
X8256905Y-13205714D01*
X8256905Y-13205714D02*
X8275953Y-13196190D01*
X8275953Y-13196190D02*
X8304524Y-13196190D01*
X8304524Y-13196190D02*
X8323572Y-13205714D01*
X8323572Y-13205714D02*
X8333096Y-13215238D01*
X8333096Y-13215238D02*
X8342619Y-13234286D01*
X8342619Y-13234286D02*
X8342619Y-13291428D01*
X8342619Y-13291428D02*
X8333096Y-13310476D01*
X8333096Y-13310476D02*
X8323572Y-13320000D01*
X8323572Y-13320000D02*
X8304524Y-13329524D01*
X8304524Y-13329524D02*
X8275953Y-13329524D01*
X8456905Y-13329524D02*
X8437858Y-13320000D01*
X8437858Y-13320000D02*
X8428334Y-13300952D01*
X8428334Y-13300952D02*
X8428334Y-13129524D01*
X8609286Y-13320000D02*
X8590239Y-13329524D01*
X8590239Y-13329524D02*
X8552143Y-13329524D01*
X8552143Y-13329524D02*
X8533096Y-13320000D01*
X8533096Y-13320000D02*
X8523572Y-13300952D01*
X8523572Y-13300952D02*
X8523572Y-13224762D01*
X8523572Y-13224762D02*
X8533096Y-13205714D01*
X8533096Y-13205714D02*
X8552143Y-13196190D01*
X8552143Y-13196190D02*
X8590239Y-13196190D01*
X8590239Y-13196190D02*
X8609286Y-13205714D01*
X8609286Y-13205714D02*
X8618810Y-13224762D01*
X8618810Y-13224762D02*
X8618810Y-13243809D01*
X8618810Y-13243809D02*
X8523572Y-13262857D01*
X8695000Y-13320000D02*
X8714048Y-13329524D01*
X8714048Y-13329524D02*
X8752143Y-13329524D01*
X8752143Y-13329524D02*
X8771191Y-13320000D01*
X8771191Y-13320000D02*
X8780715Y-13300952D01*
X8780715Y-13300952D02*
X8780715Y-13291428D01*
X8780715Y-13291428D02*
X8771191Y-13272381D01*
X8771191Y-13272381D02*
X8752143Y-13262857D01*
X8752143Y-13262857D02*
X8723572Y-13262857D01*
X8723572Y-13262857D02*
X8704524Y-13253333D01*
X8704524Y-13253333D02*
X8695000Y-13234286D01*
X8695000Y-13234286D02*
X8695000Y-13224762D01*
X8695000Y-13224762D02*
X8704524Y-13205714D01*
X8704524Y-13205714D02*
X8723572Y-13196190D01*
X8723572Y-13196190D02*
X8752143Y-13196190D01*
X8752143Y-13196190D02*
X8771191Y-13205714D01*
X8847381Y-13405714D02*
X8856905Y-13396190D01*
X8856905Y-13396190D02*
X8875953Y-13367619D01*
X8875953Y-13367619D02*
X8885477Y-13348571D01*
X8885477Y-13348571D02*
X8895000Y-13320000D01*
X8895000Y-13320000D02*
X8904524Y-13272381D01*
X8904524Y-13272381D02*
X8904524Y-13234286D01*
X8904524Y-13234286D02*
X8895000Y-13186667D01*
X8895000Y-13186667D02*
X8885477Y-13158095D01*
X8885477Y-13158095D02*
X8875953Y-13139048D01*
X8875953Y-13139048D02*
X8856905Y-13110476D01*
X8856905Y-13110476D02*
X8847381Y-13100952D01*
X3795000Y-13601000D02*
X3895000Y-13501000D01*
X3795000Y-13401000D01*
X3695000Y-13501000D01*
X3795000Y-13601000D01*
X4123571Y-13393524D02*
X4247381Y-13393524D01*
X4247381Y-13393524D02*
X4180714Y-13469714D01*
X4180714Y-13469714D02*
X4209286Y-13469714D01*
X4209286Y-13469714D02*
X4228333Y-13479238D01*
X4228333Y-13479238D02*
X4237857Y-13488762D01*
X4237857Y-13488762D02*
X4247381Y-13507809D01*
X4247381Y-13507809D02*
X4247381Y-13555428D01*
X4247381Y-13555428D02*
X4237857Y-13574476D01*
X4237857Y-13574476D02*
X4228333Y-13584000D01*
X4228333Y-13584000D02*
X4209286Y-13593524D01*
X4209286Y-13593524D02*
X4152143Y-13593524D01*
X4152143Y-13593524D02*
X4133095Y-13584000D01*
X4133095Y-13584000D02*
X4123571Y-13574476D01*
X4333095Y-13574476D02*
X4342619Y-13584000D01*
X4342619Y-13584000D02*
X4333095Y-13593524D01*
X4333095Y-13593524D02*
X4323571Y-13584000D01*
X4323571Y-13584000D02*
X4333095Y-13574476D01*
X4333095Y-13574476D02*
X4333095Y-13593524D01*
X4418810Y-13412571D02*
X4428333Y-13403048D01*
X4428333Y-13403048D02*
X4447381Y-13393524D01*
X4447381Y-13393524D02*
X4495000Y-13393524D01*
X4495000Y-13393524D02*
X4514048Y-13403048D01*
X4514048Y-13403048D02*
X4523571Y-13412571D01*
X4523571Y-13412571D02*
X4533095Y-13431619D01*
X4533095Y-13431619D02*
X4533095Y-13450667D01*
X4533095Y-13450667D02*
X4523571Y-13479238D01*
X4523571Y-13479238D02*
X4409286Y-13593524D01*
X4409286Y-13593524D02*
X4533095Y-13593524D01*
X4656905Y-13393524D02*
X4675952Y-13393524D01*
X4675952Y-13393524D02*
X4695000Y-13403048D01*
X4695000Y-13403048D02*
X4704524Y-13412571D01*
X4704524Y-13412571D02*
X4714048Y-13431619D01*
X4714048Y-13431619D02*
X4723571Y-13469714D01*
X4723571Y-13469714D02*
X4723571Y-13517333D01*
X4723571Y-13517333D02*
X4714048Y-13555428D01*
X4714048Y-13555428D02*
X4704524Y-13574476D01*
X4704524Y-13574476D02*
X4695000Y-13584000D01*
X4695000Y-13584000D02*
X4675952Y-13593524D01*
X4675952Y-13593524D02*
X4656905Y-13593524D01*
X4656905Y-13593524D02*
X4637857Y-13584000D01*
X4637857Y-13584000D02*
X4628333Y-13574476D01*
X4628333Y-13574476D02*
X4618810Y-13555428D01*
X4618810Y-13555428D02*
X4609286Y-13517333D01*
X4609286Y-13517333D02*
X4609286Y-13469714D01*
X4609286Y-13469714D02*
X4618810Y-13431619D01*
X4618810Y-13431619D02*
X4628333Y-13412571D01*
X4628333Y-13412571D02*
X4637857Y-13403048D01*
X4637857Y-13403048D02*
X4656905Y-13393524D01*
X4847381Y-13393524D02*
X4866429Y-13393524D01*
X4866429Y-13393524D02*
X4885476Y-13403048D01*
X4885476Y-13403048D02*
X4895000Y-13412571D01*
X4895000Y-13412571D02*
X4904524Y-13431619D01*
X4904524Y-13431619D02*
X4914048Y-13469714D01*
X4914048Y-13469714D02*
X4914048Y-13517333D01*
X4914048Y-13517333D02*
X4904524Y-13555428D01*
X4904524Y-13555428D02*
X4895000Y-13574476D01*
X4895000Y-13574476D02*
X4885476Y-13584000D01*
X4885476Y-13584000D02*
X4866429Y-13593524D01*
X4866429Y-13593524D02*
X4847381Y-13593524D01*
X4847381Y-13593524D02*
X4828333Y-13584000D01*
X4828333Y-13584000D02*
X4818810Y-13574476D01*
X4818810Y-13574476D02*
X4809286Y-13555428D01*
X4809286Y-13555428D02*
X4799762Y-13517333D01*
X4799762Y-13517333D02*
X4799762Y-13469714D01*
X4799762Y-13469714D02*
X4809286Y-13431619D01*
X4809286Y-13431619D02*
X4818810Y-13412571D01*
X4818810Y-13412571D02*
X4828333Y-13403048D01*
X4828333Y-13403048D02*
X4847381Y-13393524D01*
X4999762Y-13593524D02*
X4999762Y-13460190D01*
X4999762Y-13479238D02*
X5009286Y-13469714D01*
X5009286Y-13469714D02*
X5028333Y-13460190D01*
X5028333Y-13460190D02*
X5056905Y-13460190D01*
X5056905Y-13460190D02*
X5075952Y-13469714D01*
X5075952Y-13469714D02*
X5085476Y-13488762D01*
X5085476Y-13488762D02*
X5085476Y-13593524D01*
X5085476Y-13488762D02*
X5095000Y-13469714D01*
X5095000Y-13469714D02*
X5114048Y-13460190D01*
X5114048Y-13460190D02*
X5142619Y-13460190D01*
X5142619Y-13460190D02*
X5161667Y-13469714D01*
X5161667Y-13469714D02*
X5171191Y-13488762D01*
X5171191Y-13488762D02*
X5171191Y-13593524D01*
X5266429Y-13593524D02*
X5266429Y-13460190D01*
X5266429Y-13479238D02*
X5275952Y-13469714D01*
X5275952Y-13469714D02*
X5295000Y-13460190D01*
X5295000Y-13460190D02*
X5323572Y-13460190D01*
X5323572Y-13460190D02*
X5342619Y-13469714D01*
X5342619Y-13469714D02*
X5352143Y-13488762D01*
X5352143Y-13488762D02*
X5352143Y-13593524D01*
X5352143Y-13488762D02*
X5361667Y-13469714D01*
X5361667Y-13469714D02*
X5380714Y-13460190D01*
X5380714Y-13460190D02*
X5409286Y-13460190D01*
X5409286Y-13460190D02*
X5428333Y-13469714D01*
X5428333Y-13469714D02*
X5437857Y-13488762D01*
X5437857Y-13488762D02*
X5437857Y-13593524D01*
X5828333Y-13384000D02*
X5656905Y-13641143D01*
X6085476Y-13393524D02*
X6104524Y-13393524D01*
X6104524Y-13393524D02*
X6123572Y-13403048D01*
X6123572Y-13403048D02*
X6133095Y-13412571D01*
X6133095Y-13412571D02*
X6142619Y-13431619D01*
X6142619Y-13431619D02*
X6152143Y-13469714D01*
X6152143Y-13469714D02*
X6152143Y-13517333D01*
X6152143Y-13517333D02*
X6142619Y-13555428D01*
X6142619Y-13555428D02*
X6133095Y-13574476D01*
X6133095Y-13574476D02*
X6123572Y-13584000D01*
X6123572Y-13584000D02*
X6104524Y-13593524D01*
X6104524Y-13593524D02*
X6085476Y-13593524D01*
X6085476Y-13593524D02*
X6066429Y-13584000D01*
X6066429Y-13584000D02*
X6056905Y-13574476D01*
X6056905Y-13574476D02*
X6047381Y-13555428D01*
X6047381Y-13555428D02*
X6037857Y-13517333D01*
X6037857Y-13517333D02*
X6037857Y-13469714D01*
X6037857Y-13469714D02*
X6047381Y-13431619D01*
X6047381Y-13431619D02*
X6056905Y-13412571D01*
X6056905Y-13412571D02*
X6066429Y-13403048D01*
X6066429Y-13403048D02*
X6085476Y-13393524D01*
X6237857Y-13574476D02*
X6247381Y-13584000D01*
X6247381Y-13584000D02*
X6237857Y-13593524D01*
X6237857Y-13593524D02*
X6228333Y-13584000D01*
X6228333Y-13584000D02*
X6237857Y-13574476D01*
X6237857Y-13574476D02*
X6237857Y-13593524D01*
X6437857Y-13593524D02*
X6323572Y-13593524D01*
X6380714Y-13593524D02*
X6380714Y-13393524D01*
X6380714Y-13393524D02*
X6361667Y-13422095D01*
X6361667Y-13422095D02*
X6342619Y-13441143D01*
X6342619Y-13441143D02*
X6323572Y-13450667D01*
X6514048Y-13412571D02*
X6523572Y-13403048D01*
X6523572Y-13403048D02*
X6542619Y-13393524D01*
X6542619Y-13393524D02*
X6590238Y-13393524D01*
X6590238Y-13393524D02*
X6609286Y-13403048D01*
X6609286Y-13403048D02*
X6618810Y-13412571D01*
X6618810Y-13412571D02*
X6628333Y-13431619D01*
X6628333Y-13431619D02*
X6628333Y-13450667D01*
X6628333Y-13450667D02*
X6618810Y-13479238D01*
X6618810Y-13479238D02*
X6504524Y-13593524D01*
X6504524Y-13593524D02*
X6628333Y-13593524D01*
X6799762Y-13393524D02*
X6761667Y-13393524D01*
X6761667Y-13393524D02*
X6742619Y-13403048D01*
X6742619Y-13403048D02*
X6733095Y-13412571D01*
X6733095Y-13412571D02*
X6714048Y-13441143D01*
X6714048Y-13441143D02*
X6704524Y-13479238D01*
X6704524Y-13479238D02*
X6704524Y-13555428D01*
X6704524Y-13555428D02*
X6714048Y-13574476D01*
X6714048Y-13574476D02*
X6723572Y-13584000D01*
X6723572Y-13584000D02*
X6742619Y-13593524D01*
X6742619Y-13593524D02*
X6780714Y-13593524D01*
X6780714Y-13593524D02*
X6799762Y-13584000D01*
X6799762Y-13584000D02*
X6809286Y-13574476D01*
X6809286Y-13574476D02*
X6818810Y-13555428D01*
X6818810Y-13555428D02*
X6818810Y-13507809D01*
X6818810Y-13507809D02*
X6809286Y-13488762D01*
X6809286Y-13488762D02*
X6799762Y-13479238D01*
X6799762Y-13479238D02*
X6780714Y-13469714D01*
X6780714Y-13469714D02*
X6742619Y-13469714D01*
X6742619Y-13469714D02*
X6723572Y-13479238D01*
X6723572Y-13479238D02*
X6714048Y-13488762D01*
X6714048Y-13488762D02*
X6704524Y-13507809D01*
X6942619Y-13393524D02*
X6961667Y-13393524D01*
X6961667Y-13393524D02*
X6980714Y-13403048D01*
X6980714Y-13403048D02*
X6990238Y-13412571D01*
X6990238Y-13412571D02*
X6999762Y-13431619D01*
X6999762Y-13431619D02*
X7009286Y-13469714D01*
X7009286Y-13469714D02*
X7009286Y-13517333D01*
X7009286Y-13517333D02*
X6999762Y-13555428D01*
X6999762Y-13555428D02*
X6990238Y-13574476D01*
X6990238Y-13574476D02*
X6980714Y-13584000D01*
X6980714Y-13584000D02*
X6961667Y-13593524D01*
X6961667Y-13593524D02*
X6942619Y-13593524D01*
X6942619Y-13593524D02*
X6923572Y-13584000D01*
X6923572Y-13584000D02*
X6914048Y-13574476D01*
X6914048Y-13574476D02*
X6904524Y-13555428D01*
X6904524Y-13555428D02*
X6895000Y-13517333D01*
X6895000Y-13517333D02*
X6895000Y-13469714D01*
X6895000Y-13469714D02*
X6904524Y-13431619D01*
X6904524Y-13431619D02*
X6914048Y-13412571D01*
X6914048Y-13412571D02*
X6923572Y-13403048D01*
X6923572Y-13403048D02*
X6942619Y-13393524D01*
X7085476Y-13393524D02*
X7085476Y-13431619D01*
X7161667Y-13393524D02*
X7161667Y-13431619D01*
X7456905Y-13669714D02*
X7447381Y-13660190D01*
X7447381Y-13660190D02*
X7428334Y-13631619D01*
X7428334Y-13631619D02*
X7418810Y-13612571D01*
X7418810Y-13612571D02*
X7409286Y-13584000D01*
X7409286Y-13584000D02*
X7399762Y-13536381D01*
X7399762Y-13536381D02*
X7399762Y-13498286D01*
X7399762Y-13498286D02*
X7409286Y-13450667D01*
X7409286Y-13450667D02*
X7418810Y-13422095D01*
X7418810Y-13422095D02*
X7428334Y-13403048D01*
X7428334Y-13403048D02*
X7447381Y-13374476D01*
X7447381Y-13374476D02*
X7456905Y-13364952D01*
X7618810Y-13460190D02*
X7618810Y-13593524D01*
X7571191Y-13384000D02*
X7523572Y-13526857D01*
X7523572Y-13526857D02*
X7647381Y-13526857D01*
X7875953Y-13593524D02*
X7875953Y-13393524D01*
X7961667Y-13593524D02*
X7961667Y-13488762D01*
X7961667Y-13488762D02*
X7952143Y-13469714D01*
X7952143Y-13469714D02*
X7933096Y-13460190D01*
X7933096Y-13460190D02*
X7904524Y-13460190D01*
X7904524Y-13460190D02*
X7885476Y-13469714D01*
X7885476Y-13469714D02*
X7875953Y-13479238D01*
X8085476Y-13593524D02*
X8066429Y-13584000D01*
X8066429Y-13584000D02*
X8056905Y-13574476D01*
X8056905Y-13574476D02*
X8047381Y-13555428D01*
X8047381Y-13555428D02*
X8047381Y-13498286D01*
X8047381Y-13498286D02*
X8056905Y-13479238D01*
X8056905Y-13479238D02*
X8066429Y-13469714D01*
X8066429Y-13469714D02*
X8085476Y-13460190D01*
X8085476Y-13460190D02*
X8114048Y-13460190D01*
X8114048Y-13460190D02*
X8133096Y-13469714D01*
X8133096Y-13469714D02*
X8142619Y-13479238D01*
X8142619Y-13479238D02*
X8152143Y-13498286D01*
X8152143Y-13498286D02*
X8152143Y-13555428D01*
X8152143Y-13555428D02*
X8142619Y-13574476D01*
X8142619Y-13574476D02*
X8133096Y-13584000D01*
X8133096Y-13584000D02*
X8114048Y-13593524D01*
X8114048Y-13593524D02*
X8085476Y-13593524D01*
X8266429Y-13593524D02*
X8247381Y-13584000D01*
X8247381Y-13584000D02*
X8237857Y-13564952D01*
X8237857Y-13564952D02*
X8237857Y-13393524D01*
X8418810Y-13584000D02*
X8399762Y-13593524D01*
X8399762Y-13593524D02*
X8361667Y-13593524D01*
X8361667Y-13593524D02*
X8342619Y-13584000D01*
X8342619Y-13584000D02*
X8333096Y-13564952D01*
X8333096Y-13564952D02*
X8333096Y-13488762D01*
X8333096Y-13488762D02*
X8342619Y-13469714D01*
X8342619Y-13469714D02*
X8361667Y-13460190D01*
X8361667Y-13460190D02*
X8399762Y-13460190D01*
X8399762Y-13460190D02*
X8418810Y-13469714D01*
X8418810Y-13469714D02*
X8428334Y-13488762D01*
X8428334Y-13488762D02*
X8428334Y-13507809D01*
X8428334Y-13507809D02*
X8333096Y-13526857D01*
X8504524Y-13584000D02*
X8523572Y-13593524D01*
X8523572Y-13593524D02*
X8561667Y-13593524D01*
X8561667Y-13593524D02*
X8580715Y-13584000D01*
X8580715Y-13584000D02*
X8590239Y-13564952D01*
X8590239Y-13564952D02*
X8590239Y-13555428D01*
X8590239Y-13555428D02*
X8580715Y-13536381D01*
X8580715Y-13536381D02*
X8561667Y-13526857D01*
X8561667Y-13526857D02*
X8533096Y-13526857D01*
X8533096Y-13526857D02*
X8514048Y-13517333D01*
X8514048Y-13517333D02*
X8504524Y-13498286D01*
X8504524Y-13498286D02*
X8504524Y-13488762D01*
X8504524Y-13488762D02*
X8514048Y-13469714D01*
X8514048Y-13469714D02*
X8533096Y-13460190D01*
X8533096Y-13460190D02*
X8561667Y-13460190D01*
X8561667Y-13460190D02*
X8580715Y-13469714D01*
X8656905Y-13669714D02*
X8666429Y-13660190D01*
X8666429Y-13660190D02*
X8685477Y-13631619D01*
X8685477Y-13631619D02*
X8695000Y-13612571D01*
X8695000Y-13612571D02*
X8704524Y-13584000D01*
X8704524Y-13584000D02*
X8714048Y-13536381D01*
X8714048Y-13536381D02*
X8714048Y-13498286D01*
X8714048Y-13498286D02*
X8704524Y-13450667D01*
X8704524Y-13450667D02*
X8695000Y-13422095D01*
X8695000Y-13422095D02*
X8685477Y-13403048D01*
X8685477Y-13403048D02*
X8666429Y-13374476D01*
X8666429Y-13374476D02*
X8656905Y-13364952D01*
M02*
