G04 #@! TF.GenerationSoftware,KiCad,Pcbnew,7.0.1*
G04 #@! TF.CreationDate,2023-05-03T08:49:02+02:00*
G04 #@! TF.ProjectId,Dual_BPF,4475616c-5f42-4504-962e-6b696361645f,rev?*
G04 #@! TF.SameCoordinates,Original*
G04 #@! TF.FileFunction,Paste,Bot*
G04 #@! TF.FilePolarity,Positive*
%FSLAX46Y46*%
G04 Gerber Fmt 4.6, Leading zero omitted, Abs format (unit mm)*
G04 Created by KiCad (PCBNEW 7.0.1) date 2023-05-03 08:49:02*
%MOMM*%
%LPD*%
G01*
G04 APERTURE LIST*
G04 Aperture macros list*
%AMRoundRect*
0 Rectangle with rounded corners*
0 $1 Rounding radius*
0 $2 $3 $4 $5 $6 $7 $8 $9 X,Y pos of 4 corners*
0 Add a 4 corners polygon primitive as box body*
4,1,4,$2,$3,$4,$5,$6,$7,$8,$9,$2,$3,0*
0 Add four circle primitives for the rounded corners*
1,1,$1+$1,$2,$3*
1,1,$1+$1,$4,$5*
1,1,$1+$1,$6,$7*
1,1,$1+$1,$8,$9*
0 Add four rect primitives between the rounded corners*
20,1,$1+$1,$2,$3,$4,$5,0*
20,1,$1+$1,$4,$5,$6,$7,0*
20,1,$1+$1,$6,$7,$8,$9,0*
20,1,$1+$1,$8,$9,$2,$3,0*%
G04 Aperture macros list end*
%ADD10RoundRect,0.250000X-0.337500X-0.475000X0.337500X-0.475000X0.337500X0.475000X-0.337500X0.475000X0*%
%ADD11RoundRect,0.250000X0.337500X0.475000X-0.337500X0.475000X-0.337500X-0.475000X0.337500X-0.475000X0*%
%ADD12RoundRect,0.218750X0.381250X-0.218750X0.381250X0.218750X-0.381250X0.218750X-0.381250X-0.218750X0*%
%ADD13RoundRect,0.218750X-0.381250X0.218750X-0.381250X-0.218750X0.381250X-0.218750X0.381250X0.218750X0*%
%ADD14RoundRect,0.250000X0.475000X-0.337500X0.475000X0.337500X-0.475000X0.337500X-0.475000X-0.337500X0*%
%ADD15RoundRect,0.250000X-0.350000X-0.450000X0.350000X-0.450000X0.350000X0.450000X-0.350000X0.450000X0*%
%ADD16RoundRect,0.250000X0.350000X0.450000X-0.350000X0.450000X-0.350000X-0.450000X0.350000X-0.450000X0*%
G04 APERTURE END LIST*
D10*
X47462500Y-91000000D03*
X49537500Y-91000000D03*
X47962500Y-70000000D03*
X50037500Y-70000000D03*
D11*
X94037500Y-38000000D03*
X91962500Y-38000000D03*
X94037500Y-51000000D03*
X91962500Y-51000000D03*
D12*
X97750000Y-48062500D03*
X97750000Y-45937500D03*
X97750000Y-64062500D03*
X97750000Y-61937500D03*
D10*
X47962500Y-83000000D03*
X50037500Y-83000000D03*
D13*
X44000000Y-57437500D03*
X44000000Y-59562500D03*
D11*
X94037500Y-75000000D03*
X91962500Y-75000000D03*
D10*
X47962500Y-78000000D03*
X50037500Y-78000000D03*
D13*
X43750000Y-93937500D03*
X43750000Y-96062500D03*
D11*
X94037500Y-62000000D03*
X91962500Y-62000000D03*
D13*
X44000000Y-73437500D03*
X44000000Y-75562500D03*
D10*
X47962500Y-51000000D03*
X50037500Y-51000000D03*
D13*
X44000000Y-65437500D03*
X44000000Y-67562500D03*
D10*
X47962500Y-62000000D03*
X50037500Y-62000000D03*
D12*
X44000000Y-43562500D03*
X44000000Y-41437500D03*
D10*
X47962500Y-46000000D03*
X50037500Y-46000000D03*
D11*
X94037500Y-59000000D03*
X91962500Y-59000000D03*
D12*
X98000000Y-56062500D03*
X98000000Y-53937500D03*
X98000000Y-40062500D03*
X98000000Y-37937500D03*
D11*
X94037500Y-67000000D03*
X91962500Y-67000000D03*
D12*
X97750000Y-93062500D03*
X97750000Y-90937500D03*
D11*
X94037500Y-54000000D03*
X91962500Y-54000000D03*
D14*
X66500000Y-102037500D03*
X66500000Y-99962500D03*
D10*
X47962500Y-96000000D03*
X50037500Y-96000000D03*
D14*
X66500000Y-106287500D03*
X66500000Y-104212500D03*
D10*
X47962500Y-59000000D03*
X50037500Y-59000000D03*
X47962500Y-54000000D03*
X50037500Y-54000000D03*
D11*
X94037500Y-83000000D03*
X91962500Y-83000000D03*
D10*
X47962500Y-38000000D03*
X50037500Y-38000000D03*
D13*
X44000000Y-48937500D03*
X44000000Y-51062500D03*
D10*
X47962500Y-75000000D03*
X50037500Y-75000000D03*
D11*
X94037500Y-43000000D03*
X91962500Y-43000000D03*
D10*
X47962500Y-67000000D03*
X50037500Y-67000000D03*
D11*
X94037500Y-78000000D03*
X91962500Y-78000000D03*
D15*
X50750000Y-104000000D03*
X52750000Y-104000000D03*
D12*
X98000000Y-72062500D03*
X98000000Y-69937500D03*
D11*
X94037500Y-96000000D03*
X91962500Y-96000000D03*
D13*
X44000000Y-81437500D03*
X44000000Y-83562500D03*
D11*
X94037500Y-46000000D03*
X91962500Y-46000000D03*
X94075000Y-91000000D03*
X92000000Y-91000000D03*
D10*
X47962500Y-43000000D03*
X50037500Y-43000000D03*
D11*
X94037500Y-70000000D03*
X91962500Y-70000000D03*
D16*
X52750000Y-101750000D03*
X50750000Y-101750000D03*
D12*
X97750000Y-80062500D03*
X97750000Y-77937500D03*
M02*
